  0
SECTION
  2
HEADER
  9
$ACADVER
  1
AC1018
  9
$ACADMAINTVER
 70
     0
  9
$DWGCODEPAGE
  3
ANSI_1252
  9
$INSBASE
 10
0.0
 20
0.0
 30
0.0
  9
$EXTMIN
 10
1.000000000000000E+20
 20
1.000000000000000E+20
 30
1.000000000000000E+20
  9
$EXTMAX
 10
-1.000000000000000E+20
 20
-1.000000000000000E+20
 30
-1.000000000000000E+20
  9
$LIMMIN
 10
0.0
 20
0.0
  9
$LIMMAX
 10
12.0
 20
9.0
  9
$ORTHOMODE
 70
     0
  9
$REGENMODE
 70
     1
  9
$FILLMODE
 70
     1
  9
$QTEXTMODE
 70
     0
  9
$MIRRTEXT
 70
     1
  9
$LTSCALE
 40
1.0
  9
$ATTMODE
 70
     1
  9
$TEXTSIZE
 40
0.2
  9
$TRACEWID
 40
0.05
  9
$TEXTSTYLE
  7
Standard
  9
$CLAYER
  8
0
  9
$CELTYPE
  6
ByLayer
  9
$CECOLOR
 62
   256
  9
$CELTSCALE
 40
1.0
  9
$DISPSILH
 70
     0
  9
$DIMSCALE
 40
1.0
  9
$DIMASZ
 40
0.18
  9
$DIMEXO
 40
0.0625
  9
$DIMDLI
 40
0.38
  9
$DIMRND
 40
0.0
  9
$DIMDLE
 40
0.0
  9
$DIMEXE
 40
0.18
  9
$DIMTP
 40
0.0
  9
$DIMTM
 40
0.0
  9
$DIMTXT
 40
0.18
  9
$DIMCEN
 40
0.09
  9
$DIMTSZ
 40
0.0
  9
$DIMTOL
 70
     0
  9
$DIMLIM
 70
     0
  9
$DIMTIH
 70
     1
  9
$DIMTOH
 70
     1
  9
$DIMSE1
 70
     0
  9
$DIMSE2
 70
     0
  9
$DIMTAD
 70
     0
  9
$DIMZIN
 70
     0
  9
$DIMBLK
  1

  9
$DIMASO
 70
     1
  9
$DIMSHO
 70
     1
  9
$DIMPOST
  1

  9
$DIMAPOST
  1

  9
$DIMALT
 70
     0
  9
$DIMALTD
 70
     2
  9
$DIMALTF
 40
25.4
  9
$DIMLFAC
 40
1.0
  9
$DIMTOFL
 70
     0
  9
$DIMTVP
 40
0.0
  9
$DIMTIX
 70
     0
  9
$DIMSOXD
 70
     0
  9
$DIMSAH
 70
     0
  9
$DIMBLK1
  1

  9
$DIMBLK2
  1

  9
$DIMSTYLE
  2
Standard
  9
$DIMCLRD
 70
     0
  9
$DIMCLRE
 70
     0
  9
$DIMCLRT
 70
     0
  9
$DIMTFAC
 40
1.0
  9
$DIMGAP
 40
0.09
  9
$DIMJUST
 70
     0
  9
$DIMSD1
 70
     0
  9
$DIMSD2
 70
     0
  9
$DIMTOLJ
 70
     1
  9
$DIMTZIN
 70
     0
  9
$DIMALTZ
 70
     0
  9
$DIMALTTZ
 70
     0
  9
$DIMUPT
 70
     0
  9
$DIMDEC
 70
     4
  9
$DIMTDEC
 70
     4
  9
$DIMALTU
 70
     2
  9
$DIMALTTD
 70
     2
  9
$DIMTXSTY
  7
Standard
  9
$DIMAUNIT
 70
     0
  9
$DIMADEC
 70
     0
  9
$DIMALTRND
 40
0.0
  9
$DIMAZIN
 70
     0
  9
$DIMDSEP
 70
    46
  9
$DIMATFIT
 70
     3
  9
$DIMFRAC
 70
     0
  9
$DIMLDRBLK
  1

  9
$DIMLUNIT
 70
     2
  9
$DIMLWD
 70
    -2
  9
$DIMLWE
 70
    -2
  9
$DIMTMOVE
 70
     0
  9
$LUNITS
 70
     2
  9
$LUPREC
 70
     4
  9
$SKETCHINC
 40
0.1
  9
$FILLETRAD
 40
0.5
  9
$AUNITS
 70
     0
  9
$AUPREC
 70
     0
  9
$MENU
  1
.
  9
$ELEVATION
 40
0.0
  9
$PELEVATION
 40
0.0
  9
$THICKNESS
 40
0.0
  9
$LIMCHECK
 70
     0
  9
$CHAMFERA
 40
0.5
  9
$CHAMFERB
 40
0.5
  9
$CHAMFERC
 40
1.0
  9
$CHAMFERD
 40
0.0
  9
$SKPOLY
 70
     0
  9
$TDCREATE
 40
2457668.791991539
  9
$TDUCREATE
 40
2457668.666991539
  9
$TDUPDATE
 40
2457668.791991551
  9
$TDUUPDATE
 40
2457668.666991551
  9
$TDINDWG
 40
0.0000000116
  9
$TDUSRTIMER
 40
0.0000000116
  9
$USRTIMER
 70
     1
  9
$ANGBASE
 50
0.0
  9
$ANGDIR
 70
     0
  9
$PDMODE
 70
     0
  9
$PDSIZE
 40
0.0
  9
$PLINEWID
 40
0.0
  9
$SPLFRAME
 70
     0
  9
$SPLINETYPE
 70
     6
  9
$SPLINESEGS
 70
     8
  9
$HANDSEED
  5
63
  9
$SURFTAB1
 70
     6
  9
$SURFTAB2
 70
     6
  9
$SURFTYPE
 70
     6
  9
$SURFU
 70
     6
  9
$SURFV
 70
     6
  9
$UCSBASE
  2

  9
$UCSNAME
  2

  9
$UCSORG
 10
0.0
 20
0.0
 30
0.0
  9
$UCSXDIR
 10
1.0
 20
0.0
 30
0.0
  9
$UCSYDIR
 10
0.0
 20
1.0
 30
0.0
  9
$UCSORTHOREF
  2

  9
$UCSORTHOVIEW
 70
     0
  9
$UCSORGTOP
 10
0.0
 20
0.0
 30
0.0
  9
$UCSORGBOTTOM
 10
0.0
 20
0.0
 30
0.0
  9
$UCSORGLEFT
 10
0.0
 20
0.0
 30
0.0
  9
$UCSORGRIGHT
 10
0.0
 20
0.0
 30
0.0
  9
$UCSORGFRONT
 10
0.0
 20
0.0
 30
0.0
  9
$UCSORGBACK
 10
0.0
 20
0.0
 30
0.0
  9
$PUCSBASE
  2

  9
$PUCSNAME
  2

  9
$PUCSORG
 10
0.0
 20
0.0
 30
0.0
  9
$PUCSXDIR
 10
1.0
 20
0.0
 30
0.0
  9
$PUCSYDIR
 10
0.0
 20
1.0
 30
0.0
  9
$PUCSORTHOREF
  2

  9
$PUCSORTHOVIEW
 70
     0
  9
$PUCSORGTOP
 10
0.0
 20
0.0
 30
0.0
  9
$PUCSORGBOTTOM
 10
0.0
 20
0.0
 30
0.0
  9
$PUCSORGLEFT
 10
0.0
 20
0.0
 30
0.0
  9
$PUCSORGRIGHT
 10
0.0
 20
0.0
 30
0.0
  9
$PUCSORGFRONT
 10
0.0
 20
0.0
 30
0.0
  9
$PUCSORGBACK
 10
0.0
 20
0.0
 30
0.0
  9
$USERI1
 70
     0
  9
$USERI2
 70
     0
  9
$USERI3
 70
     0
  9
$USERI4
 70
     0
  9
$USERI5
 70
     0
  9
$USERR1
 40
0.0
  9
$USERR2
 40
0.0
  9
$USERR3
 40
0.0
  9
$USERR4
 40
0.0
  9
$USERR5
 40
0.0
  9
$WORLDVIEW
 70
     1
  9
$SHADEDGE
 70
     3
  9
$SHADEDIF
 70
    70
  9
$TILEMODE
 70
     1
  9
$MAXACTVP
 70
    64
  9
$PINSBASE
 10
0.0
 20
0.0
 30
0.0
  9
$PLIMCHECK
 70
     0
  9
$PEXTMIN
 10
1.000000000000000E+20
 20
1.000000000000000E+20
 30
1.000000000000000E+20
  9
$PEXTMAX
 10
-1.000000000000000E+20
 20
-1.000000000000000E+20
 30
-1.000000000000000E+20
  9
$PLIMMIN
 10
0.0
 20
0.0
  9
$PLIMMAX
 10
12.0
 20
9.0
  9
$UNITMODE
 70
     0
  9
$VISRETAIN
 70
     1
  9
$PLINEGEN
 70
     0
  9
$PSLTSCALE
 70
     1
  9
$TREEDEPTH
 70
  3020
  9
$CMLSTYLE
  2
Standard
  9
$CMLJUST
 70
     0
  9
$CMLSCALE
 40
1.0
  9
$PROXYGRAPHICS
 70
     1
  9
$MEASUREMENT
 70
     0
  9
$CELWEIGHT
370
    -1
  9
$ENDCAPS
280
     0
  9
$JOINSTYLE
280
     0
  9
$LWDISPLAY
290
     1
  9
$INSUNITS
 70
     1
  9
$HYPERLINKBASE
  1

  9
$STYLESHEET
  1

  9
$XEDIT
290
     1
  9
$CEPSNTYPE
380
     0
  9
$PSTYLEMODE
290
     1
  9
$FINGERPRINTGUID
  2
{A4E5DEE5-47C7-4647-8340-D6594B7C2A67}
  9
$VERSIONGUID
  2
{FAEB1C32-E019-11D5-929B-00C0DF256EC4}
  9
$EXTNAMES
290
     1
  9
$PSVPSCALE
 40
0.0
  9
$OLESTARTUP
290
     0
  9
$SORTENTS
280
   127
  9
$INDEXCTL
280
     0
  9
$HIDETEXT
280
     1
  9
$XCLIPFRAME
290
     0
  9
$HALOGAP
280
     0
  9
$OBSCOLOR
 70
   257
  9
$OBSLTYPE
280
     0
  9
$INTERSECTIONDISPLAY
280
     0
  9
$INTERSECTIONCOLOR
 70
   257
  9
$DIMASSOC
280
     2
  9
$PROJECTNAME
  1

  0
ENDSEC
  0
SECTION
  2
CLASSES
  0
CLASS
  1
ACDBDICTIONARYWDFLT
  2
AcDbDictionaryWithDefault
  3
ObjectDBX Classes
 90
        0
 91
        3
280
     0
281
     0
  0
CLASS
  1
VISUALSTYLE
  2
AcDbVisualStyle
  3
ObjectDBX Classes
 90
     4095
 91
        3
280
     0
281
     0
  0
ENDSEC
  0
SECTION
  2
TABLES
  0
TABLE
  2
VPORT
  5
8
330
0
100
AcDbSymbolTable
 70
     1
  0
VPORT
  5
29
330
8
100
AcDbSymbolTableRecord
100
AcDbViewportTableRecord
  2
*Active
 70
     0
 10
0.0
 20
0.0
 11
1.0
 21
1.0
 12
0.0
 22
0.0
 13
0.0
 23
0.0
 14
0.5
 24
0.5
 15
0.5
 25
0.5
 16
0.0
 26
0.0
 36
1.0
 17
148.4999796178229
 27
-105.0008259828644
 37
0.0
 40
210.0016519657288
 41
1.414274394775308
 42
50.0
 43
0.0
 44
0.0
 50
0.0
 51
0.0
 71
     0
 72
   100
 73
     1
 74
     3
 75
     0
 76
     0
 77
     0
 78
     0
281
     0
 65
     1
110
0.0
120
0.0
130
0.0
111
1.0
121
0.0
131
0.0
112
0.0
122
1.0
132
0.0
 79
     0
146
0.0
  0
ENDTAB
  0
TABLE
  2
LTYPE
  5
5
330
0
100
AcDbSymbolTable
 70
     1
  0
LTYPE
  5
14
330
5
100
AcDbSymbolTableRecord
100
AcDbLinetypeTableRecord
  2
ByBlock
 70
     0
  3

 72
    65
 73
     0
 40
0.0
  0
LTYPE
  5
15
330
5
100
AcDbSymbolTableRecord
100
AcDbLinetypeTableRecord
  2
ByLayer
 70
     0
  3

 72
    65
 73
     0
 40
0.0
  0
LTYPE
  5
16
330
5
100
AcDbSymbolTableRecord
100
AcDbLinetypeTableRecord
  2
Continuous
 70
     0
  3
Solid line
 72
    65
 73
     0
 40
0.0
  0
ENDTAB
  0
TABLE
  2
LAYER
  5
2
330
0
100
AcDbSymbolTable
 70
     2
  0
LAYER
  5
10
330
2
100
AcDbSymbolTableRecord
100
AcDbLayerTableRecord
  2
0
 70
     0
 62
     7
  6
Continuous
370
    -3
390
F
  0
LAYER
  5
3B
330
2
100
AcDbSymbolTableRecord
100
AcDbLayerTableRecord
  2
Layer 1
 70
     0
 62
     7
  6
Continuous
370
    -3
390
F
  0
ENDTAB
  0
TABLE
  2
STYLE
  5
3
330
0
100
AcDbSymbolTable
 70
     1
  0
STYLE
  5
11
330
3
100
AcDbSymbolTableRecord
100
AcDbTextStyleTableRecord
  2
Standard
 70
     0
 40
0.0
 41
1.0
 50
0.0
 71
     0
 42
0.2
  3
txt
  4

  0
ENDTAB
  0
TABLE
  2
VIEW
  5
6
330
0
100
AcDbSymbolTable
 70
     0
  0
ENDTAB
  0
TABLE
  2
UCS
  5
7
330
0
100
AcDbSymbolTable
 70
     0
  0
ENDTAB
  0
TABLE
  2
APPID
  5
9
330
0
100
AcDbSymbolTable
 70
     1
  0
APPID
  5
12
330
9
100
AcDbSymbolTableRecord
100
AcDbRegAppTableRecord
  2
ACAD
 70
     0
  0
ENDTAB
  0
TABLE
  2
DIMSTYLE
  5
A
330
0
100
AcDbSymbolTable
 70
     1
100
AcDbDimStyleTable
  0
DIMSTYLE
105
27
330
A
100
AcDbSymbolTableRecord
100
AcDbDimStyleTableRecord
  2
Standard
 70
     0
340
11
  0
ENDTAB
  0
TABLE
  2
BLOCK_RECORD
  5
1
330
0
100
AcDbSymbolTable
 70
     2
  0
BLOCK_RECORD
  5
1F
330
1
100
AcDbSymbolTableRecord
100
AcDbBlockTableRecord
  2
*Model_Space
340
22
  0
BLOCK_RECORD
  5
1B
330
1
100
AcDbSymbolTableRecord
100
AcDbBlockTableRecord
  2
*Paper_Space
340
1E
  0
BLOCK_RECORD
  5
23
330
1
100
AcDbSymbolTableRecord
100
AcDbBlockTableRecord
  2
*Paper_Space0
340
26
  0
BLOCK_RECORD
  5
3C
330
1
100
AcDbSymbolTableRecord
100
AcDbBlockTableRecord
  2
block 2
340
0
102
{BLKREFS
331
3D
102
}
  0
ENDTAB
  0
ENDSEC
  0
SECTION
  2
BLOCKS
  0
BLOCK
  5
20
330
1F
100
AcDbEntity
  8
0
100
AcDbBlockBegin
  2
*Model_Space
 70
     0
 71
     0
 10
0.0
 20
0.0
 30
0.0
  3
*Model_Space
  1

  0
ENDBLK
  5
21
330
1F
100
AcDbEntity
  8
0
100
AcDbBlockEnd
  0
BLOCK
  5
1C
330
1B
100
AcDbEntity
 67
     1
  8
0
100
AcDbBlockBegin
  2
*Paper_Space
 70
     0
 71
     0
 10
0.0
 20
0.0
 30
0.0
  3
*Paper_Space
  1

  0
ENDBLK
  5
1D
330
1B
100
AcDbEntity
 67
     1
  8
0
100
AcDbBlockEnd
  0
BLOCK
  5
24
330
23
100
AcDbEntity
  8
0
100
AcDbBlockBegin
  2
*Paper_Space0
 70
     0
 71
     0
 10
0.0
 20
0.0
 30
0.0
  3
*Paper_Space0
  1

  0
ENDBLK
  5
25
330
23
100
AcDbEntity
  8
0
100
AcDbBlockEnd
  0
BLOCK
  5
3E
330
3C
100
AcDbEntity
  8
0
100
AcDbBlockBegin
  2
block 2
 70
     0
 71
     0
 10
0.0
 20
0.0
 30
0.0
  3
block 2
  1

  0
SPLINE
  5
40
330
3C
100
AcDbEntity
  8
Layer 1
370
     0
100
AcDbSpline
210
0.0
220
0.0
230
1.0
 70
    11
 71
     3
 72
    17
 73
    13
 74
     0
 42
0.0000000001
 43
0.0000000001
 40
0.0
 40
0.0
 40
0.0
 40
0.0
 40
1.0
 40
1.0
 40
1.0
 40
2.0
 40
2.0
 40
2.0
 40
3.0
 40
3.0
 40
3.0
 40
4.0
 40
4.0
 40
4.0
 40
4.0
 10
52.65018851765343
 20
-10.71838107370929
 30
0.0
 10
112.9753607573464
 20
-10.71838107370929
 30
0.0
 10
173.3000162327167
 20
-10.71838107370929
 30
0.0
 10
233.6250162176354
 20
-10.71838107370929
 30
0.0
 10
233.6250162176354
 20
-71.04338105862804
 30
0.0
 10
233.6250162176354
 20
-131.3683810435468
 30
0.0
 10
233.6250162176354
 20
-191.6933810284656
 30
0.0
 10
173.3000162327167
 20
-191.6933810284656
 30
0.0
 10
112.9753607573464
 20
-191.6933810284656
 30
0.0
 10
52.65036077242769
 20
-191.6933810284656
 30
0.0
 10
52.65018851765343
 20
-131.3683810435468
 30
0.0
 10
52.65018851765343
 20
-71.04338105862804
 30
0.0
 10
52.65018851765343
 20
-10.71838107370929
 30
0.0
  0
SPLINE
  5
41
330
3C
100
AcDbEntity
  8
Layer 1
370
     0
100
AcDbSpline
210
0.0
220
0.0
230
1.0
 70
    11
 71
     3
 72
   107
 73
   103
 74
     0
 42
0.0000000001
 43
0.0000000001
 40
0.0
 40
0.0
 40
0.0
 40
0.0
 40
1.0
 40
1.0
 40
1.0
 40
2.0
 40
2.0
 40
2.0
 40
3.0
 40
3.0
 40
3.0
 40
4.0
 40
4.0
 40
4.0
 40
5.0
 40
5.0
 40
5.0
 40
6.0
 40
6.0
 40
6.0
 40
7.0
 40
7.0
 40
7.0
 40
8.0
 40
8.0
 40
8.0
 40
9.0
 40
9.0
 40
9.0
 40
10.0
 40
10.0
 40
10.0
 40
11.0
 40
11.0
 40
11.0
 40
12.0
 40
12.0
 40
12.0
 40
13.0
 40
13.0
 40
13.0
 40
14.0
 40
14.0
 40
14.0
 40
15.0
 40
15.0
 40
15.0
 40
16.0
 40
16.0
 40
16.0
 40
17.0
 40
17.0
 40
17.0
 40
18.0
 40
18.0
 40
18.0
 40
19.0
 40
19.0
 40
19.0
 40
20.0
 40
20.0
 40
20.0
 40
21.0
 40
21.0
 40
21.0
 40
22.0
 40
22.0
 40
22.0
 40
23.0
 40
23.0
 40
23.0
 40
24.0
 40
24.0
 40
24.0
 40
25.0
 40
25.0
 40
25.0
 40
26.0
 40
26.0
 40
26.0
 40
27.0
 40
27.0
 40
27.0
 40
28.0
 40
28.0
 40
28.0
 40
29.0
 40
29.0
 40
29.0
 40
30.0
 40
30.0
 40
30.0
 40
31.0
 40
31.0
 40
31.0
 40
32.0
 40
32.0
 40
32.0
 40
33.0
 40
33.0
 40
33.0
 40
34.0
 40
34.0
 40
34.0
 40
34.0
 10
148.9979681702158
 20
-162.452099568762
 30
0.0
 10
149.3204291076352
 20
-161.9132866348689
 30
0.0
 10
149.5615857916027
 20
-161.4826496992127
 30
0.0
 10
149.828236182161
 20
-161.0678602027886
 30
0.0
 10
150.9003498971707
 20
-159.4038790834129
 30
0.0
 10
152.3459119627816
 20
-158.3055826427153
 30
0.0
 10
154.3730061463026
 20
-158.0974988754062
 30
0.0
 10
158.5071207286024
 20
-157.6737521307205
 30
0.0
 10
161.4733479414025
 20
-160.4360296907938
 30
0.0
 10
161.5119330108373
 20
-164.8767577712808
 30
0.0
 10
161.562920424019
 20
-170.7547796882141
 30
0.0
 10
161.563609443116
 20
-176.6341796433415
 30
0.0
 10
161.493329495217
 20
-182.5115125411777
 30
0.0
 10
161.479549113276
 20
-183.6614854141541
 30
0.0
 10
161.8157904326363
 20
-184.3098523844781
 30
0.0
 10
162.7845512830886
 20
-184.9058539034263
 30
0.0
 10
169.4890516069333
 20
-189.0282551610763
 30
0.0
 10
176.7168619349875
 20
-190.4331650999612
 30
0.0
 10
184.5386067246987
 20
-189.6979817234088
 30
0.0
 10
197.4301540305036
 20
-188.4853081126009
 30
0.0
 10
211.0155435670378
 20
-180.0448241737388
 30
0.0
 10
212.5465440006828
 20
-161.2649196645449
 30
0.0
 10
212.8442002506084
 20
-157.612429431083
 30
0.0
 10
214.1981227763116
 20
-154.9266329907822
 30
0.0
 10
216.423654459783
 20
-152.3683050834357
 30
0.0
 10
216.6937499458266
 20
-152.0575574706662
 30
0.0
 10
216.9548881836085
 20
-151.7399196669261
 30
0.0
 10
217.2153374022934
 20
-151.421592844089
 30
0.0
 10
221.5327310644085
 20
-146.1505967516568
 30
0.0
 10
225.9872395268365
 20
-140.9781303901027
 30
0.0
 10
229.1705077552074
 20
-134.8892686294721
 30
0.0
 10
230.6229600117887
 20
-132.1118326492637
 30
0.0
 10
231.8335665653055
 20
-129.2241536135273
 30
0.0
 10
231.8032497250353
 20
-126.0353732323801
 30
0.0
 10
231.7226344906805
 20
-117.6314073056616
 30
0.0
 10
227.897200463859
 20
-111.4571071769968
 30
0.0
 10
220.4413248146813
 20
-107.5958441571288
 30
0.0
 10
219.4002169590389
 20
-107.0570312232358
 30
0.0
 10
219.0453721240581
 20
-106.4841118440387
 30
0.0
 10
219.0515732959315
 20
-105.3258707418977
 30
0.0
 10
219.0998046327251
 20
-95.68511553597456
 30
0.0
 10
219.0805120980077
 20
-86.04436033005142
 30
0.0
 10
219.0777560216195
 20
-76.40377737890253
 30
0.0
 10
219.0763779834254
 20
-71.40718314187043
 30
0.0
 10
217.5977430011561
 20
-69.50721298175515
 30
0.0
 10
212.6244031586495
 20
-68.31831052979543
 30
0.0
 10
212.6244031586495
 20
-66.35322806500892
 30
0.0
 10
212.6244031586495
 20
-64.3299234865217
 30
0.0
 10
212.6244031586495
 20
-62.317470958813
 30
0.0
 10
165.6966904967703
 20
-62.317470958813
 30
0.0
 10
118.9870523791074
 20
-62.317470958813
 30
0.0
 10
72.09034557659547
 20
-62.317470958813
 30
0.0
 10
72.09034557659547
 20
-64.44343938276067
 30
0.0
 10
72.09034557659547
 20
-66.47311738789561
 30
0.0
 10
72.09034557659547
 20
-68.47092825979199
 30
0.0
 10
67.71094019574588
 20
-69.10913219843452
 30
0.0
 10
65.74413518321674
 20
-71.3599853337225
 30
0.0
 10
65.73827852089182
 20
-75.63173148065805
 30
0.0
 10
65.7250149032736
 20
-85.27231443180692
 30
0.0
 10
65.69090845796964
 20
-94.9134141472786
 30
0.0
 10
65.77496878780973
 20
-104.5534803341047
 30
0.0
 10
65.78961044362204
 20
-106.2160834152863
 30
0.0
 10
65.36517467983927
 20
-107.0763237579531
 30
0.0
 10
63.81729327831651
 20
-107.8955674643456
 30
0.0
 10
54.80457897935441
 20
-112.6670247114166
 30
0.0
 10
50.52266980073739
 20
-122.9285861237817
 30
0.0
 10
54.2742065294002
 20
-131.7246039167216
 30
0.0
 10
56.11561006626624
 20
-136.0419975788367
 30
0.0
 10
58.8763373333712
 20
-140.0224609024944
 30
0.0
 10
61.58831649935987
 20
-143.8981933234004
 30
0.0
 10
64.31080320657856
 20
-147.7890841644416
 30
0.0
 10
67.49097084901268
 20
-151.3602701444516
 30
0.0
 10
70.46891138646264
 20
-155.0727050393568
 30
0.0
 10
71.56755233670881
 20
-156.4424750042922
 30
0.0
 10
72.06933049413544
 20
-157.9417805594729
 30
0.0
 10
72.10636527060188
 20
-159.762858032976
 30
0.0
 10
72.22556557439152
 20
-165.62434349158
 30
0.0
 10
73.83718124239141
 20
-171.0813747402158
 30
0.0
 10
76.95533716609103
 20
-176.0877874993809
 30
0.0
 10
86.2088636394721
 20
-190.941661193584
 30
0.0
 10
108.7675211316623
 20
-193.9699001251186
 30
0.0
 10
122.4603976473363
 20
-184.5213812472724
 30
0.0
 10
122.9061930031276
 20
-184.2140787299882
 30
0.0
 10
123.1969590620827
 20
-183.3769205270725
 30
0.0
 10
123.2017821957621
 20
-182.7829860654154
 30
0.0
 10
123.255525685332
 20
-176.7292642787343
 30
0.0
 10
123.2052272912473
 20
-170.6741644538592
 30
0.0
 10
123.2486354943615
 20
-164.6197536480812
 30
0.0
 10
123.2713731245641
 20
-161.4378634579044
 30
0.0
 10
125.2640163532326
 20
-158.8464626338995
 30
0.0
 10
128.0290499896941
 20
-158.1980956635755
 30
0.0
 10
131.0386854056084
 20
-157.4925401081963
 30
0.0
 10
133.6128607521871
 20
-158.7100368526836
 30
0.0
 10
135.2451469930984
 20
-161.59771588842
 30
0.0
 10
135.3877739461878
 20
-161.8498968779403
 30
0.0
 10
135.6068820190497
 20
-162.0593586834435
 30
0.0
 10
135.8755994668992
 20
-162.3949109837068
 30
0.0
 10
136.5026068452146
 20
-157.3609374606598
 30
0.0
 10
138.3595133117643
 20
-155.1078450133064
 30
0.0
 10
141.9424126164241
 20
-154.8646212720477
 30
0.0
 10
145.7657795859544
 20
-154.6041720533628
 30
0.0
 10
147.580655887584
 20
-156.5203341622588
 30
0.0
 10
148.9979681702158
 20
-162.452099568762
 30
0.0
  0
SPLINE
  5
42
330
3C
100
AcDbEntity
  8
Layer 1
370
     0
100
AcDbSpline
210
0.0
220
0.0
230
1.0
 70
    11
 71
     3
 72
    29
 73
    25
 74
     0
 42
0.0000000001
 43
0.0000000001
 40
0.0
 40
0.0
 40
0.0
 40
0.0
 40
1.0
 40
1.0
 40
1.0
 40
2.0
 40
2.0
 40
2.0
 40
3.0
 40
3.0
 40
3.0
 40
4.0
 40
4.0
 40
4.0
 40
5.0
 40
5.0
 40
5.0
 40
6.0
 40
6.0
 40
6.0
 40
7.0
 40
7.0
 40
7.0
 40
8.0
 40
8.0
 40
8.0
 40
8.0
 10
212.5747937836619
 20
-55.80434568917391
 30
0.0
 10
212.6216470822613
 20
-55.25140786379131
 30
0.0
 10
212.6946831065486
 20
-54.85022649453397
 30
0.0
 10
212.6836588009958
 20
-54.4514566921163
 30
0.0
 10
212.5913302419911
 20
-51.22202418424311
 30
0.0
 10
212.7312011186922
 20
-47.96261934564824
 30
0.0
 10
212.3405272906649
 20
-44.76849906649885
 30
0.0
 10
210.039892525615
 20
-25.96568467232802
 30
0.0
 10
193.5440863231418
 20
-11.22343207184692
 30
0.0
 10
174.5829697914237
 20
-11.1280029269055
 30
0.0
 10
153.1286376570303
 20
-11.01999918344292
 30
0.0
 10
131.6725829748944
 20
-11.07357041823855
 30
0.0
 10
110.2179063309525
 20
-11.14333360181486
 30
0.0
 10
107.716077989564
 20
-11.1514295762052
 30
0.0
 10
105.1667073304792
 20
-11.49008246240526
 30
0.0
 10
102.7232733575657
 20
-12.04560410940179
 30
0.0
 10
85.39444306675904
 20
-15.98558756110777
 30
0.0
 10
73.54383136182238
 20
-29.70378552859836
 30
0.0
 10
72.18611923108541
 20
-47.37884791567265
 30
0.0
 10
71.97269556577419
 20
-50.15714516975238
 30
0.0
 10
72.15631915513801
 20
-52.96593151887657
 30
0.0
 10
72.15631915513801
 20
-55.80434568917391
 30
0.0
 10
119.0463080214537
 20
-55.80434568917391
 30
0.0
 10
165.7097818596142
 20
-55.80434568917391
 30
0.0
 10
212.5747937836619
 20
-55.80434568917391
 30
0.0
  0
SPLINE
  5
43
330
3C
100
AcDbEntity
  8
Layer 1
370
     0
100
AcDbSpline
210
0.0
220
0.0
230
1.0
 70
    11
 71
     3
 72
    26
 73
    22
 74
     0
 42
0.0000000001
 43
0.0000000001
 40
0.0
 40
0.0
 40
0.0
 40
0.0
 40
1.0
 40
1.0
 40
1.0
 40
2.0
 40
2.0
 40
2.0
 40
3.0
 40
3.0
 40
3.0
 40
4.0
 40
4.0
 40
4.0
 40
5.0
 40
5.0
 40
5.0
 40
6.0
 40
6.0
 40
6.0
 40
7.0
 40
7.0
 40
7.0
 40
7.0
 10
139.1325927386544
 20
-174.0000596353194
 30
0.0
 10
139.1325927386544
 20
-177.9908582454329
 30
0.0
 10
139.1215684331016
 20
-181.9809678364492
 30
0.0
 10
139.1360378341396
 20
-185.9717664465626
 30
0.0
 10
139.1449950824013
 20
-188.4508571577484
 30
0.0
 10
140.3914306289647
 20
-189.9246690063383
 30
0.0
 10
142.4157687360974
 20
-189.9088215671061
 30
0.0
 10
144.3760280672046
 20
-189.8936631469711
 30
0.0
 10
145.6341769384179
 20
-188.472905768854
 30
0.0
 10
145.6417561484854
 20
-186.0909667503523
 30
0.0
 10
145.6679388741733
 20
-177.9922362836269
 30
0.0
 10
145.6658718168821
 20
-169.8941948359987
 30
0.0
 10
145.6431341866795
 20
-161.7961533883704
 30
0.0
 10
145.636243995709
 20
-159.4727809931179
 30
0.0
 10
144.3298637877023
 20
-157.9486707504434
 30
0.0
 10
142.4460855763677
 20
-157.9093966619116
 30
0.0
 10
140.4913383980369
 20
-157.8687445351856
 30
0.0
 10
139.1456841014983
 20
-159.4472872865271
 30
0.0
 10
139.1367268532367
 20
-161.8533419734256
 30
0.0
 10
139.1208794140045
 20
-165.9020181876912
 30
0.0
 10
139.1325927386544
 20
-169.9513834210538
 30
0.0
 10
139.1325927386544
 20
-174.0000596353194
 30
0.0
  0
SPLINE
  5
44
330
3C
100
AcDbEntity
  8
Layer 1
370
     0
100
AcDbSpline
210
0.0
220
0.0
230
1.0
 70
    11
 71
     3
 72
    26
 73
    22
 74
     0
 42
0.0000000001
 43
0.0000000001
 40
0.0
 40
0.0
 40
0.0
 40
0.0
 40
1.0
 40
1.0
 40
1.0
 40
2.0
 40
2.0
 40
2.0
 40
3.0
 40
3.0
 40
3.0
 40
4.0
 40
4.0
 40
4.0
 40
5.0
 40
5.0
 40
5.0
 40
6.0
 40
6.0
 40
6.0
 40
7.0
 40
7.0
 40
7.0
 40
7.0
 10
158.4271945133446
 20
-173.8774142360445
 30
0.0
 10
158.4271945133446
 20
-170.8794921447801
 30
0.0
 10
158.4485541053531
 20
-167.8815700535157
 30
0.0
 10
158.4203043223741
 20
-164.8836479622513
 30
0.0
 10
158.3996337494626
 20
-162.6209092475392
 30
0.0
 10
157.0085041925187
 20
-161.0664821645945
 30
0.0
 10
155.1116346183402
 20
-161.100933119447
 30
0.0
 10
153.2788438201872
 20
-161.1340060361054
 30
0.0
 10
151.9221652180958
 20
-162.6277994385097
 30
0.0
 10
151.909762874349
 20
-164.8113009570611
 30
0.0
 10
151.8746229003994
 20
-170.8650227437421
 30
0.0
 10
151.8760009385935
 20
-176.9201225686172
 30
0.0
 10
151.9076958170578
 20
-182.9745333743953
 30
0.0
 10
151.9194091417077
 20
-185.3075520370064
 30
0.0
 10
153.2602403045669
 20
-186.7613823317819
 30
0.0
 10
155.2142984638006
 20
-186.7269313769294
 30
0.0
 10
157.1656005466461
 20
-186.6924804220769
 30
0.0
 10
158.405834921336
 20
-185.2290038599428
 30
0.0
 10
158.4223713796652
 20
-182.8704914907407
 30
0.0
 10
158.4444199907709
 20
-179.8732584185734
 30
0.0
 10
158.4278835324417
 20
-176.875336327309
 30
0.0
 10
158.4271945133446
 20
-173.8774142360445
 30
0.0
  0
SPLINE
  5
45
330
3C
100
AcDbEntity
  8
Layer 1
370
     0
100
AcDbSpline
210
0.0
220
0.0
230
1.0
 70
    11
 71
     3
 72
    26
 73
    22
 74
     0
 42
0.0000000001
 43
0.0000000001
 40
0.0
 40
0.0
 40
0.0
 40
0.0
 40
1.0
 40
1.0
 40
1.0
 40
2.0
 40
2.0
 40
2.0
 40
3.0
 40
3.0
 40
3.0
 40
4.0
 40
4.0
 40
4.0
 40
5.0
 40
5.0
 40
5.0
 40
6.0
 40
6.0
 40
6.0
 40
7.0
 40
7.0
 40
7.0
 40
7.0
 10
126.4015868824621
 20
-173.9476941839436
 30
0.0
 10
126.4015868824621
 20
-176.9435492179169
 30
0.0
 10
126.3912515960064
 20
-179.9400932709872
 30
0.0
 10
126.4043429588503
 20
-182.9366373240575
 30
0.0
 10
126.4153672644031
 20
-185.2731010821539
 30
0.0
 10
127.6762722120045
 20
-186.735199606094
 30
0.0
 10
129.6358425240147
 20
-186.7269313769294
 30
0.0
 10
131.5347791554844
 20
-186.7186631477648
 30
0.0
 10
132.8025742940563
 20
-185.3220214380445
 30
0.0
 10
132.812220561415
 20
-183.0744411434675
 30
0.0
 10
132.839781325297
 20
-176.9642197908284
 30
0.0
 10
132.840470344394
 20
-170.8539984381893
 30
0.0
 10
132.811531542318
 20
-164.7437770855502
 30
0.0
 10
132.8005072367652
 20
-162.5423610704755
 30
0.0
 10
131.4569199975177
 20
-161.0843966611178
 30
0.0
 10
129.598635492774
 20
-161.1030001767381
 30
0.0
 10
127.7231255106039
 20
-161.1222927114555
 30
0.0
 10
126.4215684362766
 20
-162.5954155409484
 30
0.0
 10
126.4070990352385
 20
-164.7816731358879
 30
0.0
 10
126.386428462327
 20
-167.8367838122075
 30
0.0
 10
126.4015868824621
 20
-170.8925835076241
 30
0.0
 10
126.4015868824621
 20
-173.9476941839436
 30
0.0
  0
SPLINE
  5
46
330
3C
100
AcDbEntity
  8
Layer 1
370
     0
100
AcDbSpline
210
0.0
220
0.0
230
1.0
 70
    11
 71
     3
 72
   107
 73
   103
 74
     0
 42
0.0000000001
 43
0.0000000001
 40
0.0
 40
0.0
 40
0.0
 40
0.0
 40
1.0
 40
1.0
 40
1.0
 40
2.0
 40
2.0
 40
2.0
 40
3.0
 40
3.0
 40
3.0
 40
4.0
 40
4.0
 40
4.0
 40
5.0
 40
5.0
 40
5.0
 40
6.0
 40
6.0
 40
6.0
 40
7.0
 40
7.0
 40
7.0
 40
8.0
 40
8.0
 40
8.0
 40
9.0
 40
9.0
 40
9.0
 40
10.0
 40
10.0
 40
10.0
 40
11.0
 40
11.0
 40
11.0
 40
12.0
 40
12.0
 40
12.0
 40
13.0
 40
13.0
 40
13.0
 40
14.0
 40
14.0
 40
14.0
 40
15.0
 40
15.0
 40
15.0
 40
16.0
 40
16.0
 40
16.0
 40
17.0
 40
17.0
 40
17.0
 40
18.0
 40
18.0
 40
18.0
 40
19.0
 40
19.0
 40
19.0
 40
20.0
 40
20.0
 40
20.0
 40
21.0
 40
21.0
 40
21.0
 40
22.0
 40
22.0
 40
22.0
 40
23.0
 40
23.0
 40
23.0
 40
24.0
 40
24.0
 40
24.0
 40
25.0
 40
25.0
 40
25.0
 40
26.0
 40
26.0
 40
26.0
 40
27.0
 40
27.0
 40
27.0
 40
28.0
 40
28.0
 40
28.0
 40
29.0
 40
29.0
 40
29.0
 40
30.0
 40
30.0
 40
30.0
 40
31.0
 40
31.0
 40
31.0
 40
32.0
 40
32.0
 40
32.0
 40
33.0
 40
33.0
 40
33.0
 40
34.0
 40
34.0
 40
34.0
 40
34.0
 10
148.9979681702158
 20
-162.452099568762
 30
0.0
 10
147.580655887584
 20
-156.5203341622588
 30
0.0
 10
145.7657795859544
 20
-154.6041720533628
 30
0.0
 10
141.9424126164241
 20
-154.8646212720477
 30
0.0
 10
138.3595133117643
 20
-155.1078450133064
 30
0.0
 10
136.5026068452146
 20
-157.3609374606598
 30
0.0
 10
135.8755994668992
 20
-162.3949109837068
 30
0.0
 10
135.6068820190497
 20
-162.0593586834435
 30
0.0
 10
135.3877739461878
 20
-161.8498968779403
 30
0.0
 10
135.2451469930984
 20
-161.59771588842
 30
0.0
 10
133.6128607521871
 20
-158.7100368526836
 30
0.0
 10
131.0386854056084
 20
-157.4925401081963
 30
0.0
 10
128.0290499896941
 20
-158.1980956635755
 30
0.0
 10
125.2640163532326
 20
-158.8464626338995
 30
0.0
 10
123.2713731245641
 20
-161.4378634579044
 30
0.0
 10
123.2486354943615
 20
-164.6197536480812
 30
0.0
 10
123.2052272912473
 20
-170.6741644538592
 30
0.0
 10
123.255525685332
 20
-176.7292642787343
 30
0.0
 10
123.2017821957621
 20
-182.7829860654154
 30
0.0
 10
123.1969590620827
 20
-183.3769205270725
 30
0.0
 10
122.9061930031276
 20
-184.2140787299882
 30
0.0
 10
122.4603976473363
 20
-184.5213812472724
 30
0.0
 10
108.7675211316623
 20
-193.9699001251186
 30
0.0
 10
86.2088636394721
 20
-190.941661193584
 30
0.0
 10
76.95533716609103
 20
-176.0877874993809
 30
0.0
 10
73.83718124239141
 20
-171.0813747402158
 30
0.0
 10
72.22556557439152
 20
-165.62434349158
 30
0.0
 10
72.10636527060188
 20
-159.762858032976
 30
0.0
 10
72.06933049413544
 20
-157.9417805594729
 30
0.0
 10
71.56755233670881
 20
-156.4424750042922
 30
0.0
 10
70.46891138646264
 20
-155.0727050393568
 30
0.0
 10
67.49097084901268
 20
-151.3602701444516
 30
0.0
 10
64.31080320657856
 20
-147.7890841644416
 30
0.0
 10
61.58831649935987
 20
-143.8981933234004
 30
0.0
 10
58.8763373333712
 20
-140.0224609024944
 30
0.0
 10
56.11561006626624
 20
-136.0419975788367
 30
0.0
 10
54.2742065294002
 20
-131.7246039167216
 30
0.0
 10
50.52266980073739
 20
-122.9285861237817
 30
0.0
 10
54.80457897935441
 20
-112.6670247114166
 30
0.0
 10
63.81729327831651
 20
-107.8955674643456
 30
0.0
 10
65.36517467983927
 20
-107.0763237579531
 30
0.0
 10
65.78961044362204
 20
-106.2160834152863
 30
0.0
 10
65.77496878780973
 20
-104.5534803341047
 30
0.0
 10
65.69090845796964
 20
-94.9134141472786
 30
0.0
 10
65.7250149032736
 20
-85.27231443180692
 30
0.0
 10
65.73827852089182
 20
-75.63173148065805
 30
0.0
 10
65.74413518321674
 20
-71.3599853337225
 30
0.0
 10
67.71094019574588
 20
-69.10913219843452
 30
0.0
 10
72.09034557659547
 20
-68.47092825979199
 30
0.0
 10
72.09034557659547
 20
-66.47311738789561
 30
0.0
 10
72.09034557659547
 20
-64.44343938276067
 30
0.0
 10
72.09034557659547
 20
-62.317470958813
 30
0.0
 10
118.9870523791074
 20
-62.317470958813
 30
0.0
 10
165.6966904967703
 20
-62.317470958813
 30
0.0
 10
212.6244031586495
 20
-62.317470958813
 30
0.0
 10
212.6244031586495
 20
-64.3299234865217
 30
0.0
 10
212.6244031586495
 20
-66.35322806500892
 30
0.0
 10
212.6244031586495
 20
-68.31831052979543
 30
0.0
 10
217.5977430011561
 20
-69.50721298175515
 30
0.0
 10
219.0763779834254
 20
-71.40718314187043
 30
0.0
 10
219.0777560216195
 20
-76.40377737890253
 30
0.0
 10
219.0805120980077
 20
-86.04436033005142
 30
0.0
 10
219.0998046327251
 20
-95.68511553597456
 30
0.0
 10
219.0515732959315
 20
-105.3258707418977
 30
0.0
 10
219.0453721240581
 20
-106.4841118440387
 30
0.0
 10
219.4002169590389
 20
-107.0570312232358
 30
0.0
 10
220.4413248146813
 20
-107.5958441571288
 30
0.0
 10
227.897200463859
 20
-111.4571071769968
 30
0.0
 10
231.7226344906805
 20
-117.6314073056616
 30
0.0
 10
231.8032497250353
 20
-126.0353732323801
 30
0.0
 10
231.8335665653055
 20
-129.2241536135273
 30
0.0
 10
230.6229600117887
 20
-132.1118326492637
 30
0.0
 10
229.1705077552074
 20
-134.8892686294721
 30
0.0
 10
225.9872395268365
 20
-140.9781303901027
 30
0.0
 10
221.5327310644085
 20
-146.1505967516568
 30
0.0
 10
217.2153374022934
 20
-151.421592844089
 30
0.0
 10
216.9548881836085
 20
-151.7399196669261
 30
0.0
 10
216.6937499458266
 20
-152.0575574706662
 30
0.0
 10
216.423654459783
 20
-152.3683050834357
 30
0.0
 10
214.1981227763116
 20
-154.9266329907822
 30
0.0
 10
212.8442002506084
 20
-157.612429431083
 30
0.0
 10
212.5465440006828
 20
-161.2649196645449
 30
0.0
 10
211.0155435670378
 20
-180.0448241737388
 30
0.0
 10
197.4301540305036
 20
-188.4853081126009
 30
0.0
 10
184.5386067246987
 20
-189.6979817234088
 30
0.0
 10
176.7168619349875
 20
-190.4331650999612
 30
0.0
 10
169.4890516069333
 20
-189.0282551610763
 30
0.0
 10
162.7845512830886
 20
-184.9058539034263
 30
0.0
 10
161.8157904326363
 20
-184.3098523844781
 30
0.0
 10
161.479549113276
 20
-183.6614854141541
 30
0.0
 10
161.493329495217
 20
-182.5115125411777
 30
0.0
 10
161.563609443116
 20
-176.6341796433415
 30
0.0
 10
161.562920424019
 20
-170.7547796882141
 30
0.0
 10
161.5119330108373
 20
-164.8767577712808
 30
0.0
 10
161.4733479414025
 20
-160.4360296907938
 30
0.0
 10
158.5071207286024
 20
-157.6737521307205
 30
0.0
 10
154.3730061463026
 20
-158.0974988754062
 30
0.0
 10
152.3459119627816
 20
-158.3055826427153
 30
0.0
 10
150.9003498971707
 20
-159.4038790834129
 30
0.0
 10
149.828236182161
 20
-161.0678602027886
 30
0.0
 10
149.5615857916027
 20
-161.4826496992127
 30
0.0
 10
149.3204291076352
 20
-161.9132866348689
 30
0.0
 10
148.9979681702158
 20
-162.452099568762
 30
0.0
  0
SPLINE
  5
47
330
3C
100
AcDbEntity
  8
Layer 1
370
     0
100
AcDbSpline
210
0.0
220
0.0
230
1.0
 70
    11
 71
     3
 72
    26
 73
    22
 74
     0
 42
0.0000000001
 43
0.0000000001
 40
0.0
 40
0.0
 40
0.0
 40
0.0
 40
1.0
 40
1.0
 40
1.0
 40
2.0
 40
2.0
 40
2.0
 40
3.0
 40
3.0
 40
3.0
 40
4.0
 40
4.0
 40
4.0
 40
5.0
 40
5.0
 40
5.0
 40
6.0
 40
6.0
 40
6.0
 40
7.0
 40
7.0
 40
7.0
 40
7.0
 10
84.939001443609
 20
-75.07224797385346
 30
0.0
 10
85.11228974651706
 20
-77.33412541469426
 30
0.0
 10
85.18808184719256
 20
-79.4886881311695
 30
0.0
 10
85.45817733323615
 20
-81.61879066969948
 30
0.0
 10
86.0807060874208
 20
-86.52736271708343
 30
0.0
 10
87.05635712884356
 20
-91.35600854920962
 30
0.0
 10
89.75317787469713
 20
-95.62310381724006
 30
0.0
 10
92.39728865962638
 20
-99.80751679362452
 30
0.0
 10
96.05976966999548
 20
-101.4597845883503
 30
0.0
 10
100.7533677590999
 20
-99.94290904619483
 30
0.0
 10
104.3385063758251
 20
-98.78432343450531
 30
0.0
 10
107.8607719999445
 20
-97.16030542275854
 30
0.0
 10
111.0833143168472
 20
-95.20418020623369
 30
0.0
 10
119.9640814587243
 20
-89.81398381001179
 30
0.0
 10
127.6673149637429
 20
-82.89967717111536
 30
0.0
 10
135.1659097969377
 20
-75.76333412819459
 30
0.0
 10
135.3388535902972
 20
-75.59917532832243
 30
0.0
 10
135.4084445190993
 20
-75.32735729453621
 30
0.0
 10
135.5441812812181
 20
-75.07224797385346
 30
0.0
 10
118.6763047663379
 20
-75.07224797385346
 30
0.0
 10
101.9495049115786
 20
-75.07224797385346
 30
0.0
 10
84.939001443609
 20
-75.07224797385346
 30
0.0
  0
SPLINE
  5
48
330
3C
100
AcDbEntity
  8
Layer 1
370
     0
100
AcDbSpline
210
0.0
220
0.0
230
1.0
 70
    11
 71
     3
 72
    26
 73
    22
 74
     0
 42
0.0000000001
 43
0.0000000001
 40
0.0
 40
0.0
 40
0.0
 40
0.0
 40
1.0
 40
1.0
 40
1.0
 40
2.0
 40
2.0
 40
2.0
 40
3.0
 40
3.0
 40
3.0
 40
4.0
 40
4.0
 40
4.0
 40
5.0
 40
5.0
 40
5.0
 40
6.0
 40
6.0
 40
6.0
 40
7.0
 40
7.0
 40
7.0
 40
7.0
 10
149.0551567552709
 20
-75.0546779868787
 30
0.0
 10
149.4182698194163
 20
-75.49220511350542
 30
0.0
 10
149.5760551926407
 20
-75.7269883708252
 30
0.0
 10
149.7765597498823
 20
-75.9180189154823
 30
0.0
 10
156.5833794096389
 20
-82.41701929363187
 30
0.0
 10
163.6513373071774
 20
-88.60647784243172
 30
0.0
 10
171.4913411029605
 20
-93.84819062323935
 30
0.0
 10
175.4469997391244
 20
-96.49333493681416
 30
0.0
 10
179.5142794690103
 20
-98.95313311328256
 30
0.0
 10
184.2216579400557
 20
-100.0845024706386
 30
0.0
 10
188.638270352146
 20
-101.1462808991926
 30
0.0
 10
192.0516709589315
 20
-99.8764187033295
 30
0.0
 10
194.663742355848
 20
-96.16398380842429
 30
0.0
 10
196.7638725636563
 20
-93.1788085704553
 30
0.0
 10
197.9028211310799
 20
-89.77815481696518
 30
0.0
 10
198.5353406621717
 20
-86.24555390639
 30
0.0
 10
199.1899088043692
 20
-82.58927406789435
 30
0.0
 10
199.5550889258057
 20
-78.8806287780229
 30
0.0
 10
200.0663410958168
 20
-75.0546779868787
 30
0.0
 10
182.8381075931794
 20
-75.0546779868787
 30
0.0
 10
166.1107909740973
 20
-75.0546779868787
 30
0.0
 10
149.0551567552709
 20
-75.0546779868787
 30
0.0
  0
SPLINE
  5
49
330
3C
100
AcDbEntity
  8
Layer 1
370
     0
100
AcDbSpline
210
0.0
220
0.0
230
1.0
 70
    11
 71
     3
 72
    17
 73
    13
 74
     0
 42
0.0000000001
 43
0.0000000001
 40
0.0
 40
0.0
 40
0.0
 40
0.0
 40
1.0
 40
1.0
 40
1.0
 40
2.0
 40
2.0
 40
2.0
 40
3.0
 40
3.0
 40
3.0
 40
4.0
 40
4.0
 40
4.0
 40
4.0
 10
183.8578558568133
 20
-158.0430663667393
 30
0.0
 10
178.5634331150814
 20
-158.0630479205537
 30
0.0
 10
174.3487032984267
 20
-162.2660644125585
 30
0.0
 10
174.3438801647474
 20
-167.5308593331173
 30
0.0
 10
174.339057031068
 20
-172.7694715279882
 30
0.0
 10
178.5806585925076
 20
-177.0434569869892
 30
0.0
 10
183.8302950929313
 20
-177.0896212664915
 30
0.0
 10
189.1192056818869
 20
-177.1357855459938
 30
0.0
 10
193.4538248214282
 20
-172.7908311199967
 30
0.0
 10
193.4276420957403
 20
-167.4702256525769
 30
0.0
 10
193.4007703509554
 20
-162.2171440566679
 30
0.0
 10
189.1426323311866
 20
-158.0223957938277
 30
0.0
 10
183.8578558568133
 20
-158.0430663667393
 30
0.0
  0
SPLINE
  5
4A
330
3C
100
AcDbEntity
  8
Layer 1
370
     0
100
AcDbSpline
210
0.0
220
0.0
230
1.0
 70
    11
 71
     3
 72
    17
 73
    13
 74
     0
 42
0.0000000001
 43
0.0000000001
 40
0.0
 40
0.0
 40
0.0
 40
0.0
 40
1.0
 40
1.0
 40
1.0
 40
2.0
 40
2.0
 40
2.0
 40
3.0
 40
3.0
 40
3.0
 40
4.0
 40
4.0
 40
4.0
 40
4.0
 10
100.8415622035223
 20
-158.0423773476422
 30
0.0
 10
95.4479207118151
 20
-158.0761392833977
 30
0.0
 10
91.3468790461737
 20
-162.2881130236641
 30
0.0
 10
91.4020005739377
 20
-167.7354980049411
 30
0.0
 10
91.45436602531349
 20
-172.8990071182336
 30
0.0
 10
95.66909584196814
 20
-177.0620605026095
 30
0.0
 10
100.8711900246954
 20
-177.0896212664915
 30
0.0
 10
106.1382242573196
 20
-177.1178710494706
 30
0.0
 10
110.5569037267011
 20
-172.6785210071776
 30
0.0
 10
110.4742214350551
 20
-167.4419758695979
 30
0.0
 10
110.390850124312
 20
-162.1806260445243
 30
0.0
 10
106.115486627117
 20
-158.0086154118868
 30
0.0
 10
100.8415622035223
 20
-158.0423773476422
 30
0.0
  0
SPLINE
  5
4B
330
3C
100
AcDbEntity
  8
Layer 1
370
     0
100
AcDbSpline
210
0.0
220
0.0
230
1.0
 70
    11
 71
     3
 72
    20
 73
    16
 74
     0
 42
0.0000000001
 43
0.0000000001
 40
0.0
 40
0.0
 40
0.0
 40
0.0
 40
1.0
 40
1.0
 40
1.0
 40
2.0
 40
2.0
 40
2.0
 40
3.0
 40
3.0
 40
3.0
 40
4.0
 40
4.0
 40
4.0
 40
5.0
 40
5.0
 40
5.0
 40
5.0
 10
148.601093170315
 20
-121.7848144226788
 30
0.0
 10
148.601093170315
 20
-118.4279133818514
 30
0.0
 10
148.601093170315
 20
-114.8732638601706
 30
0.0
 10
148.601093170315
 20
-111.2724500589874
 30
0.0
 10
144.6971109664299
 20
-110.2988660748558
 30
0.0
 10
140.8606526340557
 20
-110.315402533185
 30
0.0
 10
137.0235052825844
 20
-111.0712564826489
 30
0.0
 10
136.645922817401
 20
-111.1456705451303
 30
0.0
 10
136.0871283296935
 20
-111.6961968036732
 30
0.0
 10
136.080238138723
 20
-112.0358832185188
 30
0.0
 10
136.0092691717269
 20
-115.361778399979
 30
0.0
 10
136.0375189547059
 20
-118.6897406387303
 30
0.0
 10
136.0375189547059
 20
-121.7848144226788
 30
0.0
 10
140.2825656116308
 20
-121.7848144226788
 30
0.0
 10
144.3457112269344
 20
-121.7848144226788
 30
0.0
 10
148.601093170315
 20
-121.7848144226788
 30
0.0
  0
SPLINE
  5
4C
330
3C
100
AcDbEntity
  8
Layer 1
370
     0
100
AcDbSpline
210
0.0
220
0.0
230
1.0
 70
    11
 71
     3
 72
    26
 73
    22
 74
     0
 42
0.0000000001
 43
0.0000000001
 40
0.0
 40
0.0
 40
0.0
 40
0.0
 40
1.0
 40
1.0
 40
1.0
 40
2.0
 40
2.0
 40
2.0
 40
3.0
 40
3.0
 40
3.0
 40
4.0
 40
4.0
 40
4.0
 40
5.0
 40
5.0
 40
5.0
 40
6.0
 40
6.0
 40
6.0
 40
7.0
 40
7.0
 40
7.0
 40
7.0
 10
116.8504041591555
 20
-130.0427083008227
 30
0.0
 10
117.1832003830306
 20
-130.0427083008227
 30
0.0
 10
117.3154920496642
 20
-130.0806043511604
 30
0.0
 10
117.409198646863
 20
-130.0371961480463
 30
0.0
 10
121.2849310677691
 20
-128.2326551328724
 30
0.0
 10
125.1613525077722
 20
-126.4301811749897
 30
0.0
 10
129.019859451252
 20
-124.5905001858663
 30
0.0
 10
129.2741074980634
 20
-124.4692328247855
 30
0.0
 10
129.5455810223011
 20
-124.0620225384289
 30
0.0
 10
129.5490261177864
 20
-123.7850368614149
 30
0.0
 10
129.584855110833
 20
-120.3461425480385
 30
0.0
 10
129.572452767086
 20
-116.9072482346621
 30
0.0
 10
129.572452767086
 20
-113.2175509699595
 30
0.0
 10
124.7830810234917
 20
-115.2432671152864
 30
0.0
 10
120.8549831512099
 20
-118.0565320885414
 30
0.0
 10
117.1962917458745
 20
-121.2756293099589
 30
0.0
 10
116.9468668327425
 20
-121.4954264019178
 30
0.0
 10
116.8690076747758
 20
-122.0115017056082
 30
0.0
 10
116.8648735601935
 20
-122.3918402471798
 30
0.0
 10
116.8366237772145
 20
-124.9143391614798
 30
0.0
 10
116.8504041591555
 20
-127.4368380757797
 30
0.0
 10
116.8504041591555
 20
-130.0427083008227
 30
0.0
  0
SPLINE
  5
4D
330
3C
100
AcDbEntity
  8
Layer 1
370
     0
100
AcDbSpline
210
0.0
220
0.0
230
1.0
 70
    11
 71
     3
 72
    26
 73
    22
 74
     0
 42
0.0000000001
 43
0.0000000001
 40
0.0
 40
0.0
 40
0.0
 40
0.0
 40
1.0
 40
1.0
 40
1.0
 40
2.0
 40
2.0
 40
2.0
 40
3.0
 40
3.0
 40
3.0
 40
4.0
 40
4.0
 40
4.0
 40
5.0
 40
5.0
 40
5.0
 40
6.0
 40
6.0
 40
6.0
 40
7.0
 40
7.0
 40
7.0
 40
7.0
 10
155.2397921703914
 20
-113.2361544855799
 30
0.0
 10
155.2397921703914
 20
-116.8721082607125
 30
0.0
 10
155.2046521964419
 20
-120.215228919599
 30
0.0
 10
155.2832003735056
 20
-123.5562825211943
 30
0.0
 10
155.2928466408643
 20
-123.9765841703947
 30
0.0
 10
155.8116780209429
 20
-124.5532931546256
 30
0.0
 10
156.240247899308
 20
-124.7703341701963
 30
0.0
 10
159.4290282804552
 20
-126.3819498381962
 30
0.0
 10
162.6488145209698
 20
-127.9329318256557
 30
0.0
 10
165.8730793856151
 20
-129.4735785266594
 30
0.0
 10
166.465635809078
 20
-129.7567653755469
 30
0.0
 10
167.1236490467608
 20
-129.9049044814127
 30
0.0
 10
167.9284233521151
 20
-130.1743109483592
 30
0.0
 10
167.9284233521151
 20
-127.3665581278806
 30
0.0
 10
167.9511609823178
 20
-124.8454372517748
 30
0.0
 10
167.9063747410095
 20
-122.325694413863
 30
0.0
 10
167.898795530942
 20
-121.9081488410507
 30
0.0
 10
167.7106933174473
 20
-121.3610676779931
 30
0.0
 10
167.4095919720365
 20
-121.1019964975023
 30
0.0
 10
163.8042995467225
 20
-118.0014105607774
 30
0.0
 10
159.9816215962893
 20
-115.2267306569572
 30
0.0
 10
155.2397921703914
 20
-113.2361544855799
 30
0.0
  0
SPLINE
  5
4E
330
3C
100
AcDbEntity
  8
Layer 1
370
     0
100
AcDbSpline
210
0.0
220
0.0
230
1.0
 70
    11
 71
     3
 72
    23
 73
    19
 74
     0
 42
0.0000000001
 43
0.0000000001
 40
0.0
 40
0.0
 40
0.0
 40
0.0
 40
1.0
 40
1.0
 40
1.0
 40
2.0
 40
2.0
 40
2.0
 40
3.0
 40
3.0
 40
3.0
 40
4.0
 40
4.0
 40
4.0
 40
5.0
 40
5.0
 40
5.0
 40
6.0
 40
6.0
 40
6.0
 40
6.0
 10
110.4335693083291
 20
-126.1159884667349
 30
0.0
 10
106.5268310280558
 20
-127.3348632494163
 30
0.0
 10
102.823181126638
 20
-128.4386718428903
 30
0.0
 10
99.16862383588493
 20
-129.6857964085508
 30
0.0
 10
98.59811602352755
 20
-129.8807888130159
 30
0.0
 10
98.25085039861438
 20
-130.7303493596785
 30
0.0
 10
97.79988739959518
 20
-131.2774305227362
 30
0.0
 10
98.39003225621848
 20
-131.661214159793
 30
0.0
 10
98.95296085850829
 20
-132.3123372065052
 30
0.0
 10
99.57583412224146
 20
-132.3764159825309
 30
0.0
 10
101.1471421730639
 20
-132.5362684130465
 30
0.0
 10
102.7453219686713
 20
-132.432226529392
 30
0.0
 10
104.3323052039516
 20
-132.432915548489
 30
0.0
 10
106.3600884065697
 20
-132.4336045675861
 30
0.0
 10
108.3871825900907
 20
-132.4336045675861
 30
0.0
 10
110.4335693083291
 20
-132.4336045675861
 30
0.0
 10
110.4335693083291
 20
-130.2039387695324
 30
0.0
 10
110.4335693083291
 20
-128.2712402023072
 30
0.0
 10
110.4335693083291
 20
-126.1159884667349
 30
0.0
  0
SPLINE
  5
4F
330
3C
100
AcDbEntity
  8
Layer 1
370
     0
100
AcDbSpline
210
0.0
220
0.0
230
1.0
 70
    11
 71
     3
 72
    20
 73
    16
 74
     0
 42
0.0000000001
 43
0.0000000001
 40
0.0
 40
0.0
 40
0.0
 40
0.0
 40
1.0
 40
1.0
 40
1.0
 40
2.0
 40
2.0
 40
2.0
 40
3.0
 40
3.0
 40
3.0
 40
4.0
 40
4.0
 40
4.0
 40
5.0
 40
5.0
 40
5.0
 40
5.0
 10
174.4809949650603
 20
-126.1476833451992
 30
0.0
 10
174.4809949650603
 20
-128.3284287873624
 30
0.0
 10
174.4809949650603
 20
-130.3465657226217
 30
0.0
 10
174.4809949650603
 20
-132.4315375102949
 30
0.0
 10
178.0804307280494
 20
-132.4315375102949
 30
0.0
 10
181.5427516907254
 20
-132.4894151144471
 30
0.0
 10
184.9995605006251
 20
-132.3819281353073
 30
0.0
 10
185.6810003876075
 20
-132.3605685432987
 30
0.0
 10
186.3417697016785
 20
-131.7004882483249
 30
0.0
 10
187.0121852831081
 20
-131.3346191077914
 30
0.0
 10
186.5188476096203
 20
-130.7613552190458
 30
0.0
 10
186.1323078961753
 20
-129.8794107748218
 30
0.0
 10
185.5142577661214
 20
-129.6658148547363
 30
0.0
 10
181.9244682704911
 20
-128.4242024418523
 30
0.0
 10
178.2802462661938
 20
-127.3396863830956
 30
0.0
 10
174.4809949650603
 20
-126.1476833451992
 30
0.0
  0
HATCH
  5
50
330
3C
100
AcDbEntity
  8
Layer 1
 62
     7
420
 16777215
100
AcDbHatch
 10
0.0
 20
0.0
 30
0.0
210
0.0
220
0.0
230
1.0
  2
SOLID
 70
     1
 71
     0
 91
       10
 92
        1
 93
        1
 72
     4
 94
        3
 73
     0
 74
     1
 95
      107
 96
      103
 40
0.0
 40
0.0
 40
0.0
 40
0.0
 40
1.0
 40
1.0
 40
1.0
 40
2.0
 40
2.0
 40
2.0
 40
3.0
 40
3.0
 40
3.0
 40
4.0
 40
4.0
 40
4.0
 40
5.0
 40
5.0
 40
5.0
 40
6.0
 40
6.0
 40
6.0
 40
7.0
 40
7.0
 40
7.0
 40
8.0
 40
8.0
 40
8.0
 40
9.0
 40
9.0
 40
9.0
 40
10.0
 40
10.0
 40
10.0
 40
11.0
 40
11.0
 40
11.0
 40
12.0
 40
12.0
 40
12.0
 40
13.0
 40
13.0
 40
13.0
 40
14.0
 40
14.0
 40
14.0
 40
15.0
 40
15.0
 40
15.0
 40
16.0
 40
16.0
 40
16.0
 40
17.0
 40
17.0
 40
17.0
 40
18.0
 40
18.0
 40
18.0
 40
19.0
 40
19.0
 40
19.0
 40
20.0
 40
20.0
 40
20.0
 40
21.0
 40
21.0
 40
21.0
 40
22.0
 40
22.0
 40
22.0
 40
23.0
 40
23.0
 40
23.0
 40
24.0
 40
24.0
 40
24.0
 40
25.0
 40
25.0
 40
25.0
 40
26.0
 40
26.0
 40
26.0
 40
27.0
 40
27.0
 40
27.0
 40
28.0
 40
28.0
 40
28.0
 40
29.0
 40
29.0
 40
29.0
 40
30.0
 40
30.0
 40
30.0
 40
31.0
 40
31.0
 40
31.0
 40
32.0
 40
32.0
 40
32.0
 40
33.0
 40
33.0
 40
33.0
 40
34.0
 40
34.0
 40
34.0
 40
34.0
 10
148.9979681702158
 20
-162.452099568762
 10
147.580655887584
 20
-156.5203341622588
 10
145.7657795859544
 20
-154.6041720533628
 10
141.9424126164241
 20
-154.8646212720477
 10
138.3595133117643
 20
-155.1078450133064
 10
136.5026068452146
 20
-157.3609374606598
 10
135.8755994668992
 20
-162.3949109837068
 10
135.6068820190497
 20
-162.0593586834435
 10
135.3877739461878
 20
-161.8498968779403
 10
135.2451469930984
 20
-161.59771588842
 10
133.6128607521871
 20
-158.7100368526836
 10
131.0386854056084
 20
-157.4925401081963
 10
128.0290499896941
 20
-158.1980956635755
 10
125.2640163532326
 20
-158.8464626338995
 10
123.2713731245641
 20
-161.4378634579044
 10
123.2486354943615
 20
-164.6197536480812
 10
123.2052272912473
 20
-170.6741644538592
 10
123.255525685332
 20
-176.7292642787343
 10
123.2017821957621
 20
-182.7829860654154
 10
123.1969590620827
 20
-183.3769205270725
 10
122.9061930031276
 20
-184.2140787299882
 10
122.4603976473363
 20
-184.5213812472724
 10
108.7675211316623
 20
-193.9699001251186
 10
86.2088636394721
 20
-190.941661193584
 10
76.95533716609103
 20
-176.0877874993809
 10
73.83718124239141
 20
-171.0813747402158
 10
72.22556557439152
 20
-165.62434349158
 10
72.10636527060188
 20
-159.762858032976
 10
72.06933049413544
 20
-157.9417805594729
 10
71.56755233670881
 20
-156.4424750042922
 10
70.46891138646264
 20
-155.0727050393568
 10
67.49097084901268
 20
-151.3602701444516
 10
64.31080320657856
 20
-147.7890841644416
 10
61.58831649935987
 20
-143.8981933234004
 10
58.8763373333712
 20
-140.0224609024944
 10
56.11561006626624
 20
-136.0419975788367
 10
54.2742065294002
 20
-131.7246039167216
 10
50.52266980073739
 20
-122.9285861237817
 10
54.80457897935441
 20
-112.6670247114166
 10
63.81729327831651
 20
-107.8955674643456
 10
65.36517467983927
 20
-107.0763237579531
 10
65.78961044362204
 20
-106.2160834152863
 10
65.77496878780973
 20
-104.5534803341047
 10
65.69090845796964
 20
-94.9134141472786
 10
65.7250149032736
 20
-85.27231443180692
 10
65.73827852089182
 20
-75.63173148065805
 10
65.74413518321674
 20
-71.3599853337225
 10
67.71094019574588
 20
-69.10913219843452
 10
72.09034557659547
 20
-68.47092825979199
 10
72.09034557659547
 20
-66.47311738789561
 10
72.09034557659547
 20
-64.44343938276067
 10
72.09034557659547
 20
-62.317470958813
 10
118.9870523791074
 20
-62.317470958813
 10
165.6966904967703
 20
-62.317470958813
 10
212.6244031586495
 20
-62.317470958813
 10
212.6244031586495
 20
-64.3299234865217
 10
212.6244031586495
 20
-66.35322806500892
 10
212.6244031586495
 20
-68.31831052979543
 10
217.5977430011561
 20
-69.50721298175515
 10
219.0763779834254
 20
-71.40718314187043
 10
219.0777560216195
 20
-76.40377737890253
 10
219.0805120980077
 20
-86.04436033005142
 10
219.0998046327251
 20
-95.68511553597456
 10
219.0515732959315
 20
-105.3258707418977
 10
219.0453721240581
 20
-106.4841118440387
 10
219.4002169590389
 20
-107.0570312232358
 10
220.4413248146813
 20
-107.5958441571288
 10
227.897200463859
 20
-111.4571071769968
 10
231.7226344906805
 20
-117.6314073056616
 10
231.8032497250353
 20
-126.0353732323801
 10
231.8335665653055
 20
-129.2241536135273
 10
230.6229600117887
 20
-132.1118326492637
 10
229.1705077552074
 20
-134.8892686294721
 10
225.9872395268365
 20
-140.9781303901027
 10
221.5327310644085
 20
-146.1505967516568
 10
217.2153374022934
 20
-151.421592844089
 10
216.9548881836085
 20
-151.7399196669261
 10
216.6937499458266
 20
-152.0575574706662
 10
216.423654459783
 20
-152.3683050834357
 10
214.1981227763116
 20
-154.9266329907822
 10
212.8442002506084
 20
-157.612429431083
 10
212.5465440006828
 20
-161.2649196645449
 10
211.0155435670378
 20
-180.0448241737388
 10
197.4301540305036
 20
-188.4853081126009
 10
184.5386067246987
 20
-189.6979817234088
 10
176.7168619349875
 20
-190.4331650999612
 10
169.4890516069333
 20
-189.0282551610763
 10
162.7845512830886
 20
-184.9058539034263
 10
161.8157904326363
 20
-184.3098523844781
 10
161.479549113276
 20
-183.6614854141541
 10
161.493329495217
 20
-182.5115125411777
 10
161.563609443116
 20
-176.6341796433415
 10
161.562920424019
 20
-170.7547796882141
 10
161.5119330108373
 20
-164.8767577712808
 10
161.4733479414025
 20
-160.4360296907938
 10
158.5071207286024
 20
-157.6737521307205
 10
154.3730061463026
 20
-158.0974988754062
 10
152.3459119627816
 20
-158.3055826427153
 10
150.9003498971707
 20
-159.4038790834129
 10
149.828236182161
 20
-161.0678602027886
 10
149.5615857916027
 20
-161.4826496992127
 10
149.3204291076352
 20
-161.9132866348689
 10
148.9979681702158
 20
-162.452099568762
 97
        0
 92
        1
 93
        1
 72
     4
 94
        3
 73
     0
 74
     1
 95
       26
 96
       22
 40
0.0
 40
0.0
 40
0.0
 40
0.0
 40
1.0
 40
1.0
 40
1.0
 40
2.0
 40
2.0
 40
2.0
 40
3.0
 40
3.0
 40
3.0
 40
4.0
 40
4.0
 40
4.0
 40
5.0
 40
5.0
 40
5.0
 40
6.0
 40
6.0
 40
6.0
 40
7.0
 40
7.0
 40
7.0
 40
7.0
 10
84.939001443609
 20
-75.07224797385346
 10
85.11228974651706
 20
-77.33412541469426
 10
85.18808184719256
 20
-79.4886881311695
 10
85.45817733323615
 20
-81.61879066969948
 10
86.0807060874208
 20
-86.52736271708343
 10
87.05635712884356
 20
-91.35600854920962
 10
89.75317787469713
 20
-95.62310381724006
 10
92.39728865962638
 20
-99.80751679362452
 10
96.05976966999548
 20
-101.4597845883503
 10
100.7533677590999
 20
-99.94290904619483
 10
104.3385063758251
 20
-98.78432343450531
 10
107.8607719999445
 20
-97.16030542275854
 10
111.0833143168472
 20
-95.20418020623369
 10
119.9640814587243
 20
-89.81398381001179
 10
127.6673149637429
 20
-82.89967717111536
 10
135.1659097969377
 20
-75.76333412819459
 10
135.3388535902972
 20
-75.59917532832243
 10
135.4084445190993
 20
-75.32735729453621
 10
135.5441812812181
 20
-75.07224797385346
 10
118.6763047663379
 20
-75.07224797385346
 10
101.9495049115786
 20
-75.07224797385346
 10
84.939001443609
 20
-75.07224797385346
 97
        0
 92
        1
 93
        1
 72
     4
 94
        3
 73
     0
 74
     1
 95
       26
 96
       22
 40
0.0
 40
0.0
 40
0.0
 40
0.0
 40
1.0
 40
1.0
 40
1.0
 40
2.0
 40
2.0
 40
2.0
 40
3.0
 40
3.0
 40
3.0
 40
4.0
 40
4.0
 40
4.0
 40
5.0
 40
5.0
 40
5.0
 40
6.0
 40
6.0
 40
6.0
 40
7.0
 40
7.0
 40
7.0
 40
7.0
 10
149.0551567552709
 20
-75.0546779868787
 10
149.4182698194163
 20
-75.49220511350542
 10
149.5760551926407
 20
-75.7269883708252
 10
149.7765597498823
 20
-75.9180189154823
 10
156.5833794096389
 20
-82.41701929363187
 10
163.6513373071774
 20
-88.60647784243172
 10
171.4913411029605
 20
-93.84819062323935
 10
175.4469997391244
 20
-96.49333493681416
 10
179.5142794690103
 20
-98.95313311328256
 10
184.2216579400557
 20
-100.0845024706386
 10
188.638270352146
 20
-101.1462808991926
 10
192.0516709589315
 20
-99.8764187033295
 10
194.663742355848
 20
-96.16398380842429
 10
196.7638725636563
 20
-93.1788085704553
 10
197.9028211310799
 20
-89.77815481696518
 10
198.5353406621717
 20
-86.24555390639
 10
199.1899088043692
 20
-82.58927406789435
 10
199.5550889258057
 20
-78.8806287780229
 10
200.0663410958168
 20
-75.0546779868787
 10
182.8381075931794
 20
-75.0546779868787
 10
166.1107909740973
 20
-75.0546779868787
 10
149.0551567552709
 20
-75.0546779868787
 97
        0
 92
        1
 93
        1
 72
     4
 94
        3
 73
     0
 74
     1
 95
       17
 96
       13
 40
0.0
 40
0.0
 40
0.0
 40
0.0
 40
1.0
 40
1.0
 40
1.0
 40
2.0
 40
2.0
 40
2.0
 40
3.0
 40
3.0
 40
3.0
 40
4.0
 40
4.0
 40
4.0
 40
4.0
 10
183.8578558568133
 20
-158.0430663667393
 10
178.5634331150814
 20
-158.0630479205537
 10
174.3487032984267
 20
-162.2660644125585
 10
174.3438801647474
 20
-167.5308593331173
 10
174.339057031068
 20
-172.7694715279882
 10
178.5806585925076
 20
-177.0434569869892
 10
183.8302950929313
 20
-177.0896212664915
 10
189.1192056818869
 20
-177.1357855459938
 10
193.4538248214282
 20
-172.7908311199967
 10
193.4276420957403
 20
-167.4702256525769
 10
193.4007703509554
 20
-162.2171440566679
 10
189.1426323311866
 20
-158.0223957938277
 10
183.8578558568133
 20
-158.0430663667393
 97
        0
 92
        1
 93
        1
 72
     4
 94
        3
 73
     0
 74
     1
 95
       17
 96
       13
 40
0.0
 40
0.0
 40
0.0
 40
0.0
 40
1.0
 40
1.0
 40
1.0
 40
2.0
 40
2.0
 40
2.0
 40
3.0
 40
3.0
 40
3.0
 40
4.0
 40
4.0
 40
4.0
 40
4.0
 10
100.8415622035223
 20
-158.0423773476422
 10
95.4479207118151
 20
-158.0761392833977
 10
91.3468790461737
 20
-162.2881130236641
 10
91.4020005739377
 20
-167.7354980049411
 10
91.45436602531349
 20
-172.8990071182336
 10
95.66909584196814
 20
-177.0620605026095
 10
100.8711900246954
 20
-177.0896212664915
 10
106.1382242573196
 20
-177.1178710494706
 10
110.5569037267011
 20
-172.6785210071776
 10
110.4742214350551
 20
-167.4419758695979
 10
110.390850124312
 20
-162.1806260445243
 10
106.115486627117
 20
-158.0086154118868
 10
100.8415622035223
 20
-158.0423773476422
 97
        0
 92
        1
 93
        1
 72
     4
 94
        3
 73
     0
 74
     1
 95
       20
 96
       16
 40
0.0
 40
0.0
 40
0.0
 40
0.0
 40
1.0
 40
1.0
 40
1.0
 40
2.0
 40
2.0
 40
2.0
 40
3.0
 40
3.0
 40
3.0
 40
4.0
 40
4.0
 40
4.0
 40
5.0
 40
5.0
 40
5.0
 40
5.0
 10
148.601093170315
 20
-121.7848144226788
 10
148.601093170315
 20
-118.4279133818514
 10
148.601093170315
 20
-114.8732638601706
 10
148.601093170315
 20
-111.2724500589874
 10
144.6971109664299
 20
-110.2988660748558
 10
140.8606526340557
 20
-110.315402533185
 10
137.0235052825844
 20
-111.0712564826489
 10
136.645922817401
 20
-111.1456705451303
 10
136.0871283296935
 20
-111.6961968036732
 10
136.080238138723
 20
-112.0358832185188
 10
136.0092691717269
 20
-115.361778399979
 10
136.0375189547059
 20
-118.6897406387303
 10
136.0375189547059
 20
-121.7848144226788
 10
140.2825656116308
 20
-121.7848144226788
 10
144.3457112269344
 20
-121.7848144226788
 10
148.601093170315
 20
-121.7848144226788
 97
        0
 92
        1
 93
        1
 72
     4
 94
        3
 73
     0
 74
     1
 95
       26
 96
       22
 40
0.0
 40
0.0
 40
0.0
 40
0.0
 40
1.0
 40
1.0
 40
1.0
 40
2.0
 40
2.0
 40
2.0
 40
3.0
 40
3.0
 40
3.0
 40
4.0
 40
4.0
 40
4.0
 40
5.0
 40
5.0
 40
5.0
 40
6.0
 40
6.0
 40
6.0
 40
7.0
 40
7.0
 40
7.0
 40
7.0
 10
116.8504041591555
 20
-130.0427083008227
 10
117.1832003830306
 20
-130.0427083008227
 10
117.3154920496642
 20
-130.0806043511604
 10
117.409198646863
 20
-130.0371961480463
 10
121.2849310677691
 20
-128.2326551328724
 10
125.1613525077722
 20
-126.4301811749897
 10
129.019859451252
 20
-124.5905001858663
 10
129.2741074980634
 20
-124.4692328247855
 10
129.5455810223011
 20
-124.0620225384289
 10
129.5490261177864
 20
-123.7850368614149
 10
129.584855110833
 20
-120.3461425480385
 10
129.572452767086
 20
-116.9072482346621
 10
129.572452767086
 20
-113.2175509699595
 10
124.7830810234917
 20
-115.2432671152864
 10
120.8549831512099
 20
-118.0565320885414
 10
117.1962917458745
 20
-121.2756293099589
 10
116.9468668327425
 20
-121.4954264019178
 10
116.8690076747758
 20
-122.0115017056082
 10
116.8648735601935
 20
-122.3918402471798
 10
116.8366237772145
 20
-124.9143391614798
 10
116.8504041591555
 20
-127.4368380757797
 10
116.8504041591555
 20
-130.0427083008227
 97
        0
 92
        1
 93
        1
 72
     4
 94
        3
 73
     0
 74
     1
 95
       26
 96
       22
 40
0.0
 40
0.0
 40
0.0
 40
0.0
 40
1.0
 40
1.0
 40
1.0
 40
2.0
 40
2.0
 40
2.0
 40
3.0
 40
3.0
 40
3.0
 40
4.0
 40
4.0
 40
4.0
 40
5.0
 40
5.0
 40
5.0
 40
6.0
 40
6.0
 40
6.0
 40
7.0
 40
7.0
 40
7.0
 40
7.0
 10
155.2397921703914
 20
-113.2361544855799
 10
155.2397921703914
 20
-116.8721082607125
 10
155.2046521964419
 20
-120.215228919599
 10
155.2832003735056
 20
-123.5562825211943
 10
155.2928466408643
 20
-123.9765841703947
 10
155.8116780209429
 20
-124.5532931546256
 10
156.240247899308
 20
-124.7703341701963
 10
159.4290282804552
 20
-126.3819498381962
 10
162.6488145209698
 20
-127.9329318256557
 10
165.8730793856151
 20
-129.4735785266594
 10
166.465635809078
 20
-129.7567653755469
 10
167.1236490467608
 20
-129.9049044814127
 10
167.9284233521151
 20
-130.1743109483592
 10
167.9284233521151
 20
-127.3665581278806
 10
167.9511609823178
 20
-124.8454372517748
 10
167.9063747410095
 20
-122.325694413863
 10
167.898795530942
 20
-121.9081488410507
 10
167.7106933174473
 20
-121.3610676779931
 10
167.4095919720365
 20
-121.1019964975023
 10
163.8042995467225
 20
-118.0014105607774
 10
159.9816215962893
 20
-115.2267306569572
 10
155.2397921703914
 20
-113.2361544855799
 97
        0
 92
        1
 93
        1
 72
     4
 94
        3
 73
     0
 74
     1
 95
       23
 96
       19
 40
0.0
 40
0.0
 40
0.0
 40
0.0
 40
1.0
 40
1.0
 40
1.0
 40
2.0
 40
2.0
 40
2.0
 40
3.0
 40
3.0
 40
3.0
 40
4.0
 40
4.0
 40
4.0
 40
5.0
 40
5.0
 40
5.0
 40
6.0
 40
6.0
 40
6.0
 40
6.0
 10
110.4335693083291
 20
-126.1159884667349
 10
106.5268310280558
 20
-127.3348632494163
 10
102.823181126638
 20
-128.4386718428903
 10
99.16862383588493
 20
-129.6857964085508
 10
98.59811602352755
 20
-129.8807888130159
 10
98.25085039861438
 20
-130.7303493596785
 10
97.79988739959518
 20
-131.2774305227362
 10
98.39003225621848
 20
-131.661214159793
 10
98.95296085850829
 20
-132.3123372065052
 10
99.57583412224146
 20
-132.3764159825309
 10
101.1471421730639
 20
-132.5362684130465
 10
102.7453219686713
 20
-132.432226529392
 10
104.3323052039516
 20
-132.432915548489
 10
106.3600884065697
 20
-132.4336045675861
 10
108.3871825900907
 20
-132.4336045675861
 10
110.4335693083291
 20
-132.4336045675861
 10
110.4335693083291
 20
-130.2039387695324
 10
110.4335693083291
 20
-128.2712402023072
 10
110.4335693083291
 20
-126.1159884667349
 97
        0
 92
        1
 93
        1
 72
     4
 94
        3
 73
     0
 74
     1
 95
       20
 96
       16
 40
0.0
 40
0.0
 40
0.0
 40
0.0
 40
1.0
 40
1.0
 40
1.0
 40
2.0
 40
2.0
 40
2.0
 40
3.0
 40
3.0
 40
3.0
 40
4.0
 40
4.0
 40
4.0
 40
5.0
 40
5.0
 40
5.0
 40
5.0
 10
174.4809949650603
 20
-126.1476833451992
 10
174.4809949650603
 20
-128.3284287873624
 10
174.4809949650603
 20
-130.3465657226217
 10
174.4809949650603
 20
-132.4315375102949
 10
178.0804307280494
 20
-132.4315375102949
 10
181.5427516907254
 20
-132.4894151144471
 10
184.9995605006251
 20
-132.3819281353073
 10
185.6810003876075
 20
-132.3605685432987
 10
186.3417697016785
 20
-131.7004882483249
 10
187.0121852831081
 20
-131.3346191077914
 10
186.5188476096203
 20
-130.7613552190458
 10
186.1323078961753
 20
-129.8794107748218
 10
185.5142577661214
 20
-129.6658148547363
 10
181.9244682704911
 20
-128.4242024418523
 10
178.2802462661938
 20
-127.3396863830956
 10
174.4809949650603
 20
-126.1476833451992
 97
        0
 75
     0
 76
     1
 98
        0
  0
SPLINE
  5
51
330
3C
100
AcDbEntity
  8
Layer 1
370
     0
100
AcDbSpline
210
0.0
220
0.0
230
1.0
 70
    11
 71
     3
 72
    29
 73
    25
 74
     0
 42
0.0000000001
 43
0.0000000001
 40
0.0
 40
0.0
 40
0.0
 40
0.0
 40
1.0
 40
1.0
 40
1.0
 40
2.0
 40
2.0
 40
2.0
 40
3.0
 40
3.0
 40
3.0
 40
4.0
 40
4.0
 40
4.0
 40
5.0
 40
5.0
 40
5.0
 40
6.0
 40
6.0
 40
6.0
 40
7.0
 40
7.0
 40
7.0
 40
8.0
 40
8.0
 40
8.0
 40
8.0
 10
212.5747937836619
 20
-55.80434568917391
 30
0.0
 10
165.7097818596142
 20
-55.80434568917391
 30
0.0
 10
119.0463080214537
 20
-55.80434568917391
 30
0.0
 10
72.15631915513801
 20
-55.80434568917391
 30
0.0
 10
72.15631915513801
 20
-52.96593151887657
 30
0.0
 10
71.97269556577419
 20
-50.15714516975238
 30
0.0
 10
72.18611923108541
 20
-47.37884791567265
 30
0.0
 10
73.54383136182238
 20
-29.70378552859836
 30
0.0
 10
85.39444306675904
 20
-15.98558756110777
 30
0.0
 10
102.7232733575657
 20
-12.04560410940179
 30
0.0
 10
105.1667073304792
 20
-11.49008246240526
 30
0.0
 10
107.716077989564
 20
-11.1514295762052
 30
0.0
 10
110.2179063309525
 20
-11.14333360181486
 30
0.0
 10
131.6725829748944
 20
-11.07357041823855
 30
0.0
 10
153.1286376570303
 20
-11.01999918344292
 30
0.0
 10
174.5829697914237
 20
-11.1280029269055
 30
0.0
 10
193.5440863231418
 20
-11.22343207184692
 30
0.0
 10
210.039892525615
 20
-25.96568467232802
 30
0.0
 10
212.3405272906649
 20
-44.76849906649885
 30
0.0
 10
212.7312011186922
 20
-47.96261934564824
 30
0.0
 10
212.5913302419911
 20
-51.22202418424311
 30
0.0
 10
212.6836588009958
 20
-54.4514566921163
 30
0.0
 10
212.6946831065486
 20
-54.85022649453397
 30
0.0
 10
212.6216470822613
 20
-55.25140786379131
 30
0.0
 10
212.5747937836619
 20
-55.80434568917391
 30
0.0
  0
HATCH
  5
52
330
3C
100
AcDbEntity
  8
Layer 1
 62
     7
420
 16777215
100
AcDbHatch
 10
0.0
 20
0.0
 30
0.0
210
0.0
220
0.0
230
1.0
  2
SOLID
 70
     1
 71
     0
 91
        1
 92
        1
 93
        1
 72
     4
 94
        3
 73
     0
 74
     1
 95
       29
 96
       25
 40
0.0
 40
0.0
 40
0.0
 40
0.0
 40
1.0
 40
1.0
 40
1.0
 40
2.0
 40
2.0
 40
2.0
 40
3.0
 40
3.0
 40
3.0
 40
4.0
 40
4.0
 40
4.0
 40
5.0
 40
5.0
 40
5.0
 40
6.0
 40
6.0
 40
6.0
 40
7.0
 40
7.0
 40
7.0
 40
8.0
 40
8.0
 40
8.0
 40
8.0
 10
212.5747937836619
 20
-55.80434568917391
 10
165.7097818596142
 20
-55.80434568917391
 10
119.0463080214537
 20
-55.80434568917391
 10
72.15631915513801
 20
-55.80434568917391
 10
72.15631915513801
 20
-52.96593151887657
 10
71.97269556577419
 20
-50.15714516975238
 10
72.18611923108541
 20
-47.37884791567265
 10
73.54383136182238
 20
-29.70378552859836
 10
85.39444306675904
 20
-15.98558756110777
 10
102.7232733575657
 20
-12.04560410940179
 10
105.1667073304792
 20
-11.49008246240526
 10
107.716077989564
 20
-11.1514295762052
 10
110.2179063309525
 20
-11.14333360181486
 10
131.6725829748944
 20
-11.07357041823855
 10
153.1286376570303
 20
-11.01999918344292
 10
174.5829697914237
 20
-11.1280029269055
 10
193.5440863231418
 20
-11.22343207184692
 10
210.039892525615
 20
-25.96568467232802
 10
212.3405272906649
 20
-44.76849906649885
 10
212.7312011186922
 20
-47.96261934564824
 10
212.5913302419911
 20
-51.22202418424311
 10
212.6836588009958
 20
-54.4514566921163
 10
212.6946831065486
 20
-54.85022649453397
 10
212.6216470822613
 20
-55.25140786379131
 10
212.5747937836619
 20
-55.80434568917391
 97
        0
 75
     0
 76
     1
 98
        0
  0
SPLINE
  5
53
330
3C
100
AcDbEntity
  8
Layer 1
370
     0
100
AcDbSpline
210
0.0
220
0.0
230
1.0
 70
    11
 71
     3
 72
    26
 73
    22
 74
     0
 42
0.0000000001
 43
0.0000000001
 40
0.0
 40
0.0
 40
0.0
 40
0.0
 40
1.0
 40
1.0
 40
1.0
 40
2.0
 40
2.0
 40
2.0
 40
3.0
 40
3.0
 40
3.0
 40
4.0
 40
4.0
 40
4.0
 40
5.0
 40
5.0
 40
5.0
 40
6.0
 40
6.0
 40
6.0
 40
7.0
 40
7.0
 40
7.0
 40
7.0
 10
139.1325927386544
 20
-174.0000596353194
 30
0.0
 10
139.1325927386544
 20
-169.9513834210538
 30
0.0
 10
139.1208794140045
 20
-165.9020181876912
 30
0.0
 10
139.1367268532367
 20
-161.8533419734256
 30
0.0
 10
139.1456841014983
 20
-159.4472872865271
 30
0.0
 10
140.4913383980369
 20
-157.8687445351856
 30
0.0
 10
142.4460855763677
 20
-157.9093966619116
 30
0.0
 10
144.3298637877023
 20
-157.9486707504434
 30
0.0
 10
145.636243995709
 20
-159.4727809931179
 30
0.0
 10
145.6431341866795
 20
-161.7961533883704
 30
0.0
 10
145.6658718168821
 20
-169.8941948359987
 30
0.0
 10
145.6679388741733
 20
-177.9922362836269
 30
0.0
 10
145.6417561484854
 20
-186.0909667503523
 30
0.0
 10
145.6341769384179
 20
-188.472905768854
 30
0.0
 10
144.3760280672046
 20
-189.8936631469711
 30
0.0
 10
142.4157687360974
 20
-189.9088215671061
 30
0.0
 10
140.3914306289647
 20
-189.9246690063383
 30
0.0
 10
139.1449950824013
 20
-188.4508571577484
 30
0.0
 10
139.1360378341396
 20
-185.9717664465626
 30
0.0
 10
139.1215684331016
 20
-181.9809678364492
 30
0.0
 10
139.1325927386544
 20
-177.9908582454329
 30
0.0
 10
139.1325927386544
 20
-174.0000596353194
 30
0.0
  0
HATCH
  5
54
330
3C
100
AcDbEntity
  8
Layer 1
 62
     7
420
 16777215
100
AcDbHatch
 10
0.0
 20
0.0
 30
0.0
210
0.0
220
0.0
230
1.0
  2
SOLID
 70
     1
 71
     0
 91
        1
 92
        1
 93
        1
 72
     4
 94
        3
 73
     0
 74
     1
 95
       26
 96
       22
 40
0.0
 40
0.0
 40
0.0
 40
0.0
 40
1.0
 40
1.0
 40
1.0
 40
2.0
 40
2.0
 40
2.0
 40
3.0
 40
3.0
 40
3.0
 40
4.0
 40
4.0
 40
4.0
 40
5.0
 40
5.0
 40
5.0
 40
6.0
 40
6.0
 40
6.0
 40
7.0
 40
7.0
 40
7.0
 40
7.0
 10
139.1325927386544
 20
-174.0000596353194
 10
139.1325927386544
 20
-169.9513834210538
 10
139.1208794140045
 20
-165.9020181876912
 10
139.1367268532367
 20
-161.8533419734256
 10
139.1456841014983
 20
-159.4472872865271
 10
140.4913383980369
 20
-157.8687445351856
 10
142.4460855763677
 20
-157.9093966619116
 10
144.3298637877023
 20
-157.9486707504434
 10
145.636243995709
 20
-159.4727809931179
 10
145.6431341866795
 20
-161.7961533883704
 10
145.6658718168821
 20
-169.8941948359987
 10
145.6679388741733
 20
-177.9922362836269
 10
145.6417561484854
 20
-186.0909667503523
 10
145.6341769384179
 20
-188.472905768854
 10
144.3760280672046
 20
-189.8936631469711
 10
142.4157687360974
 20
-189.9088215671061
 10
140.3914306289647
 20
-189.9246690063383
 10
139.1449950824013
 20
-188.4508571577484
 10
139.1360378341396
 20
-185.9717664465626
 10
139.1215684331016
 20
-181.9809678364492
 10
139.1325927386544
 20
-177.9908582454329
 10
139.1325927386544
 20
-174.0000596353194
 97
        0
 75
     0
 76
     1
 98
        0
  0
SPLINE
  5
55
330
3C
100
AcDbEntity
  8
Layer 1
370
     0
100
AcDbSpline
210
0.0
220
0.0
230
1.0
 70
    11
 71
     3
 72
    26
 73
    22
 74
     0
 42
0.0000000001
 43
0.0000000001
 40
0.0
 40
0.0
 40
0.0
 40
0.0
 40
1.0
 40
1.0
 40
1.0
 40
2.0
 40
2.0
 40
2.0
 40
3.0
 40
3.0
 40
3.0
 40
4.0
 40
4.0
 40
4.0
 40
5.0
 40
5.0
 40
5.0
 40
6.0
 40
6.0
 40
6.0
 40
7.0
 40
7.0
 40
7.0
 40
7.0
 10
158.4278835324417
 20
-173.8774142360445
 30
0.0
 10
158.4278835324417
 20
-176.875336327309
 30
0.0
 10
158.4444199907709
 20
-179.8732584185734
 30
0.0
 10
158.4223713796652
 20
-182.8704914907407
 30
0.0
 10
158.405834921336
 20
-185.2290038599428
 30
0.0
 10
157.1656005466461
 20
-186.6924804220769
 30
0.0
 10
155.2142984638006
 20
-186.7269313769294
 30
0.0
 10
153.2602403045669
 20
-186.7613823317819
 30
0.0
 10
151.9194091417077
 20
-185.3075520370064
 30
0.0
 10
151.9076958170578
 20
-182.9745333743953
 30
0.0
 10
151.8760009385935
 20
-176.9201225686172
 30
0.0
 10
151.8746229003994
 20
-170.8650227437421
 30
0.0
 10
151.909762874349
 20
-164.8113009570611
 30
0.0
 10
151.9221652180958
 20
-162.6277994385097
 30
0.0
 10
153.2788438201872
 20
-161.1340060361054
 30
0.0
 10
155.1116346183402
 20
-161.100933119447
 30
0.0
 10
157.0085041925187
 20
-161.0664821645945
 30
0.0
 10
158.3996337494626
 20
-162.6209092475392
 30
0.0
 10
158.4203043223741
 20
-164.8836479622513
 30
0.0
 10
158.4485541053531
 20
-167.8815700535157
 30
0.0
 10
158.4271945133446
 20
-170.8794921447801
 30
0.0
 10
158.4278835324417
 20
-173.8774142360445
 30
0.0
  0
HATCH
  5
56
330
3C
100
AcDbEntity
  8
Layer 1
 62
     7
420
 16777215
100
AcDbHatch
 10
0.0
 20
0.0
 30
0.0
210
0.0
220
0.0
230
1.0
  2
SOLID
 70
     1
 71
     0
 91
        1
 92
        1
 93
        1
 72
     4
 94
        3
 73
     0
 74
     1
 95
       26
 96
       22
 40
0.0
 40
0.0
 40
0.0
 40
0.0
 40
1.0
 40
1.0
 40
1.0
 40
2.0
 40
2.0
 40
2.0
 40
3.0
 40
3.0
 40
3.0
 40
4.0
 40
4.0
 40
4.0
 40
5.0
 40
5.0
 40
5.0
 40
6.0
 40
6.0
 40
6.0
 40
7.0
 40
7.0
 40
7.0
 40
7.0
 10
158.4278835324417
 20
-173.8774142360445
 10
158.4278835324417
 20
-176.875336327309
 10
158.4444199907709
 20
-179.8732584185734
 10
158.4223713796652
 20
-182.8704914907407
 10
158.405834921336
 20
-185.2290038599428
 10
157.1656005466461
 20
-186.6924804220769
 10
155.2142984638006
 20
-186.7269313769294
 10
153.2602403045669
 20
-186.7613823317819
 10
151.9194091417077
 20
-185.3075520370064
 10
151.9076958170578
 20
-182.9745333743953
 10
151.8760009385935
 20
-176.9201225686172
 10
151.8746229003994
 20
-170.8650227437421
 10
151.909762874349
 20
-164.8113009570611
 10
151.9221652180958
 20
-162.6277994385097
 10
153.2788438201872
 20
-161.1340060361054
 10
155.1116346183402
 20
-161.100933119447
 10
157.0085041925187
 20
-161.0664821645945
 10
158.3996337494626
 20
-162.6209092475392
 10
158.4203043223741
 20
-164.8836479622513
 10
158.4485541053531
 20
-167.8815700535157
 10
158.4271945133446
 20
-170.8794921447801
 10
158.4278835324417
 20
-173.8774142360445
 97
        0
 75
     0
 76
     1
 98
        0
  0
SPLINE
  5
57
330
3C
100
AcDbEntity
  8
Layer 1
370
     0
100
AcDbSpline
210
0.0
220
0.0
230
1.0
 70
    11
 71
     3
 72
    26
 73
    22
 74
     0
 42
0.0000000001
 43
0.0000000001
 40
0.0
 40
0.0
 40
0.0
 40
0.0
 40
1.0
 40
1.0
 40
1.0
 40
2.0
 40
2.0
 40
2.0
 40
3.0
 40
3.0
 40
3.0
 40
4.0
 40
4.0
 40
4.0
 40
5.0
 40
5.0
 40
5.0
 40
6.0
 40
6.0
 40
6.0
 40
7.0
 40
7.0
 40
7.0
 40
7.0
 10
126.4015868824621
 20
-173.9476941839436
 30
0.0
 10
126.4015868824621
 20
-170.8925835076241
 30
0.0
 10
126.386428462327
 20
-167.8367838122075
 30
0.0
 10
126.4070990352385
 20
-164.7816731358879
 30
0.0
 10
126.4215684362766
 20
-162.5954155409484
 30
0.0
 10
127.7231255106039
 20
-161.1222927114555
 30
0.0
 10
129.598635492774
 20
-161.1030001767381
 30
0.0
 10
131.4569199975177
 20
-161.0843966611178
 30
0.0
 10
132.8005072367652
 20
-162.5423610704755
 30
0.0
 10
132.811531542318
 20
-164.7437770855502
 30
0.0
 10
132.840470344394
 20
-170.8539984381893
 30
0.0
 10
132.839781325297
 20
-176.9642197908284
 30
0.0
 10
132.812220561415
 20
-183.0744411434675
 30
0.0
 10
132.8025742940563
 20
-185.3220214380445
 30
0.0
 10
131.5347791554844
 20
-186.7186631477648
 30
0.0
 10
129.6358425240147
 20
-186.7269313769294
 30
0.0
 10
127.6762722120045
 20
-186.735199606094
 30
0.0
 10
126.4153672644031
 20
-185.2731010821539
 30
0.0
 10
126.4043429588503
 20
-182.9366373240575
 30
0.0
 10
126.3912515960064
 20
-179.9400932709872
 30
0.0
 10
126.4015868824621
 20
-176.9435492179169
 30
0.0
 10
126.4015868824621
 20
-173.9476941839436
 30
0.0
  0
HATCH
  5
58
330
3C
100
AcDbEntity
  8
Layer 1
 62
     7
420
 16777215
100
AcDbHatch
 10
0.0
 20
0.0
 30
0.0
210
0.0
220
0.0
230
1.0
  2
SOLID
 70
     1
 71
     0
 91
        1
 92
        1
 93
        1
 72
     4
 94
        3
 73
     0
 74
     1
 95
       26
 96
       22
 40
0.0
 40
0.0
 40
0.0
 40
0.0
 40
1.0
 40
1.0
 40
1.0
 40
2.0
 40
2.0
 40
2.0
 40
3.0
 40
3.0
 40
3.0
 40
4.0
 40
4.0
 40
4.0
 40
5.0
 40
5.0
 40
5.0
 40
6.0
 40
6.0
 40
6.0
 40
7.0
 40
7.0
 40
7.0
 40
7.0
 10
126.4015868824621
 20
-173.9476941839436
 10
126.4015868824621
 20
-170.8925835076241
 10
126.386428462327
 20
-167.8367838122075
 10
126.4070990352385
 20
-164.7816731358879
 10
126.4215684362766
 20
-162.5954155409484
 10
127.7231255106039
 20
-161.1222927114555
 10
129.598635492774
 20
-161.1030001767381
 10
131.4569199975177
 20
-161.0843966611178
 10
132.8005072367652
 20
-162.5423610704755
 10
132.811531542318
 20
-164.7437770855502
 10
132.840470344394
 20
-170.8539984381893
 10
132.839781325297
 20
-176.9642197908284
 10
132.812220561415
 20
-183.0744411434675
 10
132.8025742940563
 20
-185.3220214380445
 10
131.5347791554844
 20
-186.7186631477648
 10
129.6358425240147
 20
-186.7269313769294
 10
127.6762722120045
 20
-186.735199606094
 10
126.4153672644031
 20
-185.2731010821539
 10
126.4043429588503
 20
-182.9366373240575
 10
126.3912515960064
 20
-179.9400932709872
 10
126.4015868824621
 20
-176.9435492179169
 10
126.4015868824621
 20
-173.9476941839436
 97
        0
 75
     0
 76
     1
 98
        0
  0
SPLINE
  5
59
330
3C
100
AcDbEntity
  8
Layer 1
370
     0
100
AcDbSpline
210
0.0
220
0.0
230
1.0
 70
    11
 71
     3
 72
    26
 73
    22
 74
     0
 42
0.0000000001
 43
0.0000000001
 40
0.0
 40
0.0
 40
0.0
 40
0.0
 40
1.0
 40
1.0
 40
1.0
 40
2.0
 40
2.0
 40
2.0
 40
3.0
 40
3.0
 40
3.0
 40
4.0
 40
4.0
 40
4.0
 40
5.0
 40
5.0
 40
5.0
 40
6.0
 40
6.0
 40
6.0
 40
7.0
 40
7.0
 40
7.0
 40
7.0
 10
84.939001443609
 20
-75.07224797385346
 30
0.0
 10
101.9495049115786
 20
-75.07224797385346
 30
0.0
 10
118.6763047663379
 20
-75.07224797385346
 30
0.0
 10
135.5441812812181
 20
-75.07224797385346
 30
0.0
 10
135.4084445190993
 20
-75.32735729453621
 30
0.0
 10
135.3388535902972
 20
-75.59917532832243
 30
0.0
 10
135.1659097969377
 20
-75.76333412819459
 30
0.0
 10
127.6673149637429
 20
-82.89967717111536
 30
0.0
 10
119.9640814587243
 20
-89.81398381001179
 30
0.0
 10
111.0833143168472
 20
-95.20418020623369
 30
0.0
 10
107.8607719999445
 20
-97.16030542275854
 30
0.0
 10
104.3385063758251
 20
-98.78432343450531
 30
0.0
 10
100.7533677590999
 20
-99.94290904619483
 30
0.0
 10
96.05976966999548
 20
-101.4597845883503
 30
0.0
 10
92.39728865962638
 20
-99.80751679362452
 30
0.0
 10
89.75317787469713
 20
-95.62310381724006
 30
0.0
 10
87.05635712884356
 20
-91.35600854920962
 30
0.0
 10
86.0807060874208
 20
-86.52736271708343
 30
0.0
 10
85.45817733323615
 20
-81.61879066969948
 30
0.0
 10
85.18808184719256
 20
-79.4886881311695
 30
0.0
 10
85.11228974651706
 20
-77.33412541469426
 30
0.0
 10
84.939001443609
 20
-75.07224797385346
 30
0.0
  0
SPLINE
  5
5A
330
3C
100
AcDbEntity
  8
Layer 1
370
     0
100
AcDbSpline
210
0.0
220
0.0
230
1.0
 70
    11
 71
     3
 72
    26
 73
    22
 74
     0
 42
0.0000000001
 43
0.0000000001
 40
0.0
 40
0.0
 40
0.0
 40
0.0
 40
1.0
 40
1.0
 40
1.0
 40
2.0
 40
2.0
 40
2.0
 40
3.0
 40
3.0
 40
3.0
 40
4.0
 40
4.0
 40
4.0
 40
5.0
 40
5.0
 40
5.0
 40
6.0
 40
6.0
 40
6.0
 40
7.0
 40
7.0
 40
7.0
 40
7.0
 10
149.0551567552709
 20
-75.0546779868787
 30
0.0
 10
166.1107909740973
 20
-75.0546779868787
 30
0.0
 10
182.8381075931794
 20
-75.0546779868787
 30
0.0
 10
200.0663410958168
 20
-75.0546779868787
 30
0.0
 10
199.5550889258057
 20
-78.8806287780229
 30
0.0
 10
199.1899088043692
 20
-82.58927406789435
 30
0.0
 10
198.5353406621717
 20
-86.24555390639
 30
0.0
 10
197.9028211310799
 20
-89.77815481696518
 30
0.0
 10
196.7638725636563
 20
-93.1788085704553
 30
0.0
 10
194.663742355848
 20
-96.16398380842429
 30
0.0
 10
192.0516709589315
 20
-99.8764187033295
 30
0.0
 10
188.638270352146
 20
-101.1462808991926
 30
0.0
 10
184.2216579400557
 20
-100.0845024706386
 30
0.0
 10
179.5142794690103
 20
-98.95313311328256
 30
0.0
 10
175.4469997391244
 20
-96.49333493681416
 30
0.0
 10
171.4913411029605
 20
-93.84819062323935
 30
0.0
 10
163.6513373071774
 20
-88.60647784243172
 30
0.0
 10
156.5833794096389
 20
-82.41701929363187
 30
0.0
 10
149.7765597498823
 20
-75.9180189154823
 30
0.0
 10
149.5760551926407
 20
-75.7269883708252
 30
0.0
 10
149.4182698194163
 20
-75.49220511350542
 30
0.0
 10
149.0551567552709
 20
-75.0546779868787
 30
0.0
  0
SPLINE
  5
5B
330
3C
100
AcDbEntity
  8
Layer 1
370
     0
100
AcDbSpline
210
0.0
220
0.0
230
1.0
 70
    11
 71
     3
 72
    17
 73
    13
 74
     0
 42
0.0000000001
 43
0.0000000001
 40
0.0
 40
0.0
 40
0.0
 40
0.0
 40
1.0
 40
1.0
 40
1.0
 40
2.0
 40
2.0
 40
2.0
 40
3.0
 40
3.0
 40
3.0
 40
4.0
 40
4.0
 40
4.0
 40
4.0
 10
183.8578558568133
 20
-158.0430663667393
 30
0.0
 10
189.1426323311866
 20
-158.0223957938277
 30
0.0
 10
193.4007703509554
 20
-162.2171440566679
 30
0.0
 10
193.4276420957403
 20
-167.4702256525769
 30
0.0
 10
193.4538248214282
 20
-172.7908311199967
 30
0.0
 10
189.1192056818869
 20
-177.1357855459938
 30
0.0
 10
183.8302950929313
 20
-177.0896212664915
 30
0.0
 10
178.5806585925076
 20
-177.0434569869892
 30
0.0
 10
174.339057031068
 20
-172.7694715279882
 30
0.0
 10
174.3438801647474
 20
-167.5308593331173
 30
0.0
 10
174.3487032984267
 20
-162.2660644125585
 30
0.0
 10
178.5634331150814
 20
-158.0630479205537
 30
0.0
 10
183.8578558568133
 20
-158.0430663667393
 30
0.0
  0
SPLINE
  5
5C
330
3C
100
AcDbEntity
  8
Layer 1
370
     0
100
AcDbSpline
210
0.0
220
0.0
230
1.0
 70
    11
 71
     3
 72
    17
 73
    13
 74
     0
 42
0.0000000001
 43
0.0000000001
 40
0.0
 40
0.0
 40
0.0
 40
0.0
 40
1.0
 40
1.0
 40
1.0
 40
2.0
 40
2.0
 40
2.0
 40
3.0
 40
3.0
 40
3.0
 40
4.0
 40
4.0
 40
4.0
 40
4.0
 10
100.8415622035223
 20
-158.0423773476422
 30
0.0
 10
106.115486627117
 20
-158.0086154118868
 30
0.0
 10
110.390850124312
 20
-162.1806260445243
 30
0.0
 10
110.4742214350551
 20
-167.4419758695979
 30
0.0
 10
110.5569037267011
 20
-172.6785210071776
 30
0.0
 10
106.1382242573196
 20
-177.1178710494706
 30
0.0
 10
100.8711900246954
 20
-177.0896212664915
 30
0.0
 10
95.66909584196814
 20
-177.0620605026095
 30
0.0
 10
91.45436602531349
 20
-172.8990071182336
 30
0.0
 10
91.4020005739377
 20
-167.7354980049411
 30
0.0
 10
91.3468790461737
 20
-162.2881130236641
 30
0.0
 10
95.4479207118151
 20
-158.0761392833977
 30
0.0
 10
100.8415622035223
 20
-158.0423773476422
 30
0.0
  0
SPLINE
  5
5D
330
3C
100
AcDbEntity
  8
Layer 1
370
     0
100
AcDbSpline
210
0.0
220
0.0
230
1.0
 70
    11
 71
     3
 72
    20
 73
    16
 74
     0
 42
0.0000000001
 43
0.0000000001
 40
0.0
 40
0.0
 40
0.0
 40
0.0
 40
1.0
 40
1.0
 40
1.0
 40
2.0
 40
2.0
 40
2.0
 40
3.0
 40
3.0
 40
3.0
 40
4.0
 40
4.0
 40
4.0
 40
5.0
 40
5.0
 40
5.0
 40
5.0
 10
148.601093170315
 20
-121.7848144226788
 30
0.0
 10
144.3457112269344
 20
-121.7848144226788
 30
0.0
 10
140.2825656116308
 20
-121.7848144226788
 30
0.0
 10
136.0375189547059
 20
-121.7848144226788
 30
0.0
 10
136.0375189547059
 20
-118.6897406387303
 30
0.0
 10
136.0092691717269
 20
-115.361778399979
 30
0.0
 10
136.080238138723
 20
-112.0358832185188
 30
0.0
 10
136.0871283296935
 20
-111.6961968036732
 30
0.0
 10
136.645922817401
 20
-111.1456705451303
 30
0.0
 10
137.0235052825844
 20
-111.0712564826489
 30
0.0
 10
140.8606526340557
 20
-110.315402533185
 30
0.0
 10
144.6971109664299
 20
-110.2988660748558
 30
0.0
 10
148.601093170315
 20
-111.2724500589874
 30
0.0
 10
148.601093170315
 20
-114.8732638601706
 30
0.0
 10
148.601093170315
 20
-118.4279133818514
 30
0.0
 10
148.601093170315
 20
-121.7848144226788
 30
0.0
  0
SPLINE
  5
5E
330
3C
100
AcDbEntity
  8
Layer 1
370
     0
100
AcDbSpline
210
0.0
220
0.0
230
1.0
 70
    11
 71
     3
 72
    26
 73
    22
 74
     0
 42
0.0000000001
 43
0.0000000001
 40
0.0
 40
0.0
 40
0.0
 40
0.0
 40
1.0
 40
1.0
 40
1.0
 40
2.0
 40
2.0
 40
2.0
 40
3.0
 40
3.0
 40
3.0
 40
4.0
 40
4.0
 40
4.0
 40
5.0
 40
5.0
 40
5.0
 40
6.0
 40
6.0
 40
6.0
 40
7.0
 40
7.0
 40
7.0
 40
7.0
 10
116.8504041591555
 20
-130.0427083008227
 30
0.0
 10
116.8504041591555
 20
-127.4368380757797
 30
0.0
 10
116.8366237772145
 20
-124.9143391614798
 30
0.0
 10
116.8648735601935
 20
-122.3918402471798
 30
0.0
 10
116.8690076747758
 20
-122.0115017056082
 30
0.0
 10
116.9468668327425
 20
-121.4954264019178
 30
0.0
 10
117.1962917458745
 20
-121.2756293099589
 30
0.0
 10
120.8549831512099
 20
-118.0565320885414
 30
0.0
 10
124.7830810234917
 20
-115.2432671152864
 30
0.0
 10
129.572452767086
 20
-113.2175509699595
 30
0.0
 10
129.572452767086
 20
-116.9072482346621
 30
0.0
 10
129.584855110833
 20
-120.3461425480385
 30
0.0
 10
129.5490261177864
 20
-123.7850368614149
 30
0.0
 10
129.5455810223011
 20
-124.0620225384289
 30
0.0
 10
129.2741074980634
 20
-124.4692328247855
 30
0.0
 10
129.019859451252
 20
-124.5905001858663
 30
0.0
 10
125.1613525077722
 20
-126.4301811749897
 30
0.0
 10
121.2849310677691
 20
-128.2326551328724
 30
0.0
 10
117.409198646863
 20
-130.0371961480463
 30
0.0
 10
117.3154920496642
 20
-130.0806043511604
 30
0.0
 10
117.1832003830306
 20
-130.0427083008227
 30
0.0
 10
116.8504041591555
 20
-130.0427083008227
 30
0.0
  0
SPLINE
  5
5F
330
3C
100
AcDbEntity
  8
Layer 1
370
     0
100
AcDbSpline
210
0.0
220
0.0
230
1.0
 70
    11
 71
     3
 72
    26
 73
    22
 74
     0
 42
0.0000000001
 43
0.0000000001
 40
0.0
 40
0.0
 40
0.0
 40
0.0
 40
1.0
 40
1.0
 40
1.0
 40
2.0
 40
2.0
 40
2.0
 40
3.0
 40
3.0
 40
3.0
 40
4.0
 40
4.0
 40
4.0
 40
5.0
 40
5.0
 40
5.0
 40
6.0
 40
6.0
 40
6.0
 40
7.0
 40
7.0
 40
7.0
 40
7.0
 10
155.2397921703914
 20
-113.2361544855799
 30
0.0
 10
159.9816215962893
 20
-115.2267306569572
 30
0.0
 10
163.8042995467225
 20
-118.0014105607774
 30
0.0
 10
167.4095919720365
 20
-121.1019964975023
 30
0.0
 10
167.7106933174473
 20
-121.3610676779931
 30
0.0
 10
167.898795530942
 20
-121.9081488410507
 30
0.0
 10
167.9063747410095
 20
-122.325694413863
 30
0.0
 10
167.9511609823178
 20
-124.8454372517748
 30
0.0
 10
167.9284233521151
 20
-127.3665581278806
 30
0.0
 10
167.9284233521151
 20
-130.1743109483592
 30
0.0
 10
167.1236490467608
 20
-129.9049044814127
 30
0.0
 10
166.465635809078
 20
-129.7567653755469
 30
0.0
 10
165.8730793856151
 20
-129.4735785266594
 30
0.0
 10
162.6488145209698
 20
-127.9329318256557
 30
0.0
 10
159.4290282804552
 20
-126.3819498381962
 30
0.0
 10
156.240247899308
 20
-124.7703341701963
 30
0.0
 10
155.8116780209429
 20
-124.5532931546256
 30
0.0
 10
155.2928466408643
 20
-123.9765841703947
 30
0.0
 10
155.2832003735056
 20
-123.5562825211943
 30
0.0
 10
155.2046521964419
 20
-120.215228919599
 30
0.0
 10
155.2397921703914
 20
-116.8721082607125
 30
0.0
 10
155.2397921703914
 20
-113.2361544855799
 30
0.0
  0
SPLINE
  5
60
330
3C
100
AcDbEntity
  8
Layer 1
370
     0
100
AcDbSpline
210
0.0
220
0.0
230
1.0
 70
    11
 71
     3
 72
    23
 73
    19
 74
     0
 42
0.0000000001
 43
0.0000000001
 40
0.0
 40
0.0
 40
0.0
 40
0.0
 40
1.0
 40
1.0
 40
1.0
 40
2.0
 40
2.0
 40
2.0
 40
3.0
 40
3.0
 40
3.0
 40
4.0
 40
4.0
 40
4.0
 40
5.0
 40
5.0
 40
5.0
 40
6.0
 40
6.0
 40
6.0
 40
6.0
 10
110.4335693083291
 20
-126.1159884667349
 30
0.0
 10
110.4335693083291
 20
-128.2712402023072
 30
0.0
 10
110.4335693083291
 20
-130.2039387695324
 30
0.0
 10
110.4335693083291
 20
-132.4336045675861
 30
0.0
 10
108.3871825900907
 20
-132.4336045675861
 30
0.0
 10
106.3600884065697
 20
-132.4336045675861
 30
0.0
 10
104.3323052039516
 20
-132.432915548489
 30
0.0
 10
102.7453219686713
 20
-132.432226529392
 30
0.0
 10
101.1471421730639
 20
-132.5362684130465
 30
0.0
 10
99.57583412224146
 20
-132.3764159825309
 30
0.0
 10
98.95296085850829
 20
-132.3123372065052
 30
0.0
 10
98.39003225621848
 20
-131.661214159793
 30
0.0
 10
97.79988739959518
 20
-131.2774305227362
 30
0.0
 10
98.25085039861438
 20
-130.7303493596785
 30
0.0
 10
98.59811602352755
 20
-129.8807888130159
 30
0.0
 10
99.16862383588493
 20
-129.6857964085508
 30
0.0
 10
102.823181126638
 20
-128.4386718428903
 30
0.0
 10
106.5268310280558
 20
-127.3348632494163
 30
0.0
 10
110.4335693083291
 20
-126.1159884667349
 30
0.0
  0
SPLINE
  5
61
330
3C
100
AcDbEntity
  8
Layer 1
370
     0
100
AcDbSpline
210
0.0
220
0.0
230
1.0
 70
    11
 71
     3
 72
    20
 73
    16
 74
     0
 42
0.0000000001
 43
0.0000000001
 40
0.0
 40
0.0
 40
0.0
 40
0.0
 40
1.0
 40
1.0
 40
1.0
 40
2.0
 40
2.0
 40
2.0
 40
3.0
 40
3.0
 40
3.0
 40
4.0
 40
4.0
 40
4.0
 40
5.0
 40
5.0
 40
5.0
 40
5.0
 10
174.4809949650603
 20
-126.1476833451992
 30
0.0
 10
178.2802462661938
 20
-127.3396863830956
 30
0.0
 10
181.9244682704911
 20
-128.4242024418523
 30
0.0
 10
185.5142577661214
 20
-129.6658148547363
 30
0.0
 10
186.1323078961753
 20
-129.8794107748218
 30
0.0
 10
186.5188476096203
 20
-130.7613552190458
 30
0.0
 10
187.0121852831081
 20
-131.3346191077914
 30
0.0
 10
186.3417697016785
 20
-131.7004882483249
 30
0.0
 10
185.6810003876075
 20
-132.3605685432987
 30
0.0
 10
184.9995605006251
 20
-132.3819281353073
 30
0.0
 10
181.5427516907254
 20
-132.4894151144471
 30
0.0
 10
178.0804307280494
 20
-132.4315375102949
 30
0.0
 10
174.4809949650603
 20
-132.4315375102949
 30
0.0
 10
174.4809949650603
 20
-130.3465657226217
 30
0.0
 10
174.4809949650603
 20
-128.3284287873624
 30
0.0
 10
174.4809949650603
 20
-126.1476833451992
 30
0.0
  0
ENDBLK
  5
3F
330
3C
100
AcDbEntity
  8
0
100
AcDbBlockEnd
  0
ENDSEC
  0
SECTION
  2
ENTITIES
  0
INSERT
  5
3D
330
1F
100
AcDbEntity
  8
Layer 1
100
AcDbBlockReference
  2
block 2
 10
0.0
 20
0.0
 30
0.0
  0
ENDSEC
  0
SECTION
  2
OBJECTS
  0
DICTIONARY
  5
C
330
0
100
AcDbDictionary
281
     1
  3
ACAD_GROUP
350
D
  3
ACAD_LAYOUT
350
1A
  3
ACAD_MLINESTYLE
350
17
  3
ACAD_PLOTSETTINGS
350
19
  3
ACAD_PLOTSTYLENAME
350
E
  3
ACAD_TABLESTYLE
350
62
  3
ACAD_VISUALSTYLE
350
2A
  0
DICTIONARY
  5
D
102
{ACAD_REACTORS
330
C
102
}
330
C
100
AcDbDictionary
281
     1
  0
DICTIONARY
  5
1A
102
{ACAD_REACTORS
330
C
102
}
330
C
100
AcDbDictionary
281
     1
  3
Layout1
350
1E
  3
Layout2
350
26
  3
Model
350
22
  0
DICTIONARY
  5
17
102
{ACAD_REACTORS
330
C
102
}
330
C
100
AcDbDictionary
281
     1
  3
Standard
350
18
  0
DICTIONARY
  5
19
102
{ACAD_REACTORS
330
C
102
}
330
C
100
AcDbDictionary
281
     1
  0
ACDBDICTIONARYWDFLT
  5
E
102
{ACAD_REACTORS
330
C
102
}
330
C
100
AcDbDictionary
281
     1
  3
Normal
350
F
100
AcDbDictionaryWithDefault
340
F
  0
DICTIONARY
  5
62
102
{ACAD_REACTORS
330
C
102
}
330
C
100
AcDbDictionary
281
     1
  0
DICTIONARY
  5
2A
102
{ACAD_REACTORS
330
C
102
}
330
C
100
AcDbDictionary
281
     1
  3
2dWireframe
350
2F
  3
3D Hidden
350
31
  3
3dWireframe
350
30
  3
Basic
350
32
  3
Brighten
350
36
  3
ColorChange
350
3A
  3
Conceptual
350
34
  3
Dim
350
35
  3
Facepattern
350
39
  3
Flat
350
2B
  3
FlatWithEdges
350
2C
  3
Gouraud
350
2D
  3
GouraudWithEdges
350
2E
  3
Linepattern
350
38
  3
Realistic
350
33
  3
Thicken
350
37
  0
LAYOUT
  5
1E
102
{ACAD_REACTORS
330
1A
102
}
330
1A
100
AcDbPlotSettings
  1

  2
none_device
  4

  6

 40
0.0
 41
0.0
 42
0.0
 43
0.0
 44
0.0
 45
0.0
 46
0.0
 47
0.0
 48
0.0
 49
0.0
140
0.0
141
0.0
142
1.0
143
1.0
 70
   688
 72
     0
 73
     0
 74
     5
  7

 75
    16
 76
     0
 77
     2
 78
   300
147
1.0
148
0.0
149
0.0
100
AcDbLayout
  1
Layout1
 70
     1
 71
     1
 10
0.0
 20
0.0
 11
12.0
 21
9.0
 12
0.0
 22
0.0
 32
0.0
 14
1.000000000000000E+20
 24
1.000000000000000E+20
 34
1.000000000000000E+20
 15
-1.000000000000000E+20
 25
-1.000000000000000E+20
 35
-1.000000000000000E+20
146
0.0
 13
0.0
 23
0.0
 33
0.0
 16
1.0
 26
0.0
 36
0.0
 17
0.0
 27
1.0
 37
0.0
 76
     0
330
1B
  0
LAYOUT
  5
26
102
{ACAD_REACTORS
330
1A
102
}
330
1A
100
AcDbPlotSettings
  1

  2
none_device
  4

  6

 40
0.0
 41
0.0
 42
0.0
 43
0.0
 44
0.0
 45
0.0
 46
0.0
 47
0.0
 48
0.0
 49
0.0
140
0.0
141
0.0
142
1.0
143
1.0
 70
   688
 72
     0
 73
     0
 74
     5
  7

 75
    16
 76
     0
 77
     2
 78
   300
147
1.0
148
0.0
149
0.0
100
AcDbLayout
  1
Layout2
 70
     1
 71
     2
 10
0.0
 20
0.0
 11
0.0
 21
0.0
 12
0.0
 22
0.0
 32
0.0
 14
0.0
 24
0.0
 34
0.0
 15
0.0
 25
0.0
 35
0.0
146
0.0
 13
0.0
 23
0.0
 33
0.0
 16
1.0
 26
0.0
 36
0.0
 17
0.0
 27
1.0
 37
0.0
 76
     0
330
23
  0
LAYOUT
  5
22
102
{ACAD_REACTORS
330
1A
102
}
330
1A
100
AcDbPlotSettings
  1

  2
none_device
  4

  6

 40
0.0
 41
0.0
 42
0.0
 43
0.0
 44
0.0
 45
0.0
 46
0.0
 47
0.0
 48
0.0
 49
0.0
140
0.0
141
0.0
142
1.0
143
1.0
 70
  1712
 72
     0
 73
     0
 74
     0
  7

 75
     0
 76
     0
 77
     2
 78
   300
147
1.0
148
0.0
149
0.0
100
AcDbLayout
  1
Model
 70
     1
 71
     0
 10
0.0
 20
0.0
 11
12.0
 21
9.0
 12
0.0
 22
0.0
 32
0.0
 14
1.000000000000000E+20
 24
1.000000000000000E+20
 34
1.000000000000000E+20
 15
-1.000000000000000E+20
 25
-1.000000000000000E+20
 35
-1.000000000000000E+20
146
0.0
 13
0.0
 23
0.0
 33
0.0
 16
1.0
 26
0.0
 36
0.0
 17
0.0
 27
1.0
 37
0.0
 76
     0
330
1F
331
29
  0
MLINESTYLE
  5
18
102
{ACAD_REACTORS
330
17
102
}
330
17
100
AcDbMlineStyle
  2
Standard
 70
     0
  3

 62
   256
 51
90.0
 52
90.0
 71
     2
 49
0.5
 62
   256
  6
BYLAYER
 49
-0.5
 62
   256
  6
BYLAYER
  0
ACDBPLACEHOLDER
  5
F
102
{ACAD_REACTORS
330
E
102
}
330
E
  0
VISUALSTYLE
  5
2F
102
{ACAD_REACTORS
330
2A
102
}
330
2A
100
AcDbVisualStyle
  2
2dWireframe
 70
     4
 71
     0
 72
     2
 73
     0
 90
        0
 40
-0.6
 41
-30.0
 62
     5
 63
     7
421
 16777215
 74
     1
 91
        4
 64
     7
 65
   257
 75
     1
175
     1
 42
1.0
 92
        0
 66
   257
 43
1.0
 76
     1
 77
     6
 78
     2
 67
     7
 79
     5
170
     0
171
     0
290
     0
174
     0
 93
        1
 44
0.0
173
     0
291
     0
 45
0.0
1001
ACAD
1000
AcDbSavedByObjectVersion
1070
     0
  0
VISUALSTYLE
  5
31
102
{ACAD_REACTORS
330
2A
102
}
330
2A
100
AcDbVisualStyle
  2
3D Hidden
 70
     6
 71
     1
 72
     2
 73
     2
 90
        0
 40
-0.6
 41
-30.0
 62
     5
 63
     7
421
 16777215
 74
     2
 91
        2
 64
     7
 65
   257
 75
     2
175
     1
 42
40.0
 92
        0
 66
   257
 43
1.0
 76
     1
 77
     6
 78
     2
 67
     7
 79
     3
170
     0
171
     0
290
     0
174
     0
 93
        1
 44
0.0
173
     0
291
     0
 45
0.0
1001
ACAD
1000
AcDbSavedByObjectVersion
1070
     0
  0
VISUALSTYLE
  5
30
102
{ACAD_REACTORS
330
2A
102
}
330
2A
100
AcDbVisualStyle
  2
3dWireframe
 70
     5
 71
     0
 72
     2
 73
     0
 90
        0
 40
-0.6
 41
-30.0
 62
     5
 63
     7
421
 16777215
 74
     1
 91
        4
 64
     7
 65
   257
 75
     1
175
     1
 42
1.0
 92
        0
 66
   257
 43
1.0
 76
     1
 77
     6
 78
     2
 67
     7
 79
     5
170
     0
171
     0
290
     0
174
     0
 93
        1
 44
0.0
173
     0
291
     0
 45
0.0
1001
ACAD
1000
AcDbSavedByObjectVersion
1070
     0
  0
VISUALSTYLE
  5
32
102
{ACAD_REACTORS
330
2A
102
}
330
2A
100
AcDbVisualStyle
  2
Basic
 70
     7
 71
     1
 72
     0
 73
     1
 90
        0
 40
-0.6
 41
-30.0
 62
     5
 63
     7
421
 16777215
 74
     0
 91
        4
 64
     7
 65
   257
 75
     1
175
     1
 42
1.0
 92
        8
 66
     7
 43
1.0
 76
     1
 77
     6
 78
     2
 67
     7
 79
     5
170
     0
171
     0
290
     0
174
     0
 93
        1
 44
0.0
173
     0
291
     1
 45
0.0
1001
ACAD
1000
AcDbSavedByObjectVersion
1070
     0
  0
VISUALSTYLE
  5
36
102
{ACAD_REACTORS
330
2A
102
}
330
2A
100
AcDbVisualStyle
  2
Brighten
 70
    12
 71
     2
 72
     2
 73
     0
 90
        0
 40
-0.6
 41
-30.0
 62
     5
 63
     7
421
 16777215
 74
     1
 91
        4
 64
     7
 65
   257
 75
     1
175
     1
 42
1.0
 92
        8
 66
     7
 43
1.0
 76
     1
 77
     6
 78
     2
 67
     7
 79
     5
170
     0
171
     0
290
     0
174
     0
 93
        1
 44
50.0
173
     0
291
     1
 45
0.0
1001
ACAD
1000
AcDbSavedByObjectVersion
1070
     0
  0
VISUALSTYLE
  5
3A
102
{ACAD_REACTORS
330
2A
102
}
330
2A
100
AcDbVisualStyle
  2
ColorChange
 70
    16
 71
     2
 72
     2
 73
     3
 90
        0
 40
-0.6
 41
-30.0
 62
     5
 63
     8
421
  8421504
 74
     1
 91
        4
 64
     7
 65
   257
 75
     1
175
     1
 42
1.0
 92
        8
 66
     8
424
  8421504
 43
1.0
 76
     1
 77
     6
 78
     2
 67
     7
 79
     5
170
     0
171
     0
290
     0
174
     0
 93
        1
 44
0.0
173
     0
291
     1
 45
0.0
1001
ACAD
1000
AcDbSavedByObjectVersion
1070
     0
  0
VISUALSTYLE
  5
34
102
{ACAD_REACTORS
330
2A
102
}
330
2A
100
AcDbVisualStyle
  2
Conceptual
 70
     9
 71
     3
 72
     2
 73
     0
 90
        0
 40
-0.6
 41
-30.0
 62
     5
 63
     7
421
 16777215
 74
     2
 91
        2
 64
     7
 65
   257
 75
     1
175
     1
 42
40.0
 92
        8
 66
     7
 43
1.0
 76
     1
 77
     6
 78
     2
 67
     7
 79
     3
170
     0
171
     0
290
     0
174
     0
 93
        1
 44
0.0
173
     0
291
     0
 45
0.0
1001
ACAD
1000
AcDbSavedByObjectVersion
1070
     0
  0
VISUALSTYLE
  5
35
102
{ACAD_REACTORS
330
2A
102
}
330
2A
100
AcDbVisualStyle
  2
Dim
 70
    11
 71
     2
 72
     2
 73
     0
 90
        0
 40
-0.6
 41
-30.0
 62
     5
 63
     7
421
 16777215
 74
     1
 91
        4
 64
     7
 65
   257
 75
     1
175
     1
 42
1.0
 92
        8
 66
     7
 43
1.0
 76
     1
 77
     6
 78
     2
 67
     7
 79
     5
170
     0
171
     0
290
     0
174
     0
 93
        1
 44
-50.0
173
     0
291
     1
 45
0.0
1001
ACAD
1000
AcDbSavedByObjectVersion
1070
     0
  0
VISUALSTYLE
  5
39
102
{ACAD_REACTORS
330
2A
102
}
330
2A
100
AcDbVisualStyle
  2
Facepattern
 70
    15
 71
     2
 72
     2
 73
     0
 90
        0
 40
-0.6
 41
-30.0
 62
     5
 63
     7
421
 16777215
 74
     1
 91
        4
 64
     7
 65
   257
 75
     1
175
     1
 42
1.0
 92
        8
 66
     7
 43
1.0
 76
     1
 77
     6
 78
     2
 67
     7
 79
     5
170
     0
171
     0
290
     0
174
     0
 93
        1
 44
0.0
173
     0
291
     1
 45
0.0
1001
ACAD
1000
AcDbSavedByObjectVersion
1070
     0
  0
VISUALSTYLE
  5
2B
102
{ACAD_REACTORS
330
2A
102
}
330
2A
100
AcDbVisualStyle
  2
Flat
 70
     0
 71
     2
 72
     1
 73
     1
 90
        2
 40
-0.6
 41
30.0
 62
     5
 63
     7
421
 16777215
 74
     0
 91
        4
 64
     7
 65
   257
 75
     1
175
     1
 42
1.0
 92
        8
 66
     7
 43
1.0
 76
     1
 77
     6
 78
     2
 67
     7
 79
     5
170
     0
171
     0
290
     0
174
     0
 93
       13
 44
0.0
173
     0
291
     1
 45
0.0
1001
ACAD
1000
AcDbSavedByObjectVersion
1070
     0
  0
VISUALSTYLE
  5
2C
102
{ACAD_REACTORS
330
2A
102
}
330
2A
100
AcDbVisualStyle
  2
FlatWithEdges
 70
     1
 71
     2
 72
     1
 73
     1
 90
        2
 40
-0.6
 41
30.0
 62
     5
 63
     7
421
 16777215
 74
     1
 91
        4
 64
     7
 65
   257
 75
     1
175
     1
 42
1.0
 92
        0
 66
   257
 43
1.0
 76
     1
 77
     6
 78
     2
 67
     7
 79
     5
170
     0
171
     0
290
     0
174
     0
 93
       13
 44
0.0
173
     0
291
     1
 45
0.0
1001
ACAD
1000
AcDbSavedByObjectVersion
1070
     0
  0
VISUALSTYLE
  5
2D
102
{ACAD_REACTORS
330
2A
102
}
330
2A
100
AcDbVisualStyle
  2
Gouraud
 70
     2
 71
     2
 72
     2
 73
     1
 90
        2
 40
-0.6
 41
30.0
 62
     5
 63
     7
421
 16777215
 74
     0
 91
        4
 64
     7
 65
   257
 75
     1
175
     1
 42
1.0
 92
        0
 66
     7
 43
1.0
 76
     1
 77
     6
 78
     2
 67
     7
 79
     5
170
     0
171
     0
290
     0
174
     0
 93
       13
 44
0.0
173
     0
291
     1
 45
0.0
1001
ACAD
1000
AcDbSavedByObjectVersion
1070
     0
  0
VISUALSTYLE
  5
2E
102
{ACAD_REACTORS
330
2A
102
}
330
2A
100
AcDbVisualStyle
  2
GouraudWithEdges
 70
     3
 71
     2
 72
     2
 73
     1
 90
        2
 40
-0.6
 41
30.0
 62
     5
 63
     7
421
 16777215
 74
     1
 91
        4
 64
     7
 65
   257
 75
     1
175
     1
 42
1.0
 92
        0
 66
   257
 43
1.0
 76
     1
 77
     6
 78
     2
 67
     7
 79
     5
170
     0
171
     0
290
     0
174
     0
 93
       13
 44
0.0
173
     0
291
     1
 45
0.0
1001
ACAD
1000
AcDbSavedByObjectVersion
1070
     0
  0
VISUALSTYLE
  5
38
102
{ACAD_REACTORS
330
2A
102
}
330
2A
100
AcDbVisualStyle
  2
Linepattern
 70
    14
 71
     2
 72
     2
 73
     0
 90
        0
 40
-0.6
 41
-30.0
 62
     5
 63
     7
421
 16777215
 74
     1
 91
        4
 64
     7
 65
   257
 75
     7
175
     7
 42
1.0
 92
        8
 66
     7
 43
1.0
 76
     1
 77
     6
 78
     2
 67
     7
 79
     5
170
     0
171
     0
290
     0
174
     0
 93
        1
 44
0.0
173
     0
291
     1
 45
0.0
1001
ACAD
1000
AcDbSavedByObjectVersion
1070
     0
  0
VISUALSTYLE
  5
33
102
{ACAD_REACTORS
330
2A
102
}
330
2A
100
AcDbVisualStyle
  2
Realistic
 70
     8
 71
     2
 72
     2
 73
     0
 90
        0
 40
-0.6
 41
-30.0
 62
     5
 63
     7
421
 16777215
 74
     1
 91
        0
 64
     7
 65
   257
 75
     1
175
     1
 42
1.0
 92
        8
 66
     8
424
  7895160
 43
1.0
 76
     1
 77
     6
 78
     2
 67
     7
 79
     5
170
     0
171
     0
290
     0
174
     0
 93
       13
 44
0.0
173
     0
291
     0
 45
0.0
1001
ACAD
1000
AcDbSavedByObjectVersion
1070
     0
  0
VISUALSTYLE
  5
37
102
{ACAD_REACTORS
330
2A
102
}
330
2A
100
AcDbVisualStyle
  2
Thicken
 70
    13
 71
     2
 72
     2
 73
     0
 90
        0
 40
-0.6
 41
-30.0
 62
     5
 63
     7
421
 16777215
 74
     1
 91
        4
 64
     7
 65
   257
 75
     1
175
     1
 42
1.0
 92
       12
 66
     7
 43
1.0
 76
     1
 77
     6
 78
     2
 67
     7
 79
     5
170
     0
171
     0
290
     0
174
     0
 93
        1
 44
0.0
173
     0
291
     1
 45
0.0
1001
ACAD
1000
AcDbSavedByObjectVersion
1070
     0
  0
ENDSEC
  0
EOF
