G04 #@! TF.FileFunction,Copper,L1,Top,Signal*
%FSLAX46Y46*%
G04 Gerber Fmt 4.6, Leading zero omitted, Abs format (unit mm)*
G04 Created by KiCad (PCBNEW 4.0.4-stable) date 01/25/17 01:33:10*
%MOMM*%
%LPD*%
G01*
G04 APERTURE LIST*
%ADD10C,0.100000*%
%ADD11R,1.300000X1.500000*%
%ADD12R,1.550000X0.600000*%
%ADD13R,1.800000X1.200000*%
%ADD14R,0.899160X1.000760*%
%ADD15R,1.000760X0.899160*%
%ADD16R,1.500000X1.300000*%
%ADD17R,1.500000X1.250000*%
%ADD18R,0.600000X1.550000*%
%ADD19R,1.200000X1.800000*%
%ADD20R,1.250000X1.500000*%
%ADD21R,0.431800X1.397000*%
%ADD22R,1.879600X1.574800*%
%ADD23R,0.350000X0.800000*%
%ADD24R,0.800000X0.350000*%
%ADD25R,2.650000X2.650000*%
%ADD26C,0.600000*%
%ADD27C,0.450000*%
%ADD28C,0.250000*%
%ADD29C,0.150000*%
%ADD30C,0.200000*%
G04 APERTURE END LIST*
D10*
D11*
X128651000Y-59262000D03*
X128651000Y-56562000D03*
D12*
X125420000Y-48728500D03*
X125420000Y-49728500D03*
X125420000Y-50728500D03*
X125420000Y-51728500D03*
D13*
X127945000Y-47428500D03*
X127945000Y-53028500D03*
D11*
X130429000Y-44022000D03*
X130429000Y-41322000D03*
X128143000Y-44022000D03*
X128143000Y-41322000D03*
X130937000Y-56562000D03*
X130937000Y-59262000D03*
D14*
X122656600Y-63571120D03*
X122656600Y-62069980D03*
X122656600Y-60520580D03*
X122656600Y-59019440D03*
X122656600Y-57520840D03*
X122656600Y-56019700D03*
X122656600Y-54521100D03*
X122656600Y-53019960D03*
X122656600Y-51521360D03*
X122656600Y-50020220D03*
X122656600Y-48519080D03*
X122656600Y-47020480D03*
X122651520Y-45516800D03*
X109938820Y-45506640D03*
X109948980Y-47007780D03*
X109948980Y-48506380D03*
X109948980Y-50007520D03*
X109948980Y-51508660D03*
X109948980Y-53007260D03*
X109948980Y-54508400D03*
X109948980Y-56007000D03*
X109948980Y-57508140D03*
X109948980Y-59006740D03*
X109948980Y-60507880D03*
X109948980Y-62057280D03*
X109948980Y-63558420D03*
D15*
X111079280Y-65166240D03*
X112577880Y-65166240D03*
X114089180Y-65166240D03*
X115587780Y-65166240D03*
X117088920Y-65166240D03*
X118590060Y-65166240D03*
X120088660Y-65166240D03*
X121589800Y-65166240D03*
D16*
X109775000Y-68961000D03*
X112475000Y-68961000D03*
D17*
X114955000Y-68961000D03*
X117455000Y-68961000D03*
D16*
X109775000Y-71120000D03*
X112475000Y-71120000D03*
D18*
X115387500Y-76866000D03*
X116387500Y-76866000D03*
D19*
X114087500Y-80741000D03*
X117687500Y-80741000D03*
D20*
X114935000Y-73767000D03*
X114935000Y-71267000D03*
D17*
X109875000Y-73342500D03*
X112375000Y-73342500D03*
D21*
X111963200Y-75590400D03*
X111328200Y-75590400D03*
X110667800Y-75590400D03*
X110032800Y-75590400D03*
X110032800Y-79857600D03*
X110667800Y-79857600D03*
X111328200Y-79857600D03*
X111963200Y-79857600D03*
D22*
X110998000Y-77724000D03*
D16*
X127047000Y-77597000D03*
X129747000Y-77597000D03*
D20*
X124079000Y-76347000D03*
X124079000Y-78847000D03*
D16*
X128126500Y-80835500D03*
X130826500Y-80835500D03*
X127047000Y-75565000D03*
X129747000Y-75565000D03*
X127047000Y-73533000D03*
X129747000Y-73533000D03*
D20*
X120904000Y-76347000D03*
X120904000Y-78847000D03*
D16*
X127047000Y-71501000D03*
X129747000Y-71501000D03*
X123737360Y-67243960D03*
X121037360Y-67243960D03*
D23*
X123424000Y-69818500D03*
X122924000Y-69818500D03*
X122424000Y-69818500D03*
X121924000Y-69818500D03*
X121424000Y-69818500D03*
X120924000Y-69818500D03*
D24*
X120174000Y-70568500D03*
X120174000Y-71068500D03*
X120174000Y-71568500D03*
X120174000Y-72068500D03*
X120174000Y-72568500D03*
X120174000Y-73068500D03*
D23*
X120924000Y-73818500D03*
X121424000Y-73818500D03*
X121924000Y-73818500D03*
X122424000Y-73818500D03*
X122924000Y-73818500D03*
X123424000Y-73818500D03*
D24*
X124174000Y-73068500D03*
X124174000Y-72568500D03*
X124174000Y-72068500D03*
X124174000Y-71568500D03*
X124174000Y-71068500D03*
X124174000Y-70568500D03*
D25*
X122174000Y-71818500D03*
D26*
X124881586Y-58584892D03*
X123888500Y-64579500D03*
X123190000Y-68707000D03*
X118872000Y-71374000D03*
X111079280Y-63708280D03*
X122428000Y-78867000D03*
X122809000Y-74930000D03*
X118872000Y-72771000D03*
X113919000Y-71247000D03*
X113538000Y-75946000D03*
X120523000Y-52387500D03*
X117856000Y-55054500D03*
X126746000Y-45212000D03*
X127127000Y-42672000D03*
X124460000Y-54229000D03*
X127635000Y-51435000D03*
X130175000Y-51435000D03*
X124109480Y-56261000D03*
X109601000Y-77724000D03*
X117475000Y-67691000D03*
X110998000Y-81280000D03*
X109347000Y-74676000D03*
X127000000Y-60579000D03*
X117729000Y-61468000D03*
X113157000Y-59563000D03*
X128333500Y-74485500D03*
X115316000Y-53086000D03*
X129286000Y-46101000D03*
X127571500Y-49022000D03*
X114554000Y-41021000D03*
X108521500Y-46101000D03*
X113728500Y-46863000D03*
X114554000Y-48514000D03*
X123952000Y-52451000D03*
X123957080Y-49717960D03*
X126746000Y-50736500D03*
X112776000Y-74930000D03*
X115824000Y-40767000D03*
X113030000Y-50165000D03*
X117856000Y-40386000D03*
X118872000Y-49276000D03*
X118237000Y-44704000D03*
X119761000Y-49276000D03*
X118745000Y-40386000D03*
X118173500Y-55943500D03*
X119189500Y-53975000D03*
X120650000Y-49276000D03*
X119634000Y-40386000D03*
X120269000Y-60833000D03*
X117983000Y-49276000D03*
D27*
X127381000Y-57531000D03*
D26*
X130937000Y-54737000D03*
D27*
X126746000Y-58039000D03*
D26*
X129831913Y-54445087D03*
X119253000Y-59817000D03*
X119771160Y-66598800D03*
X118110000Y-56896000D03*
X115697000Y-62611000D03*
X113030000Y-60579000D03*
X131381500Y-79311500D03*
X131381500Y-78232000D03*
X119156480Y-53091080D03*
X120538240Y-53436520D03*
X131381500Y-73850500D03*
X131381500Y-72707500D03*
X131381500Y-71628000D03*
D28*
X112475000Y-71120000D02*
X112903000Y-71120000D01*
X113919000Y-70104000D02*
X115824000Y-70104000D01*
X115824000Y-70104000D02*
X116205000Y-70485000D01*
X116205000Y-70485000D02*
X116205000Y-72497000D01*
X112903000Y-71120000D02*
X113919000Y-70104000D01*
X116205000Y-72497000D02*
X114935000Y-73767000D01*
D29*
X122448000Y-78847000D02*
X122428000Y-78867000D01*
X122408000Y-78847000D02*
X120904000Y-78847000D01*
X122408000Y-78847000D02*
X122428000Y-78867000D01*
D28*
X110929420Y-63558420D02*
X111079280Y-63708280D01*
X111079280Y-63754000D02*
X111079280Y-65166240D01*
X109948980Y-63558420D02*
X110929420Y-63558420D01*
X111079280Y-63754000D02*
X111079280Y-63708280D01*
X110998000Y-77724000D02*
X109601000Y-77724000D01*
D29*
X119074500Y-72568500D02*
X118872000Y-72771000D01*
X128143000Y-41656000D02*
X127127000Y-42672000D01*
X128143000Y-41322000D02*
X128143000Y-41656000D01*
D28*
X130175000Y-51435000D02*
X127635000Y-51435000D01*
X117792500Y-54991000D02*
X117856000Y-55054500D01*
D29*
X127587000Y-51435000D02*
X127635000Y-51435000D01*
D28*
X125420000Y-51728500D02*
X126445000Y-51728500D01*
X126445000Y-51728500D02*
X126738500Y-51435000D01*
X126738500Y-51435000D02*
X127635000Y-51435000D01*
D29*
X125420000Y-51728500D02*
X125420000Y-51999000D01*
D28*
X124460000Y-52959000D02*
X124460000Y-54229000D01*
X125420000Y-51999000D02*
X124460000Y-52959000D01*
X118491000Y-52387500D02*
X117792500Y-53086000D01*
X117792500Y-53086000D02*
X117792500Y-54991000D01*
X120523000Y-52387500D02*
X118491000Y-52387500D01*
X124881586Y-57033106D02*
X124109480Y-56261000D01*
D29*
X123424000Y-69818500D02*
X123424000Y-68941000D01*
X123424000Y-68941000D02*
X123190000Y-68707000D01*
X120174000Y-72568500D02*
X119074500Y-72568500D01*
X120174000Y-71568500D02*
X119066500Y-71568500D01*
X119066500Y-71568500D02*
X118872000Y-71374000D01*
D28*
X122656600Y-65125600D02*
X122656600Y-63571120D01*
X122656600Y-65125600D02*
X122682000Y-65151000D01*
X122656600Y-65125600D02*
X123342400Y-65125600D01*
X122666760Y-65166240D02*
X122682000Y-65151000D01*
X123342400Y-65125600D02*
X123888500Y-64579500D01*
X124881586Y-58584892D02*
X124881586Y-57033106D01*
X121589800Y-65166240D02*
X122666760Y-65166240D01*
X110998000Y-77724000D02*
X111760000Y-77724000D01*
X111328200Y-79857600D02*
X111328200Y-78054200D01*
X111328200Y-78054200D02*
X110998000Y-77724000D01*
X113538000Y-75946000D02*
X113538000Y-74505500D01*
X111760000Y-77724000D02*
X113538000Y-75946000D01*
X113939000Y-71267000D02*
X113919000Y-71247000D01*
X113538000Y-74505500D02*
X112375000Y-73342500D01*
X114935000Y-71267000D02*
X113939000Y-71267000D01*
X112859500Y-73342500D02*
X114935000Y-71267000D01*
X112375000Y-73342500D02*
X112796000Y-73342500D01*
X112375000Y-73342500D02*
X112859500Y-73342500D01*
D29*
X123424000Y-74442000D02*
X122936000Y-74930000D01*
X124079000Y-78847000D02*
X122448000Y-78847000D01*
X123424000Y-73818500D02*
X123424000Y-74442000D01*
X122936000Y-74930000D02*
X122809000Y-74930000D01*
D28*
X112475000Y-68961000D02*
X114955000Y-68961000D01*
X117455000Y-68961000D02*
X117455000Y-67711000D01*
X117455000Y-67711000D02*
X117475000Y-67691000D01*
X110667800Y-80949800D02*
X110998000Y-81280000D01*
X110667800Y-80949800D02*
X110667800Y-79857600D01*
X109347000Y-74676000D02*
X109875000Y-74148000D01*
X109875000Y-74148000D02*
X109875000Y-73342500D01*
D29*
X120924000Y-73818500D02*
X120924000Y-74656000D01*
X120924000Y-74656000D02*
X120904000Y-74676000D01*
X119455500Y-71068500D02*
X118999000Y-70612000D01*
X120174000Y-71068500D02*
X119455500Y-71068500D01*
X118237000Y-72517000D02*
X118237000Y-73680000D01*
X118237000Y-73680000D02*
X120904000Y-76347000D01*
X120174000Y-72068500D02*
X118685500Y-72068500D01*
X118685500Y-72068500D02*
X118237000Y-72517000D01*
X124174000Y-72568500D02*
X124892500Y-72568500D01*
X124892500Y-72568500D02*
X125222000Y-72898000D01*
X125222000Y-75204000D02*
X124079000Y-76347000D01*
X125222000Y-72898000D02*
X125222000Y-75204000D01*
D28*
X112649000Y-81407000D02*
X112649000Y-79629000D01*
X112141000Y-81915000D02*
X112649000Y-81407000D01*
X110744000Y-81915000D02*
X112141000Y-81915000D01*
X110032800Y-81203800D02*
X110744000Y-81915000D01*
X110032800Y-79857600D02*
X110032800Y-81203800D01*
X112649000Y-79629000D02*
X113411000Y-78867000D01*
X115387500Y-76001500D02*
X115387500Y-76866000D01*
X115824000Y-75565000D02*
X115387500Y-76001500D01*
X113411000Y-78867000D02*
X116205000Y-78867000D01*
X116840000Y-75565000D02*
X115824000Y-75565000D01*
X117221000Y-75946000D02*
X116840000Y-75565000D01*
X116205000Y-78867000D02*
X117221000Y-77851000D01*
X117221000Y-77851000D02*
X117221000Y-75946000D01*
X111963200Y-79857600D02*
X111963200Y-79425800D01*
X111963200Y-79425800D02*
X113157000Y-78232000D01*
X113157000Y-78232000D02*
X115824000Y-78232000D01*
X115824000Y-78232000D02*
X116387500Y-77668500D01*
X116387500Y-77668500D02*
X116387500Y-76866000D01*
D29*
X123957080Y-49717960D02*
X125409460Y-49717960D01*
X125409460Y-49717960D02*
X125420000Y-49728500D01*
D28*
X124097000Y-49728500D02*
X124089000Y-49720500D01*
D29*
X126674500Y-50728500D02*
X126738000Y-50728500D01*
X126738000Y-50728500D02*
X126746000Y-50736500D01*
X126674500Y-50728500D02*
X125420000Y-50728500D01*
D28*
X114173000Y-40259000D02*
X115316000Y-40259000D01*
X115316000Y-40259000D02*
X115824000Y-40767000D01*
X113030000Y-50165000D02*
X113030000Y-41402000D01*
X113030000Y-41402000D02*
X114173000Y-40259000D01*
X111963200Y-75590400D02*
X112115600Y-75590400D01*
X112115600Y-75590400D02*
X112776000Y-74930000D01*
D29*
X118872000Y-42291000D02*
X118872000Y-41402000D01*
X118872000Y-41402000D02*
X117856000Y-40386000D01*
X118872000Y-49276000D02*
X118872000Y-42291000D01*
X129794000Y-39751000D02*
X130429000Y-40386000D01*
X130429000Y-40386000D02*
X130429000Y-41322000D01*
X117221000Y-40132000D02*
X117602000Y-39751000D01*
X117602000Y-39751000D02*
X129794000Y-39751000D01*
X118237000Y-44704000D02*
X117221000Y-43688000D01*
X117221000Y-43688000D02*
X117221000Y-40132000D01*
X119761000Y-42164000D02*
X119761000Y-41402000D01*
X119761000Y-41402000D02*
X118745000Y-40386000D01*
X119761000Y-49276000D02*
X119761000Y-42164000D01*
X118173500Y-55943500D02*
X118935500Y-55181500D01*
X119189500Y-54927500D02*
X119189500Y-53975000D01*
X118935500Y-55181500D02*
X119189500Y-54927500D01*
X120650000Y-41910000D02*
X119634000Y-40386000D01*
X120650000Y-49276000D02*
X120650000Y-41910000D01*
X117983000Y-49276000D02*
X117221000Y-50038000D01*
X117221000Y-50038000D02*
X117221000Y-56896000D01*
X119888000Y-59563000D02*
X120269000Y-59944000D01*
X117221000Y-56896000D02*
X119888000Y-59563000D01*
X120269000Y-59944000D02*
X120269000Y-60833000D01*
X130937000Y-54737000D02*
X130937000Y-56562000D01*
X129333000Y-58166000D02*
X130937000Y-56562000D01*
X126365000Y-59182000D02*
X127381000Y-58166000D01*
X126365000Y-67777360D02*
X126365000Y-59182000D01*
X125089920Y-69052440D02*
X126365000Y-67777360D01*
X127381000Y-58166000D02*
X129333000Y-58166000D01*
X127381000Y-58166000D02*
X127381000Y-57531000D01*
X124724000Y-71068500D02*
X125089920Y-70702580D01*
X125089920Y-70702580D02*
X125089920Y-69052440D01*
X124174000Y-71068500D02*
X124724000Y-71068500D01*
X129831913Y-54445087D02*
X128942913Y-54445087D01*
X124174000Y-69473372D02*
X125984000Y-67663372D01*
X125984000Y-67663372D02*
X125984000Y-58801000D01*
X125984000Y-58801000D02*
X126746000Y-58039000D01*
X128651000Y-55118000D02*
X128651000Y-56562000D01*
X128651000Y-54737000D02*
X128651000Y-55118000D01*
X128942913Y-54445087D02*
X128651000Y-54737000D01*
X127461000Y-56562000D02*
X128651000Y-56562000D01*
X126746000Y-58039000D02*
X126746000Y-57277000D01*
X126746000Y-57277000D02*
X127461000Y-56562000D01*
X124174000Y-70568500D02*
X124174000Y-69473372D01*
D28*
X111125000Y-72470000D02*
X109775000Y-71120000D01*
X110667800Y-75590400D02*
X110667800Y-74752200D01*
X110667800Y-74752200D02*
X111125000Y-74295000D01*
X111125000Y-74295000D02*
X111125000Y-72470000D01*
X108585000Y-70151000D02*
X109775000Y-68961000D01*
X110032800Y-75590400D02*
X108991400Y-75590400D01*
X110032800Y-75590400D02*
X110007400Y-75590400D01*
X108991400Y-75590400D02*
X108585000Y-75184000D01*
X108585000Y-75184000D02*
X108585000Y-74168000D01*
X108585000Y-74168000D02*
X108585000Y-70151000D01*
X130429000Y-44022000D02*
X130429000Y-43815000D01*
X130429000Y-43815000D02*
X131572000Y-42672000D01*
D29*
X130429000Y-44022000D02*
X128143000Y-44022000D01*
D28*
X131572000Y-40068500D02*
X130854490Y-39350990D01*
X131572000Y-40132000D02*
X131572000Y-40068500D01*
X131572000Y-42672000D02*
X131572000Y-40132000D01*
X130854490Y-39350990D02*
X117436311Y-39350990D01*
X117436311Y-39350990D02*
X116820990Y-39966311D01*
X116820990Y-39966311D02*
X116820990Y-57384990D01*
X116820990Y-57384990D02*
X119253000Y-59817000D01*
D29*
X120137360Y-67243960D02*
X119771160Y-66877760D01*
X119771160Y-66877760D02*
X119771160Y-66598800D01*
X121037360Y-67243960D02*
X120137360Y-67243960D01*
X122651520Y-45516800D02*
X121869200Y-45516800D01*
X121869200Y-45516800D02*
X121285000Y-46101000D01*
X121285000Y-46101000D02*
X121285000Y-53721000D01*
X121285000Y-53721000D02*
X118110000Y-56896000D01*
D28*
X111887000Y-47879000D02*
X111887000Y-60325000D01*
X111887000Y-60325000D02*
X114173000Y-62611000D01*
X111015780Y-47007780D02*
X111887000Y-47879000D01*
X109948980Y-47007780D02*
X111015780Y-47007780D01*
X114173000Y-62611000D02*
X115697000Y-62611000D01*
X112395000Y-46736000D02*
X112395000Y-59944000D01*
X112395000Y-59944000D02*
X113030000Y-60579000D01*
X111165640Y-45506640D02*
X112395000Y-46736000D01*
X109938820Y-45506640D02*
X111165640Y-45506640D01*
X131381500Y-79311500D02*
X131381500Y-80280500D01*
X131381500Y-80280500D02*
X130826500Y-80835500D01*
X120538240Y-53436520D02*
X120192800Y-53091080D01*
X120192800Y-53091080D02*
X119156480Y-53091080D01*
X129747000Y-77597000D02*
X130746500Y-77597000D01*
X130746500Y-77597000D02*
X131381500Y-78232000D01*
X129747000Y-75565000D02*
X129747000Y-75485000D01*
X129747000Y-75485000D02*
X131381500Y-73850500D01*
X129747000Y-73533000D02*
X130556000Y-73533000D01*
X130556000Y-73533000D02*
X131381500Y-72707500D01*
X129747000Y-71501000D02*
X131254500Y-71501000D01*
X131254500Y-71501000D02*
X131381500Y-71628000D01*
D30*
G36*
X132402500Y-82228500D02*
X112422094Y-82228500D01*
X112441520Y-82215520D01*
X112949520Y-81707521D01*
X113041648Y-81569641D01*
X113041649Y-81569640D01*
X113074000Y-81407000D01*
X113074000Y-79841000D01*
X113181623Y-79841000D01*
X113181623Y-81641000D01*
X113202542Y-81752173D01*
X113268245Y-81854279D01*
X113368497Y-81922778D01*
X113487500Y-81946877D01*
X114687500Y-81946877D01*
X114798673Y-81925958D01*
X114900779Y-81860255D01*
X114969278Y-81760003D01*
X114993377Y-81641000D01*
X114993377Y-79841000D01*
X116781623Y-79841000D01*
X116781623Y-81641000D01*
X116802542Y-81752173D01*
X116868245Y-81854279D01*
X116968497Y-81922778D01*
X117087500Y-81946877D01*
X118287500Y-81946877D01*
X118398673Y-81925958D01*
X118500779Y-81860255D01*
X118569278Y-81760003D01*
X118593377Y-81641000D01*
X118593377Y-81064500D01*
X127076500Y-81064500D01*
X127076500Y-81545173D01*
X127122172Y-81655436D01*
X127206563Y-81739828D01*
X127316826Y-81785500D01*
X127897500Y-81785500D01*
X127972500Y-81710500D01*
X127972500Y-80989500D01*
X128280500Y-80989500D01*
X128280500Y-81710500D01*
X128355500Y-81785500D01*
X128936174Y-81785500D01*
X129046437Y-81739828D01*
X129130828Y-81655436D01*
X129176500Y-81545173D01*
X129176500Y-81064500D01*
X129101500Y-80989500D01*
X128280500Y-80989500D01*
X127972500Y-80989500D01*
X127151500Y-80989500D01*
X127076500Y-81064500D01*
X118593377Y-81064500D01*
X118593377Y-79841000D01*
X118572458Y-79729827D01*
X118506755Y-79627721D01*
X118406503Y-79559222D01*
X118287500Y-79535123D01*
X117087500Y-79535123D01*
X116976327Y-79556042D01*
X116874221Y-79621745D01*
X116805722Y-79721997D01*
X116781623Y-79841000D01*
X114993377Y-79841000D01*
X114972458Y-79729827D01*
X114906755Y-79627721D01*
X114806503Y-79559222D01*
X114687500Y-79535123D01*
X113487500Y-79535123D01*
X113376327Y-79556042D01*
X113274221Y-79621745D01*
X113205722Y-79721997D01*
X113181623Y-79841000D01*
X113074000Y-79841000D01*
X113074000Y-79805040D01*
X113587041Y-79292000D01*
X116205000Y-79292000D01*
X116349994Y-79263159D01*
X116367641Y-79259649D01*
X116505520Y-79167520D01*
X117521520Y-78151520D01*
X117557949Y-78097000D01*
X119973123Y-78097000D01*
X119973123Y-79597000D01*
X119994042Y-79708173D01*
X120059745Y-79810279D01*
X120159997Y-79878778D01*
X120279000Y-79902877D01*
X121529000Y-79902877D01*
X121640173Y-79881958D01*
X121742279Y-79816255D01*
X121810778Y-79716003D01*
X121834877Y-79597000D01*
X121834877Y-79222000D01*
X121934592Y-79222000D01*
X122087683Y-79375359D01*
X122308129Y-79466896D01*
X122546824Y-79467104D01*
X122767429Y-79375952D01*
X122921650Y-79222000D01*
X123148123Y-79222000D01*
X123148123Y-79597000D01*
X123169042Y-79708173D01*
X123234745Y-79810279D01*
X123334997Y-79878778D01*
X123454000Y-79902877D01*
X124704000Y-79902877D01*
X124815173Y-79881958D01*
X124917279Y-79816255D01*
X124957805Y-79756942D01*
X125187818Y-79756942D01*
X125347334Y-80143000D01*
X125642446Y-80438628D01*
X126028226Y-80598818D01*
X126445942Y-80599182D01*
X126832000Y-80439666D01*
X127076500Y-80195593D01*
X127076500Y-80606500D01*
X127151500Y-80681500D01*
X127972500Y-80681500D01*
X127972500Y-79960500D01*
X128280500Y-79960500D01*
X128280500Y-80681500D01*
X129101500Y-80681500D01*
X129176500Y-80606500D01*
X129176500Y-80125827D01*
X129130828Y-80015564D01*
X129046437Y-79931172D01*
X128936174Y-79885500D01*
X128355500Y-79885500D01*
X128280500Y-79960500D01*
X127972500Y-79960500D01*
X127897500Y-79885500D01*
X127316826Y-79885500D01*
X127218241Y-79926335D01*
X127287818Y-79758774D01*
X127288182Y-79341058D01*
X127128666Y-78955000D01*
X126833554Y-78659372D01*
X126562932Y-78547000D01*
X126818000Y-78547000D01*
X126893000Y-78472000D01*
X126893000Y-77751000D01*
X127201000Y-77751000D01*
X127201000Y-78472000D01*
X127276000Y-78547000D01*
X127856674Y-78547000D01*
X127966937Y-78501328D01*
X128051328Y-78416936D01*
X128097000Y-78306673D01*
X128097000Y-77826000D01*
X128022000Y-77751000D01*
X127201000Y-77751000D01*
X126893000Y-77751000D01*
X126072000Y-77751000D01*
X125997000Y-77826000D01*
X125997000Y-78306673D01*
X126042672Y-78416936D01*
X126124635Y-78498900D01*
X126030058Y-78498818D01*
X125644000Y-78658334D01*
X125348372Y-78953446D01*
X125188182Y-79339226D01*
X125187818Y-79756942D01*
X124957805Y-79756942D01*
X124985778Y-79716003D01*
X125009877Y-79597000D01*
X125009877Y-78097000D01*
X124988958Y-77985827D01*
X124923255Y-77883721D01*
X124823003Y-77815222D01*
X124704000Y-77791123D01*
X123454000Y-77791123D01*
X123342827Y-77812042D01*
X123240721Y-77877745D01*
X123172222Y-77977997D01*
X123148123Y-78097000D01*
X123148123Y-78472000D01*
X122881478Y-78472000D01*
X122768317Y-78358641D01*
X122547871Y-78267104D01*
X122309176Y-78266896D01*
X122088571Y-78358048D01*
X121974420Y-78472000D01*
X121834877Y-78472000D01*
X121834877Y-78097000D01*
X121813958Y-77985827D01*
X121748255Y-77883721D01*
X121648003Y-77815222D01*
X121529000Y-77791123D01*
X120279000Y-77791123D01*
X120167827Y-77812042D01*
X120065721Y-77877745D01*
X119997222Y-77977997D01*
X119973123Y-78097000D01*
X117557949Y-78097000D01*
X117613649Y-78013641D01*
X117626929Y-77946877D01*
X117646000Y-77851000D01*
X117646000Y-75946000D01*
X117613649Y-75783360D01*
X117558604Y-75700980D01*
X117521520Y-75645479D01*
X117140520Y-75264480D01*
X117002641Y-75172351D01*
X116967695Y-75165400D01*
X116840000Y-75140000D01*
X115824000Y-75140000D01*
X115661360Y-75172351D01*
X115615608Y-75202922D01*
X115523479Y-75264480D01*
X115086980Y-75700980D01*
X115022596Y-75797336D01*
X114976327Y-75806042D01*
X114874221Y-75871745D01*
X114805722Y-75971997D01*
X114781623Y-76091000D01*
X114781623Y-77641000D01*
X114802542Y-77752173D01*
X114837822Y-77807000D01*
X113157000Y-77807000D01*
X113035640Y-77831140D01*
X112994359Y-77839351D01*
X112856480Y-77931480D01*
X112235327Y-78552633D01*
X112243677Y-78511400D01*
X112243677Y-77841363D01*
X113539039Y-76546001D01*
X113656824Y-76546104D01*
X113877429Y-76454952D01*
X114046359Y-76286317D01*
X114137896Y-76065871D01*
X114138104Y-75827176D01*
X114046952Y-75606571D01*
X113963000Y-75522472D01*
X113963000Y-74505500D01*
X113930649Y-74342860D01*
X113847554Y-74218500D01*
X113838520Y-74204979D01*
X113430877Y-73797336D01*
X113430877Y-73372163D01*
X114480164Y-72322877D01*
X115560000Y-72322877D01*
X115671173Y-72301958D01*
X115773279Y-72236255D01*
X115780000Y-72226418D01*
X115780000Y-72320959D01*
X115389836Y-72711123D01*
X114310000Y-72711123D01*
X114198827Y-72732042D01*
X114096721Y-72797745D01*
X114028222Y-72897997D01*
X114004123Y-73017000D01*
X114004123Y-74517000D01*
X114025042Y-74628173D01*
X114090745Y-74730279D01*
X114190997Y-74798778D01*
X114310000Y-74822877D01*
X115560000Y-74822877D01*
X115671173Y-74801958D01*
X115773279Y-74736255D01*
X115841778Y-74636003D01*
X115865877Y-74517000D01*
X115865877Y-73437163D01*
X116505520Y-72797521D01*
X116594906Y-72663745D01*
X116597649Y-72659640D01*
X116626021Y-72517000D01*
X117862000Y-72517000D01*
X117862000Y-73680000D01*
X117890545Y-73823507D01*
X117971835Y-73945165D01*
X119973123Y-75946453D01*
X119973123Y-77097000D01*
X119994042Y-77208173D01*
X120059745Y-77310279D01*
X120159997Y-77378778D01*
X120279000Y-77402877D01*
X121529000Y-77402877D01*
X121640173Y-77381958D01*
X121742279Y-77316255D01*
X121810778Y-77216003D01*
X121834877Y-77097000D01*
X121834877Y-75597000D01*
X121813958Y-75485827D01*
X121748255Y-75383721D01*
X121648003Y-75315222D01*
X121529000Y-75291123D01*
X120378453Y-75291123D01*
X119134830Y-74047500D01*
X120449000Y-74047500D01*
X120449000Y-74278174D01*
X120494672Y-74388437D01*
X120579064Y-74472828D01*
X120689327Y-74518500D01*
X120761500Y-74518500D01*
X120836500Y-74443500D01*
X120836500Y-73972500D01*
X120524000Y-73972500D01*
X120449000Y-74047500D01*
X119134830Y-74047500D01*
X118612000Y-73524670D01*
X118612000Y-73312709D01*
X118752129Y-73370896D01*
X118990824Y-73371104D01*
X119211429Y-73279952D01*
X119380359Y-73111317D01*
X119450043Y-72943500D01*
X119468123Y-72943500D01*
X119468123Y-73243500D01*
X119489042Y-73354673D01*
X119554745Y-73456779D01*
X119654997Y-73525278D01*
X119774000Y-73549377D01*
X120449000Y-73549377D01*
X120449000Y-73589500D01*
X120524000Y-73664500D01*
X120836500Y-73664500D01*
X120836500Y-73644500D01*
X120943123Y-73644500D01*
X120943123Y-74218500D01*
X120964042Y-74329673D01*
X121011500Y-74403425D01*
X121011500Y-74443500D01*
X121086500Y-74518500D01*
X121158673Y-74518500D01*
X121178804Y-74510162D01*
X121249000Y-74524377D01*
X121599000Y-74524377D01*
X121676753Y-74509746D01*
X121749000Y-74524377D01*
X122099000Y-74524377D01*
X122176753Y-74509746D01*
X122249000Y-74524377D01*
X122366061Y-74524377D01*
X122300641Y-74589683D01*
X122209104Y-74810129D01*
X122208896Y-75048824D01*
X122300048Y-75269429D01*
X122468683Y-75438359D01*
X122689129Y-75529896D01*
X122927824Y-75530104D01*
X123148429Y-75438952D01*
X123317359Y-75270317D01*
X123408896Y-75049871D01*
X123408950Y-74987380D01*
X123689165Y-74707165D01*
X123770455Y-74585507D01*
X123798019Y-74446931D01*
X123812279Y-74437755D01*
X123880778Y-74337503D01*
X123904877Y-74218500D01*
X123904877Y-73549377D01*
X124574000Y-73549377D01*
X124685173Y-73528458D01*
X124787279Y-73462755D01*
X124847000Y-73375350D01*
X124847000Y-75048670D01*
X124604547Y-75291123D01*
X123454000Y-75291123D01*
X123342827Y-75312042D01*
X123240721Y-75377745D01*
X123172222Y-75477997D01*
X123148123Y-75597000D01*
X123148123Y-77097000D01*
X123169042Y-77208173D01*
X123234745Y-77310279D01*
X123334997Y-77378778D01*
X123454000Y-77402877D01*
X124704000Y-77402877D01*
X124815173Y-77381958D01*
X124917279Y-77316255D01*
X124985778Y-77216003D01*
X125009877Y-77097000D01*
X125009877Y-76887327D01*
X125997000Y-76887327D01*
X125997000Y-77368000D01*
X126072000Y-77443000D01*
X126893000Y-77443000D01*
X126893000Y-76722000D01*
X127201000Y-76722000D01*
X127201000Y-77443000D01*
X128022000Y-77443000D01*
X128097000Y-77368000D01*
X128097000Y-76947000D01*
X128691123Y-76947000D01*
X128691123Y-78247000D01*
X128712042Y-78358173D01*
X128777745Y-78460279D01*
X128877997Y-78528778D01*
X128997000Y-78552877D01*
X130497000Y-78552877D01*
X130608173Y-78531958D01*
X130710279Y-78466255D01*
X130778778Y-78366003D01*
X130781702Y-78351564D01*
X130872548Y-78571429D01*
X131041183Y-78740359D01*
X131116695Y-78771714D01*
X131042071Y-78802548D01*
X130873141Y-78971183D01*
X130781604Y-79191629D01*
X130781396Y-79430324D01*
X130872548Y-79650929D01*
X130956500Y-79735028D01*
X130956500Y-79879623D01*
X130076500Y-79879623D01*
X129965327Y-79900542D01*
X129863221Y-79966245D01*
X129794722Y-80066497D01*
X129770623Y-80185500D01*
X129770623Y-81485500D01*
X129791542Y-81596673D01*
X129857245Y-81698779D01*
X129957497Y-81767278D01*
X130076500Y-81791377D01*
X131576500Y-81791377D01*
X131687673Y-81770458D01*
X131789779Y-81704755D01*
X131858278Y-81604503D01*
X131882377Y-81485500D01*
X131882377Y-80185500D01*
X131861458Y-80074327D01*
X131806500Y-79988919D01*
X131806500Y-79735030D01*
X131889859Y-79651817D01*
X131981396Y-79431371D01*
X131981604Y-79192676D01*
X131890452Y-78972071D01*
X131721817Y-78803141D01*
X131646305Y-78771786D01*
X131720929Y-78740952D01*
X131889859Y-78572317D01*
X131981396Y-78351871D01*
X131981604Y-78113176D01*
X131890452Y-77892571D01*
X131721817Y-77723641D01*
X131501371Y-77632104D01*
X131382541Y-77632000D01*
X131047020Y-77296480D01*
X130909141Y-77204351D01*
X130882157Y-77198984D01*
X130802877Y-77183214D01*
X130802877Y-76947000D01*
X130781958Y-76835827D01*
X130716255Y-76733721D01*
X130616003Y-76665222D01*
X130497000Y-76641123D01*
X128997000Y-76641123D01*
X128885827Y-76662042D01*
X128783721Y-76727745D01*
X128715222Y-76827997D01*
X128691123Y-76947000D01*
X128097000Y-76947000D01*
X128097000Y-76887327D01*
X128051328Y-76777064D01*
X127966937Y-76692672D01*
X127856674Y-76647000D01*
X127276000Y-76647000D01*
X127201000Y-76722000D01*
X126893000Y-76722000D01*
X126818000Y-76647000D01*
X126237326Y-76647000D01*
X126127063Y-76692672D01*
X126042672Y-76777064D01*
X125997000Y-76887327D01*
X125009877Y-76887327D01*
X125009877Y-75946453D01*
X125162330Y-75794000D01*
X125997000Y-75794000D01*
X125997000Y-76274673D01*
X126042672Y-76384936D01*
X126127063Y-76469328D01*
X126237326Y-76515000D01*
X126818000Y-76515000D01*
X126893000Y-76440000D01*
X126893000Y-75719000D01*
X127201000Y-75719000D01*
X127201000Y-76440000D01*
X127276000Y-76515000D01*
X127856674Y-76515000D01*
X127966937Y-76469328D01*
X128051328Y-76384936D01*
X128097000Y-76274673D01*
X128097000Y-75794000D01*
X128022000Y-75719000D01*
X127201000Y-75719000D01*
X126893000Y-75719000D01*
X126072000Y-75719000D01*
X125997000Y-75794000D01*
X125162330Y-75794000D01*
X125487165Y-75469165D01*
X125568455Y-75347507D01*
X125597000Y-75204000D01*
X125597000Y-74855327D01*
X125997000Y-74855327D01*
X125997000Y-75336000D01*
X126072000Y-75411000D01*
X126893000Y-75411000D01*
X126893000Y-74690000D01*
X127201000Y-74690000D01*
X127201000Y-75411000D01*
X128022000Y-75411000D01*
X128097000Y-75336000D01*
X128097000Y-74855327D01*
X128051328Y-74745064D01*
X127966937Y-74660672D01*
X127856674Y-74615000D01*
X127276000Y-74615000D01*
X127201000Y-74690000D01*
X126893000Y-74690000D01*
X126818000Y-74615000D01*
X126237326Y-74615000D01*
X126127063Y-74660672D01*
X126042672Y-74745064D01*
X125997000Y-74855327D01*
X125597000Y-74855327D01*
X125597000Y-73762000D01*
X125997000Y-73762000D01*
X125997000Y-74242673D01*
X126042672Y-74352936D01*
X126127063Y-74437328D01*
X126237326Y-74483000D01*
X126818000Y-74483000D01*
X126893000Y-74408000D01*
X126893000Y-73687000D01*
X127201000Y-73687000D01*
X127201000Y-74408000D01*
X127276000Y-74483000D01*
X127856674Y-74483000D01*
X127966937Y-74437328D01*
X128051328Y-74352936D01*
X128097000Y-74242673D01*
X128097000Y-73762000D01*
X128022000Y-73687000D01*
X127201000Y-73687000D01*
X126893000Y-73687000D01*
X126072000Y-73687000D01*
X125997000Y-73762000D01*
X125597000Y-73762000D01*
X125597000Y-72898000D01*
X125582147Y-72823327D01*
X125997000Y-72823327D01*
X125997000Y-73304000D01*
X126072000Y-73379000D01*
X126893000Y-73379000D01*
X126893000Y-72658000D01*
X127201000Y-72658000D01*
X127201000Y-73379000D01*
X128022000Y-73379000D01*
X128097000Y-73304000D01*
X128097000Y-72823327D01*
X128051328Y-72713064D01*
X127966937Y-72628672D01*
X127856674Y-72583000D01*
X127276000Y-72583000D01*
X127201000Y-72658000D01*
X126893000Y-72658000D01*
X126818000Y-72583000D01*
X126237326Y-72583000D01*
X126127063Y-72628672D01*
X126042672Y-72713064D01*
X125997000Y-72823327D01*
X125582147Y-72823327D01*
X125568455Y-72754494D01*
X125487165Y-72632835D01*
X125157665Y-72303335D01*
X125036007Y-72222045D01*
X124892500Y-72193500D01*
X124879877Y-72193500D01*
X124879877Y-71893500D01*
X124865246Y-71815747D01*
X124879877Y-71743500D01*
X124879877Y-71730000D01*
X125997000Y-71730000D01*
X125997000Y-72210673D01*
X126042672Y-72320936D01*
X126127063Y-72405328D01*
X126237326Y-72451000D01*
X126818000Y-72451000D01*
X126893000Y-72376000D01*
X126893000Y-71655000D01*
X127201000Y-71655000D01*
X127201000Y-72376000D01*
X127276000Y-72451000D01*
X127856674Y-72451000D01*
X127966937Y-72405328D01*
X128051328Y-72320936D01*
X128097000Y-72210673D01*
X128097000Y-71730000D01*
X128022000Y-71655000D01*
X127201000Y-71655000D01*
X126893000Y-71655000D01*
X126072000Y-71655000D01*
X125997000Y-71730000D01*
X124879877Y-71730000D01*
X124879877Y-71406690D01*
X124989165Y-71333665D01*
X125355085Y-70967745D01*
X125436375Y-70846087D01*
X125464920Y-70702580D01*
X125464920Y-70260792D01*
X125642446Y-70438628D01*
X126028226Y-70598818D01*
X126124833Y-70598902D01*
X126042672Y-70681064D01*
X125997000Y-70791327D01*
X125997000Y-71272000D01*
X126072000Y-71347000D01*
X126893000Y-71347000D01*
X126893000Y-70626000D01*
X127201000Y-70626000D01*
X127201000Y-71347000D01*
X128022000Y-71347000D01*
X128097000Y-71272000D01*
X128097000Y-70851000D01*
X128691123Y-70851000D01*
X128691123Y-72151000D01*
X128712042Y-72262173D01*
X128777745Y-72364279D01*
X128877997Y-72432778D01*
X128997000Y-72456877D01*
X130497000Y-72456877D01*
X130608173Y-72435958D01*
X130710279Y-72370255D01*
X130778778Y-72270003D01*
X130802877Y-72151000D01*
X130802877Y-71926000D01*
X130855430Y-71926000D01*
X130872548Y-71967429D01*
X131041183Y-72136359D01*
X131116695Y-72167714D01*
X131042071Y-72198548D01*
X130873141Y-72367183D01*
X130781604Y-72587629D01*
X130781500Y-72706459D01*
X130756185Y-72731774D01*
X130716255Y-72669721D01*
X130616003Y-72601222D01*
X130497000Y-72577123D01*
X128997000Y-72577123D01*
X128885827Y-72598042D01*
X128783721Y-72663745D01*
X128715222Y-72763997D01*
X128691123Y-72883000D01*
X128691123Y-74183000D01*
X128712042Y-74294173D01*
X128777745Y-74396279D01*
X128877997Y-74464778D01*
X128997000Y-74488877D01*
X130142083Y-74488877D01*
X130021837Y-74609123D01*
X128997000Y-74609123D01*
X128885827Y-74630042D01*
X128783721Y-74695745D01*
X128715222Y-74795997D01*
X128691123Y-74915000D01*
X128691123Y-76215000D01*
X128712042Y-76326173D01*
X128777745Y-76428279D01*
X128877997Y-76496778D01*
X128997000Y-76520877D01*
X130497000Y-76520877D01*
X130608173Y-76499958D01*
X130710279Y-76434255D01*
X130778778Y-76334003D01*
X130802877Y-76215000D01*
X130802877Y-75030163D01*
X131382539Y-74450501D01*
X131500324Y-74450604D01*
X131720929Y-74359452D01*
X131889859Y-74190817D01*
X131981396Y-73970371D01*
X131981604Y-73731676D01*
X131890452Y-73511071D01*
X131721817Y-73342141D01*
X131569654Y-73278957D01*
X131720929Y-73216452D01*
X131889859Y-73047817D01*
X131981396Y-72827371D01*
X131981604Y-72588676D01*
X131890452Y-72368071D01*
X131721817Y-72199141D01*
X131646305Y-72167786D01*
X131720929Y-72136952D01*
X131889859Y-71968317D01*
X131981396Y-71747871D01*
X131981604Y-71509176D01*
X131890452Y-71288571D01*
X131721817Y-71119641D01*
X131501371Y-71028104D01*
X131262676Y-71027896D01*
X131146255Y-71076000D01*
X130802877Y-71076000D01*
X130802877Y-70851000D01*
X130781958Y-70739827D01*
X130716255Y-70637721D01*
X130616003Y-70569222D01*
X130497000Y-70545123D01*
X128997000Y-70545123D01*
X128885827Y-70566042D01*
X128783721Y-70631745D01*
X128715222Y-70731997D01*
X128691123Y-70851000D01*
X128097000Y-70851000D01*
X128097000Y-70791327D01*
X128051328Y-70681064D01*
X127966937Y-70596672D01*
X127856674Y-70551000D01*
X127276000Y-70551000D01*
X127201000Y-70626000D01*
X126893000Y-70626000D01*
X126818000Y-70551000D01*
X126562551Y-70551000D01*
X126832000Y-70439666D01*
X127127628Y-70144554D01*
X127287818Y-69758774D01*
X127288182Y-69341058D01*
X127128666Y-68955000D01*
X126833554Y-68659372D01*
X126447774Y-68499182D01*
X126173747Y-68498943D01*
X126630165Y-68042525D01*
X126652013Y-68009827D01*
X126711455Y-67920866D01*
X126740000Y-67777360D01*
X126740000Y-59491000D01*
X127701000Y-59491000D01*
X127701000Y-60071674D01*
X127746672Y-60181937D01*
X127831064Y-60266328D01*
X127941327Y-60312000D01*
X128422000Y-60312000D01*
X128497000Y-60237000D01*
X128497000Y-59416000D01*
X128805000Y-59416000D01*
X128805000Y-60237000D01*
X128880000Y-60312000D01*
X129360673Y-60312000D01*
X129470936Y-60266328D01*
X129555328Y-60181937D01*
X129601000Y-60071674D01*
X129601000Y-59491000D01*
X129987000Y-59491000D01*
X129987000Y-60071674D01*
X130032672Y-60181937D01*
X130117064Y-60266328D01*
X130227327Y-60312000D01*
X130708000Y-60312000D01*
X130783000Y-60237000D01*
X130783000Y-59416000D01*
X131091000Y-59416000D01*
X131091000Y-60237000D01*
X131166000Y-60312000D01*
X131646673Y-60312000D01*
X131756936Y-60266328D01*
X131841328Y-60181937D01*
X131887000Y-60071674D01*
X131887000Y-59491000D01*
X131812000Y-59416000D01*
X131091000Y-59416000D01*
X130783000Y-59416000D01*
X130062000Y-59416000D01*
X129987000Y-59491000D01*
X129601000Y-59491000D01*
X129526000Y-59416000D01*
X128805000Y-59416000D01*
X128497000Y-59416000D01*
X127776000Y-59416000D01*
X127701000Y-59491000D01*
X126740000Y-59491000D01*
X126740000Y-59337330D01*
X127536330Y-58541000D01*
X127701000Y-58541000D01*
X127701000Y-59033000D01*
X127776000Y-59108000D01*
X128497000Y-59108000D01*
X128497000Y-59088000D01*
X128805000Y-59088000D01*
X128805000Y-59108000D01*
X129526000Y-59108000D01*
X129601000Y-59033000D01*
X129601000Y-58452326D01*
X129987000Y-58452326D01*
X129987000Y-59033000D01*
X130062000Y-59108000D01*
X130783000Y-59108000D01*
X130783000Y-58287000D01*
X131091000Y-58287000D01*
X131091000Y-59108000D01*
X131812000Y-59108000D01*
X131887000Y-59033000D01*
X131887000Y-58452326D01*
X131841328Y-58342063D01*
X131756936Y-58257672D01*
X131646673Y-58212000D01*
X131166000Y-58212000D01*
X131091000Y-58287000D01*
X130783000Y-58287000D01*
X130708000Y-58212000D01*
X130227327Y-58212000D01*
X130117064Y-58257672D01*
X130032672Y-58342063D01*
X129987000Y-58452326D01*
X129601000Y-58452326D01*
X129593520Y-58434268D01*
X129598165Y-58431165D01*
X130411453Y-57617877D01*
X131587000Y-57617877D01*
X131698173Y-57596958D01*
X131800279Y-57531255D01*
X131868778Y-57431003D01*
X131892877Y-57312000D01*
X131892877Y-55812000D01*
X131871958Y-55700827D01*
X131806255Y-55598721D01*
X131706003Y-55530222D01*
X131587000Y-55506123D01*
X131312000Y-55506123D01*
X131312000Y-55210443D01*
X131445359Y-55077317D01*
X131536896Y-54856871D01*
X131537104Y-54618176D01*
X131445952Y-54397571D01*
X131277317Y-54228641D01*
X131056871Y-54137104D01*
X130818176Y-54136896D01*
X130597571Y-54228048D01*
X130431959Y-54393371D01*
X130432017Y-54326263D01*
X130340865Y-54105658D01*
X130172230Y-53936728D01*
X129951784Y-53845191D01*
X129713089Y-53844983D01*
X129492484Y-53936135D01*
X129358298Y-54070087D01*
X128942913Y-54070087D01*
X128799406Y-54098632D01*
X128677748Y-54179922D01*
X128385835Y-54471835D01*
X128304545Y-54593493D01*
X128292510Y-54654000D01*
X128276000Y-54737000D01*
X128276000Y-55506123D01*
X128001000Y-55506123D01*
X127889827Y-55527042D01*
X127787721Y-55592745D01*
X127719222Y-55692997D01*
X127695123Y-55812000D01*
X127695123Y-56187000D01*
X127461000Y-56187000D01*
X127317494Y-56215545D01*
X127195835Y-56296835D01*
X126480835Y-57011835D01*
X126399545Y-57133493D01*
X126399545Y-57133494D01*
X126371000Y-57277000D01*
X126371000Y-57671531D01*
X126301186Y-57741223D01*
X126221092Y-57934113D01*
X126221005Y-58033665D01*
X125718835Y-58535835D01*
X125637545Y-58657493D01*
X125637545Y-58657494D01*
X125609000Y-58801000D01*
X125609000Y-67508042D01*
X123908835Y-69208207D01*
X123863671Y-69275799D01*
X123818255Y-69205221D01*
X123799000Y-69192065D01*
X123799000Y-68941000D01*
X123781000Y-68850507D01*
X123780703Y-68849011D01*
X123789896Y-68826871D01*
X123790104Y-68588176D01*
X123698952Y-68367571D01*
X123530317Y-68198641D01*
X123511495Y-68190825D01*
X123583360Y-68118960D01*
X123583360Y-67397960D01*
X123891360Y-67397960D01*
X123891360Y-68118960D01*
X123966360Y-68193960D01*
X124547034Y-68193960D01*
X124657297Y-68148288D01*
X124741688Y-68063896D01*
X124787360Y-67953633D01*
X124787360Y-67472960D01*
X124712360Y-67397960D01*
X123891360Y-67397960D01*
X123583360Y-67397960D01*
X122762360Y-67397960D01*
X122687360Y-67472960D01*
X122687360Y-67953633D01*
X122733032Y-68063896D01*
X122817423Y-68148288D01*
X122894117Y-68180055D01*
X122850571Y-68198048D01*
X122681641Y-68366683D01*
X122590104Y-68587129D01*
X122589896Y-68825824D01*
X122681048Y-69046429D01*
X122747423Y-69112920D01*
X122671247Y-69127254D01*
X122599000Y-69112623D01*
X122249000Y-69112623D01*
X122171247Y-69127254D01*
X122099000Y-69112623D01*
X121749000Y-69112623D01*
X121671247Y-69127254D01*
X121599000Y-69112623D01*
X121249000Y-69112623D01*
X121171247Y-69127254D01*
X121099000Y-69112623D01*
X120749000Y-69112623D01*
X120637827Y-69133542D01*
X120535721Y-69199245D01*
X120467222Y-69299497D01*
X120443123Y-69418500D01*
X120443123Y-70087623D01*
X119774000Y-70087623D01*
X119662827Y-70108542D01*
X119560721Y-70174245D01*
X119492222Y-70274497D01*
X119468123Y-70393500D01*
X119468123Y-70743500D01*
X119481646Y-70815368D01*
X119474000Y-70833827D01*
X119474000Y-70906000D01*
X119549000Y-70981000D01*
X119590194Y-70981000D01*
X119654997Y-71025278D01*
X119774000Y-71049377D01*
X120348000Y-71049377D01*
X120348000Y-71087623D01*
X119774000Y-71087623D01*
X119662827Y-71108542D01*
X119589075Y-71156000D01*
X119549000Y-71156000D01*
X119511500Y-71193500D01*
X119446620Y-71193500D01*
X119380952Y-71034571D01*
X119212317Y-70865641D01*
X118991871Y-70774104D01*
X118753176Y-70773896D01*
X118532571Y-70865048D01*
X118363641Y-71033683D01*
X118272104Y-71254129D01*
X118271896Y-71492824D01*
X118363048Y-71713429D01*
X118439808Y-71790323D01*
X118420335Y-71803335D01*
X117971835Y-72251835D01*
X117890545Y-72373493D01*
X117884213Y-72405328D01*
X117862000Y-72517000D01*
X116626021Y-72517000D01*
X116630000Y-72497000D01*
X116630000Y-70485000D01*
X116597649Y-70322360D01*
X116523723Y-70211722D01*
X116505520Y-70184479D01*
X116124520Y-69803480D01*
X115986641Y-69711351D01*
X115982943Y-69710615D01*
X115986778Y-69705003D01*
X116010877Y-69586000D01*
X116010877Y-68336000D01*
X116399123Y-68336000D01*
X116399123Y-69586000D01*
X116420042Y-69697173D01*
X116485745Y-69799279D01*
X116585997Y-69867778D01*
X116705000Y-69891877D01*
X118205000Y-69891877D01*
X118316173Y-69870958D01*
X118418279Y-69805255D01*
X118486778Y-69705003D01*
X118510877Y-69586000D01*
X118510877Y-68336000D01*
X118489958Y-68224827D01*
X118424255Y-68122721D01*
X118324003Y-68054222D01*
X118205000Y-68030123D01*
X117983855Y-68030123D01*
X118074896Y-67810871D01*
X118075104Y-67572176D01*
X117983952Y-67351571D01*
X117815317Y-67182641D01*
X117594871Y-67091104D01*
X117356176Y-67090896D01*
X117135571Y-67182048D01*
X116966641Y-67350683D01*
X116875104Y-67571129D01*
X116874896Y-67809824D01*
X116965922Y-68030123D01*
X116705000Y-68030123D01*
X116593827Y-68051042D01*
X116491721Y-68116745D01*
X116423222Y-68216997D01*
X116399123Y-68336000D01*
X116010877Y-68336000D01*
X115989958Y-68224827D01*
X115924255Y-68122721D01*
X115824003Y-68054222D01*
X115705000Y-68030123D01*
X114205000Y-68030123D01*
X114093827Y-68051042D01*
X113991721Y-68116745D01*
X113923222Y-68216997D01*
X113899123Y-68336000D01*
X113899123Y-68536000D01*
X113530877Y-68536000D01*
X113530877Y-68311000D01*
X113509958Y-68199827D01*
X113444255Y-68097721D01*
X113344003Y-68029222D01*
X113225000Y-68005123D01*
X111725000Y-68005123D01*
X111613827Y-68026042D01*
X111511721Y-68091745D01*
X111443222Y-68191997D01*
X111419123Y-68311000D01*
X111419123Y-69611000D01*
X111440042Y-69722173D01*
X111505745Y-69824279D01*
X111605997Y-69892778D01*
X111725000Y-69916877D01*
X113225000Y-69916877D01*
X113336173Y-69895958D01*
X113438279Y-69830255D01*
X113506778Y-69730003D01*
X113530877Y-69611000D01*
X113530877Y-69386000D01*
X113899123Y-69386000D01*
X113899123Y-69586000D01*
X113916708Y-69679456D01*
X113788274Y-69705003D01*
X113756359Y-69711351D01*
X113618480Y-69803480D01*
X113252307Y-70169653D01*
X113225000Y-70164123D01*
X111725000Y-70164123D01*
X111613827Y-70185042D01*
X111511721Y-70250745D01*
X111443222Y-70350997D01*
X111419123Y-70470000D01*
X111419123Y-71770000D01*
X111440042Y-71881173D01*
X111505745Y-71983279D01*
X111605997Y-72051778D01*
X111725000Y-72075877D01*
X113225000Y-72075877D01*
X113336173Y-72054958D01*
X113438279Y-71989255D01*
X113506778Y-71889003D01*
X113530877Y-71770000D01*
X113530877Y-71707469D01*
X113578683Y-71755359D01*
X113767286Y-71833674D01*
X113178502Y-72422458D01*
X113125000Y-72411623D01*
X111625000Y-72411623D01*
X111541513Y-72427332D01*
X111517649Y-72307360D01*
X111453935Y-72212006D01*
X111425520Y-72169479D01*
X110830877Y-71574836D01*
X110830877Y-70470000D01*
X110809958Y-70358827D01*
X110744255Y-70256721D01*
X110644003Y-70188222D01*
X110525000Y-70164123D01*
X109172917Y-70164123D01*
X109420163Y-69916877D01*
X110525000Y-69916877D01*
X110636173Y-69895958D01*
X110738279Y-69830255D01*
X110806778Y-69730003D01*
X110830877Y-69611000D01*
X110830877Y-68311000D01*
X110809958Y-68199827D01*
X110744255Y-68097721D01*
X110644003Y-68029222D01*
X110525000Y-68005123D01*
X109025000Y-68005123D01*
X108913827Y-68026042D01*
X108811721Y-68091745D01*
X108743222Y-68191997D01*
X108719123Y-68311000D01*
X108719123Y-69415837D01*
X108284480Y-69850480D01*
X108192351Y-69988359D01*
X108192351Y-69988360D01*
X108160000Y-70151000D01*
X108160000Y-75184000D01*
X108181061Y-75289879D01*
X108192351Y-75346641D01*
X108284480Y-75484520D01*
X108690879Y-75890920D01*
X108783008Y-75952478D01*
X108828760Y-75983049D01*
X108991400Y-76015400D01*
X109511023Y-76015400D01*
X109511023Y-76288900D01*
X109531942Y-76400073D01*
X109597645Y-76502179D01*
X109697897Y-76570678D01*
X109816900Y-76594777D01*
X110248700Y-76594777D01*
X110354030Y-76574958D01*
X110451900Y-76594777D01*
X110883700Y-76594777D01*
X110994873Y-76573858D01*
X110998255Y-76571682D01*
X111112300Y-76594777D01*
X111544100Y-76594777D01*
X111649430Y-76574958D01*
X111747300Y-76594777D01*
X112179100Y-76594777D01*
X112290273Y-76573858D01*
X112343085Y-76539875D01*
X112158067Y-76724893D01*
X112157055Y-76723321D01*
X112056803Y-76654822D01*
X111937800Y-76630723D01*
X110058200Y-76630723D01*
X109947027Y-76651642D01*
X109844921Y-76717345D01*
X109776422Y-76817597D01*
X109752323Y-76936600D01*
X109752323Y-77137164D01*
X109720871Y-77124104D01*
X109482176Y-77123896D01*
X109261571Y-77215048D01*
X109092641Y-77383683D01*
X109001104Y-77604129D01*
X109000896Y-77842824D01*
X109092048Y-78063429D01*
X109260683Y-78232359D01*
X109481129Y-78323896D01*
X109719824Y-78324104D01*
X109752323Y-78310676D01*
X109752323Y-78511400D01*
X109773242Y-78622573D01*
X109838945Y-78724679D01*
X109939197Y-78793178D01*
X110058200Y-78817277D01*
X110903200Y-78817277D01*
X110903200Y-78857172D01*
X110883700Y-78853223D01*
X110451900Y-78853223D01*
X110346570Y-78873042D01*
X110248700Y-78853223D01*
X109816900Y-78853223D01*
X109705727Y-78874142D01*
X109603621Y-78939845D01*
X109535122Y-79040097D01*
X109511023Y-79159100D01*
X109511023Y-80556100D01*
X109531942Y-80667273D01*
X109597645Y-80769379D01*
X109607800Y-80776318D01*
X109607800Y-81203800D01*
X109634784Y-81339457D01*
X109640151Y-81366441D01*
X109732280Y-81504320D01*
X110443480Y-82215521D01*
X110462904Y-82228500D01*
X108152500Y-82228500D01*
X108152500Y-45693000D01*
X108877098Y-45693000D01*
X108877098Y-46007020D01*
X108918962Y-46229508D01*
X108940144Y-46262425D01*
X108935486Y-46269242D01*
X108887258Y-46507400D01*
X108887258Y-47508160D01*
X108929122Y-47730648D01*
X108944534Y-47754599D01*
X108935486Y-47767842D01*
X108887258Y-48006000D01*
X108887258Y-49006760D01*
X108929122Y-49229248D01*
X108945376Y-49254507D01*
X108935486Y-49268982D01*
X108887258Y-49507140D01*
X108887258Y-50507900D01*
X108929122Y-50730388D01*
X108945376Y-50755647D01*
X108935486Y-50770122D01*
X108887258Y-51008280D01*
X108887258Y-52009040D01*
X108929122Y-52231528D01*
X108944534Y-52255479D01*
X108935486Y-52268722D01*
X108887258Y-52506880D01*
X108887258Y-53507640D01*
X108929122Y-53730128D01*
X108945376Y-53755387D01*
X108935486Y-53769862D01*
X108887258Y-54008020D01*
X108887258Y-55008780D01*
X108929122Y-55231268D01*
X108944534Y-55255219D01*
X108935486Y-55268462D01*
X108887258Y-55506620D01*
X108887258Y-56507380D01*
X108929122Y-56729868D01*
X108945376Y-56755127D01*
X108935486Y-56769602D01*
X108887258Y-57007760D01*
X108887258Y-58008520D01*
X108929122Y-58231008D01*
X108944534Y-58254959D01*
X108935486Y-58268202D01*
X108887258Y-58506360D01*
X108887258Y-59507120D01*
X108929122Y-59729608D01*
X108945376Y-59754867D01*
X108935486Y-59769342D01*
X108887258Y-60007500D01*
X108887258Y-61008260D01*
X108929122Y-61230748D01*
X109060612Y-61435089D01*
X109199400Y-61529919D01*
X109199400Y-61828280D01*
X109274400Y-61903280D01*
X109794980Y-61903280D01*
X109794980Y-61883280D01*
X110102980Y-61883280D01*
X110102980Y-61903280D01*
X110623560Y-61903280D01*
X110698560Y-61828280D01*
X110698560Y-61528660D01*
X110825389Y-61447048D01*
X110962474Y-61246418D01*
X111010702Y-61008260D01*
X111010702Y-60007500D01*
X110968838Y-59785012D01*
X110952584Y-59759753D01*
X110962474Y-59745278D01*
X111010702Y-59507120D01*
X111010702Y-58506360D01*
X110968838Y-58283872D01*
X110953426Y-58259921D01*
X110962474Y-58246678D01*
X111010702Y-58008520D01*
X111010702Y-57007760D01*
X110968838Y-56785272D01*
X110952584Y-56760013D01*
X110962474Y-56745538D01*
X111010702Y-56507380D01*
X111010702Y-55506620D01*
X110968838Y-55284132D01*
X110953426Y-55260181D01*
X110962474Y-55246938D01*
X111010702Y-55008780D01*
X111010702Y-54008020D01*
X110968838Y-53785532D01*
X110952584Y-53760273D01*
X110962474Y-53745798D01*
X111010702Y-53507640D01*
X111010702Y-52506880D01*
X110968838Y-52284392D01*
X110953426Y-52260441D01*
X110962474Y-52247198D01*
X111010702Y-52009040D01*
X111010702Y-51008280D01*
X110968838Y-50785792D01*
X110952584Y-50760533D01*
X110962474Y-50746058D01*
X111010702Y-50507900D01*
X111010702Y-49507140D01*
X110968838Y-49284652D01*
X110952584Y-49259393D01*
X110962474Y-49244918D01*
X111010702Y-49006760D01*
X111010702Y-48006000D01*
X110968838Y-47783512D01*
X110953426Y-47759561D01*
X110962474Y-47746318D01*
X110994606Y-47587646D01*
X111462000Y-48055040D01*
X111462000Y-60325000D01*
X111480321Y-60417104D01*
X111494351Y-60487641D01*
X111586480Y-60625520D01*
X113872479Y-62911520D01*
X113930711Y-62950429D01*
X114010360Y-63003649D01*
X114173000Y-63036000D01*
X115273470Y-63036000D01*
X115356683Y-63119359D01*
X115577129Y-63210896D01*
X115815824Y-63211104D01*
X116036429Y-63119952D01*
X116205359Y-62951317D01*
X116296896Y-62730871D01*
X116297104Y-62492176D01*
X116205952Y-62271571D01*
X116037317Y-62102641D01*
X115816871Y-62011104D01*
X115578176Y-62010896D01*
X115357571Y-62102048D01*
X115273472Y-62186000D01*
X114349041Y-62186000D01*
X113285621Y-61122581D01*
X113369429Y-61087952D01*
X113538359Y-60919317D01*
X113629896Y-60698871D01*
X113630104Y-60460176D01*
X113538952Y-60239571D01*
X113370317Y-60070641D01*
X113149871Y-59979104D01*
X113031041Y-59979000D01*
X112820000Y-59767960D01*
X112820000Y-50727471D01*
X112910129Y-50764896D01*
X113148824Y-50765104D01*
X113369429Y-50673952D01*
X113538359Y-50505317D01*
X113629896Y-50284871D01*
X113630104Y-50046176D01*
X113538952Y-49825571D01*
X113455000Y-49741472D01*
X113455000Y-45693000D01*
X116395990Y-45693000D01*
X116395990Y-57384990D01*
X116421670Y-57514092D01*
X116428341Y-57547631D01*
X116520470Y-57685510D01*
X118652999Y-59818040D01*
X118652896Y-59935824D01*
X118744048Y-60156429D01*
X118912683Y-60325359D01*
X119133129Y-60416896D01*
X119371824Y-60417104D01*
X119592429Y-60325952D01*
X119761359Y-60157317D01*
X119817290Y-60022620D01*
X119894000Y-60099330D01*
X119894000Y-60359557D01*
X119760641Y-60492683D01*
X119669104Y-60713129D01*
X119668896Y-60951824D01*
X119760048Y-61172429D01*
X119928683Y-61341359D01*
X120149129Y-61432896D01*
X120387824Y-61433104D01*
X120608429Y-61341952D01*
X120777359Y-61173317D01*
X120868896Y-60952871D01*
X120869104Y-60714176D01*
X120777952Y-60493571D01*
X120644000Y-60359385D01*
X120644000Y-59944000D01*
X120615455Y-59800494D01*
X120534165Y-59678835D01*
X118315585Y-57460255D01*
X118449429Y-57404952D01*
X118618359Y-57236317D01*
X118709896Y-57015871D01*
X118710061Y-56826269D01*
X121550165Y-53986165D01*
X121624362Y-53875122D01*
X121594878Y-54020720D01*
X121594878Y-55021480D01*
X121636742Y-55243968D01*
X121652154Y-55267919D01*
X121643106Y-55281162D01*
X121594878Y-55519320D01*
X121594878Y-56520080D01*
X121636742Y-56742568D01*
X121652996Y-56767827D01*
X121643106Y-56782302D01*
X121594878Y-57020460D01*
X121594878Y-58021220D01*
X121636742Y-58243708D01*
X121652154Y-58267659D01*
X121643106Y-58280902D01*
X121594878Y-58519060D01*
X121594878Y-59519820D01*
X121636742Y-59742308D01*
X121652996Y-59767567D01*
X121643106Y-59782042D01*
X121594878Y-60020200D01*
X121594878Y-61020960D01*
X121636742Y-61243448D01*
X121668989Y-61293561D01*
X121643106Y-61331442D01*
X121594878Y-61569600D01*
X121594878Y-62570360D01*
X121636742Y-62792848D01*
X121652996Y-62818107D01*
X121643106Y-62832582D01*
X121594878Y-63070740D01*
X121594878Y-64071500D01*
X121601091Y-64104518D01*
X121089420Y-64104518D01*
X120866932Y-64146382D01*
X120841673Y-64162636D01*
X120827198Y-64152746D01*
X120589040Y-64104518D01*
X119588280Y-64104518D01*
X119365792Y-64146382D01*
X119341841Y-64161794D01*
X119328598Y-64152746D01*
X119090440Y-64104518D01*
X118089680Y-64104518D01*
X117867192Y-64146382D01*
X117841933Y-64162636D01*
X117827458Y-64152746D01*
X117589300Y-64104518D01*
X116588540Y-64104518D01*
X116366052Y-64146382D01*
X116340793Y-64162636D01*
X116326318Y-64152746D01*
X116088160Y-64104518D01*
X115087400Y-64104518D01*
X114864912Y-64146382D01*
X114840961Y-64161794D01*
X114827718Y-64152746D01*
X114589560Y-64104518D01*
X113588800Y-64104518D01*
X113366312Y-64146382D01*
X113335820Y-64166003D01*
X113316418Y-64152746D01*
X113078260Y-64104518D01*
X112077500Y-64104518D01*
X111855012Y-64146382D01*
X111831061Y-64161794D01*
X111817818Y-64152746D01*
X111579660Y-64104518D01*
X111531620Y-64104518D01*
X111587639Y-64048597D01*
X111679176Y-63828151D01*
X111679384Y-63589456D01*
X111588232Y-63368851D01*
X111419597Y-63199921D01*
X111199151Y-63108384D01*
X111010702Y-63108220D01*
X111010702Y-63058040D01*
X110968838Y-62835552D01*
X110837348Y-62631211D01*
X110698560Y-62536381D01*
X110698560Y-62286280D01*
X110623560Y-62211280D01*
X110102980Y-62211280D01*
X110102980Y-62231280D01*
X109794980Y-62231280D01*
X109794980Y-62211280D01*
X109274400Y-62211280D01*
X109199400Y-62286280D01*
X109199400Y-62537640D01*
X109072571Y-62619252D01*
X108935486Y-62819882D01*
X108887258Y-63058040D01*
X108887258Y-64058800D01*
X108929122Y-64281288D01*
X109060612Y-64485629D01*
X109261242Y-64622714D01*
X109499400Y-64670942D01*
X109976016Y-64670942D01*
X109966758Y-64716660D01*
X109966758Y-65615820D01*
X110008622Y-65838308D01*
X110140112Y-66042649D01*
X110340742Y-66179734D01*
X110578900Y-66227962D01*
X111579660Y-66227962D01*
X111802148Y-66186098D01*
X111826099Y-66170686D01*
X111839342Y-66179734D01*
X112077500Y-66227962D01*
X113078260Y-66227962D01*
X113300748Y-66186098D01*
X113331240Y-66166477D01*
X113350642Y-66179734D01*
X113588800Y-66227962D01*
X114589560Y-66227962D01*
X114812048Y-66186098D01*
X114835999Y-66170686D01*
X114849242Y-66179734D01*
X115087400Y-66227962D01*
X116088160Y-66227962D01*
X116310648Y-66186098D01*
X116335907Y-66169844D01*
X116350382Y-66179734D01*
X116588540Y-66227962D01*
X117589300Y-66227962D01*
X117811788Y-66186098D01*
X117837047Y-66169844D01*
X117851522Y-66179734D01*
X118089680Y-66227962D01*
X119090440Y-66227962D01*
X119312928Y-66186098D01*
X119336879Y-66170686D01*
X119345115Y-66176313D01*
X119262801Y-66258483D01*
X119171264Y-66478929D01*
X119171056Y-66717624D01*
X119262208Y-66938229D01*
X119430843Y-67107159D01*
X119501778Y-67136614D01*
X119505995Y-67142925D01*
X119872195Y-67509125D01*
X119981483Y-67582150D01*
X119981483Y-67893960D01*
X120002402Y-68005133D01*
X120068105Y-68107239D01*
X120168357Y-68175738D01*
X120287360Y-68199837D01*
X121787360Y-68199837D01*
X121898533Y-68178918D01*
X122000639Y-68113215D01*
X122069138Y-68012963D01*
X122093237Y-67893960D01*
X122093237Y-66593960D01*
X122082009Y-66534287D01*
X122687360Y-66534287D01*
X122687360Y-67014960D01*
X122762360Y-67089960D01*
X123583360Y-67089960D01*
X123583360Y-66368960D01*
X123891360Y-66368960D01*
X123891360Y-67089960D01*
X124712360Y-67089960D01*
X124787360Y-67014960D01*
X124787360Y-66534287D01*
X124741688Y-66424024D01*
X124657297Y-66339632D01*
X124547034Y-66293960D01*
X123966360Y-66293960D01*
X123891360Y-66368960D01*
X123583360Y-66368960D01*
X123508360Y-66293960D01*
X122927686Y-66293960D01*
X122817423Y-66339632D01*
X122733032Y-66424024D01*
X122687360Y-66534287D01*
X122082009Y-66534287D01*
X122072318Y-66482787D01*
X122006615Y-66380681D01*
X121906363Y-66312182D01*
X121787360Y-66288083D01*
X120291976Y-66288083D01*
X120280112Y-66259371D01*
X120248758Y-66227962D01*
X120589040Y-66227962D01*
X120811528Y-66186098D01*
X120836787Y-66169844D01*
X120851262Y-66179734D01*
X121089420Y-66227962D01*
X122090180Y-66227962D01*
X122312668Y-66186098D01*
X122517009Y-66054608D01*
X122654094Y-65853978D01*
X122702322Y-65615820D01*
X122702322Y-65584166D01*
X122802417Y-65564256D01*
X122829401Y-65558889D01*
X122841806Y-65550600D01*
X123342400Y-65550600D01*
X123478057Y-65523616D01*
X123505041Y-65518249D01*
X123642920Y-65426120D01*
X123889539Y-65179501D01*
X124007324Y-65179604D01*
X124227929Y-65088452D01*
X124396859Y-64919817D01*
X124488396Y-64699371D01*
X124488604Y-64460676D01*
X124397452Y-64240071D01*
X124228817Y-64071141D01*
X124008371Y-63979604D01*
X123769676Y-63979396D01*
X123718322Y-64000615D01*
X123718322Y-63070740D01*
X123676458Y-62848252D01*
X123660204Y-62822993D01*
X123670094Y-62808518D01*
X123718322Y-62570360D01*
X123718322Y-61569600D01*
X123676458Y-61347112D01*
X123644211Y-61296999D01*
X123670094Y-61259118D01*
X123718322Y-61020960D01*
X123718322Y-60020200D01*
X123676458Y-59797712D01*
X123660204Y-59772453D01*
X123670094Y-59757978D01*
X123718322Y-59519820D01*
X123718322Y-58519060D01*
X123676458Y-58296572D01*
X123661046Y-58272621D01*
X123670094Y-58259378D01*
X123718322Y-58021220D01*
X123718322Y-57020460D01*
X123676458Y-56797972D01*
X123660204Y-56772713D01*
X123670094Y-56758238D01*
X123684929Y-56684978D01*
X123769163Y-56769359D01*
X123989609Y-56860896D01*
X124108439Y-56861000D01*
X124456586Y-57209147D01*
X124456586Y-58161362D01*
X124373227Y-58244575D01*
X124281690Y-58465021D01*
X124281482Y-58703716D01*
X124372634Y-58924321D01*
X124541269Y-59093251D01*
X124761715Y-59184788D01*
X125000410Y-59184996D01*
X125221015Y-59093844D01*
X125389945Y-58925209D01*
X125481482Y-58704763D01*
X125481690Y-58466068D01*
X125390538Y-58245463D01*
X125306586Y-58161364D01*
X125306586Y-57033106D01*
X125303158Y-57015871D01*
X125274235Y-56870465D01*
X125182107Y-56732586D01*
X124709481Y-56259961D01*
X124709584Y-56142176D01*
X124618432Y-55921571D01*
X124449797Y-55752641D01*
X124229351Y-55661104D01*
X123990656Y-55660896D01*
X123770051Y-55752048D01*
X123718322Y-55803687D01*
X123718322Y-55519320D01*
X123676458Y-55296832D01*
X123661046Y-55272881D01*
X123670094Y-55259638D01*
X123718322Y-55021480D01*
X123718322Y-54020720D01*
X123676458Y-53798232D01*
X123660204Y-53772973D01*
X123670094Y-53758498D01*
X123718322Y-53520340D01*
X123718322Y-52519580D01*
X123676458Y-52297092D01*
X123661046Y-52273141D01*
X123670094Y-52259898D01*
X123718322Y-52021740D01*
X123718322Y-51020980D01*
X123676458Y-50798492D01*
X123660204Y-50773233D01*
X123670094Y-50758758D01*
X123718322Y-50520600D01*
X123718322Y-50268490D01*
X123837209Y-50317856D01*
X124075904Y-50318064D01*
X124296509Y-50226912D01*
X124369374Y-50154175D01*
X124417862Y-50229528D01*
X124363222Y-50309497D01*
X124339123Y-50428500D01*
X124339123Y-51028500D01*
X124360042Y-51139673D01*
X124417862Y-51229528D01*
X124363222Y-51309497D01*
X124339123Y-51428500D01*
X124339123Y-52028500D01*
X124360042Y-52139673D01*
X124425745Y-52241779D01*
X124515116Y-52302844D01*
X124159480Y-52658480D01*
X124067351Y-52796359D01*
X124061984Y-52823343D01*
X124035000Y-52959000D01*
X124035000Y-53805470D01*
X123951641Y-53888683D01*
X123860104Y-54109129D01*
X123859896Y-54347824D01*
X123951048Y-54568429D01*
X124119683Y-54737359D01*
X124340129Y-54828896D01*
X124578824Y-54829104D01*
X124799429Y-54737952D01*
X124968359Y-54569317D01*
X125059896Y-54348871D01*
X125060104Y-54110176D01*
X124968952Y-53889571D01*
X124885000Y-53805472D01*
X124885000Y-53135040D01*
X125591540Y-52428500D01*
X126739123Y-52428500D01*
X126739123Y-53628500D01*
X126760042Y-53739673D01*
X126825745Y-53841779D01*
X126925997Y-53910278D01*
X127045000Y-53934377D01*
X128845000Y-53934377D01*
X128956173Y-53913458D01*
X129058279Y-53847755D01*
X129126778Y-53747503D01*
X129150877Y-53628500D01*
X129150877Y-52428500D01*
X129129958Y-52317327D01*
X129064255Y-52215221D01*
X128964003Y-52146722D01*
X128845000Y-52122623D01*
X127045000Y-52122623D01*
X126933827Y-52143542D01*
X126831721Y-52209245D01*
X126763222Y-52309497D01*
X126739123Y-52428500D01*
X125591540Y-52428500D01*
X125685663Y-52334377D01*
X126195000Y-52334377D01*
X126306173Y-52313458D01*
X126408279Y-52247755D01*
X126476778Y-52147503D01*
X126476846Y-52147165D01*
X126600230Y-52122623D01*
X126607641Y-52121149D01*
X126745520Y-52029020D01*
X126914541Y-51860000D01*
X127211470Y-51860000D01*
X127294683Y-51943359D01*
X127515129Y-52034896D01*
X127753824Y-52035104D01*
X127974429Y-51943952D01*
X128058528Y-51860000D01*
X129751470Y-51860000D01*
X129834683Y-51943359D01*
X130055129Y-52034896D01*
X130293824Y-52035104D01*
X130514429Y-51943952D01*
X130683359Y-51775317D01*
X130774896Y-51554871D01*
X130775104Y-51316176D01*
X130683952Y-51095571D01*
X130515317Y-50926641D01*
X130294871Y-50835104D01*
X130056176Y-50834896D01*
X129835571Y-50926048D01*
X129751472Y-51010000D01*
X128058530Y-51010000D01*
X127975317Y-50926641D01*
X127754871Y-50835104D01*
X127516176Y-50834896D01*
X127321394Y-50915378D01*
X127345896Y-50856371D01*
X127346104Y-50617676D01*
X127254952Y-50397071D01*
X127086317Y-50228141D01*
X126865871Y-50136604D01*
X126627176Y-50136396D01*
X126428189Y-50218616D01*
X126476778Y-50147503D01*
X126500877Y-50028500D01*
X126500877Y-49428500D01*
X126479958Y-49317327D01*
X126421416Y-49226349D01*
X126449328Y-49198437D01*
X126495000Y-49088174D01*
X126495000Y-48953500D01*
X126420000Y-48878500D01*
X125574000Y-48878500D01*
X125574000Y-48902500D01*
X125266000Y-48902500D01*
X125266000Y-48878500D01*
X124420000Y-48878500D01*
X124345000Y-48953500D01*
X124345000Y-49088174D01*
X124390672Y-49198437D01*
X124419446Y-49227210D01*
X124376995Y-49289339D01*
X124297397Y-49209601D01*
X124076951Y-49118064D01*
X123838256Y-49117856D01*
X123685625Y-49180922D01*
X123718322Y-49019460D01*
X123718322Y-48368826D01*
X124345000Y-48368826D01*
X124345000Y-48503500D01*
X124420000Y-48578500D01*
X125266000Y-48578500D01*
X125266000Y-48203500D01*
X125574000Y-48203500D01*
X125574000Y-48578500D01*
X126420000Y-48578500D01*
X126495000Y-48503500D01*
X126495000Y-48368826D01*
X126449328Y-48258563D01*
X126364936Y-48174172D01*
X126254673Y-48128500D01*
X125649000Y-48128500D01*
X125574000Y-48203500D01*
X125266000Y-48203500D01*
X125191000Y-48128500D01*
X124585327Y-48128500D01*
X124475064Y-48174172D01*
X124390672Y-48258563D01*
X124345000Y-48368826D01*
X123718322Y-48368826D01*
X123718322Y-48018700D01*
X123676458Y-47796212D01*
X123661046Y-47772261D01*
X123670094Y-47759018D01*
X123718322Y-47520860D01*
X123718322Y-46828500D01*
X126739123Y-46828500D01*
X126739123Y-48028500D01*
X126760042Y-48139673D01*
X126825745Y-48241779D01*
X126925997Y-48310278D01*
X127045000Y-48334377D01*
X128845000Y-48334377D01*
X128956173Y-48313458D01*
X129058279Y-48247755D01*
X129126778Y-48147503D01*
X129150877Y-48028500D01*
X129150877Y-46828500D01*
X129129958Y-46717327D01*
X129064255Y-46615221D01*
X128964003Y-46546722D01*
X128845000Y-46522623D01*
X127045000Y-46522623D01*
X126933827Y-46543542D01*
X126831721Y-46609245D01*
X126763222Y-46709497D01*
X126739123Y-46828500D01*
X123718322Y-46828500D01*
X123718322Y-46520100D01*
X123676458Y-46297612D01*
X123656898Y-46267216D01*
X123665014Y-46255338D01*
X123713242Y-46017180D01*
X123713242Y-45693000D01*
X125793500Y-45693000D01*
X125829846Y-45686161D01*
X125863227Y-45664681D01*
X125885621Y-45631906D01*
X125893500Y-45593000D01*
X125893500Y-40126000D01*
X129638670Y-40126000D01*
X129778826Y-40266156D01*
X129667827Y-40287042D01*
X129565721Y-40352745D01*
X129497222Y-40452997D01*
X129473123Y-40572000D01*
X129473123Y-42072000D01*
X129494042Y-42183173D01*
X129559745Y-42285279D01*
X129659997Y-42353778D01*
X129779000Y-42377877D01*
X131079000Y-42377877D01*
X131147000Y-42365082D01*
X131147000Y-42495960D01*
X130676837Y-42966123D01*
X129779000Y-42966123D01*
X129667827Y-42987042D01*
X129565721Y-43052745D01*
X129497222Y-43152997D01*
X129473123Y-43272000D01*
X129473123Y-43647000D01*
X129098877Y-43647000D01*
X129098877Y-43272000D01*
X129077958Y-43160827D01*
X129012255Y-43058721D01*
X128912003Y-42990222D01*
X128793000Y-42966123D01*
X127654540Y-42966123D01*
X127726896Y-42791871D01*
X127727061Y-42602269D01*
X127951453Y-42377877D01*
X128793000Y-42377877D01*
X128904173Y-42356958D01*
X129006279Y-42291255D01*
X129074778Y-42191003D01*
X129098877Y-42072000D01*
X129098877Y-40572000D01*
X129077958Y-40460827D01*
X129012255Y-40358721D01*
X128912003Y-40290222D01*
X128793000Y-40266123D01*
X127493000Y-40266123D01*
X127381827Y-40287042D01*
X127279721Y-40352745D01*
X127211222Y-40452997D01*
X127187123Y-40572000D01*
X127187123Y-42072000D01*
X127187133Y-42072052D01*
X127008176Y-42071896D01*
X126787571Y-42163048D01*
X126618641Y-42331683D01*
X126527104Y-42552129D01*
X126526896Y-42790824D01*
X126618048Y-43011429D01*
X126786683Y-43180359D01*
X127007129Y-43271896D01*
X127187123Y-43272053D01*
X127187123Y-44772000D01*
X127194687Y-44812201D01*
X127086317Y-44703641D01*
X126865871Y-44612104D01*
X126627176Y-44611896D01*
X126406571Y-44703048D01*
X126237641Y-44871683D01*
X126146104Y-45092129D01*
X126145896Y-45330824D01*
X126237048Y-45551429D01*
X126405683Y-45720359D01*
X126626129Y-45811896D01*
X126864824Y-45812104D01*
X127085429Y-45720952D01*
X127254359Y-45552317D01*
X127345896Y-45331871D01*
X127346104Y-45093176D01*
X127312449Y-45011724D01*
X127373997Y-45053778D01*
X127493000Y-45077877D01*
X128793000Y-45077877D01*
X128904173Y-45056958D01*
X129006279Y-44991255D01*
X129074778Y-44891003D01*
X129098877Y-44772000D01*
X129098877Y-44397000D01*
X129473123Y-44397000D01*
X129473123Y-44772000D01*
X129494042Y-44883173D01*
X129559745Y-44985279D01*
X129659997Y-45053778D01*
X129779000Y-45077877D01*
X131079000Y-45077877D01*
X131190173Y-45056958D01*
X131292279Y-44991255D01*
X131360778Y-44891003D01*
X131384877Y-44772000D01*
X131384877Y-43460163D01*
X131872520Y-42972520D01*
X131964649Y-42834641D01*
X131973156Y-42791871D01*
X131997000Y-42672000D01*
X131997000Y-40068500D01*
X131964649Y-39905860D01*
X131916634Y-39834001D01*
X131872520Y-39767979D01*
X131155010Y-39050470D01*
X131017131Y-38958341D01*
X130990147Y-38952974D01*
X130854490Y-38925990D01*
X125893500Y-38925990D01*
X125893500Y-37978500D01*
X132402500Y-37978500D01*
X132402500Y-82228500D01*
X132402500Y-82228500D01*
G37*
X132402500Y-82228500D02*
X112422094Y-82228500D01*
X112441520Y-82215520D01*
X112949520Y-81707521D01*
X113041648Y-81569641D01*
X113041649Y-81569640D01*
X113074000Y-81407000D01*
X113074000Y-79841000D01*
X113181623Y-79841000D01*
X113181623Y-81641000D01*
X113202542Y-81752173D01*
X113268245Y-81854279D01*
X113368497Y-81922778D01*
X113487500Y-81946877D01*
X114687500Y-81946877D01*
X114798673Y-81925958D01*
X114900779Y-81860255D01*
X114969278Y-81760003D01*
X114993377Y-81641000D01*
X114993377Y-79841000D01*
X116781623Y-79841000D01*
X116781623Y-81641000D01*
X116802542Y-81752173D01*
X116868245Y-81854279D01*
X116968497Y-81922778D01*
X117087500Y-81946877D01*
X118287500Y-81946877D01*
X118398673Y-81925958D01*
X118500779Y-81860255D01*
X118569278Y-81760003D01*
X118593377Y-81641000D01*
X118593377Y-81064500D01*
X127076500Y-81064500D01*
X127076500Y-81545173D01*
X127122172Y-81655436D01*
X127206563Y-81739828D01*
X127316826Y-81785500D01*
X127897500Y-81785500D01*
X127972500Y-81710500D01*
X127972500Y-80989500D01*
X128280500Y-80989500D01*
X128280500Y-81710500D01*
X128355500Y-81785500D01*
X128936174Y-81785500D01*
X129046437Y-81739828D01*
X129130828Y-81655436D01*
X129176500Y-81545173D01*
X129176500Y-81064500D01*
X129101500Y-80989500D01*
X128280500Y-80989500D01*
X127972500Y-80989500D01*
X127151500Y-80989500D01*
X127076500Y-81064500D01*
X118593377Y-81064500D01*
X118593377Y-79841000D01*
X118572458Y-79729827D01*
X118506755Y-79627721D01*
X118406503Y-79559222D01*
X118287500Y-79535123D01*
X117087500Y-79535123D01*
X116976327Y-79556042D01*
X116874221Y-79621745D01*
X116805722Y-79721997D01*
X116781623Y-79841000D01*
X114993377Y-79841000D01*
X114972458Y-79729827D01*
X114906755Y-79627721D01*
X114806503Y-79559222D01*
X114687500Y-79535123D01*
X113487500Y-79535123D01*
X113376327Y-79556042D01*
X113274221Y-79621745D01*
X113205722Y-79721997D01*
X113181623Y-79841000D01*
X113074000Y-79841000D01*
X113074000Y-79805040D01*
X113587041Y-79292000D01*
X116205000Y-79292000D01*
X116349994Y-79263159D01*
X116367641Y-79259649D01*
X116505520Y-79167520D01*
X117521520Y-78151520D01*
X117557949Y-78097000D01*
X119973123Y-78097000D01*
X119973123Y-79597000D01*
X119994042Y-79708173D01*
X120059745Y-79810279D01*
X120159997Y-79878778D01*
X120279000Y-79902877D01*
X121529000Y-79902877D01*
X121640173Y-79881958D01*
X121742279Y-79816255D01*
X121810778Y-79716003D01*
X121834877Y-79597000D01*
X121834877Y-79222000D01*
X121934592Y-79222000D01*
X122087683Y-79375359D01*
X122308129Y-79466896D01*
X122546824Y-79467104D01*
X122767429Y-79375952D01*
X122921650Y-79222000D01*
X123148123Y-79222000D01*
X123148123Y-79597000D01*
X123169042Y-79708173D01*
X123234745Y-79810279D01*
X123334997Y-79878778D01*
X123454000Y-79902877D01*
X124704000Y-79902877D01*
X124815173Y-79881958D01*
X124917279Y-79816255D01*
X124957805Y-79756942D01*
X125187818Y-79756942D01*
X125347334Y-80143000D01*
X125642446Y-80438628D01*
X126028226Y-80598818D01*
X126445942Y-80599182D01*
X126832000Y-80439666D01*
X127076500Y-80195593D01*
X127076500Y-80606500D01*
X127151500Y-80681500D01*
X127972500Y-80681500D01*
X127972500Y-79960500D01*
X128280500Y-79960500D01*
X128280500Y-80681500D01*
X129101500Y-80681500D01*
X129176500Y-80606500D01*
X129176500Y-80125827D01*
X129130828Y-80015564D01*
X129046437Y-79931172D01*
X128936174Y-79885500D01*
X128355500Y-79885500D01*
X128280500Y-79960500D01*
X127972500Y-79960500D01*
X127897500Y-79885500D01*
X127316826Y-79885500D01*
X127218241Y-79926335D01*
X127287818Y-79758774D01*
X127288182Y-79341058D01*
X127128666Y-78955000D01*
X126833554Y-78659372D01*
X126562932Y-78547000D01*
X126818000Y-78547000D01*
X126893000Y-78472000D01*
X126893000Y-77751000D01*
X127201000Y-77751000D01*
X127201000Y-78472000D01*
X127276000Y-78547000D01*
X127856674Y-78547000D01*
X127966937Y-78501328D01*
X128051328Y-78416936D01*
X128097000Y-78306673D01*
X128097000Y-77826000D01*
X128022000Y-77751000D01*
X127201000Y-77751000D01*
X126893000Y-77751000D01*
X126072000Y-77751000D01*
X125997000Y-77826000D01*
X125997000Y-78306673D01*
X126042672Y-78416936D01*
X126124635Y-78498900D01*
X126030058Y-78498818D01*
X125644000Y-78658334D01*
X125348372Y-78953446D01*
X125188182Y-79339226D01*
X125187818Y-79756942D01*
X124957805Y-79756942D01*
X124985778Y-79716003D01*
X125009877Y-79597000D01*
X125009877Y-78097000D01*
X124988958Y-77985827D01*
X124923255Y-77883721D01*
X124823003Y-77815222D01*
X124704000Y-77791123D01*
X123454000Y-77791123D01*
X123342827Y-77812042D01*
X123240721Y-77877745D01*
X123172222Y-77977997D01*
X123148123Y-78097000D01*
X123148123Y-78472000D01*
X122881478Y-78472000D01*
X122768317Y-78358641D01*
X122547871Y-78267104D01*
X122309176Y-78266896D01*
X122088571Y-78358048D01*
X121974420Y-78472000D01*
X121834877Y-78472000D01*
X121834877Y-78097000D01*
X121813958Y-77985827D01*
X121748255Y-77883721D01*
X121648003Y-77815222D01*
X121529000Y-77791123D01*
X120279000Y-77791123D01*
X120167827Y-77812042D01*
X120065721Y-77877745D01*
X119997222Y-77977997D01*
X119973123Y-78097000D01*
X117557949Y-78097000D01*
X117613649Y-78013641D01*
X117626929Y-77946877D01*
X117646000Y-77851000D01*
X117646000Y-75946000D01*
X117613649Y-75783360D01*
X117558604Y-75700980D01*
X117521520Y-75645479D01*
X117140520Y-75264480D01*
X117002641Y-75172351D01*
X116967695Y-75165400D01*
X116840000Y-75140000D01*
X115824000Y-75140000D01*
X115661360Y-75172351D01*
X115615608Y-75202922D01*
X115523479Y-75264480D01*
X115086980Y-75700980D01*
X115022596Y-75797336D01*
X114976327Y-75806042D01*
X114874221Y-75871745D01*
X114805722Y-75971997D01*
X114781623Y-76091000D01*
X114781623Y-77641000D01*
X114802542Y-77752173D01*
X114837822Y-77807000D01*
X113157000Y-77807000D01*
X113035640Y-77831140D01*
X112994359Y-77839351D01*
X112856480Y-77931480D01*
X112235327Y-78552633D01*
X112243677Y-78511400D01*
X112243677Y-77841363D01*
X113539039Y-76546001D01*
X113656824Y-76546104D01*
X113877429Y-76454952D01*
X114046359Y-76286317D01*
X114137896Y-76065871D01*
X114138104Y-75827176D01*
X114046952Y-75606571D01*
X113963000Y-75522472D01*
X113963000Y-74505500D01*
X113930649Y-74342860D01*
X113847554Y-74218500D01*
X113838520Y-74204979D01*
X113430877Y-73797336D01*
X113430877Y-73372163D01*
X114480164Y-72322877D01*
X115560000Y-72322877D01*
X115671173Y-72301958D01*
X115773279Y-72236255D01*
X115780000Y-72226418D01*
X115780000Y-72320959D01*
X115389836Y-72711123D01*
X114310000Y-72711123D01*
X114198827Y-72732042D01*
X114096721Y-72797745D01*
X114028222Y-72897997D01*
X114004123Y-73017000D01*
X114004123Y-74517000D01*
X114025042Y-74628173D01*
X114090745Y-74730279D01*
X114190997Y-74798778D01*
X114310000Y-74822877D01*
X115560000Y-74822877D01*
X115671173Y-74801958D01*
X115773279Y-74736255D01*
X115841778Y-74636003D01*
X115865877Y-74517000D01*
X115865877Y-73437163D01*
X116505520Y-72797521D01*
X116594906Y-72663745D01*
X116597649Y-72659640D01*
X116626021Y-72517000D01*
X117862000Y-72517000D01*
X117862000Y-73680000D01*
X117890545Y-73823507D01*
X117971835Y-73945165D01*
X119973123Y-75946453D01*
X119973123Y-77097000D01*
X119994042Y-77208173D01*
X120059745Y-77310279D01*
X120159997Y-77378778D01*
X120279000Y-77402877D01*
X121529000Y-77402877D01*
X121640173Y-77381958D01*
X121742279Y-77316255D01*
X121810778Y-77216003D01*
X121834877Y-77097000D01*
X121834877Y-75597000D01*
X121813958Y-75485827D01*
X121748255Y-75383721D01*
X121648003Y-75315222D01*
X121529000Y-75291123D01*
X120378453Y-75291123D01*
X119134830Y-74047500D01*
X120449000Y-74047500D01*
X120449000Y-74278174D01*
X120494672Y-74388437D01*
X120579064Y-74472828D01*
X120689327Y-74518500D01*
X120761500Y-74518500D01*
X120836500Y-74443500D01*
X120836500Y-73972500D01*
X120524000Y-73972500D01*
X120449000Y-74047500D01*
X119134830Y-74047500D01*
X118612000Y-73524670D01*
X118612000Y-73312709D01*
X118752129Y-73370896D01*
X118990824Y-73371104D01*
X119211429Y-73279952D01*
X119380359Y-73111317D01*
X119450043Y-72943500D01*
X119468123Y-72943500D01*
X119468123Y-73243500D01*
X119489042Y-73354673D01*
X119554745Y-73456779D01*
X119654997Y-73525278D01*
X119774000Y-73549377D01*
X120449000Y-73549377D01*
X120449000Y-73589500D01*
X120524000Y-73664500D01*
X120836500Y-73664500D01*
X120836500Y-73644500D01*
X120943123Y-73644500D01*
X120943123Y-74218500D01*
X120964042Y-74329673D01*
X121011500Y-74403425D01*
X121011500Y-74443500D01*
X121086500Y-74518500D01*
X121158673Y-74518500D01*
X121178804Y-74510162D01*
X121249000Y-74524377D01*
X121599000Y-74524377D01*
X121676753Y-74509746D01*
X121749000Y-74524377D01*
X122099000Y-74524377D01*
X122176753Y-74509746D01*
X122249000Y-74524377D01*
X122366061Y-74524377D01*
X122300641Y-74589683D01*
X122209104Y-74810129D01*
X122208896Y-75048824D01*
X122300048Y-75269429D01*
X122468683Y-75438359D01*
X122689129Y-75529896D01*
X122927824Y-75530104D01*
X123148429Y-75438952D01*
X123317359Y-75270317D01*
X123408896Y-75049871D01*
X123408950Y-74987380D01*
X123689165Y-74707165D01*
X123770455Y-74585507D01*
X123798019Y-74446931D01*
X123812279Y-74437755D01*
X123880778Y-74337503D01*
X123904877Y-74218500D01*
X123904877Y-73549377D01*
X124574000Y-73549377D01*
X124685173Y-73528458D01*
X124787279Y-73462755D01*
X124847000Y-73375350D01*
X124847000Y-75048670D01*
X124604547Y-75291123D01*
X123454000Y-75291123D01*
X123342827Y-75312042D01*
X123240721Y-75377745D01*
X123172222Y-75477997D01*
X123148123Y-75597000D01*
X123148123Y-77097000D01*
X123169042Y-77208173D01*
X123234745Y-77310279D01*
X123334997Y-77378778D01*
X123454000Y-77402877D01*
X124704000Y-77402877D01*
X124815173Y-77381958D01*
X124917279Y-77316255D01*
X124985778Y-77216003D01*
X125009877Y-77097000D01*
X125009877Y-76887327D01*
X125997000Y-76887327D01*
X125997000Y-77368000D01*
X126072000Y-77443000D01*
X126893000Y-77443000D01*
X126893000Y-76722000D01*
X127201000Y-76722000D01*
X127201000Y-77443000D01*
X128022000Y-77443000D01*
X128097000Y-77368000D01*
X128097000Y-76947000D01*
X128691123Y-76947000D01*
X128691123Y-78247000D01*
X128712042Y-78358173D01*
X128777745Y-78460279D01*
X128877997Y-78528778D01*
X128997000Y-78552877D01*
X130497000Y-78552877D01*
X130608173Y-78531958D01*
X130710279Y-78466255D01*
X130778778Y-78366003D01*
X130781702Y-78351564D01*
X130872548Y-78571429D01*
X131041183Y-78740359D01*
X131116695Y-78771714D01*
X131042071Y-78802548D01*
X130873141Y-78971183D01*
X130781604Y-79191629D01*
X130781396Y-79430324D01*
X130872548Y-79650929D01*
X130956500Y-79735028D01*
X130956500Y-79879623D01*
X130076500Y-79879623D01*
X129965327Y-79900542D01*
X129863221Y-79966245D01*
X129794722Y-80066497D01*
X129770623Y-80185500D01*
X129770623Y-81485500D01*
X129791542Y-81596673D01*
X129857245Y-81698779D01*
X129957497Y-81767278D01*
X130076500Y-81791377D01*
X131576500Y-81791377D01*
X131687673Y-81770458D01*
X131789779Y-81704755D01*
X131858278Y-81604503D01*
X131882377Y-81485500D01*
X131882377Y-80185500D01*
X131861458Y-80074327D01*
X131806500Y-79988919D01*
X131806500Y-79735030D01*
X131889859Y-79651817D01*
X131981396Y-79431371D01*
X131981604Y-79192676D01*
X131890452Y-78972071D01*
X131721817Y-78803141D01*
X131646305Y-78771786D01*
X131720929Y-78740952D01*
X131889859Y-78572317D01*
X131981396Y-78351871D01*
X131981604Y-78113176D01*
X131890452Y-77892571D01*
X131721817Y-77723641D01*
X131501371Y-77632104D01*
X131382541Y-77632000D01*
X131047020Y-77296480D01*
X130909141Y-77204351D01*
X130882157Y-77198984D01*
X130802877Y-77183214D01*
X130802877Y-76947000D01*
X130781958Y-76835827D01*
X130716255Y-76733721D01*
X130616003Y-76665222D01*
X130497000Y-76641123D01*
X128997000Y-76641123D01*
X128885827Y-76662042D01*
X128783721Y-76727745D01*
X128715222Y-76827997D01*
X128691123Y-76947000D01*
X128097000Y-76947000D01*
X128097000Y-76887327D01*
X128051328Y-76777064D01*
X127966937Y-76692672D01*
X127856674Y-76647000D01*
X127276000Y-76647000D01*
X127201000Y-76722000D01*
X126893000Y-76722000D01*
X126818000Y-76647000D01*
X126237326Y-76647000D01*
X126127063Y-76692672D01*
X126042672Y-76777064D01*
X125997000Y-76887327D01*
X125009877Y-76887327D01*
X125009877Y-75946453D01*
X125162330Y-75794000D01*
X125997000Y-75794000D01*
X125997000Y-76274673D01*
X126042672Y-76384936D01*
X126127063Y-76469328D01*
X126237326Y-76515000D01*
X126818000Y-76515000D01*
X126893000Y-76440000D01*
X126893000Y-75719000D01*
X127201000Y-75719000D01*
X127201000Y-76440000D01*
X127276000Y-76515000D01*
X127856674Y-76515000D01*
X127966937Y-76469328D01*
X128051328Y-76384936D01*
X128097000Y-76274673D01*
X128097000Y-75794000D01*
X128022000Y-75719000D01*
X127201000Y-75719000D01*
X126893000Y-75719000D01*
X126072000Y-75719000D01*
X125997000Y-75794000D01*
X125162330Y-75794000D01*
X125487165Y-75469165D01*
X125568455Y-75347507D01*
X125597000Y-75204000D01*
X125597000Y-74855327D01*
X125997000Y-74855327D01*
X125997000Y-75336000D01*
X126072000Y-75411000D01*
X126893000Y-75411000D01*
X126893000Y-74690000D01*
X127201000Y-74690000D01*
X127201000Y-75411000D01*
X128022000Y-75411000D01*
X128097000Y-75336000D01*
X128097000Y-74855327D01*
X128051328Y-74745064D01*
X127966937Y-74660672D01*
X127856674Y-74615000D01*
X127276000Y-74615000D01*
X127201000Y-74690000D01*
X126893000Y-74690000D01*
X126818000Y-74615000D01*
X126237326Y-74615000D01*
X126127063Y-74660672D01*
X126042672Y-74745064D01*
X125997000Y-74855327D01*
X125597000Y-74855327D01*
X125597000Y-73762000D01*
X125997000Y-73762000D01*
X125997000Y-74242673D01*
X126042672Y-74352936D01*
X126127063Y-74437328D01*
X126237326Y-74483000D01*
X126818000Y-74483000D01*
X126893000Y-74408000D01*
X126893000Y-73687000D01*
X127201000Y-73687000D01*
X127201000Y-74408000D01*
X127276000Y-74483000D01*
X127856674Y-74483000D01*
X127966937Y-74437328D01*
X128051328Y-74352936D01*
X128097000Y-74242673D01*
X128097000Y-73762000D01*
X128022000Y-73687000D01*
X127201000Y-73687000D01*
X126893000Y-73687000D01*
X126072000Y-73687000D01*
X125997000Y-73762000D01*
X125597000Y-73762000D01*
X125597000Y-72898000D01*
X125582147Y-72823327D01*
X125997000Y-72823327D01*
X125997000Y-73304000D01*
X126072000Y-73379000D01*
X126893000Y-73379000D01*
X126893000Y-72658000D01*
X127201000Y-72658000D01*
X127201000Y-73379000D01*
X128022000Y-73379000D01*
X128097000Y-73304000D01*
X128097000Y-72823327D01*
X128051328Y-72713064D01*
X127966937Y-72628672D01*
X127856674Y-72583000D01*
X127276000Y-72583000D01*
X127201000Y-72658000D01*
X126893000Y-72658000D01*
X126818000Y-72583000D01*
X126237326Y-72583000D01*
X126127063Y-72628672D01*
X126042672Y-72713064D01*
X125997000Y-72823327D01*
X125582147Y-72823327D01*
X125568455Y-72754494D01*
X125487165Y-72632835D01*
X125157665Y-72303335D01*
X125036007Y-72222045D01*
X124892500Y-72193500D01*
X124879877Y-72193500D01*
X124879877Y-71893500D01*
X124865246Y-71815747D01*
X124879877Y-71743500D01*
X124879877Y-71730000D01*
X125997000Y-71730000D01*
X125997000Y-72210673D01*
X126042672Y-72320936D01*
X126127063Y-72405328D01*
X126237326Y-72451000D01*
X126818000Y-72451000D01*
X126893000Y-72376000D01*
X126893000Y-71655000D01*
X127201000Y-71655000D01*
X127201000Y-72376000D01*
X127276000Y-72451000D01*
X127856674Y-72451000D01*
X127966937Y-72405328D01*
X128051328Y-72320936D01*
X128097000Y-72210673D01*
X128097000Y-71730000D01*
X128022000Y-71655000D01*
X127201000Y-71655000D01*
X126893000Y-71655000D01*
X126072000Y-71655000D01*
X125997000Y-71730000D01*
X124879877Y-71730000D01*
X124879877Y-71406690D01*
X124989165Y-71333665D01*
X125355085Y-70967745D01*
X125436375Y-70846087D01*
X125464920Y-70702580D01*
X125464920Y-70260792D01*
X125642446Y-70438628D01*
X126028226Y-70598818D01*
X126124833Y-70598902D01*
X126042672Y-70681064D01*
X125997000Y-70791327D01*
X125997000Y-71272000D01*
X126072000Y-71347000D01*
X126893000Y-71347000D01*
X126893000Y-70626000D01*
X127201000Y-70626000D01*
X127201000Y-71347000D01*
X128022000Y-71347000D01*
X128097000Y-71272000D01*
X128097000Y-70851000D01*
X128691123Y-70851000D01*
X128691123Y-72151000D01*
X128712042Y-72262173D01*
X128777745Y-72364279D01*
X128877997Y-72432778D01*
X128997000Y-72456877D01*
X130497000Y-72456877D01*
X130608173Y-72435958D01*
X130710279Y-72370255D01*
X130778778Y-72270003D01*
X130802877Y-72151000D01*
X130802877Y-71926000D01*
X130855430Y-71926000D01*
X130872548Y-71967429D01*
X131041183Y-72136359D01*
X131116695Y-72167714D01*
X131042071Y-72198548D01*
X130873141Y-72367183D01*
X130781604Y-72587629D01*
X130781500Y-72706459D01*
X130756185Y-72731774D01*
X130716255Y-72669721D01*
X130616003Y-72601222D01*
X130497000Y-72577123D01*
X128997000Y-72577123D01*
X128885827Y-72598042D01*
X128783721Y-72663745D01*
X128715222Y-72763997D01*
X128691123Y-72883000D01*
X128691123Y-74183000D01*
X128712042Y-74294173D01*
X128777745Y-74396279D01*
X128877997Y-74464778D01*
X128997000Y-74488877D01*
X130142083Y-74488877D01*
X130021837Y-74609123D01*
X128997000Y-74609123D01*
X128885827Y-74630042D01*
X128783721Y-74695745D01*
X128715222Y-74795997D01*
X128691123Y-74915000D01*
X128691123Y-76215000D01*
X128712042Y-76326173D01*
X128777745Y-76428279D01*
X128877997Y-76496778D01*
X128997000Y-76520877D01*
X130497000Y-76520877D01*
X130608173Y-76499958D01*
X130710279Y-76434255D01*
X130778778Y-76334003D01*
X130802877Y-76215000D01*
X130802877Y-75030163D01*
X131382539Y-74450501D01*
X131500324Y-74450604D01*
X131720929Y-74359452D01*
X131889859Y-74190817D01*
X131981396Y-73970371D01*
X131981604Y-73731676D01*
X131890452Y-73511071D01*
X131721817Y-73342141D01*
X131569654Y-73278957D01*
X131720929Y-73216452D01*
X131889859Y-73047817D01*
X131981396Y-72827371D01*
X131981604Y-72588676D01*
X131890452Y-72368071D01*
X131721817Y-72199141D01*
X131646305Y-72167786D01*
X131720929Y-72136952D01*
X131889859Y-71968317D01*
X131981396Y-71747871D01*
X131981604Y-71509176D01*
X131890452Y-71288571D01*
X131721817Y-71119641D01*
X131501371Y-71028104D01*
X131262676Y-71027896D01*
X131146255Y-71076000D01*
X130802877Y-71076000D01*
X130802877Y-70851000D01*
X130781958Y-70739827D01*
X130716255Y-70637721D01*
X130616003Y-70569222D01*
X130497000Y-70545123D01*
X128997000Y-70545123D01*
X128885827Y-70566042D01*
X128783721Y-70631745D01*
X128715222Y-70731997D01*
X128691123Y-70851000D01*
X128097000Y-70851000D01*
X128097000Y-70791327D01*
X128051328Y-70681064D01*
X127966937Y-70596672D01*
X127856674Y-70551000D01*
X127276000Y-70551000D01*
X127201000Y-70626000D01*
X126893000Y-70626000D01*
X126818000Y-70551000D01*
X126562551Y-70551000D01*
X126832000Y-70439666D01*
X127127628Y-70144554D01*
X127287818Y-69758774D01*
X127288182Y-69341058D01*
X127128666Y-68955000D01*
X126833554Y-68659372D01*
X126447774Y-68499182D01*
X126173747Y-68498943D01*
X126630165Y-68042525D01*
X126652013Y-68009827D01*
X126711455Y-67920866D01*
X126740000Y-67777360D01*
X126740000Y-59491000D01*
X127701000Y-59491000D01*
X127701000Y-60071674D01*
X127746672Y-60181937D01*
X127831064Y-60266328D01*
X127941327Y-60312000D01*
X128422000Y-60312000D01*
X128497000Y-60237000D01*
X128497000Y-59416000D01*
X128805000Y-59416000D01*
X128805000Y-60237000D01*
X128880000Y-60312000D01*
X129360673Y-60312000D01*
X129470936Y-60266328D01*
X129555328Y-60181937D01*
X129601000Y-60071674D01*
X129601000Y-59491000D01*
X129987000Y-59491000D01*
X129987000Y-60071674D01*
X130032672Y-60181937D01*
X130117064Y-60266328D01*
X130227327Y-60312000D01*
X130708000Y-60312000D01*
X130783000Y-60237000D01*
X130783000Y-59416000D01*
X131091000Y-59416000D01*
X131091000Y-60237000D01*
X131166000Y-60312000D01*
X131646673Y-60312000D01*
X131756936Y-60266328D01*
X131841328Y-60181937D01*
X131887000Y-60071674D01*
X131887000Y-59491000D01*
X131812000Y-59416000D01*
X131091000Y-59416000D01*
X130783000Y-59416000D01*
X130062000Y-59416000D01*
X129987000Y-59491000D01*
X129601000Y-59491000D01*
X129526000Y-59416000D01*
X128805000Y-59416000D01*
X128497000Y-59416000D01*
X127776000Y-59416000D01*
X127701000Y-59491000D01*
X126740000Y-59491000D01*
X126740000Y-59337330D01*
X127536330Y-58541000D01*
X127701000Y-58541000D01*
X127701000Y-59033000D01*
X127776000Y-59108000D01*
X128497000Y-59108000D01*
X128497000Y-59088000D01*
X128805000Y-59088000D01*
X128805000Y-59108000D01*
X129526000Y-59108000D01*
X129601000Y-59033000D01*
X129601000Y-58452326D01*
X129987000Y-58452326D01*
X129987000Y-59033000D01*
X130062000Y-59108000D01*
X130783000Y-59108000D01*
X130783000Y-58287000D01*
X131091000Y-58287000D01*
X131091000Y-59108000D01*
X131812000Y-59108000D01*
X131887000Y-59033000D01*
X131887000Y-58452326D01*
X131841328Y-58342063D01*
X131756936Y-58257672D01*
X131646673Y-58212000D01*
X131166000Y-58212000D01*
X131091000Y-58287000D01*
X130783000Y-58287000D01*
X130708000Y-58212000D01*
X130227327Y-58212000D01*
X130117064Y-58257672D01*
X130032672Y-58342063D01*
X129987000Y-58452326D01*
X129601000Y-58452326D01*
X129593520Y-58434268D01*
X129598165Y-58431165D01*
X130411453Y-57617877D01*
X131587000Y-57617877D01*
X131698173Y-57596958D01*
X131800279Y-57531255D01*
X131868778Y-57431003D01*
X131892877Y-57312000D01*
X131892877Y-55812000D01*
X131871958Y-55700827D01*
X131806255Y-55598721D01*
X131706003Y-55530222D01*
X131587000Y-55506123D01*
X131312000Y-55506123D01*
X131312000Y-55210443D01*
X131445359Y-55077317D01*
X131536896Y-54856871D01*
X131537104Y-54618176D01*
X131445952Y-54397571D01*
X131277317Y-54228641D01*
X131056871Y-54137104D01*
X130818176Y-54136896D01*
X130597571Y-54228048D01*
X130431959Y-54393371D01*
X130432017Y-54326263D01*
X130340865Y-54105658D01*
X130172230Y-53936728D01*
X129951784Y-53845191D01*
X129713089Y-53844983D01*
X129492484Y-53936135D01*
X129358298Y-54070087D01*
X128942913Y-54070087D01*
X128799406Y-54098632D01*
X128677748Y-54179922D01*
X128385835Y-54471835D01*
X128304545Y-54593493D01*
X128292510Y-54654000D01*
X128276000Y-54737000D01*
X128276000Y-55506123D01*
X128001000Y-55506123D01*
X127889827Y-55527042D01*
X127787721Y-55592745D01*
X127719222Y-55692997D01*
X127695123Y-55812000D01*
X127695123Y-56187000D01*
X127461000Y-56187000D01*
X127317494Y-56215545D01*
X127195835Y-56296835D01*
X126480835Y-57011835D01*
X126399545Y-57133493D01*
X126399545Y-57133494D01*
X126371000Y-57277000D01*
X126371000Y-57671531D01*
X126301186Y-57741223D01*
X126221092Y-57934113D01*
X126221005Y-58033665D01*
X125718835Y-58535835D01*
X125637545Y-58657493D01*
X125637545Y-58657494D01*
X125609000Y-58801000D01*
X125609000Y-67508042D01*
X123908835Y-69208207D01*
X123863671Y-69275799D01*
X123818255Y-69205221D01*
X123799000Y-69192065D01*
X123799000Y-68941000D01*
X123781000Y-68850507D01*
X123780703Y-68849011D01*
X123789896Y-68826871D01*
X123790104Y-68588176D01*
X123698952Y-68367571D01*
X123530317Y-68198641D01*
X123511495Y-68190825D01*
X123583360Y-68118960D01*
X123583360Y-67397960D01*
X123891360Y-67397960D01*
X123891360Y-68118960D01*
X123966360Y-68193960D01*
X124547034Y-68193960D01*
X124657297Y-68148288D01*
X124741688Y-68063896D01*
X124787360Y-67953633D01*
X124787360Y-67472960D01*
X124712360Y-67397960D01*
X123891360Y-67397960D01*
X123583360Y-67397960D01*
X122762360Y-67397960D01*
X122687360Y-67472960D01*
X122687360Y-67953633D01*
X122733032Y-68063896D01*
X122817423Y-68148288D01*
X122894117Y-68180055D01*
X122850571Y-68198048D01*
X122681641Y-68366683D01*
X122590104Y-68587129D01*
X122589896Y-68825824D01*
X122681048Y-69046429D01*
X122747423Y-69112920D01*
X122671247Y-69127254D01*
X122599000Y-69112623D01*
X122249000Y-69112623D01*
X122171247Y-69127254D01*
X122099000Y-69112623D01*
X121749000Y-69112623D01*
X121671247Y-69127254D01*
X121599000Y-69112623D01*
X121249000Y-69112623D01*
X121171247Y-69127254D01*
X121099000Y-69112623D01*
X120749000Y-69112623D01*
X120637827Y-69133542D01*
X120535721Y-69199245D01*
X120467222Y-69299497D01*
X120443123Y-69418500D01*
X120443123Y-70087623D01*
X119774000Y-70087623D01*
X119662827Y-70108542D01*
X119560721Y-70174245D01*
X119492222Y-70274497D01*
X119468123Y-70393500D01*
X119468123Y-70743500D01*
X119481646Y-70815368D01*
X119474000Y-70833827D01*
X119474000Y-70906000D01*
X119549000Y-70981000D01*
X119590194Y-70981000D01*
X119654997Y-71025278D01*
X119774000Y-71049377D01*
X120348000Y-71049377D01*
X120348000Y-71087623D01*
X119774000Y-71087623D01*
X119662827Y-71108542D01*
X119589075Y-71156000D01*
X119549000Y-71156000D01*
X119511500Y-71193500D01*
X119446620Y-71193500D01*
X119380952Y-71034571D01*
X119212317Y-70865641D01*
X118991871Y-70774104D01*
X118753176Y-70773896D01*
X118532571Y-70865048D01*
X118363641Y-71033683D01*
X118272104Y-71254129D01*
X118271896Y-71492824D01*
X118363048Y-71713429D01*
X118439808Y-71790323D01*
X118420335Y-71803335D01*
X117971835Y-72251835D01*
X117890545Y-72373493D01*
X117884213Y-72405328D01*
X117862000Y-72517000D01*
X116626021Y-72517000D01*
X116630000Y-72497000D01*
X116630000Y-70485000D01*
X116597649Y-70322360D01*
X116523723Y-70211722D01*
X116505520Y-70184479D01*
X116124520Y-69803480D01*
X115986641Y-69711351D01*
X115982943Y-69710615D01*
X115986778Y-69705003D01*
X116010877Y-69586000D01*
X116010877Y-68336000D01*
X116399123Y-68336000D01*
X116399123Y-69586000D01*
X116420042Y-69697173D01*
X116485745Y-69799279D01*
X116585997Y-69867778D01*
X116705000Y-69891877D01*
X118205000Y-69891877D01*
X118316173Y-69870958D01*
X118418279Y-69805255D01*
X118486778Y-69705003D01*
X118510877Y-69586000D01*
X118510877Y-68336000D01*
X118489958Y-68224827D01*
X118424255Y-68122721D01*
X118324003Y-68054222D01*
X118205000Y-68030123D01*
X117983855Y-68030123D01*
X118074896Y-67810871D01*
X118075104Y-67572176D01*
X117983952Y-67351571D01*
X117815317Y-67182641D01*
X117594871Y-67091104D01*
X117356176Y-67090896D01*
X117135571Y-67182048D01*
X116966641Y-67350683D01*
X116875104Y-67571129D01*
X116874896Y-67809824D01*
X116965922Y-68030123D01*
X116705000Y-68030123D01*
X116593827Y-68051042D01*
X116491721Y-68116745D01*
X116423222Y-68216997D01*
X116399123Y-68336000D01*
X116010877Y-68336000D01*
X115989958Y-68224827D01*
X115924255Y-68122721D01*
X115824003Y-68054222D01*
X115705000Y-68030123D01*
X114205000Y-68030123D01*
X114093827Y-68051042D01*
X113991721Y-68116745D01*
X113923222Y-68216997D01*
X113899123Y-68336000D01*
X113899123Y-68536000D01*
X113530877Y-68536000D01*
X113530877Y-68311000D01*
X113509958Y-68199827D01*
X113444255Y-68097721D01*
X113344003Y-68029222D01*
X113225000Y-68005123D01*
X111725000Y-68005123D01*
X111613827Y-68026042D01*
X111511721Y-68091745D01*
X111443222Y-68191997D01*
X111419123Y-68311000D01*
X111419123Y-69611000D01*
X111440042Y-69722173D01*
X111505745Y-69824279D01*
X111605997Y-69892778D01*
X111725000Y-69916877D01*
X113225000Y-69916877D01*
X113336173Y-69895958D01*
X113438279Y-69830255D01*
X113506778Y-69730003D01*
X113530877Y-69611000D01*
X113530877Y-69386000D01*
X113899123Y-69386000D01*
X113899123Y-69586000D01*
X113916708Y-69679456D01*
X113788274Y-69705003D01*
X113756359Y-69711351D01*
X113618480Y-69803480D01*
X113252307Y-70169653D01*
X113225000Y-70164123D01*
X111725000Y-70164123D01*
X111613827Y-70185042D01*
X111511721Y-70250745D01*
X111443222Y-70350997D01*
X111419123Y-70470000D01*
X111419123Y-71770000D01*
X111440042Y-71881173D01*
X111505745Y-71983279D01*
X111605997Y-72051778D01*
X111725000Y-72075877D01*
X113225000Y-72075877D01*
X113336173Y-72054958D01*
X113438279Y-71989255D01*
X113506778Y-71889003D01*
X113530877Y-71770000D01*
X113530877Y-71707469D01*
X113578683Y-71755359D01*
X113767286Y-71833674D01*
X113178502Y-72422458D01*
X113125000Y-72411623D01*
X111625000Y-72411623D01*
X111541513Y-72427332D01*
X111517649Y-72307360D01*
X111453935Y-72212006D01*
X111425520Y-72169479D01*
X110830877Y-71574836D01*
X110830877Y-70470000D01*
X110809958Y-70358827D01*
X110744255Y-70256721D01*
X110644003Y-70188222D01*
X110525000Y-70164123D01*
X109172917Y-70164123D01*
X109420163Y-69916877D01*
X110525000Y-69916877D01*
X110636173Y-69895958D01*
X110738279Y-69830255D01*
X110806778Y-69730003D01*
X110830877Y-69611000D01*
X110830877Y-68311000D01*
X110809958Y-68199827D01*
X110744255Y-68097721D01*
X110644003Y-68029222D01*
X110525000Y-68005123D01*
X109025000Y-68005123D01*
X108913827Y-68026042D01*
X108811721Y-68091745D01*
X108743222Y-68191997D01*
X108719123Y-68311000D01*
X108719123Y-69415837D01*
X108284480Y-69850480D01*
X108192351Y-69988359D01*
X108192351Y-69988360D01*
X108160000Y-70151000D01*
X108160000Y-75184000D01*
X108181061Y-75289879D01*
X108192351Y-75346641D01*
X108284480Y-75484520D01*
X108690879Y-75890920D01*
X108783008Y-75952478D01*
X108828760Y-75983049D01*
X108991400Y-76015400D01*
X109511023Y-76015400D01*
X109511023Y-76288900D01*
X109531942Y-76400073D01*
X109597645Y-76502179D01*
X109697897Y-76570678D01*
X109816900Y-76594777D01*
X110248700Y-76594777D01*
X110354030Y-76574958D01*
X110451900Y-76594777D01*
X110883700Y-76594777D01*
X110994873Y-76573858D01*
X110998255Y-76571682D01*
X111112300Y-76594777D01*
X111544100Y-76594777D01*
X111649430Y-76574958D01*
X111747300Y-76594777D01*
X112179100Y-76594777D01*
X112290273Y-76573858D01*
X112343085Y-76539875D01*
X112158067Y-76724893D01*
X112157055Y-76723321D01*
X112056803Y-76654822D01*
X111937800Y-76630723D01*
X110058200Y-76630723D01*
X109947027Y-76651642D01*
X109844921Y-76717345D01*
X109776422Y-76817597D01*
X109752323Y-76936600D01*
X109752323Y-77137164D01*
X109720871Y-77124104D01*
X109482176Y-77123896D01*
X109261571Y-77215048D01*
X109092641Y-77383683D01*
X109001104Y-77604129D01*
X109000896Y-77842824D01*
X109092048Y-78063429D01*
X109260683Y-78232359D01*
X109481129Y-78323896D01*
X109719824Y-78324104D01*
X109752323Y-78310676D01*
X109752323Y-78511400D01*
X109773242Y-78622573D01*
X109838945Y-78724679D01*
X109939197Y-78793178D01*
X110058200Y-78817277D01*
X110903200Y-78817277D01*
X110903200Y-78857172D01*
X110883700Y-78853223D01*
X110451900Y-78853223D01*
X110346570Y-78873042D01*
X110248700Y-78853223D01*
X109816900Y-78853223D01*
X109705727Y-78874142D01*
X109603621Y-78939845D01*
X109535122Y-79040097D01*
X109511023Y-79159100D01*
X109511023Y-80556100D01*
X109531942Y-80667273D01*
X109597645Y-80769379D01*
X109607800Y-80776318D01*
X109607800Y-81203800D01*
X109634784Y-81339457D01*
X109640151Y-81366441D01*
X109732280Y-81504320D01*
X110443480Y-82215521D01*
X110462904Y-82228500D01*
X108152500Y-82228500D01*
X108152500Y-45693000D01*
X108877098Y-45693000D01*
X108877098Y-46007020D01*
X108918962Y-46229508D01*
X108940144Y-46262425D01*
X108935486Y-46269242D01*
X108887258Y-46507400D01*
X108887258Y-47508160D01*
X108929122Y-47730648D01*
X108944534Y-47754599D01*
X108935486Y-47767842D01*
X108887258Y-48006000D01*
X108887258Y-49006760D01*
X108929122Y-49229248D01*
X108945376Y-49254507D01*
X108935486Y-49268982D01*
X108887258Y-49507140D01*
X108887258Y-50507900D01*
X108929122Y-50730388D01*
X108945376Y-50755647D01*
X108935486Y-50770122D01*
X108887258Y-51008280D01*
X108887258Y-52009040D01*
X108929122Y-52231528D01*
X108944534Y-52255479D01*
X108935486Y-52268722D01*
X108887258Y-52506880D01*
X108887258Y-53507640D01*
X108929122Y-53730128D01*
X108945376Y-53755387D01*
X108935486Y-53769862D01*
X108887258Y-54008020D01*
X108887258Y-55008780D01*
X108929122Y-55231268D01*
X108944534Y-55255219D01*
X108935486Y-55268462D01*
X108887258Y-55506620D01*
X108887258Y-56507380D01*
X108929122Y-56729868D01*
X108945376Y-56755127D01*
X108935486Y-56769602D01*
X108887258Y-57007760D01*
X108887258Y-58008520D01*
X108929122Y-58231008D01*
X108944534Y-58254959D01*
X108935486Y-58268202D01*
X108887258Y-58506360D01*
X108887258Y-59507120D01*
X108929122Y-59729608D01*
X108945376Y-59754867D01*
X108935486Y-59769342D01*
X108887258Y-60007500D01*
X108887258Y-61008260D01*
X108929122Y-61230748D01*
X109060612Y-61435089D01*
X109199400Y-61529919D01*
X109199400Y-61828280D01*
X109274400Y-61903280D01*
X109794980Y-61903280D01*
X109794980Y-61883280D01*
X110102980Y-61883280D01*
X110102980Y-61903280D01*
X110623560Y-61903280D01*
X110698560Y-61828280D01*
X110698560Y-61528660D01*
X110825389Y-61447048D01*
X110962474Y-61246418D01*
X111010702Y-61008260D01*
X111010702Y-60007500D01*
X110968838Y-59785012D01*
X110952584Y-59759753D01*
X110962474Y-59745278D01*
X111010702Y-59507120D01*
X111010702Y-58506360D01*
X110968838Y-58283872D01*
X110953426Y-58259921D01*
X110962474Y-58246678D01*
X111010702Y-58008520D01*
X111010702Y-57007760D01*
X110968838Y-56785272D01*
X110952584Y-56760013D01*
X110962474Y-56745538D01*
X111010702Y-56507380D01*
X111010702Y-55506620D01*
X110968838Y-55284132D01*
X110953426Y-55260181D01*
X110962474Y-55246938D01*
X111010702Y-55008780D01*
X111010702Y-54008020D01*
X110968838Y-53785532D01*
X110952584Y-53760273D01*
X110962474Y-53745798D01*
X111010702Y-53507640D01*
X111010702Y-52506880D01*
X110968838Y-52284392D01*
X110953426Y-52260441D01*
X110962474Y-52247198D01*
X111010702Y-52009040D01*
X111010702Y-51008280D01*
X110968838Y-50785792D01*
X110952584Y-50760533D01*
X110962474Y-50746058D01*
X111010702Y-50507900D01*
X111010702Y-49507140D01*
X110968838Y-49284652D01*
X110952584Y-49259393D01*
X110962474Y-49244918D01*
X111010702Y-49006760D01*
X111010702Y-48006000D01*
X110968838Y-47783512D01*
X110953426Y-47759561D01*
X110962474Y-47746318D01*
X110994606Y-47587646D01*
X111462000Y-48055040D01*
X111462000Y-60325000D01*
X111480321Y-60417104D01*
X111494351Y-60487641D01*
X111586480Y-60625520D01*
X113872479Y-62911520D01*
X113930711Y-62950429D01*
X114010360Y-63003649D01*
X114173000Y-63036000D01*
X115273470Y-63036000D01*
X115356683Y-63119359D01*
X115577129Y-63210896D01*
X115815824Y-63211104D01*
X116036429Y-63119952D01*
X116205359Y-62951317D01*
X116296896Y-62730871D01*
X116297104Y-62492176D01*
X116205952Y-62271571D01*
X116037317Y-62102641D01*
X115816871Y-62011104D01*
X115578176Y-62010896D01*
X115357571Y-62102048D01*
X115273472Y-62186000D01*
X114349041Y-62186000D01*
X113285621Y-61122581D01*
X113369429Y-61087952D01*
X113538359Y-60919317D01*
X113629896Y-60698871D01*
X113630104Y-60460176D01*
X113538952Y-60239571D01*
X113370317Y-60070641D01*
X113149871Y-59979104D01*
X113031041Y-59979000D01*
X112820000Y-59767960D01*
X112820000Y-50727471D01*
X112910129Y-50764896D01*
X113148824Y-50765104D01*
X113369429Y-50673952D01*
X113538359Y-50505317D01*
X113629896Y-50284871D01*
X113630104Y-50046176D01*
X113538952Y-49825571D01*
X113455000Y-49741472D01*
X113455000Y-45693000D01*
X116395990Y-45693000D01*
X116395990Y-57384990D01*
X116421670Y-57514092D01*
X116428341Y-57547631D01*
X116520470Y-57685510D01*
X118652999Y-59818040D01*
X118652896Y-59935824D01*
X118744048Y-60156429D01*
X118912683Y-60325359D01*
X119133129Y-60416896D01*
X119371824Y-60417104D01*
X119592429Y-60325952D01*
X119761359Y-60157317D01*
X119817290Y-60022620D01*
X119894000Y-60099330D01*
X119894000Y-60359557D01*
X119760641Y-60492683D01*
X119669104Y-60713129D01*
X119668896Y-60951824D01*
X119760048Y-61172429D01*
X119928683Y-61341359D01*
X120149129Y-61432896D01*
X120387824Y-61433104D01*
X120608429Y-61341952D01*
X120777359Y-61173317D01*
X120868896Y-60952871D01*
X120869104Y-60714176D01*
X120777952Y-60493571D01*
X120644000Y-60359385D01*
X120644000Y-59944000D01*
X120615455Y-59800494D01*
X120534165Y-59678835D01*
X118315585Y-57460255D01*
X118449429Y-57404952D01*
X118618359Y-57236317D01*
X118709896Y-57015871D01*
X118710061Y-56826269D01*
X121550165Y-53986165D01*
X121624362Y-53875122D01*
X121594878Y-54020720D01*
X121594878Y-55021480D01*
X121636742Y-55243968D01*
X121652154Y-55267919D01*
X121643106Y-55281162D01*
X121594878Y-55519320D01*
X121594878Y-56520080D01*
X121636742Y-56742568D01*
X121652996Y-56767827D01*
X121643106Y-56782302D01*
X121594878Y-57020460D01*
X121594878Y-58021220D01*
X121636742Y-58243708D01*
X121652154Y-58267659D01*
X121643106Y-58280902D01*
X121594878Y-58519060D01*
X121594878Y-59519820D01*
X121636742Y-59742308D01*
X121652996Y-59767567D01*
X121643106Y-59782042D01*
X121594878Y-60020200D01*
X121594878Y-61020960D01*
X121636742Y-61243448D01*
X121668989Y-61293561D01*
X121643106Y-61331442D01*
X121594878Y-61569600D01*
X121594878Y-62570360D01*
X121636742Y-62792848D01*
X121652996Y-62818107D01*
X121643106Y-62832582D01*
X121594878Y-63070740D01*
X121594878Y-64071500D01*
X121601091Y-64104518D01*
X121089420Y-64104518D01*
X120866932Y-64146382D01*
X120841673Y-64162636D01*
X120827198Y-64152746D01*
X120589040Y-64104518D01*
X119588280Y-64104518D01*
X119365792Y-64146382D01*
X119341841Y-64161794D01*
X119328598Y-64152746D01*
X119090440Y-64104518D01*
X118089680Y-64104518D01*
X117867192Y-64146382D01*
X117841933Y-64162636D01*
X117827458Y-64152746D01*
X117589300Y-64104518D01*
X116588540Y-64104518D01*
X116366052Y-64146382D01*
X116340793Y-64162636D01*
X116326318Y-64152746D01*
X116088160Y-64104518D01*
X115087400Y-64104518D01*
X114864912Y-64146382D01*
X114840961Y-64161794D01*
X114827718Y-64152746D01*
X114589560Y-64104518D01*
X113588800Y-64104518D01*
X113366312Y-64146382D01*
X113335820Y-64166003D01*
X113316418Y-64152746D01*
X113078260Y-64104518D01*
X112077500Y-64104518D01*
X111855012Y-64146382D01*
X111831061Y-64161794D01*
X111817818Y-64152746D01*
X111579660Y-64104518D01*
X111531620Y-64104518D01*
X111587639Y-64048597D01*
X111679176Y-63828151D01*
X111679384Y-63589456D01*
X111588232Y-63368851D01*
X111419597Y-63199921D01*
X111199151Y-63108384D01*
X111010702Y-63108220D01*
X111010702Y-63058040D01*
X110968838Y-62835552D01*
X110837348Y-62631211D01*
X110698560Y-62536381D01*
X110698560Y-62286280D01*
X110623560Y-62211280D01*
X110102980Y-62211280D01*
X110102980Y-62231280D01*
X109794980Y-62231280D01*
X109794980Y-62211280D01*
X109274400Y-62211280D01*
X109199400Y-62286280D01*
X109199400Y-62537640D01*
X109072571Y-62619252D01*
X108935486Y-62819882D01*
X108887258Y-63058040D01*
X108887258Y-64058800D01*
X108929122Y-64281288D01*
X109060612Y-64485629D01*
X109261242Y-64622714D01*
X109499400Y-64670942D01*
X109976016Y-64670942D01*
X109966758Y-64716660D01*
X109966758Y-65615820D01*
X110008622Y-65838308D01*
X110140112Y-66042649D01*
X110340742Y-66179734D01*
X110578900Y-66227962D01*
X111579660Y-66227962D01*
X111802148Y-66186098D01*
X111826099Y-66170686D01*
X111839342Y-66179734D01*
X112077500Y-66227962D01*
X113078260Y-66227962D01*
X113300748Y-66186098D01*
X113331240Y-66166477D01*
X113350642Y-66179734D01*
X113588800Y-66227962D01*
X114589560Y-66227962D01*
X114812048Y-66186098D01*
X114835999Y-66170686D01*
X114849242Y-66179734D01*
X115087400Y-66227962D01*
X116088160Y-66227962D01*
X116310648Y-66186098D01*
X116335907Y-66169844D01*
X116350382Y-66179734D01*
X116588540Y-66227962D01*
X117589300Y-66227962D01*
X117811788Y-66186098D01*
X117837047Y-66169844D01*
X117851522Y-66179734D01*
X118089680Y-66227962D01*
X119090440Y-66227962D01*
X119312928Y-66186098D01*
X119336879Y-66170686D01*
X119345115Y-66176313D01*
X119262801Y-66258483D01*
X119171264Y-66478929D01*
X119171056Y-66717624D01*
X119262208Y-66938229D01*
X119430843Y-67107159D01*
X119501778Y-67136614D01*
X119505995Y-67142925D01*
X119872195Y-67509125D01*
X119981483Y-67582150D01*
X119981483Y-67893960D01*
X120002402Y-68005133D01*
X120068105Y-68107239D01*
X120168357Y-68175738D01*
X120287360Y-68199837D01*
X121787360Y-68199837D01*
X121898533Y-68178918D01*
X122000639Y-68113215D01*
X122069138Y-68012963D01*
X122093237Y-67893960D01*
X122093237Y-66593960D01*
X122082009Y-66534287D01*
X122687360Y-66534287D01*
X122687360Y-67014960D01*
X122762360Y-67089960D01*
X123583360Y-67089960D01*
X123583360Y-66368960D01*
X123891360Y-66368960D01*
X123891360Y-67089960D01*
X124712360Y-67089960D01*
X124787360Y-67014960D01*
X124787360Y-66534287D01*
X124741688Y-66424024D01*
X124657297Y-66339632D01*
X124547034Y-66293960D01*
X123966360Y-66293960D01*
X123891360Y-66368960D01*
X123583360Y-66368960D01*
X123508360Y-66293960D01*
X122927686Y-66293960D01*
X122817423Y-66339632D01*
X122733032Y-66424024D01*
X122687360Y-66534287D01*
X122082009Y-66534287D01*
X122072318Y-66482787D01*
X122006615Y-66380681D01*
X121906363Y-66312182D01*
X121787360Y-66288083D01*
X120291976Y-66288083D01*
X120280112Y-66259371D01*
X120248758Y-66227962D01*
X120589040Y-66227962D01*
X120811528Y-66186098D01*
X120836787Y-66169844D01*
X120851262Y-66179734D01*
X121089420Y-66227962D01*
X122090180Y-66227962D01*
X122312668Y-66186098D01*
X122517009Y-66054608D01*
X122654094Y-65853978D01*
X122702322Y-65615820D01*
X122702322Y-65584166D01*
X122802417Y-65564256D01*
X122829401Y-65558889D01*
X122841806Y-65550600D01*
X123342400Y-65550600D01*
X123478057Y-65523616D01*
X123505041Y-65518249D01*
X123642920Y-65426120D01*
X123889539Y-65179501D01*
X124007324Y-65179604D01*
X124227929Y-65088452D01*
X124396859Y-64919817D01*
X124488396Y-64699371D01*
X124488604Y-64460676D01*
X124397452Y-64240071D01*
X124228817Y-64071141D01*
X124008371Y-63979604D01*
X123769676Y-63979396D01*
X123718322Y-64000615D01*
X123718322Y-63070740D01*
X123676458Y-62848252D01*
X123660204Y-62822993D01*
X123670094Y-62808518D01*
X123718322Y-62570360D01*
X123718322Y-61569600D01*
X123676458Y-61347112D01*
X123644211Y-61296999D01*
X123670094Y-61259118D01*
X123718322Y-61020960D01*
X123718322Y-60020200D01*
X123676458Y-59797712D01*
X123660204Y-59772453D01*
X123670094Y-59757978D01*
X123718322Y-59519820D01*
X123718322Y-58519060D01*
X123676458Y-58296572D01*
X123661046Y-58272621D01*
X123670094Y-58259378D01*
X123718322Y-58021220D01*
X123718322Y-57020460D01*
X123676458Y-56797972D01*
X123660204Y-56772713D01*
X123670094Y-56758238D01*
X123684929Y-56684978D01*
X123769163Y-56769359D01*
X123989609Y-56860896D01*
X124108439Y-56861000D01*
X124456586Y-57209147D01*
X124456586Y-58161362D01*
X124373227Y-58244575D01*
X124281690Y-58465021D01*
X124281482Y-58703716D01*
X124372634Y-58924321D01*
X124541269Y-59093251D01*
X124761715Y-59184788D01*
X125000410Y-59184996D01*
X125221015Y-59093844D01*
X125389945Y-58925209D01*
X125481482Y-58704763D01*
X125481690Y-58466068D01*
X125390538Y-58245463D01*
X125306586Y-58161364D01*
X125306586Y-57033106D01*
X125303158Y-57015871D01*
X125274235Y-56870465D01*
X125182107Y-56732586D01*
X124709481Y-56259961D01*
X124709584Y-56142176D01*
X124618432Y-55921571D01*
X124449797Y-55752641D01*
X124229351Y-55661104D01*
X123990656Y-55660896D01*
X123770051Y-55752048D01*
X123718322Y-55803687D01*
X123718322Y-55519320D01*
X123676458Y-55296832D01*
X123661046Y-55272881D01*
X123670094Y-55259638D01*
X123718322Y-55021480D01*
X123718322Y-54020720D01*
X123676458Y-53798232D01*
X123660204Y-53772973D01*
X123670094Y-53758498D01*
X123718322Y-53520340D01*
X123718322Y-52519580D01*
X123676458Y-52297092D01*
X123661046Y-52273141D01*
X123670094Y-52259898D01*
X123718322Y-52021740D01*
X123718322Y-51020980D01*
X123676458Y-50798492D01*
X123660204Y-50773233D01*
X123670094Y-50758758D01*
X123718322Y-50520600D01*
X123718322Y-50268490D01*
X123837209Y-50317856D01*
X124075904Y-50318064D01*
X124296509Y-50226912D01*
X124369374Y-50154175D01*
X124417862Y-50229528D01*
X124363222Y-50309497D01*
X124339123Y-50428500D01*
X124339123Y-51028500D01*
X124360042Y-51139673D01*
X124417862Y-51229528D01*
X124363222Y-51309497D01*
X124339123Y-51428500D01*
X124339123Y-52028500D01*
X124360042Y-52139673D01*
X124425745Y-52241779D01*
X124515116Y-52302844D01*
X124159480Y-52658480D01*
X124067351Y-52796359D01*
X124061984Y-52823343D01*
X124035000Y-52959000D01*
X124035000Y-53805470D01*
X123951641Y-53888683D01*
X123860104Y-54109129D01*
X123859896Y-54347824D01*
X123951048Y-54568429D01*
X124119683Y-54737359D01*
X124340129Y-54828896D01*
X124578824Y-54829104D01*
X124799429Y-54737952D01*
X124968359Y-54569317D01*
X125059896Y-54348871D01*
X125060104Y-54110176D01*
X124968952Y-53889571D01*
X124885000Y-53805472D01*
X124885000Y-53135040D01*
X125591540Y-52428500D01*
X126739123Y-52428500D01*
X126739123Y-53628500D01*
X126760042Y-53739673D01*
X126825745Y-53841779D01*
X126925997Y-53910278D01*
X127045000Y-53934377D01*
X128845000Y-53934377D01*
X128956173Y-53913458D01*
X129058279Y-53847755D01*
X129126778Y-53747503D01*
X129150877Y-53628500D01*
X129150877Y-52428500D01*
X129129958Y-52317327D01*
X129064255Y-52215221D01*
X128964003Y-52146722D01*
X128845000Y-52122623D01*
X127045000Y-52122623D01*
X126933827Y-52143542D01*
X126831721Y-52209245D01*
X126763222Y-52309497D01*
X126739123Y-52428500D01*
X125591540Y-52428500D01*
X125685663Y-52334377D01*
X126195000Y-52334377D01*
X126306173Y-52313458D01*
X126408279Y-52247755D01*
X126476778Y-52147503D01*
X126476846Y-52147165D01*
X126600230Y-52122623D01*
X126607641Y-52121149D01*
X126745520Y-52029020D01*
X126914541Y-51860000D01*
X127211470Y-51860000D01*
X127294683Y-51943359D01*
X127515129Y-52034896D01*
X127753824Y-52035104D01*
X127974429Y-51943952D01*
X128058528Y-51860000D01*
X129751470Y-51860000D01*
X129834683Y-51943359D01*
X130055129Y-52034896D01*
X130293824Y-52035104D01*
X130514429Y-51943952D01*
X130683359Y-51775317D01*
X130774896Y-51554871D01*
X130775104Y-51316176D01*
X130683952Y-51095571D01*
X130515317Y-50926641D01*
X130294871Y-50835104D01*
X130056176Y-50834896D01*
X129835571Y-50926048D01*
X129751472Y-51010000D01*
X128058530Y-51010000D01*
X127975317Y-50926641D01*
X127754871Y-50835104D01*
X127516176Y-50834896D01*
X127321394Y-50915378D01*
X127345896Y-50856371D01*
X127346104Y-50617676D01*
X127254952Y-50397071D01*
X127086317Y-50228141D01*
X126865871Y-50136604D01*
X126627176Y-50136396D01*
X126428189Y-50218616D01*
X126476778Y-50147503D01*
X126500877Y-50028500D01*
X126500877Y-49428500D01*
X126479958Y-49317327D01*
X126421416Y-49226349D01*
X126449328Y-49198437D01*
X126495000Y-49088174D01*
X126495000Y-48953500D01*
X126420000Y-48878500D01*
X125574000Y-48878500D01*
X125574000Y-48902500D01*
X125266000Y-48902500D01*
X125266000Y-48878500D01*
X124420000Y-48878500D01*
X124345000Y-48953500D01*
X124345000Y-49088174D01*
X124390672Y-49198437D01*
X124419446Y-49227210D01*
X124376995Y-49289339D01*
X124297397Y-49209601D01*
X124076951Y-49118064D01*
X123838256Y-49117856D01*
X123685625Y-49180922D01*
X123718322Y-49019460D01*
X123718322Y-48368826D01*
X124345000Y-48368826D01*
X124345000Y-48503500D01*
X124420000Y-48578500D01*
X125266000Y-48578500D01*
X125266000Y-48203500D01*
X125574000Y-48203500D01*
X125574000Y-48578500D01*
X126420000Y-48578500D01*
X126495000Y-48503500D01*
X126495000Y-48368826D01*
X126449328Y-48258563D01*
X126364936Y-48174172D01*
X126254673Y-48128500D01*
X125649000Y-48128500D01*
X125574000Y-48203500D01*
X125266000Y-48203500D01*
X125191000Y-48128500D01*
X124585327Y-48128500D01*
X124475064Y-48174172D01*
X124390672Y-48258563D01*
X124345000Y-48368826D01*
X123718322Y-48368826D01*
X123718322Y-48018700D01*
X123676458Y-47796212D01*
X123661046Y-47772261D01*
X123670094Y-47759018D01*
X123718322Y-47520860D01*
X123718322Y-46828500D01*
X126739123Y-46828500D01*
X126739123Y-48028500D01*
X126760042Y-48139673D01*
X126825745Y-48241779D01*
X126925997Y-48310278D01*
X127045000Y-48334377D01*
X128845000Y-48334377D01*
X128956173Y-48313458D01*
X129058279Y-48247755D01*
X129126778Y-48147503D01*
X129150877Y-48028500D01*
X129150877Y-46828500D01*
X129129958Y-46717327D01*
X129064255Y-46615221D01*
X128964003Y-46546722D01*
X128845000Y-46522623D01*
X127045000Y-46522623D01*
X126933827Y-46543542D01*
X126831721Y-46609245D01*
X126763222Y-46709497D01*
X126739123Y-46828500D01*
X123718322Y-46828500D01*
X123718322Y-46520100D01*
X123676458Y-46297612D01*
X123656898Y-46267216D01*
X123665014Y-46255338D01*
X123713242Y-46017180D01*
X123713242Y-45693000D01*
X125793500Y-45693000D01*
X125829846Y-45686161D01*
X125863227Y-45664681D01*
X125885621Y-45631906D01*
X125893500Y-45593000D01*
X125893500Y-40126000D01*
X129638670Y-40126000D01*
X129778826Y-40266156D01*
X129667827Y-40287042D01*
X129565721Y-40352745D01*
X129497222Y-40452997D01*
X129473123Y-40572000D01*
X129473123Y-42072000D01*
X129494042Y-42183173D01*
X129559745Y-42285279D01*
X129659997Y-42353778D01*
X129779000Y-42377877D01*
X131079000Y-42377877D01*
X131147000Y-42365082D01*
X131147000Y-42495960D01*
X130676837Y-42966123D01*
X129779000Y-42966123D01*
X129667827Y-42987042D01*
X129565721Y-43052745D01*
X129497222Y-43152997D01*
X129473123Y-43272000D01*
X129473123Y-43647000D01*
X129098877Y-43647000D01*
X129098877Y-43272000D01*
X129077958Y-43160827D01*
X129012255Y-43058721D01*
X128912003Y-42990222D01*
X128793000Y-42966123D01*
X127654540Y-42966123D01*
X127726896Y-42791871D01*
X127727061Y-42602269D01*
X127951453Y-42377877D01*
X128793000Y-42377877D01*
X128904173Y-42356958D01*
X129006279Y-42291255D01*
X129074778Y-42191003D01*
X129098877Y-42072000D01*
X129098877Y-40572000D01*
X129077958Y-40460827D01*
X129012255Y-40358721D01*
X128912003Y-40290222D01*
X128793000Y-40266123D01*
X127493000Y-40266123D01*
X127381827Y-40287042D01*
X127279721Y-40352745D01*
X127211222Y-40452997D01*
X127187123Y-40572000D01*
X127187123Y-42072000D01*
X127187133Y-42072052D01*
X127008176Y-42071896D01*
X126787571Y-42163048D01*
X126618641Y-42331683D01*
X126527104Y-42552129D01*
X126526896Y-42790824D01*
X126618048Y-43011429D01*
X126786683Y-43180359D01*
X127007129Y-43271896D01*
X127187123Y-43272053D01*
X127187123Y-44772000D01*
X127194687Y-44812201D01*
X127086317Y-44703641D01*
X126865871Y-44612104D01*
X126627176Y-44611896D01*
X126406571Y-44703048D01*
X126237641Y-44871683D01*
X126146104Y-45092129D01*
X126145896Y-45330824D01*
X126237048Y-45551429D01*
X126405683Y-45720359D01*
X126626129Y-45811896D01*
X126864824Y-45812104D01*
X127085429Y-45720952D01*
X127254359Y-45552317D01*
X127345896Y-45331871D01*
X127346104Y-45093176D01*
X127312449Y-45011724D01*
X127373997Y-45053778D01*
X127493000Y-45077877D01*
X128793000Y-45077877D01*
X128904173Y-45056958D01*
X129006279Y-44991255D01*
X129074778Y-44891003D01*
X129098877Y-44772000D01*
X129098877Y-44397000D01*
X129473123Y-44397000D01*
X129473123Y-44772000D01*
X129494042Y-44883173D01*
X129559745Y-44985279D01*
X129659997Y-45053778D01*
X129779000Y-45077877D01*
X131079000Y-45077877D01*
X131190173Y-45056958D01*
X131292279Y-44991255D01*
X131360778Y-44891003D01*
X131384877Y-44772000D01*
X131384877Y-43460163D01*
X131872520Y-42972520D01*
X131964649Y-42834641D01*
X131973156Y-42791871D01*
X131997000Y-42672000D01*
X131997000Y-40068500D01*
X131964649Y-39905860D01*
X131916634Y-39834001D01*
X131872520Y-39767979D01*
X131155010Y-39050470D01*
X131017131Y-38958341D01*
X130990147Y-38952974D01*
X130854490Y-38925990D01*
X125893500Y-38925990D01*
X125893500Y-37978500D01*
X132402500Y-37978500D01*
X132402500Y-82228500D01*
M02*
