G04 #@! TF.FileFunction,Legend,Bot*
%FSLAX46Y46*%
G04 Gerber Fmt 4.6, Leading zero omitted, Abs format (unit mm)*
G04 Created by KiCad (PCBNEW 4.0.4-stable) date 01/25/17 01:33:10*
%MOMM*%
%LPD*%
G01*
G04 APERTURE LIST*
%ADD10C,0.100000*%
%ADD11C,0.150000*%
%ADD12C,0.010000*%
%ADD13C,0.120000*%
%ADD14R,1.900000X1.650000*%
%ADD15R,1.140000X2.950000*%
%ADD16R,2.400000X1.100000*%
%ADD17R,2.400000X1.250000*%
%ADD18C,1.900000*%
%ADD19R,2.400000X1.600000*%
%ADD20R,0.700000X2.000000*%
%ADD21R,2.700000X3.900000*%
%ADD22R,0.650000X1.400000*%
%ADD23R,1.400000X0.650000*%
G04 APERTURE END LIST*
D10*
D11*
X113156809Y-69810381D02*
X112823476Y-70810381D01*
X112490142Y-69810381D01*
X111632999Y-70810381D02*
X112204428Y-70810381D01*
X111918714Y-70810381D02*
X111918714Y-69810381D01*
X112013952Y-69953238D01*
X112109190Y-70048476D01*
X112204428Y-70096095D01*
X111204428Y-70715143D02*
X111156809Y-70762762D01*
X111204428Y-70810381D01*
X111252047Y-70762762D01*
X111204428Y-70715143D01*
X111204428Y-70810381D01*
X110537762Y-69810381D02*
X110442523Y-69810381D01*
X110347285Y-69858000D01*
X110299666Y-69905619D01*
X110252047Y-70000857D01*
X110204428Y-70191333D01*
X110204428Y-70429429D01*
X110252047Y-70619905D01*
X110299666Y-70715143D01*
X110347285Y-70762762D01*
X110442523Y-70810381D01*
X110537762Y-70810381D01*
X110633000Y-70762762D01*
X110680619Y-70715143D01*
X110728238Y-70619905D01*
X110775857Y-70429429D01*
X110775857Y-70191333D01*
X110728238Y-70000857D01*
X110680619Y-69905619D01*
X110633000Y-69858000D01*
X110537762Y-69810381D01*
D12*
G36*
X109694980Y-65965041D02*
X109694981Y-66055182D01*
X109656880Y-66061436D01*
X109600436Y-66080242D01*
X109555238Y-66115620D01*
X109530290Y-66151361D01*
X109524927Y-66161722D01*
X109520447Y-66172180D01*
X109516757Y-66184589D01*
X109513767Y-66200799D01*
X109511384Y-66222664D01*
X109509515Y-66252033D01*
X109508070Y-66290760D01*
X109506955Y-66340697D01*
X109506078Y-66403694D01*
X109505349Y-66481605D01*
X109504674Y-66576280D01*
X109504022Y-66679728D01*
X109501023Y-67164517D01*
X109440161Y-67196956D01*
X109357834Y-67251717D01*
X109284719Y-67321861D01*
X109224075Y-67403450D01*
X109179163Y-67492542D01*
X109167040Y-67527086D01*
X109149207Y-67596112D01*
X109139901Y-67662743D01*
X109139795Y-67728668D01*
X109149561Y-67795579D01*
X109169871Y-67865165D01*
X109201399Y-67939117D01*
X109244817Y-68019125D01*
X109300797Y-68106878D01*
X109370011Y-68204069D01*
X109453134Y-68312385D01*
X109505670Y-68378115D01*
X109548770Y-68431967D01*
X109588237Y-68482318D01*
X109622002Y-68526444D01*
X109647997Y-68561624D01*
X109664152Y-68585134D01*
X109667804Y-68591475D01*
X109675114Y-68614649D01*
X109682865Y-68652306D01*
X109689992Y-68698665D01*
X109694215Y-68734940D01*
X109700472Y-68788357D01*
X109708264Y-68841568D01*
X109716400Y-68886912D01*
X109721080Y-68907660D01*
X109741112Y-68968362D01*
X109771022Y-69037727D01*
X109807358Y-69109079D01*
X109846674Y-69175740D01*
X109885519Y-69231032D01*
X109892631Y-69239784D01*
X109978703Y-69327235D01*
X110077587Y-69400783D01*
X110186964Y-69460087D01*
X110304515Y-69504805D01*
X110427919Y-69534596D01*
X110554857Y-69549119D01*
X110683009Y-69548033D01*
X110810056Y-69530995D01*
X110933677Y-69497665D01*
X111051554Y-69447701D01*
X111104680Y-69418152D01*
X111158020Y-69385966D01*
X111158077Y-69096013D01*
X111158466Y-69012877D01*
X111159545Y-68937630D01*
X111160324Y-68907660D01*
X110786829Y-68907660D01*
X110782495Y-68970224D01*
X110767867Y-69022289D01*
X110740500Y-69068344D01*
X110697953Y-69112878D01*
X110657074Y-69146124D01*
X110615929Y-69166773D01*
X110562856Y-69178482D01*
X110504373Y-69180837D01*
X110446997Y-69173422D01*
X110410169Y-69161858D01*
X110366757Y-69135955D01*
X110323345Y-69097023D01*
X110286110Y-69051391D01*
X110263881Y-69011948D01*
X110245666Y-68945040D01*
X110245831Y-68875871D01*
X110263443Y-68808501D01*
X110297567Y-68746988D01*
X110334098Y-68706537D01*
X110386273Y-68667407D01*
X110440373Y-68644955D01*
X110503316Y-68636538D01*
X110517940Y-68636306D01*
X110583551Y-68642172D01*
X110638900Y-68661531D01*
X110690906Y-68697027D01*
X110701783Y-68706537D01*
X110743135Y-68750106D01*
X110769405Y-68794931D01*
X110783122Y-68846992D01*
X110786829Y-68907660D01*
X111160324Y-68907660D01*
X111161230Y-68872836D01*
X111163440Y-68821059D01*
X111166092Y-68784862D01*
X111168628Y-68768275D01*
X111193473Y-68713887D01*
X111232842Y-68672339D01*
X111284102Y-68645577D01*
X111344624Y-68635544D01*
X111348130Y-68635517D01*
X111403238Y-68644233D01*
X111451815Y-68668473D01*
X111488987Y-68705372D01*
X111500603Y-68725149D01*
X111515696Y-68751626D01*
X111526275Y-68758291D01*
X111532338Y-68745144D01*
X111533940Y-68718695D01*
X111542931Y-68662215D01*
X111567628Y-68614403D01*
X111604620Y-68577077D01*
X111650496Y-68552053D01*
X111701844Y-68541149D01*
X111755254Y-68546179D01*
X111807313Y-68568962D01*
X111810802Y-68571258D01*
X111855368Y-68613125D01*
X111885023Y-68667056D01*
X111895744Y-68710776D01*
X111902322Y-68760364D01*
X111928074Y-68720648D01*
X111967829Y-68675802D01*
X112016329Y-68646926D01*
X112069786Y-68634646D01*
X112124415Y-68639590D01*
X112176428Y-68662386D01*
X112195324Y-68676366D01*
X112213995Y-68692958D01*
X112229002Y-68709569D01*
X112240746Y-68728550D01*
X112249627Y-68752251D01*
X112256047Y-68783021D01*
X112260407Y-68823211D01*
X112263106Y-68875170D01*
X112264547Y-68941248D01*
X112265130Y-69023795D01*
X112265237Y-69086188D01*
X112265460Y-69386636D01*
X112339120Y-69428196D01*
X112463616Y-69486904D01*
X112595141Y-69526837D01*
X112732400Y-69547753D01*
X112874095Y-69549414D01*
X112953804Y-69541987D01*
X113087436Y-69515315D01*
X113212773Y-69471671D01*
X113328232Y-69412074D01*
X113432233Y-69337545D01*
X113523195Y-69249105D01*
X113599537Y-69147775D01*
X113621716Y-69110860D01*
X113658508Y-69033850D01*
X113690489Y-68944083D01*
X113691365Y-68940777D01*
X113177798Y-68940777D01*
X113170637Y-68987466D01*
X113169728Y-68990475D01*
X113139151Y-69056009D01*
X113094539Y-69109240D01*
X113038948Y-69148853D01*
X112975434Y-69173535D01*
X112907053Y-69181973D01*
X112836862Y-69172852D01*
X112787302Y-69154855D01*
X112733884Y-69119357D01*
X112688466Y-69069263D01*
X112654310Y-69009736D01*
X112634675Y-68945940D01*
X112631220Y-68907660D01*
X112639527Y-68848643D01*
X112662228Y-68788161D01*
X112695995Y-68734688D01*
X112701911Y-68727679D01*
X112755387Y-68680867D01*
X112816402Y-68650607D01*
X112881678Y-68636470D01*
X112947940Y-68638030D01*
X113011913Y-68654859D01*
X113070319Y-68686531D01*
X113119884Y-68732617D01*
X113154541Y-68786721D01*
X113169064Y-68831201D01*
X113177045Y-68885621D01*
X113177798Y-68940777D01*
X113691365Y-68940777D01*
X113715767Y-68848721D01*
X113732452Y-68754924D01*
X113738656Y-68669854D01*
X113738661Y-68667760D01*
X113740190Y-68644937D01*
X113745744Y-68621920D01*
X113756769Y-68596379D01*
X113774711Y-68565984D01*
X113801017Y-68528405D01*
X113837133Y-68481312D01*
X113884507Y-68422375D01*
X113911418Y-68389500D01*
X114006286Y-68270762D01*
X114086063Y-68163522D01*
X114151451Y-68066486D01*
X114203149Y-67978360D01*
X114241858Y-67897851D01*
X114257067Y-67855143D01*
X112997664Y-67855143D01*
X112995792Y-67868052D01*
X112986415Y-67881988D01*
X112977900Y-67887623D01*
X112961307Y-67891689D01*
X112933895Y-67894406D01*
X112892926Y-67895994D01*
X112835659Y-67896672D01*
X112802696Y-67896740D01*
X112631220Y-67896740D01*
X112631220Y-67805300D01*
X112632003Y-67765138D01*
X112634098Y-67734131D01*
X112637130Y-67716761D01*
X112638840Y-67714587D01*
X112650500Y-67717897D01*
X112678194Y-67726641D01*
X112718695Y-67739773D01*
X112768779Y-67756250D01*
X112819180Y-67773007D01*
X112886265Y-67795912D01*
X112935753Y-67814339D01*
X112969547Y-67829527D01*
X112989550Y-67842715D01*
X112997664Y-67855143D01*
X114257067Y-67855143D01*
X114268277Y-67823667D01*
X114283107Y-67754515D01*
X114286311Y-67707496D01*
X112448340Y-67707496D01*
X112448340Y-67836052D01*
X112415320Y-67821718D01*
X112394958Y-67812451D01*
X112360284Y-67796219D01*
X112315277Y-67774904D01*
X112263919Y-67750386D01*
X112232440Y-67735272D01*
X112082580Y-67663161D01*
X112082580Y-67505630D01*
X112082978Y-67442646D01*
X112084297Y-67397684D01*
X112086723Y-67368462D01*
X112090445Y-67352696D01*
X112095493Y-67348100D01*
X112115320Y-67354070D01*
X112148367Y-67370783D01*
X112191867Y-67396444D01*
X112243049Y-67429257D01*
X112299144Y-67467428D01*
X112357384Y-67509159D01*
X112414999Y-67552656D01*
X112434119Y-67567660D01*
X112440430Y-67577882D01*
X112444696Y-67598680D01*
X112447209Y-67632929D01*
X112448262Y-67683507D01*
X112448340Y-67707496D01*
X114286311Y-67707496D01*
X114287124Y-67695579D01*
X114281194Y-67627464D01*
X114265354Y-67552255D01*
X114241844Y-67479147D01*
X114224708Y-67439540D01*
X114190878Y-67384364D01*
X114143633Y-67326376D01*
X114104803Y-67287527D01*
X111899700Y-67287527D01*
X111899700Y-67602340D01*
X111856520Y-67594600D01*
X111826646Y-67591112D01*
X111783927Y-67588441D01*
X111735835Y-67586999D01*
X111716820Y-67586860D01*
X111668670Y-67587695D01*
X111622912Y-67589926D01*
X111587018Y-67593137D01*
X111577120Y-67594600D01*
X111533940Y-67602340D01*
X111533940Y-67508120D01*
X111340406Y-67508120D01*
X111339912Y-67668140D01*
X111165146Y-67751934D01*
X111110241Y-67778077D01*
X111061601Y-67800892D01*
X111022191Y-67819016D01*
X110994977Y-67831087D01*
X110982924Y-67835740D01*
X110982760Y-67835754D01*
X110979869Y-67826247D01*
X110977844Y-67804212D01*
X110792260Y-67804212D01*
X110792260Y-67896740D01*
X110620785Y-67896740D01*
X110555003Y-67896409D01*
X110506793Y-67895272D01*
X110473416Y-67893108D01*
X110452130Y-67889697D01*
X110440197Y-67884819D01*
X110437065Y-67881987D01*
X110429839Y-67860912D01*
X110431389Y-67846544D01*
X110437804Y-67837381D01*
X110452912Y-67827431D01*
X110479189Y-67815639D01*
X110519110Y-67800946D01*
X110575153Y-67782297D01*
X110602408Y-67773566D01*
X110657567Y-67755986D01*
X110706390Y-67740344D01*
X110745397Y-67727762D01*
X110771109Y-67719360D01*
X110779560Y-67716483D01*
X110785871Y-67719323D01*
X110789838Y-67735304D01*
X110791834Y-67766992D01*
X110792260Y-67804212D01*
X110977844Y-67804212D01*
X110977482Y-67800275D01*
X110975830Y-67761689D01*
X110975147Y-67714342D01*
X110975140Y-67709217D01*
X110975140Y-67582655D01*
X111043720Y-67527947D01*
X111082281Y-67497895D01*
X111121492Y-67468487D01*
X111153804Y-67445367D01*
X111158020Y-67442500D01*
X111184558Y-67425903D01*
X111218723Y-67406210D01*
X111255650Y-67386010D01*
X111290472Y-67367891D01*
X111318323Y-67354440D01*
X111334339Y-67348245D01*
X111335531Y-67348100D01*
X111337328Y-67357688D01*
X111338806Y-67384168D01*
X111339861Y-67424112D01*
X111340388Y-67474094D01*
X111340406Y-67508120D01*
X111533940Y-67508120D01*
X111533940Y-67444421D01*
X111534154Y-67383956D01*
X111535015Y-67340748D01*
X111536852Y-67311738D01*
X111539994Y-67293864D01*
X111544771Y-67284067D01*
X111551513Y-67279287D01*
X111551720Y-67279201D01*
X111569617Y-67276131D01*
X111603082Y-67273927D01*
X111647382Y-67272582D01*
X111697786Y-67272086D01*
X111749560Y-67272433D01*
X111797971Y-67273616D01*
X111838287Y-67275626D01*
X111865775Y-67278456D01*
X111871760Y-67279713D01*
X111899700Y-67287527D01*
X114104803Y-67287527D01*
X114088180Y-67270896D01*
X114029724Y-67223243D01*
X113985161Y-67194802D01*
X113921782Y-67160140D01*
X113921604Y-66692780D01*
X113921289Y-66560560D01*
X113920453Y-66447798D01*
X113919099Y-66354648D01*
X113917232Y-66281264D01*
X113915426Y-66240660D01*
X113365849Y-66240660D01*
X113359383Y-66354960D01*
X113348390Y-66466409D01*
X113328875Y-66572162D01*
X113301767Y-66669956D01*
X113267992Y-66757531D01*
X113228477Y-66832625D01*
X113184149Y-66892977D01*
X113135937Y-66936325D01*
X113116111Y-66948222D01*
X113055985Y-66968427D01*
X112985226Y-66973283D01*
X112906503Y-66962804D01*
X112849660Y-66946883D01*
X112773500Y-66915629D01*
X112686056Y-66869808D01*
X112588923Y-66810569D01*
X112483696Y-66739062D01*
X112371971Y-66656437D01*
X112255343Y-66563845D01*
X112135407Y-66462435D01*
X112013758Y-66353356D01*
X111970820Y-66313344D01*
X111894620Y-66241622D01*
X112630235Y-66241141D01*
X113365849Y-66240660D01*
X111527323Y-66240660D01*
X111502692Y-66267438D01*
X111467868Y-66302773D01*
X111419870Y-66347856D01*
X111361699Y-66400139D01*
X111296357Y-66457073D01*
X111226847Y-66516111D01*
X111156170Y-66574704D01*
X111087329Y-66630302D01*
X111023326Y-66680359D01*
X110967162Y-66722325D01*
X110964980Y-66723901D01*
X110843125Y-66807201D01*
X110732002Y-66873545D01*
X110631296Y-66923028D01*
X110540694Y-66955750D01*
X110459880Y-66971808D01*
X110388539Y-66971299D01*
X110326358Y-66954321D01*
X110289471Y-66933646D01*
X110236511Y-66885332D01*
X110189137Y-66819189D01*
X110148073Y-66737119D01*
X110114042Y-66641024D01*
X110087769Y-66532804D01*
X110069977Y-66414361D01*
X110063761Y-66340631D01*
X110057671Y-66240660D01*
X111527323Y-66240660D01*
X113365849Y-66240660D01*
X113915426Y-66240660D01*
X113914854Y-66227801D01*
X113911969Y-66194414D01*
X113910200Y-66184780D01*
X113889590Y-66141693D01*
X113855743Y-66103192D01*
X113814551Y-66074783D01*
X113779922Y-66062964D01*
X113738660Y-66055993D01*
X113738660Y-65874900D01*
X109694980Y-65874900D01*
X109694980Y-65965041D01*
X109694980Y-65965041D01*
G37*
X109694980Y-65965041D02*
X109694981Y-66055182D01*
X109656880Y-66061436D01*
X109600436Y-66080242D01*
X109555238Y-66115620D01*
X109530290Y-66151361D01*
X109524927Y-66161722D01*
X109520447Y-66172180D01*
X109516757Y-66184589D01*
X109513767Y-66200799D01*
X109511384Y-66222664D01*
X109509515Y-66252033D01*
X109508070Y-66290760D01*
X109506955Y-66340697D01*
X109506078Y-66403694D01*
X109505349Y-66481605D01*
X109504674Y-66576280D01*
X109504022Y-66679728D01*
X109501023Y-67164517D01*
X109440161Y-67196956D01*
X109357834Y-67251717D01*
X109284719Y-67321861D01*
X109224075Y-67403450D01*
X109179163Y-67492542D01*
X109167040Y-67527086D01*
X109149207Y-67596112D01*
X109139901Y-67662743D01*
X109139795Y-67728668D01*
X109149561Y-67795579D01*
X109169871Y-67865165D01*
X109201399Y-67939117D01*
X109244817Y-68019125D01*
X109300797Y-68106878D01*
X109370011Y-68204069D01*
X109453134Y-68312385D01*
X109505670Y-68378115D01*
X109548770Y-68431967D01*
X109588237Y-68482318D01*
X109622002Y-68526444D01*
X109647997Y-68561624D01*
X109664152Y-68585134D01*
X109667804Y-68591475D01*
X109675114Y-68614649D01*
X109682865Y-68652306D01*
X109689992Y-68698665D01*
X109694215Y-68734940D01*
X109700472Y-68788357D01*
X109708264Y-68841568D01*
X109716400Y-68886912D01*
X109721080Y-68907660D01*
X109741112Y-68968362D01*
X109771022Y-69037727D01*
X109807358Y-69109079D01*
X109846674Y-69175740D01*
X109885519Y-69231032D01*
X109892631Y-69239784D01*
X109978703Y-69327235D01*
X110077587Y-69400783D01*
X110186964Y-69460087D01*
X110304515Y-69504805D01*
X110427919Y-69534596D01*
X110554857Y-69549119D01*
X110683009Y-69548033D01*
X110810056Y-69530995D01*
X110933677Y-69497665D01*
X111051554Y-69447701D01*
X111104680Y-69418152D01*
X111158020Y-69385966D01*
X111158077Y-69096013D01*
X111158466Y-69012877D01*
X111159545Y-68937630D01*
X111160324Y-68907660D01*
X110786829Y-68907660D01*
X110782495Y-68970224D01*
X110767867Y-69022289D01*
X110740500Y-69068344D01*
X110697953Y-69112878D01*
X110657074Y-69146124D01*
X110615929Y-69166773D01*
X110562856Y-69178482D01*
X110504373Y-69180837D01*
X110446997Y-69173422D01*
X110410169Y-69161858D01*
X110366757Y-69135955D01*
X110323345Y-69097023D01*
X110286110Y-69051391D01*
X110263881Y-69011948D01*
X110245666Y-68945040D01*
X110245831Y-68875871D01*
X110263443Y-68808501D01*
X110297567Y-68746988D01*
X110334098Y-68706537D01*
X110386273Y-68667407D01*
X110440373Y-68644955D01*
X110503316Y-68636538D01*
X110517940Y-68636306D01*
X110583551Y-68642172D01*
X110638900Y-68661531D01*
X110690906Y-68697027D01*
X110701783Y-68706537D01*
X110743135Y-68750106D01*
X110769405Y-68794931D01*
X110783122Y-68846992D01*
X110786829Y-68907660D01*
X111160324Y-68907660D01*
X111161230Y-68872836D01*
X111163440Y-68821059D01*
X111166092Y-68784862D01*
X111168628Y-68768275D01*
X111193473Y-68713887D01*
X111232842Y-68672339D01*
X111284102Y-68645577D01*
X111344624Y-68635544D01*
X111348130Y-68635517D01*
X111403238Y-68644233D01*
X111451815Y-68668473D01*
X111488987Y-68705372D01*
X111500603Y-68725149D01*
X111515696Y-68751626D01*
X111526275Y-68758291D01*
X111532338Y-68745144D01*
X111533940Y-68718695D01*
X111542931Y-68662215D01*
X111567628Y-68614403D01*
X111604620Y-68577077D01*
X111650496Y-68552053D01*
X111701844Y-68541149D01*
X111755254Y-68546179D01*
X111807313Y-68568962D01*
X111810802Y-68571258D01*
X111855368Y-68613125D01*
X111885023Y-68667056D01*
X111895744Y-68710776D01*
X111902322Y-68760364D01*
X111928074Y-68720648D01*
X111967829Y-68675802D01*
X112016329Y-68646926D01*
X112069786Y-68634646D01*
X112124415Y-68639590D01*
X112176428Y-68662386D01*
X112195324Y-68676366D01*
X112213995Y-68692958D01*
X112229002Y-68709569D01*
X112240746Y-68728550D01*
X112249627Y-68752251D01*
X112256047Y-68783021D01*
X112260407Y-68823211D01*
X112263106Y-68875170D01*
X112264547Y-68941248D01*
X112265130Y-69023795D01*
X112265237Y-69086188D01*
X112265460Y-69386636D01*
X112339120Y-69428196D01*
X112463616Y-69486904D01*
X112595141Y-69526837D01*
X112732400Y-69547753D01*
X112874095Y-69549414D01*
X112953804Y-69541987D01*
X113087436Y-69515315D01*
X113212773Y-69471671D01*
X113328232Y-69412074D01*
X113432233Y-69337545D01*
X113523195Y-69249105D01*
X113599537Y-69147775D01*
X113621716Y-69110860D01*
X113658508Y-69033850D01*
X113690489Y-68944083D01*
X113691365Y-68940777D01*
X113177798Y-68940777D01*
X113170637Y-68987466D01*
X113169728Y-68990475D01*
X113139151Y-69056009D01*
X113094539Y-69109240D01*
X113038948Y-69148853D01*
X112975434Y-69173535D01*
X112907053Y-69181973D01*
X112836862Y-69172852D01*
X112787302Y-69154855D01*
X112733884Y-69119357D01*
X112688466Y-69069263D01*
X112654310Y-69009736D01*
X112634675Y-68945940D01*
X112631220Y-68907660D01*
X112639527Y-68848643D01*
X112662228Y-68788161D01*
X112695995Y-68734688D01*
X112701911Y-68727679D01*
X112755387Y-68680867D01*
X112816402Y-68650607D01*
X112881678Y-68636470D01*
X112947940Y-68638030D01*
X113011913Y-68654859D01*
X113070319Y-68686531D01*
X113119884Y-68732617D01*
X113154541Y-68786721D01*
X113169064Y-68831201D01*
X113177045Y-68885621D01*
X113177798Y-68940777D01*
X113691365Y-68940777D01*
X113715767Y-68848721D01*
X113732452Y-68754924D01*
X113738656Y-68669854D01*
X113738661Y-68667760D01*
X113740190Y-68644937D01*
X113745744Y-68621920D01*
X113756769Y-68596379D01*
X113774711Y-68565984D01*
X113801017Y-68528405D01*
X113837133Y-68481312D01*
X113884507Y-68422375D01*
X113911418Y-68389500D01*
X114006286Y-68270762D01*
X114086063Y-68163522D01*
X114151451Y-68066486D01*
X114203149Y-67978360D01*
X114241858Y-67897851D01*
X114257067Y-67855143D01*
X112997664Y-67855143D01*
X112995792Y-67868052D01*
X112986415Y-67881988D01*
X112977900Y-67887623D01*
X112961307Y-67891689D01*
X112933895Y-67894406D01*
X112892926Y-67895994D01*
X112835659Y-67896672D01*
X112802696Y-67896740D01*
X112631220Y-67896740D01*
X112631220Y-67805300D01*
X112632003Y-67765138D01*
X112634098Y-67734131D01*
X112637130Y-67716761D01*
X112638840Y-67714587D01*
X112650500Y-67717897D01*
X112678194Y-67726641D01*
X112718695Y-67739773D01*
X112768779Y-67756250D01*
X112819180Y-67773007D01*
X112886265Y-67795912D01*
X112935753Y-67814339D01*
X112969547Y-67829527D01*
X112989550Y-67842715D01*
X112997664Y-67855143D01*
X114257067Y-67855143D01*
X114268277Y-67823667D01*
X114283107Y-67754515D01*
X114286311Y-67707496D01*
X112448340Y-67707496D01*
X112448340Y-67836052D01*
X112415320Y-67821718D01*
X112394958Y-67812451D01*
X112360284Y-67796219D01*
X112315277Y-67774904D01*
X112263919Y-67750386D01*
X112232440Y-67735272D01*
X112082580Y-67663161D01*
X112082580Y-67505630D01*
X112082978Y-67442646D01*
X112084297Y-67397684D01*
X112086723Y-67368462D01*
X112090445Y-67352696D01*
X112095493Y-67348100D01*
X112115320Y-67354070D01*
X112148367Y-67370783D01*
X112191867Y-67396444D01*
X112243049Y-67429257D01*
X112299144Y-67467428D01*
X112357384Y-67509159D01*
X112414999Y-67552656D01*
X112434119Y-67567660D01*
X112440430Y-67577882D01*
X112444696Y-67598680D01*
X112447209Y-67632929D01*
X112448262Y-67683507D01*
X112448340Y-67707496D01*
X114286311Y-67707496D01*
X114287124Y-67695579D01*
X114281194Y-67627464D01*
X114265354Y-67552255D01*
X114241844Y-67479147D01*
X114224708Y-67439540D01*
X114190878Y-67384364D01*
X114143633Y-67326376D01*
X114104803Y-67287527D01*
X111899700Y-67287527D01*
X111899700Y-67602340D01*
X111856520Y-67594600D01*
X111826646Y-67591112D01*
X111783927Y-67588441D01*
X111735835Y-67586999D01*
X111716820Y-67586860D01*
X111668670Y-67587695D01*
X111622912Y-67589926D01*
X111587018Y-67593137D01*
X111577120Y-67594600D01*
X111533940Y-67602340D01*
X111533940Y-67508120D01*
X111340406Y-67508120D01*
X111339912Y-67668140D01*
X111165146Y-67751934D01*
X111110241Y-67778077D01*
X111061601Y-67800892D01*
X111022191Y-67819016D01*
X110994977Y-67831087D01*
X110982924Y-67835740D01*
X110982760Y-67835754D01*
X110979869Y-67826247D01*
X110977844Y-67804212D01*
X110792260Y-67804212D01*
X110792260Y-67896740D01*
X110620785Y-67896740D01*
X110555003Y-67896409D01*
X110506793Y-67895272D01*
X110473416Y-67893108D01*
X110452130Y-67889697D01*
X110440197Y-67884819D01*
X110437065Y-67881987D01*
X110429839Y-67860912D01*
X110431389Y-67846544D01*
X110437804Y-67837381D01*
X110452912Y-67827431D01*
X110479189Y-67815639D01*
X110519110Y-67800946D01*
X110575153Y-67782297D01*
X110602408Y-67773566D01*
X110657567Y-67755986D01*
X110706390Y-67740344D01*
X110745397Y-67727762D01*
X110771109Y-67719360D01*
X110779560Y-67716483D01*
X110785871Y-67719323D01*
X110789838Y-67735304D01*
X110791834Y-67766992D01*
X110792260Y-67804212D01*
X110977844Y-67804212D01*
X110977482Y-67800275D01*
X110975830Y-67761689D01*
X110975147Y-67714342D01*
X110975140Y-67709217D01*
X110975140Y-67582655D01*
X111043720Y-67527947D01*
X111082281Y-67497895D01*
X111121492Y-67468487D01*
X111153804Y-67445367D01*
X111158020Y-67442500D01*
X111184558Y-67425903D01*
X111218723Y-67406210D01*
X111255650Y-67386010D01*
X111290472Y-67367891D01*
X111318323Y-67354440D01*
X111334339Y-67348245D01*
X111335531Y-67348100D01*
X111337328Y-67357688D01*
X111338806Y-67384168D01*
X111339861Y-67424112D01*
X111340388Y-67474094D01*
X111340406Y-67508120D01*
X111533940Y-67508120D01*
X111533940Y-67444421D01*
X111534154Y-67383956D01*
X111535015Y-67340748D01*
X111536852Y-67311738D01*
X111539994Y-67293864D01*
X111544771Y-67284067D01*
X111551513Y-67279287D01*
X111551720Y-67279201D01*
X111569617Y-67276131D01*
X111603082Y-67273927D01*
X111647382Y-67272582D01*
X111697786Y-67272086D01*
X111749560Y-67272433D01*
X111797971Y-67273616D01*
X111838287Y-67275626D01*
X111865775Y-67278456D01*
X111871760Y-67279713D01*
X111899700Y-67287527D01*
X114104803Y-67287527D01*
X114088180Y-67270896D01*
X114029724Y-67223243D01*
X113985161Y-67194802D01*
X113921782Y-67160140D01*
X113921604Y-66692780D01*
X113921289Y-66560560D01*
X113920453Y-66447798D01*
X113919099Y-66354648D01*
X113917232Y-66281264D01*
X113915426Y-66240660D01*
X113365849Y-66240660D01*
X113359383Y-66354960D01*
X113348390Y-66466409D01*
X113328875Y-66572162D01*
X113301767Y-66669956D01*
X113267992Y-66757531D01*
X113228477Y-66832625D01*
X113184149Y-66892977D01*
X113135937Y-66936325D01*
X113116111Y-66948222D01*
X113055985Y-66968427D01*
X112985226Y-66973283D01*
X112906503Y-66962804D01*
X112849660Y-66946883D01*
X112773500Y-66915629D01*
X112686056Y-66869808D01*
X112588923Y-66810569D01*
X112483696Y-66739062D01*
X112371971Y-66656437D01*
X112255343Y-66563845D01*
X112135407Y-66462435D01*
X112013758Y-66353356D01*
X111970820Y-66313344D01*
X111894620Y-66241622D01*
X112630235Y-66241141D01*
X113365849Y-66240660D01*
X111527323Y-66240660D01*
X111502692Y-66267438D01*
X111467868Y-66302773D01*
X111419870Y-66347856D01*
X111361699Y-66400139D01*
X111296357Y-66457073D01*
X111226847Y-66516111D01*
X111156170Y-66574704D01*
X111087329Y-66630302D01*
X111023326Y-66680359D01*
X110967162Y-66722325D01*
X110964980Y-66723901D01*
X110843125Y-66807201D01*
X110732002Y-66873545D01*
X110631296Y-66923028D01*
X110540694Y-66955750D01*
X110459880Y-66971808D01*
X110388539Y-66971299D01*
X110326358Y-66954321D01*
X110289471Y-66933646D01*
X110236511Y-66885332D01*
X110189137Y-66819189D01*
X110148073Y-66737119D01*
X110114042Y-66641024D01*
X110087769Y-66532804D01*
X110069977Y-66414361D01*
X110063761Y-66340631D01*
X110057671Y-66240660D01*
X111527323Y-66240660D01*
X113365849Y-66240660D01*
X113915426Y-66240660D01*
X113914854Y-66227801D01*
X113911969Y-66194414D01*
X113910200Y-66184780D01*
X113889590Y-66141693D01*
X113855743Y-66103192D01*
X113814551Y-66074783D01*
X113779922Y-66062964D01*
X113738660Y-66055993D01*
X113738660Y-65874900D01*
X109694980Y-65874900D01*
X109694980Y-65965041D01*
G36*
X111664145Y-68648145D02*
X111651058Y-68658479D01*
X111625380Y-68682602D01*
X111625380Y-69500213D01*
X111656640Y-69526516D01*
X111691665Y-69547839D01*
X111726239Y-69550089D01*
X111758598Y-69537583D01*
X111770923Y-69530172D01*
X111781050Y-69521324D01*
X111789178Y-69509123D01*
X111795504Y-69491655D01*
X111800227Y-69467003D01*
X111803543Y-69433251D01*
X111805650Y-69388485D01*
X111806747Y-69330788D01*
X111807031Y-69258246D01*
X111806699Y-69168942D01*
X111806076Y-69077638D01*
X111803180Y-68689661D01*
X111775518Y-68662008D01*
X111740217Y-68639153D01*
X111701443Y-68634485D01*
X111664145Y-68648145D01*
X111664145Y-68648145D01*
G37*
X111664145Y-68648145D02*
X111651058Y-68658479D01*
X111625380Y-68682602D01*
X111625380Y-69500213D01*
X111656640Y-69526516D01*
X111691665Y-69547839D01*
X111726239Y-69550089D01*
X111758598Y-69537583D01*
X111770923Y-69530172D01*
X111781050Y-69521324D01*
X111789178Y-69509123D01*
X111795504Y-69491655D01*
X111800227Y-69467003D01*
X111803543Y-69433251D01*
X111805650Y-69388485D01*
X111806747Y-69330788D01*
X111807031Y-69258246D01*
X111806699Y-69168942D01*
X111806076Y-69077638D01*
X111803180Y-68689661D01*
X111775518Y-68662008D01*
X111740217Y-68639153D01*
X111701443Y-68634485D01*
X111664145Y-68648145D01*
G36*
X112039623Y-68736908D02*
X112010474Y-68757303D01*
X112002118Y-68768971D01*
X111998507Y-68786432D01*
X111995593Y-68823697D01*
X111993396Y-68880261D01*
X111991930Y-68955621D01*
X111991214Y-69049271D01*
X111991140Y-69095733D01*
X111991140Y-69401983D01*
X112020839Y-69431681D01*
X112054596Y-69455525D01*
X112090103Y-69459589D01*
X112123020Y-69448329D01*
X112136965Y-69440335D01*
X112148094Y-69430514D01*
X112156726Y-69416645D01*
X112163176Y-69396504D01*
X112167765Y-69367870D01*
X112170808Y-69328521D01*
X112172624Y-69276235D01*
X112173530Y-69208789D01*
X112173843Y-69123962D01*
X112173871Y-69092575D01*
X112173758Y-69000285D01*
X112173072Y-68926156D01*
X112171446Y-68868029D01*
X112168513Y-68823748D01*
X112163907Y-68791153D01*
X112157261Y-68768087D01*
X112148209Y-68752392D01*
X112136385Y-68741909D01*
X112121421Y-68734481D01*
X112112502Y-68731187D01*
X112076318Y-68727283D01*
X112039623Y-68736908D01*
X112039623Y-68736908D01*
G37*
X112039623Y-68736908D02*
X112010474Y-68757303D01*
X112002118Y-68768971D01*
X111998507Y-68786432D01*
X111995593Y-68823697D01*
X111993396Y-68880261D01*
X111991930Y-68955621D01*
X111991214Y-69049271D01*
X111991140Y-69095733D01*
X111991140Y-69401983D01*
X112020839Y-69431681D01*
X112054596Y-69455525D01*
X112090103Y-69459589D01*
X112123020Y-69448329D01*
X112136965Y-69440335D01*
X112148094Y-69430514D01*
X112156726Y-69416645D01*
X112163176Y-69396504D01*
X112167765Y-69367870D01*
X112170808Y-69328521D01*
X112172624Y-69276235D01*
X112173530Y-69208789D01*
X112173843Y-69123962D01*
X112173871Y-69092575D01*
X112173758Y-69000285D01*
X112173072Y-68926156D01*
X112171446Y-68868029D01*
X112168513Y-68823748D01*
X112163907Y-68791153D01*
X112157261Y-68768087D01*
X112148209Y-68752392D01*
X112136385Y-68741909D01*
X112121421Y-68734481D01*
X112112502Y-68731187D01*
X112076318Y-68727283D01*
X112039623Y-68736908D01*
G36*
X111296355Y-68742191D02*
X111281187Y-68754459D01*
X111254540Y-68781090D01*
X111251352Y-69067895D01*
X111250528Y-69162512D01*
X111250559Y-69238956D01*
X111251721Y-69299367D01*
X111254291Y-69345883D01*
X111258545Y-69380642D01*
X111264759Y-69405785D01*
X111273208Y-69423450D01*
X111284168Y-69435776D01*
X111297916Y-69444902D01*
X111300146Y-69446080D01*
X111336943Y-69459543D01*
X111368252Y-69456153D01*
X111400986Y-69435156D01*
X111401081Y-69435076D01*
X111432340Y-69408773D01*
X111432340Y-68774042D01*
X111407744Y-68750935D01*
X111373077Y-68731037D01*
X111333864Y-68728180D01*
X111296355Y-68742191D01*
X111296355Y-68742191D01*
G37*
X111296355Y-68742191D02*
X111281187Y-68754459D01*
X111254540Y-68781090D01*
X111251352Y-69067895D01*
X111250528Y-69162512D01*
X111250559Y-69238956D01*
X111251721Y-69299367D01*
X111254291Y-69345883D01*
X111258545Y-69380642D01*
X111264759Y-69405785D01*
X111273208Y-69423450D01*
X111284168Y-69435776D01*
X111297916Y-69444902D01*
X111300146Y-69446080D01*
X111336943Y-69459543D01*
X111368252Y-69456153D01*
X111400986Y-69435156D01*
X111401081Y-69435076D01*
X111432340Y-69408773D01*
X111432340Y-68774042D01*
X111407744Y-68750935D01*
X111373077Y-68731037D01*
X111333864Y-68728180D01*
X111296355Y-68742191D01*
G36*
X111618609Y-64401538D02*
X111489803Y-64401804D01*
X111364105Y-64402244D01*
X111243319Y-64402857D01*
X111129246Y-64403643D01*
X111023688Y-64404601D01*
X110928447Y-64405729D01*
X110845326Y-64407029D01*
X110776127Y-64408498D01*
X110722652Y-64410136D01*
X110686703Y-64411943D01*
X110675420Y-64412962D01*
X110526970Y-64441147D01*
X110385669Y-64488147D01*
X110252701Y-64553374D01*
X110129248Y-64636242D01*
X110016492Y-64736165D01*
X110009120Y-64743690D01*
X109914046Y-64851983D01*
X109837351Y-64962968D01*
X109778119Y-65078973D01*
X109735430Y-65202330D01*
X109708367Y-65335367D01*
X109696011Y-65480414D01*
X109694980Y-65540742D01*
X109694980Y-65692020D01*
X113738660Y-65692020D01*
X113738660Y-65590019D01*
X113732007Y-65433513D01*
X113711502Y-65290237D01*
X113676331Y-65157836D01*
X113625678Y-65033951D01*
X113558726Y-64916226D01*
X113474660Y-64802303D01*
X113459968Y-64784742D01*
X113371596Y-64695031D01*
X113267668Y-64614006D01*
X113151772Y-64543556D01*
X113027501Y-64485565D01*
X112898445Y-64441922D01*
X112768195Y-64414511D01*
X112750790Y-64412167D01*
X112725246Y-64410291D01*
X112681184Y-64408598D01*
X112620408Y-64407086D01*
X112544719Y-64405756D01*
X112455920Y-64404605D01*
X112355812Y-64403634D01*
X112246198Y-64402842D01*
X112128880Y-64402228D01*
X112005659Y-64401791D01*
X111878340Y-64401531D01*
X111748722Y-64401447D01*
X111618609Y-64401538D01*
X111618609Y-64401538D01*
G37*
X111618609Y-64401538D02*
X111489803Y-64401804D01*
X111364105Y-64402244D01*
X111243319Y-64402857D01*
X111129246Y-64403643D01*
X111023688Y-64404601D01*
X110928447Y-64405729D01*
X110845326Y-64407029D01*
X110776127Y-64408498D01*
X110722652Y-64410136D01*
X110686703Y-64411943D01*
X110675420Y-64412962D01*
X110526970Y-64441147D01*
X110385669Y-64488147D01*
X110252701Y-64553374D01*
X110129248Y-64636242D01*
X110016492Y-64736165D01*
X110009120Y-64743690D01*
X109914046Y-64851983D01*
X109837351Y-64962968D01*
X109778119Y-65078973D01*
X109735430Y-65202330D01*
X109708367Y-65335367D01*
X109696011Y-65480414D01*
X109694980Y-65540742D01*
X109694980Y-65692020D01*
X113738660Y-65692020D01*
X113738660Y-65590019D01*
X113732007Y-65433513D01*
X113711502Y-65290237D01*
X113676331Y-65157836D01*
X113625678Y-65033951D01*
X113558726Y-64916226D01*
X113474660Y-64802303D01*
X113459968Y-64784742D01*
X113371596Y-64695031D01*
X113267668Y-64614006D01*
X113151772Y-64543556D01*
X113027501Y-64485565D01*
X112898445Y-64441922D01*
X112768195Y-64414511D01*
X112750790Y-64412167D01*
X112725246Y-64410291D01*
X112681184Y-64408598D01*
X112620408Y-64407086D01*
X112544719Y-64405756D01*
X112455920Y-64404605D01*
X112355812Y-64403634D01*
X112246198Y-64402842D01*
X112128880Y-64402228D01*
X112005659Y-64401791D01*
X111878340Y-64401531D01*
X111748722Y-64401447D01*
X111618609Y-64401538D01*
D11*
X118546500Y-65429500D02*
X117546500Y-65429500D01*
X117546500Y-63729500D02*
X118546500Y-63729500D01*
D10*
X126650000Y-46404000D02*
X126550000Y-46404000D01*
X126650000Y-43004000D02*
X126650000Y-46404000D01*
X126650000Y-43004000D02*
X126550000Y-43004000D01*
X113950000Y-43004000D02*
X114050000Y-43004000D01*
X113950000Y-43004000D02*
X113950000Y-46404000D01*
X113950000Y-46404000D02*
X114050000Y-46404000D01*
X128838000Y-81599000D02*
X128838000Y-67499000D01*
X128838000Y-67499000D02*
X116738000Y-67499000D01*
X116738000Y-67499000D02*
X116738000Y-81599000D01*
X116738000Y-81599000D02*
X128838000Y-81599000D01*
X123837500Y-65610500D02*
X123837500Y-64310500D01*
X120637500Y-64310500D02*
X120637500Y-65610500D01*
D13*
X131436000Y-50574000D02*
X127136000Y-50574000D01*
X127136000Y-50574000D02*
X127136000Y-43274000D01*
X131436000Y-50574000D02*
X131436000Y-43274000D01*
D11*
X125190000Y-62007500D02*
X124190000Y-62007500D01*
X125190000Y-51657500D02*
X124115000Y-51657500D01*
X114840000Y-51657500D02*
X115915000Y-51657500D01*
X114840000Y-62007500D02*
X115915000Y-62007500D01*
X125190000Y-62007500D02*
X125190000Y-60932500D01*
X114840000Y-62007500D02*
X114840000Y-60932500D01*
X114840000Y-51657500D02*
X114840000Y-52732500D01*
X125190000Y-51657500D02*
X125190000Y-52732500D01*
X124190000Y-62007500D02*
X124190000Y-63032500D01*
X118686817Y-66615583D02*
X118734436Y-66663202D01*
X118877293Y-66710821D01*
X118972531Y-66710821D01*
X119115389Y-66663202D01*
X119210627Y-66567964D01*
X119258246Y-66472726D01*
X119305865Y-66282250D01*
X119305865Y-66139392D01*
X119258246Y-65948916D01*
X119210627Y-65853678D01*
X119115389Y-65758440D01*
X118972531Y-65710821D01*
X118877293Y-65710821D01*
X118734436Y-65758440D01*
X118686817Y-65806059D01*
X117734436Y-66710821D02*
X118305865Y-66710821D01*
X118020151Y-66710821D02*
X118020151Y-65710821D01*
X118115389Y-65853678D01*
X118210627Y-65948916D01*
X118305865Y-65996535D01*
X117353484Y-65806059D02*
X117305865Y-65758440D01*
X117210627Y-65710821D01*
X116972531Y-65710821D01*
X116877293Y-65758440D01*
X116829674Y-65806059D01*
X116782055Y-65901297D01*
X116782055Y-65996535D01*
X116829674Y-66139392D01*
X117401103Y-66710821D01*
X116782055Y-66710821D01*
X113640381Y-45845505D02*
X112640381Y-45845505D01*
X112640381Y-46226458D01*
X112688000Y-46321696D01*
X112735619Y-46369315D01*
X112830857Y-46416934D01*
X112973714Y-46416934D01*
X113068952Y-46369315D01*
X113116571Y-46321696D01*
X113164190Y-46226458D01*
X113164190Y-45845505D01*
X112640381Y-47274077D02*
X112640381Y-47083600D01*
X112688000Y-46988362D01*
X112735619Y-46940743D01*
X112878476Y-46845505D01*
X113068952Y-46797886D01*
X113449905Y-46797886D01*
X113545143Y-46845505D01*
X113592762Y-46893124D01*
X113640381Y-46988362D01*
X113640381Y-47178839D01*
X113592762Y-47274077D01*
X113545143Y-47321696D01*
X113449905Y-47369315D01*
X113211810Y-47369315D01*
X113116571Y-47321696D01*
X113068952Y-47274077D01*
X113021333Y-47178839D01*
X113021333Y-46988362D01*
X113068952Y-46893124D01*
X113116571Y-46845505D01*
X113211810Y-46797886D01*
X113614981Y-43059315D02*
X113614981Y-42487886D01*
X113614981Y-42773600D02*
X112614981Y-42773600D01*
X112757838Y-42678362D01*
X112853076Y-42583124D01*
X112900695Y-42487886D01*
X130112093Y-67250061D02*
X130112093Y-67964347D01*
X130159713Y-68107204D01*
X130254951Y-68202442D01*
X130397808Y-68250061D01*
X130493046Y-68250061D01*
X129112093Y-68250061D02*
X129683522Y-68250061D01*
X129397808Y-68250061D02*
X129397808Y-67250061D01*
X129493046Y-67392918D01*
X129588284Y-67488156D01*
X129683522Y-67535775D01*
X123042585Y-66213741D02*
X123042585Y-67023265D01*
X122994966Y-67118503D01*
X122947347Y-67166122D01*
X122852109Y-67213741D01*
X122661632Y-67213741D01*
X122566394Y-67166122D01*
X122518775Y-67118503D01*
X122471156Y-67023265D01*
X122471156Y-66213741D01*
X121947347Y-67213741D02*
X121756871Y-67213741D01*
X121661632Y-67166122D01*
X121614013Y-67118503D01*
X121518775Y-66975646D01*
X121471156Y-66785170D01*
X121471156Y-66404217D01*
X121518775Y-66308979D01*
X121566394Y-66261360D01*
X121661632Y-66213741D01*
X121852109Y-66213741D01*
X121947347Y-66261360D01*
X121994966Y-66308979D01*
X122042585Y-66404217D01*
X122042585Y-66642312D01*
X121994966Y-66737550D01*
X121947347Y-66785170D01*
X121852109Y-66832789D01*
X121661632Y-66832789D01*
X121566394Y-66785170D01*
X121518775Y-66737550D01*
X121471156Y-66642312D01*
X132838381Y-45235905D02*
X131838381Y-45235905D01*
X131838381Y-45474000D01*
X131886000Y-45616858D01*
X131981238Y-45712096D01*
X132076476Y-45759715D01*
X132266952Y-45807334D01*
X132409810Y-45807334D01*
X132600286Y-45759715D01*
X132695524Y-45712096D01*
X132790762Y-45616858D01*
X132838381Y-45474000D01*
X132838381Y-45235905D01*
X131838381Y-46712096D02*
X131838381Y-46235905D01*
X132314571Y-46188286D01*
X132266952Y-46235905D01*
X132219333Y-46331143D01*
X132219333Y-46569239D01*
X132266952Y-46664477D01*
X132314571Y-46712096D01*
X132409810Y-46759715D01*
X132647905Y-46759715D01*
X132743143Y-46712096D01*
X132790762Y-46664477D01*
X132838381Y-46569239D01*
X132838381Y-46331143D01*
X132790762Y-46235905D01*
X132743143Y-46188286D01*
X113244381Y-50749295D02*
X114053905Y-50749295D01*
X114149143Y-50796914D01*
X114196762Y-50844533D01*
X114244381Y-50939771D01*
X114244381Y-51130248D01*
X114196762Y-51225486D01*
X114149143Y-51273105D01*
X114053905Y-51320724D01*
X113244381Y-51320724D01*
X113244381Y-51701676D02*
X113244381Y-52320724D01*
X113625333Y-51987390D01*
X113625333Y-52130248D01*
X113672952Y-52225486D01*
X113720571Y-52273105D01*
X113815810Y-52320724D01*
X114053905Y-52320724D01*
X114149143Y-52273105D01*
X114196762Y-52225486D01*
X114244381Y-52130248D01*
X114244381Y-51844533D01*
X114196762Y-51749295D01*
X114149143Y-51701676D01*
%LPC*%
D14*
X116796500Y-64579500D03*
X119296500Y-64579500D03*
D15*
X114585000Y-42829000D03*
X114585000Y-46579000D03*
X115855000Y-42829000D03*
X115855000Y-46579000D03*
X117125000Y-42829000D03*
X117125000Y-46579000D03*
X118395000Y-42829000D03*
X118395000Y-46579000D03*
X119665000Y-42829000D03*
X119665000Y-46579000D03*
X120935000Y-42829000D03*
X120935000Y-46579000D03*
X122205000Y-42829000D03*
X122205000Y-46579000D03*
X123475000Y-42829000D03*
X123475000Y-46579000D03*
X124745000Y-42829000D03*
X124745000Y-46579000D03*
X126015000Y-42829000D03*
X126015000Y-46579000D03*
D16*
X129838000Y-79299000D03*
X129838000Y-78199000D03*
X129838000Y-77099000D03*
X129838000Y-75999000D03*
X129838000Y-74899000D03*
X129838000Y-73799000D03*
X129838000Y-72699000D03*
X129838000Y-71599000D03*
D17*
X129838000Y-70349000D03*
X129838000Y-69199000D03*
D18*
X126238000Y-79549000D03*
X126238000Y-69549000D03*
D19*
X121438000Y-81249000D03*
X121438000Y-67849000D03*
D20*
X123187500Y-64960500D03*
X122237500Y-64960500D03*
X121287500Y-64960500D03*
D21*
X129286000Y-48674000D03*
X129286000Y-43274000D03*
D22*
X123765000Y-62532500D03*
X123265000Y-62532500D03*
X122765000Y-62532500D03*
X122265000Y-62532500D03*
X121765000Y-62532500D03*
X121265000Y-62532500D03*
X120765000Y-62532500D03*
X120265000Y-62532500D03*
X119765000Y-62532500D03*
X119265000Y-62532500D03*
X118765000Y-62532500D03*
X118265000Y-62532500D03*
X117765000Y-62532500D03*
X117265000Y-62532500D03*
X116765000Y-62532500D03*
X116265000Y-62532500D03*
D23*
X114315000Y-60582500D03*
X114315000Y-60082500D03*
X114315000Y-59582500D03*
X114315000Y-59082500D03*
X114315000Y-58582500D03*
X114315000Y-58082500D03*
X114315000Y-57582500D03*
X114315000Y-57082500D03*
X114315000Y-56582500D03*
X114315000Y-56082500D03*
X114315000Y-55582500D03*
X114315000Y-55082500D03*
X114315000Y-54582500D03*
X114315000Y-54082500D03*
X114315000Y-53582500D03*
X114315000Y-53082500D03*
D22*
X116265000Y-51132500D03*
X116765000Y-51132500D03*
X117265000Y-51132500D03*
X117765000Y-51132500D03*
X118265000Y-51132500D03*
X118765000Y-51132500D03*
X119265000Y-51132500D03*
X119765000Y-51132500D03*
X120265000Y-51132500D03*
X120765000Y-51132500D03*
X121265000Y-51132500D03*
X121765000Y-51132500D03*
X122265000Y-51132500D03*
X122765000Y-51132500D03*
X123265000Y-51132500D03*
X123765000Y-51132500D03*
D23*
X125715000Y-53082500D03*
X125715000Y-53582500D03*
X125715000Y-54082500D03*
X125715000Y-54582500D03*
X125715000Y-55082500D03*
X125715000Y-55582500D03*
X125715000Y-56082500D03*
X125715000Y-56582500D03*
X125715000Y-57082500D03*
X125715000Y-57582500D03*
X125715000Y-58082500D03*
X125715000Y-58582500D03*
X125715000Y-59082500D03*
X125715000Y-59582500D03*
X125715000Y-60082500D03*
X125715000Y-60582500D03*
M02*
