G04 #@! TF.FileFunction,Copper,L2,Bot,Signal*
%FSLAX46Y46*%
G04 Gerber Fmt 4.6, Leading zero omitted, Abs format (unit mm)*
G04 Created by KiCad (PCBNEW 4.0.4-stable) date 01/25/17 01:33:10*
%MOMM*%
%LPD*%
G01*
G04 APERTURE LIST*
%ADD10C,0.100000*%
%ADD11R,1.500000X1.250000*%
%ADD12R,0.740000X2.550000*%
%ADD13R,2.000000X0.700000*%
%ADD14R,2.000000X0.850000*%
%ADD15R,2.000000X1.200000*%
%ADD16R,0.300000X1.600000*%
%ADD17R,2.300000X3.500000*%
%ADD18R,0.250000X1.000000*%
%ADD19R,1.000000X0.250000*%
%ADD20C,0.600000*%
%ADD21C,0.450000*%
%ADD22C,0.150000*%
%ADD23C,0.250000*%
%ADD24C,0.500000*%
%ADD25C,0.200000*%
G04 APERTURE END LIST*
D10*
D11*
X116796500Y-64579500D03*
X119296500Y-64579500D03*
D12*
X114585000Y-42829000D03*
X114585000Y-46579000D03*
X115855000Y-42829000D03*
X115855000Y-46579000D03*
X117125000Y-42829000D03*
X117125000Y-46579000D03*
X118395000Y-42829000D03*
X118395000Y-46579000D03*
X119665000Y-42829000D03*
X119665000Y-46579000D03*
X120935000Y-42829000D03*
X120935000Y-46579000D03*
X122205000Y-42829000D03*
X122205000Y-46579000D03*
X123475000Y-42829000D03*
X123475000Y-46579000D03*
X124745000Y-42829000D03*
X124745000Y-46579000D03*
X126015000Y-42829000D03*
X126015000Y-46579000D03*
D13*
X129838000Y-79299000D03*
X129838000Y-78199000D03*
X129838000Y-77099000D03*
X129838000Y-75999000D03*
X129838000Y-74899000D03*
X129838000Y-73799000D03*
X129838000Y-72699000D03*
X129838000Y-71599000D03*
D14*
X129838000Y-70349000D03*
X129838000Y-69199000D03*
D15*
X121438000Y-81249000D03*
X121438000Y-67849000D03*
D16*
X123187500Y-64960500D03*
X122237500Y-64960500D03*
X121287500Y-64960500D03*
D17*
X129286000Y-48674000D03*
X129286000Y-43274000D03*
D18*
X123765000Y-62532500D03*
X123265000Y-62532500D03*
X122765000Y-62532500D03*
X122265000Y-62532500D03*
X121765000Y-62532500D03*
X121265000Y-62532500D03*
X120765000Y-62532500D03*
X120265000Y-62532500D03*
X119765000Y-62532500D03*
X119265000Y-62532500D03*
X118765000Y-62532500D03*
X118265000Y-62532500D03*
X117765000Y-62532500D03*
X117265000Y-62532500D03*
X116765000Y-62532500D03*
X116265000Y-62532500D03*
D19*
X114315000Y-60582500D03*
X114315000Y-60082500D03*
X114315000Y-59582500D03*
X114315000Y-59082500D03*
X114315000Y-58582500D03*
X114315000Y-58082500D03*
X114315000Y-57582500D03*
X114315000Y-57082500D03*
X114315000Y-56582500D03*
X114315000Y-56082500D03*
X114315000Y-55582500D03*
X114315000Y-55082500D03*
X114315000Y-54582500D03*
X114315000Y-54082500D03*
X114315000Y-53582500D03*
X114315000Y-53082500D03*
D18*
X116265000Y-51132500D03*
X116765000Y-51132500D03*
X117265000Y-51132500D03*
X117765000Y-51132500D03*
X118265000Y-51132500D03*
X118765000Y-51132500D03*
X119265000Y-51132500D03*
X119765000Y-51132500D03*
X120265000Y-51132500D03*
X120765000Y-51132500D03*
X121265000Y-51132500D03*
X121765000Y-51132500D03*
X122265000Y-51132500D03*
X122765000Y-51132500D03*
X123265000Y-51132500D03*
X123765000Y-51132500D03*
D19*
X125715000Y-53082500D03*
X125715000Y-53582500D03*
X125715000Y-54082500D03*
X125715000Y-54582500D03*
X125715000Y-55082500D03*
X125715000Y-55582500D03*
X125715000Y-56082500D03*
X125715000Y-56582500D03*
X125715000Y-57082500D03*
X125715000Y-57582500D03*
X125715000Y-58082500D03*
X125715000Y-58582500D03*
X125715000Y-59082500D03*
X125715000Y-59582500D03*
X125715000Y-60082500D03*
X125715000Y-60582500D03*
D20*
X124881586Y-58584892D03*
X123888500Y-64579500D03*
X123190000Y-68707000D03*
X118872000Y-71374000D03*
X111079280Y-63708280D03*
X122428000Y-78867000D03*
X122809000Y-74930000D03*
X118872000Y-72771000D03*
X113919000Y-71247000D03*
X113538000Y-75946000D03*
X120523000Y-52387500D03*
X117856000Y-55054500D03*
X126746000Y-45212000D03*
X127127000Y-42672000D03*
X124460000Y-54229000D03*
X127635000Y-51435000D03*
X130175000Y-51435000D03*
X124109480Y-56261000D03*
X109601000Y-77724000D03*
X117475000Y-67691000D03*
X110998000Y-81280000D03*
X109347000Y-74676000D03*
X127000000Y-60579000D03*
X117729000Y-61468000D03*
X113157000Y-59563000D03*
X128333500Y-74485500D03*
X115316000Y-53086000D03*
X129286000Y-46101000D03*
X127571500Y-49022000D03*
X114554000Y-41021000D03*
X108521500Y-46101000D03*
X113728500Y-46863000D03*
X114554000Y-48514000D03*
X123952000Y-52451000D03*
X123957080Y-49717960D03*
X126746000Y-50736500D03*
X112776000Y-74930000D03*
X115824000Y-40767000D03*
X113030000Y-50165000D03*
X117856000Y-40386000D03*
X118872000Y-49276000D03*
X118237000Y-44704000D03*
X119761000Y-49276000D03*
X118745000Y-40386000D03*
X118173500Y-55943500D03*
X119189500Y-53975000D03*
X120650000Y-49276000D03*
X119634000Y-40386000D03*
X120269000Y-60833000D03*
X117983000Y-49276000D03*
D21*
X127381000Y-57531000D03*
D20*
X130937000Y-54737000D03*
D21*
X126746000Y-58039000D03*
D20*
X129831913Y-54445087D03*
X119253000Y-59817000D03*
X119771160Y-66598800D03*
X118110000Y-56896000D03*
X115697000Y-62611000D03*
X113030000Y-60579000D03*
X131381500Y-79311500D03*
X131381500Y-78232000D03*
X119156480Y-53091080D03*
X120538240Y-53436520D03*
X131381500Y-73850500D03*
X131381500Y-72707500D03*
X131381500Y-71628000D03*
D22*
X129032000Y-53657500D02*
X129044326Y-53657500D01*
D23*
X114315000Y-60082500D02*
X115073500Y-60082500D01*
X118265000Y-63147000D02*
X119888000Y-64770000D01*
X119888000Y-64770000D02*
X120249000Y-64770000D01*
X115073500Y-60082500D02*
X115316000Y-60325000D01*
X115316000Y-60325000D02*
X115316000Y-60706000D01*
X118265000Y-62532500D02*
X118265000Y-63147000D01*
D22*
X123265000Y-51132500D02*
X123265000Y-51741000D01*
D24*
X126015000Y-45943000D02*
X126746000Y-45212000D01*
D23*
X126015000Y-45943000D02*
X126746000Y-45212000D01*
D22*
X123265000Y-51741000D02*
X121920000Y-53086000D01*
D23*
X126015000Y-46579000D02*
X126015000Y-45943000D01*
D22*
X114315000Y-53582500D02*
X114923500Y-53582500D01*
X114923500Y-53582500D02*
X115443000Y-54102000D01*
D23*
X122364500Y-54229000D02*
X120523000Y-52387500D01*
X124460000Y-54229000D02*
X122364500Y-54229000D01*
D22*
X125715000Y-58582500D02*
X124883978Y-58582500D01*
X124883978Y-58582500D02*
X124881586Y-58584892D01*
D23*
X127762000Y-60071000D02*
X127762000Y-61976000D01*
X127762000Y-61976000D02*
X127635000Y-62103000D01*
D22*
X126353500Y-60082500D02*
X127000000Y-59436000D01*
D23*
X127000000Y-59436000D02*
X127127000Y-59436000D01*
X127127000Y-59436000D02*
X127762000Y-60071000D01*
D22*
X125715000Y-60082500D02*
X126353500Y-60082500D01*
X126970000Y-42829000D02*
X126015000Y-42829000D01*
X127127000Y-42672000D02*
X126970000Y-42829000D01*
D24*
X126746000Y-44196000D02*
X126015000Y-43465000D01*
X126746000Y-45212000D02*
X126746000Y-44196000D01*
X126015000Y-43465000D02*
X126015000Y-42829000D01*
D23*
X111079280Y-63708280D02*
X111125000Y-63754000D01*
X112313720Y-63708280D02*
X111079280Y-63708280D01*
X115316000Y-60706000D02*
X112313720Y-63708280D01*
X114046000Y-62612398D02*
X115570699Y-61087699D01*
X115089500Y-59082500D02*
X114315000Y-59082500D01*
X114808000Y-65024000D02*
X114046000Y-64262000D01*
X117475000Y-67691000D02*
X114808000Y-65024000D01*
X114046000Y-64262000D02*
X114046000Y-62612398D01*
X115570699Y-61087699D02*
X115696301Y-61087699D01*
X115824000Y-59817000D02*
X115089500Y-59082500D01*
X115696301Y-61087699D02*
X115824000Y-60960000D01*
X115824000Y-60960000D02*
X115824000Y-59817000D01*
X108839000Y-74676000D02*
X109347000Y-74676000D01*
X108839000Y-51435000D02*
X108839000Y-74676000D01*
X110998000Y-81280000D02*
X108839000Y-79121000D01*
X108839000Y-74676000D02*
X108839000Y-79121000D01*
X115855000Y-46579000D02*
X115855000Y-48610000D01*
X115855000Y-48610000D02*
X114935000Y-49530000D01*
X110744000Y-49530000D02*
X108839000Y-51435000D01*
X114935000Y-49530000D02*
X110744000Y-49530000D01*
X114315000Y-59582500D02*
X113176500Y-59582500D01*
X113176500Y-59582500D02*
X113157000Y-59563000D01*
X117796500Y-63704500D02*
X116921500Y-64579500D01*
X117765000Y-63611000D02*
X117796500Y-63642500D01*
X117796500Y-63642500D02*
X117796500Y-63704500D01*
X117749000Y-62548500D02*
X117765000Y-62532500D01*
X117765000Y-62532500D02*
X117765000Y-61504000D01*
X117765000Y-61504000D02*
X117729000Y-61468000D01*
X116921500Y-64579500D02*
X116796500Y-64579500D01*
X117765000Y-62532500D02*
X117765000Y-63611000D01*
X129286000Y-48674000D02*
X127919500Y-48674000D01*
X129286000Y-48674000D02*
X129286000Y-46101000D01*
X127919500Y-48674000D02*
X127571500Y-49022000D01*
D22*
X123765000Y-51132500D02*
X123765000Y-52264000D01*
X123765000Y-52264000D02*
X123952000Y-52451000D01*
X126873000Y-60579000D02*
X127000000Y-60579000D01*
X126488500Y-60582500D02*
X126873000Y-60579000D01*
X125715000Y-60582500D02*
X126488500Y-60582500D01*
D23*
X129838000Y-74899000D02*
X128747000Y-74899000D01*
X128747000Y-74899000D02*
X128333500Y-74485500D01*
D24*
X113919000Y-45339000D02*
X113919000Y-44069000D01*
X114585000Y-46005000D02*
X113919000Y-45339000D01*
X114585000Y-46579000D02*
X114585000Y-46005000D01*
X113919000Y-44069000D02*
X114585000Y-43403000D01*
X114585000Y-43403000D02*
X114585000Y-42829000D01*
D23*
X114585000Y-41052000D02*
X114554000Y-41021000D01*
X114585000Y-42829000D02*
X114585000Y-41052000D01*
D24*
X108521500Y-45212000D02*
X108521500Y-46101000D01*
X109664500Y-44069000D02*
X108521500Y-45212000D01*
D23*
X114585000Y-46579000D02*
X114012500Y-46579000D01*
X114012500Y-46579000D02*
X113728500Y-46863000D01*
X114585000Y-46579000D02*
X114585000Y-48483000D01*
X114585000Y-48483000D02*
X114554000Y-48514000D01*
X114315000Y-53082500D02*
X115312500Y-53082500D01*
X115312500Y-53082500D02*
X115316000Y-53086000D01*
D24*
X113919000Y-44069000D02*
X109664500Y-44069000D01*
D22*
X122765000Y-51132500D02*
X122765000Y-50082000D01*
X122765000Y-50082000D02*
X123129040Y-49717960D01*
X123129040Y-49717960D02*
X123957080Y-49717960D01*
X126746000Y-50736500D02*
X126746000Y-52197000D01*
X125860500Y-53082500D02*
X125715000Y-53082500D01*
X126746000Y-52197000D02*
X125860500Y-53082500D01*
X113665000Y-58582500D02*
X113030000Y-57947500D01*
X114315000Y-58582500D02*
X113665000Y-58582500D01*
D23*
X115824000Y-40767000D02*
X115855000Y-40798000D01*
X115855000Y-40798000D02*
X115855000Y-42829000D01*
X112776000Y-74930000D02*
X109474000Y-71628000D01*
X109474000Y-71628000D02*
X109474000Y-51816000D01*
D22*
X113030000Y-50589264D02*
X113030000Y-50165000D01*
D23*
X111125000Y-50165000D02*
X113030000Y-50165000D01*
X109474000Y-51816000D02*
X111125000Y-50165000D01*
D22*
X113030000Y-57947500D02*
X113030000Y-50589264D01*
X113539999Y-57957499D02*
X113539999Y-51954023D01*
X113665000Y-58082500D02*
X113539999Y-57957499D01*
X114315000Y-58082500D02*
X113665000Y-58082500D01*
X113539999Y-51954023D02*
X117125000Y-48369022D01*
X117125000Y-48369022D02*
X117125000Y-48102000D01*
X117125000Y-48102000D02*
X117125000Y-46579000D01*
X117856000Y-40386000D02*
X117125000Y-41244000D01*
X117125000Y-42829000D02*
X117125000Y-41244000D01*
X118872000Y-49276000D02*
X120265000Y-50542000D01*
X120265000Y-50542000D02*
X120265000Y-51132500D01*
X118395000Y-46579000D02*
X118395000Y-44862000D01*
X118395000Y-44862000D02*
X118237000Y-44704000D01*
X120765000Y-51132500D02*
X120777000Y-50292000D01*
X119761000Y-49276000D02*
X120777000Y-50292000D01*
X118364000Y-40767000D02*
X118364000Y-42798000D01*
X118745000Y-40386000D02*
X118364000Y-40767000D01*
X118364000Y-42798000D02*
X118395000Y-42829000D01*
D23*
X114315000Y-57582500D02*
X116534500Y-57582500D01*
X116534500Y-57582500D02*
X118173500Y-55943500D01*
D22*
X117919500Y-53975000D02*
X119189500Y-53975000D01*
X115697000Y-51752500D02*
X117919500Y-53975000D01*
X118999000Y-48133000D02*
X117856000Y-48133000D01*
X117856000Y-48133000D02*
X117221000Y-48768000D01*
X118999000Y-48133000D02*
X119665000Y-47467000D01*
X119665000Y-46579000D02*
X119665000Y-47467000D01*
X115697000Y-50292000D02*
X115697000Y-51752500D01*
X117221000Y-48768000D02*
X115697000Y-50292000D01*
X121265000Y-51132500D02*
X121265000Y-49764000D01*
X120650000Y-49276000D02*
X121265000Y-49764000D01*
X119665000Y-40417000D02*
X119665000Y-42829000D01*
X119634000Y-40386000D02*
X119665000Y-40417000D01*
X120935000Y-46579000D02*
X120935000Y-47721000D01*
X120935000Y-47721000D02*
X120142000Y-48514000D01*
X120142000Y-48514000D02*
X118745000Y-48514000D01*
X118745000Y-48514000D02*
X117983000Y-49276000D01*
D23*
X120269000Y-60833000D02*
X120269000Y-62528500D01*
X120269000Y-62528500D02*
X120265000Y-62532500D01*
D22*
X126365000Y-57531000D02*
X127381000Y-57531000D01*
X125715000Y-57582500D02*
X126313500Y-57582500D01*
X126313500Y-57582500D02*
X126365000Y-57531000D01*
X120935000Y-41924000D02*
X120935000Y-42829000D01*
X121960011Y-40898989D02*
X120935000Y-41924000D01*
X131100011Y-53671977D02*
X131100011Y-41198021D01*
X131100011Y-41198021D02*
X130800979Y-40898989D01*
X130937000Y-53834988D02*
X131100011Y-53671977D01*
X130800979Y-40898989D02*
X121960011Y-40898989D01*
X130937000Y-54737000D02*
X130937000Y-53834988D01*
D23*
X122205000Y-47910000D02*
X123317000Y-49022000D01*
X124714000Y-49403000D02*
X124714000Y-53213000D01*
X124714000Y-53213000D02*
X125083500Y-53582500D01*
X125083500Y-53582500D02*
X125715000Y-53582500D01*
X124333000Y-49022000D02*
X124714000Y-49403000D01*
X123317000Y-49022000D02*
X124333000Y-49022000D01*
X122205000Y-46579000D02*
X122205000Y-47910000D01*
D22*
X125715000Y-58082500D02*
X126702500Y-58082500D01*
X126746000Y-58039000D02*
X126702500Y-58082500D01*
X130750001Y-41342999D02*
X130656001Y-41248999D01*
X122205000Y-41924000D02*
X122205000Y-42829000D01*
X130750001Y-53526999D02*
X130750001Y-41342999D01*
X130656001Y-41248999D02*
X122880001Y-41248999D01*
X122880001Y-41248999D02*
X122205000Y-41924000D01*
X129831913Y-54445087D02*
X130750001Y-53526999D01*
D23*
X119761000Y-61824500D02*
X119761000Y-62528500D01*
X119253000Y-61316500D02*
X119761000Y-61824500D01*
X119253000Y-59817000D02*
X119253000Y-61316500D01*
X119761000Y-62528500D02*
X119765000Y-62532500D01*
D22*
X119771160Y-66598800D02*
X120195424Y-66598800D01*
X120765000Y-66029224D02*
X120765000Y-63182500D01*
X120195424Y-66598800D02*
X120765000Y-66029224D01*
X120811320Y-62578820D02*
X120765000Y-62532500D01*
X120765000Y-63182500D02*
X120765000Y-62532500D01*
X123187500Y-64010500D02*
X122692999Y-64010500D01*
X121765000Y-63082501D02*
X121765000Y-62532500D01*
X123187500Y-64960500D02*
X123187500Y-64010500D01*
X122692999Y-64010500D02*
X121765000Y-63082501D01*
X121265000Y-62532500D02*
X121265000Y-64938000D01*
X121265000Y-64938000D02*
X121287500Y-64960500D01*
X116765000Y-61797000D02*
X116765000Y-62532500D01*
X117094000Y-61468000D02*
X116765000Y-61797000D01*
X116713000Y-62480500D02*
X116765000Y-62532500D01*
X116713000Y-59182000D02*
X117094000Y-59563000D01*
X117094000Y-59563000D02*
X117094000Y-61468000D01*
X116713000Y-59182000D02*
X116713000Y-58293000D01*
X116713000Y-58293000D02*
X118110000Y-56896000D01*
D23*
X115775500Y-62532500D02*
X116265000Y-62532500D01*
X115697000Y-62611000D02*
X115775500Y-62532500D01*
X113033500Y-60582500D02*
X114315000Y-60582500D01*
X113030000Y-60579000D02*
X113033500Y-60582500D01*
X123989981Y-66570699D02*
X125591980Y-64968700D01*
X128588000Y-79299000D02*
X123989980Y-74700980D01*
X129850500Y-79311500D02*
X129838000Y-79299000D01*
X129838000Y-79299000D02*
X128588000Y-79299000D01*
X131381500Y-79311500D02*
X129850500Y-79311500D01*
X123989980Y-74700980D02*
X123989981Y-66570699D01*
X125591980Y-64968700D02*
X125591980Y-62942302D01*
X119814999Y-51932499D02*
X119765000Y-51882500D01*
X119765000Y-51882500D02*
X119765000Y-51132500D01*
X119814999Y-57165321D02*
X119814999Y-51932499D01*
X125591980Y-62942302D02*
X119814999Y-57165321D01*
X120265009Y-53597991D02*
X120376769Y-53597991D01*
X119156480Y-53091080D02*
X119156480Y-52959000D01*
X120376769Y-53597991D02*
X120538240Y-53436520D01*
X120265009Y-56955509D02*
X120265009Y-53597991D01*
X120289044Y-57002956D02*
X120289044Y-56979544D01*
X120289044Y-56979544D02*
X120265009Y-56955509D01*
X128588000Y-78199000D02*
X124439989Y-74050989D01*
X124439990Y-66757100D02*
X126041990Y-65155100D01*
X129838000Y-78199000D02*
X128588000Y-78199000D01*
X131381500Y-78232000D02*
X129871000Y-78232000D01*
X129871000Y-78232000D02*
X129838000Y-78199000D01*
X124439989Y-74050989D02*
X124439990Y-66757100D01*
X126041990Y-65155100D02*
X126041990Y-62755902D01*
X119156480Y-52959000D02*
X119265000Y-52850480D01*
X119265000Y-52850480D02*
X119265000Y-51882500D01*
X119265000Y-51882500D02*
X119265000Y-51132500D01*
X126041990Y-62755902D02*
X120289044Y-57002956D01*
X124965000Y-55082500D02*
X125715000Y-55082500D01*
X124889999Y-55157501D02*
X124965000Y-55082500D01*
X124889999Y-56656501D02*
X124889999Y-55157501D01*
X124256585Y-57289915D02*
X124889999Y-56656501D01*
X124889999Y-59518307D02*
X124256585Y-58884893D01*
X124256585Y-58884893D02*
X124256585Y-57289915D01*
X124889999Y-60967501D02*
X124889999Y-59518307D01*
X125702502Y-61531500D02*
X125453998Y-61531500D01*
X125453998Y-61531500D02*
X124889999Y-60967501D01*
X128588000Y-75999000D02*
X124889999Y-72300999D01*
X124889999Y-72300999D02*
X124889999Y-66943501D01*
X124889999Y-66943501D02*
X126492000Y-65341500D01*
X129838000Y-75999000D02*
X128588000Y-75999000D01*
X126492000Y-65341500D02*
X126492000Y-62320998D01*
X126492000Y-62320998D02*
X125702502Y-61531500D01*
X127588680Y-55582500D02*
X125715000Y-55582500D01*
X129051590Y-73799000D02*
X127612980Y-72360388D01*
X129889500Y-73850500D02*
X129838000Y-73799000D01*
X129838000Y-73799000D02*
X129051590Y-73799000D01*
X131381500Y-73850500D02*
X129889500Y-73850500D01*
X127612980Y-72360388D02*
X127612981Y-67710199D01*
X127612981Y-67710199D02*
X130862480Y-64460700D01*
X130862480Y-58856300D02*
X127588680Y-55582500D01*
X130862480Y-64460700D02*
X130862480Y-58856300D01*
X127225090Y-54582500D02*
X125715000Y-54582500D01*
X129838000Y-72699000D02*
X128588000Y-72699000D01*
X128588000Y-72699000D02*
X128062989Y-72173989D01*
X131381500Y-72707500D02*
X129846500Y-72707500D01*
X129846500Y-72707500D02*
X129838000Y-72699000D01*
X128062989Y-72173989D02*
X128062990Y-67896600D01*
X131312490Y-64647100D02*
X131312490Y-58669900D01*
X128062990Y-67896600D02*
X131312490Y-64647100D01*
X131312490Y-58669900D02*
X127225090Y-54582500D01*
X127361500Y-54082500D02*
X125715000Y-54082500D01*
X129838000Y-71599000D02*
X129077998Y-71599000D01*
X131381500Y-71628000D02*
X129867000Y-71628000D01*
X129867000Y-71628000D02*
X129838000Y-71599000D01*
X129077998Y-71599000D02*
X128512999Y-71034001D01*
X128512999Y-71034001D02*
X128512999Y-68083001D01*
X131762500Y-64833500D02*
X131762500Y-58483500D01*
X128512999Y-68083001D02*
X131762500Y-64833500D01*
X131762500Y-58483500D02*
X127361500Y-54082500D01*
D25*
G36*
X132402500Y-82228500D02*
X108152500Y-82228500D01*
X108152500Y-46580626D01*
X108181183Y-46609359D01*
X108401629Y-46700896D01*
X108640324Y-46701104D01*
X108860929Y-46609952D01*
X109029859Y-46441317D01*
X109121396Y-46220871D01*
X109121604Y-45982176D01*
X109071500Y-45860915D01*
X109071500Y-45693000D01*
X113506766Y-45693000D01*
X113530091Y-45727909D01*
X113909123Y-46106941D01*
X113909123Y-46174563D01*
X113849859Y-46186351D01*
X113735138Y-46263005D01*
X113609676Y-46262896D01*
X113389071Y-46354048D01*
X113220141Y-46522683D01*
X113128604Y-46743129D01*
X113128396Y-46981824D01*
X113219548Y-47202429D01*
X113388183Y-47371359D01*
X113608629Y-47462896D01*
X113847324Y-47463104D01*
X113909123Y-47437569D01*
X113909123Y-47854000D01*
X113930042Y-47965173D01*
X113995745Y-48067279D01*
X114088645Y-48130754D01*
X114045641Y-48173683D01*
X113954104Y-48394129D01*
X113953896Y-48632824D01*
X114045048Y-48853429D01*
X114213683Y-49022359D01*
X114412705Y-49105000D01*
X110744000Y-49105000D01*
X110581359Y-49137351D01*
X110443480Y-49229480D01*
X108538480Y-51134480D01*
X108446351Y-51272359D01*
X108446351Y-51272360D01*
X108414000Y-51435000D01*
X108414000Y-79121000D01*
X108440984Y-79256657D01*
X108446351Y-79283641D01*
X108538480Y-79421520D01*
X110397999Y-81281039D01*
X110397896Y-81398824D01*
X110489048Y-81619429D01*
X110657683Y-81788359D01*
X110878129Y-81879896D01*
X111116824Y-81880104D01*
X111337429Y-81788952D01*
X111506359Y-81620317D01*
X111565454Y-81478000D01*
X120138000Y-81478000D01*
X120138000Y-81908674D01*
X120183672Y-82018937D01*
X120268064Y-82103328D01*
X120378327Y-82149000D01*
X121209000Y-82149000D01*
X121284000Y-82074000D01*
X121284000Y-81403000D01*
X121592000Y-81403000D01*
X121592000Y-82074000D01*
X121667000Y-82149000D01*
X122497673Y-82149000D01*
X122607936Y-82103328D01*
X122692328Y-82018937D01*
X122738000Y-81908674D01*
X122738000Y-81478000D01*
X122663000Y-81403000D01*
X121592000Y-81403000D01*
X121284000Y-81403000D01*
X120213000Y-81403000D01*
X120138000Y-81478000D01*
X111565454Y-81478000D01*
X111597896Y-81399871D01*
X111598104Y-81161176D01*
X111506952Y-80940571D01*
X111338317Y-80771641D01*
X111117871Y-80680104D01*
X110999040Y-80680000D01*
X110908366Y-80589326D01*
X120138000Y-80589326D01*
X120138000Y-81020000D01*
X120213000Y-81095000D01*
X121284000Y-81095000D01*
X121284000Y-80424000D01*
X121592000Y-80424000D01*
X121592000Y-81095000D01*
X122663000Y-81095000D01*
X122738000Y-81020000D01*
X122738000Y-80589326D01*
X122692328Y-80479063D01*
X122607936Y-80394672D01*
X122497673Y-80349000D01*
X121667000Y-80349000D01*
X121592000Y-80424000D01*
X121284000Y-80424000D01*
X121209000Y-80349000D01*
X120378327Y-80349000D01*
X120268064Y-80394672D01*
X120183672Y-80479063D01*
X120138000Y-80589326D01*
X110908366Y-80589326D01*
X110075982Y-79756942D01*
X125187818Y-79756942D01*
X125347334Y-80143000D01*
X125642446Y-80438628D01*
X126028226Y-80598818D01*
X126445942Y-80599182D01*
X126832000Y-80439666D01*
X127127628Y-80144554D01*
X127287818Y-79758774D01*
X127288182Y-79341058D01*
X127128666Y-78955000D01*
X126833554Y-78659372D01*
X126447774Y-78499182D01*
X126030058Y-78498818D01*
X125644000Y-78658334D01*
X125348372Y-78953446D01*
X125188182Y-79339226D01*
X125187818Y-79756942D01*
X110075982Y-79756942D01*
X109264000Y-78944960D01*
X109264000Y-75275928D01*
X109465824Y-75276104D01*
X109686429Y-75184952D01*
X109855359Y-75016317D01*
X109946896Y-74795871D01*
X109947104Y-74557176D01*
X109855952Y-74336571D01*
X109687317Y-74167641D01*
X109466871Y-74076104D01*
X109264000Y-74075927D01*
X109264000Y-72019040D01*
X112175999Y-74931040D01*
X112175896Y-75048824D01*
X112267048Y-75269429D01*
X112435683Y-75438359D01*
X112656129Y-75529896D01*
X112894824Y-75530104D01*
X113115429Y-75438952D01*
X113284359Y-75270317D01*
X113375896Y-75049871D01*
X113376104Y-74811176D01*
X113284952Y-74590571D01*
X113116317Y-74421641D01*
X112895871Y-74330104D01*
X112777041Y-74330000D01*
X109899000Y-71451960D01*
X109899000Y-51992040D01*
X111301041Y-50590000D01*
X112606470Y-50590000D01*
X112655000Y-50638615D01*
X112655000Y-57947500D01*
X112683545Y-58091007D01*
X112764835Y-58212665D01*
X113399835Y-58847665D01*
X113515689Y-58925076D01*
X113509123Y-58957500D01*
X113509123Y-59066468D01*
X113497317Y-59054641D01*
X113276871Y-58963104D01*
X113038176Y-58962896D01*
X112817571Y-59054048D01*
X112648641Y-59222683D01*
X112557104Y-59443129D01*
X112556896Y-59681824D01*
X112648048Y-59902429D01*
X112778929Y-60033539D01*
X112690571Y-60070048D01*
X112521641Y-60238683D01*
X112430104Y-60459129D01*
X112429896Y-60697824D01*
X112521048Y-60918429D01*
X112689683Y-61087359D01*
X112910129Y-61178896D01*
X113148824Y-61179104D01*
X113369429Y-61087952D01*
X113450022Y-61007500D01*
X113785979Y-61007500D01*
X113815000Y-61013377D01*
X114815000Y-61013377D01*
X114926173Y-60992458D01*
X115028279Y-60926755D01*
X115096778Y-60826503D01*
X115120877Y-60707500D01*
X115120877Y-60457500D01*
X115099958Y-60346327D01*
X115089163Y-60329550D01*
X115115000Y-60267173D01*
X115115000Y-60220000D01*
X115040000Y-60145000D01*
X114469000Y-60145000D01*
X114469000Y-60151623D01*
X114161000Y-60151623D01*
X114161000Y-60145000D01*
X113590000Y-60145000D01*
X113577500Y-60157500D01*
X113457024Y-60157500D01*
X113408071Y-60108461D01*
X113496429Y-60071952D01*
X113560994Y-60007500D01*
X113577500Y-60007500D01*
X113590000Y-60020000D01*
X114161000Y-60020000D01*
X114161000Y-60013377D01*
X114469000Y-60013377D01*
X114469000Y-60020000D01*
X115040000Y-60020000D01*
X115115000Y-59945000D01*
X115115000Y-59897827D01*
X115089730Y-59836819D01*
X115096778Y-59826503D01*
X115119628Y-59713668D01*
X115399000Y-59993040D01*
X115399000Y-60701102D01*
X115270179Y-60787179D01*
X113745480Y-62311878D01*
X113653351Y-62449757D01*
X113652232Y-62455382D01*
X113621000Y-62612398D01*
X113621000Y-64262000D01*
X113624378Y-64278980D01*
X113653351Y-64424641D01*
X113745480Y-64562520D01*
X114507480Y-65324521D01*
X114507483Y-65324523D01*
X116874999Y-67692040D01*
X116874896Y-67809824D01*
X116966048Y-68030429D01*
X117134683Y-68199359D01*
X117355129Y-68290896D01*
X117593824Y-68291104D01*
X117814429Y-68199952D01*
X117936594Y-68078000D01*
X120138000Y-68078000D01*
X120138000Y-68508674D01*
X120183672Y-68618937D01*
X120268064Y-68703328D01*
X120378327Y-68749000D01*
X121209000Y-68749000D01*
X121284000Y-68674000D01*
X121284000Y-68003000D01*
X121592000Y-68003000D01*
X121592000Y-68674000D01*
X121667000Y-68749000D01*
X122497673Y-68749000D01*
X122607936Y-68703328D01*
X122692328Y-68618937D01*
X122738000Y-68508674D01*
X122738000Y-68078000D01*
X122663000Y-68003000D01*
X121592000Y-68003000D01*
X121284000Y-68003000D01*
X120213000Y-68003000D01*
X120138000Y-68078000D01*
X117936594Y-68078000D01*
X117983359Y-68031317D01*
X118074896Y-67810871D01*
X118075104Y-67572176D01*
X117983952Y-67351571D01*
X117815317Y-67182641D01*
X117594871Y-67091104D01*
X117476041Y-67091000D01*
X115108523Y-64723483D01*
X115108521Y-64723480D01*
X114471000Y-64085960D01*
X114471000Y-62788438D01*
X115759263Y-61500175D01*
X115831958Y-61485715D01*
X115858942Y-61480348D01*
X115996821Y-61388219D01*
X116124521Y-61260520D01*
X116216649Y-61122641D01*
X116249000Y-60960000D01*
X116249000Y-59817000D01*
X116227219Y-59707500D01*
X116216649Y-59654359D01*
X116124520Y-59516480D01*
X115390020Y-58781980D01*
X115252141Y-58689851D01*
X115225157Y-58684484D01*
X115120877Y-58663741D01*
X115120877Y-58457500D01*
X115099958Y-58346327D01*
X115091846Y-58333721D01*
X115096778Y-58326503D01*
X115120877Y-58207500D01*
X115120877Y-58007500D01*
X116468170Y-58007500D01*
X116447835Y-58027835D01*
X116366545Y-58149493D01*
X116351991Y-58222664D01*
X116338000Y-58293000D01*
X116338000Y-59182000D01*
X116366545Y-59325507D01*
X116447835Y-59447165D01*
X116719000Y-59718330D01*
X116719000Y-61312670D01*
X116499835Y-61531835D01*
X116418545Y-61653493D01*
X116403457Y-61729348D01*
X116390000Y-61726623D01*
X116140000Y-61726623D01*
X116028827Y-61747542D01*
X115926721Y-61813245D01*
X115858222Y-61913497D01*
X115836782Y-62019372D01*
X115816871Y-62011104D01*
X115578176Y-62010896D01*
X115357571Y-62102048D01*
X115188641Y-62270683D01*
X115097104Y-62491129D01*
X115096896Y-62729824D01*
X115188048Y-62950429D01*
X115356683Y-63119359D01*
X115577129Y-63210896D01*
X115815824Y-63211104D01*
X115881082Y-63184140D01*
X115920745Y-63245779D01*
X116020997Y-63314278D01*
X116140000Y-63338377D01*
X116390000Y-63338377D01*
X116501173Y-63317458D01*
X116513779Y-63309346D01*
X116520997Y-63314278D01*
X116640000Y-63338377D01*
X116890000Y-63338377D01*
X117001173Y-63317458D01*
X117013779Y-63309346D01*
X117020997Y-63314278D01*
X117140000Y-63338377D01*
X117340000Y-63338377D01*
X117340000Y-63559960D01*
X117251337Y-63648623D01*
X116046500Y-63648623D01*
X115935327Y-63669542D01*
X115833221Y-63735245D01*
X115764722Y-63835497D01*
X115740623Y-63954500D01*
X115740623Y-65204500D01*
X115761542Y-65315673D01*
X115827245Y-65417779D01*
X115927497Y-65486278D01*
X116046500Y-65510377D01*
X117546500Y-65510377D01*
X117657673Y-65489458D01*
X117759779Y-65423755D01*
X117828278Y-65323503D01*
X117852377Y-65204500D01*
X117852377Y-64808500D01*
X118246500Y-64808500D01*
X118246500Y-65264173D01*
X118292172Y-65374436D01*
X118376563Y-65458828D01*
X118486826Y-65504500D01*
X119067500Y-65504500D01*
X119142500Y-65429500D01*
X119142500Y-64733500D01*
X119450500Y-64733500D01*
X119450500Y-65429500D01*
X119525500Y-65504500D01*
X120106174Y-65504500D01*
X120216437Y-65458828D01*
X120300828Y-65374436D01*
X120346500Y-65264173D01*
X120346500Y-64808500D01*
X120271500Y-64733500D01*
X119450500Y-64733500D01*
X119142500Y-64733500D01*
X118321500Y-64733500D01*
X118246500Y-64808500D01*
X117852377Y-64808500D01*
X117852377Y-64249663D01*
X118097020Y-64005020D01*
X118170649Y-63894827D01*
X118246500Y-63894827D01*
X118246500Y-64350500D01*
X118321500Y-64425500D01*
X119142500Y-64425500D01*
X119142500Y-63729500D01*
X119450500Y-63729500D01*
X119450500Y-64425500D01*
X120271500Y-64425500D01*
X120346500Y-64350500D01*
X120346500Y-63894827D01*
X120300828Y-63784564D01*
X120216437Y-63700172D01*
X120106174Y-63654500D01*
X119525500Y-63654500D01*
X119450500Y-63729500D01*
X119142500Y-63729500D01*
X119067500Y-63654500D01*
X118486826Y-63654500D01*
X118376563Y-63700172D01*
X118292172Y-63784564D01*
X118246500Y-63894827D01*
X118170649Y-63894827D01*
X118189149Y-63867141D01*
X118221500Y-63704500D01*
X118221500Y-63642500D01*
X118190000Y-63484138D01*
X118190000Y-63270000D01*
X118202500Y-63257500D01*
X118202500Y-62686500D01*
X118195877Y-62686500D01*
X118195877Y-62378500D01*
X118202500Y-62378500D01*
X118202500Y-62358500D01*
X118327500Y-62358500D01*
X118327500Y-62378500D01*
X118334123Y-62378500D01*
X118334123Y-62686500D01*
X118327500Y-62686500D01*
X118327500Y-63257500D01*
X118402500Y-63332500D01*
X118449673Y-63332500D01*
X118510681Y-63307230D01*
X118520997Y-63314278D01*
X118640000Y-63338377D01*
X118890000Y-63338377D01*
X119001173Y-63317458D01*
X119013779Y-63309346D01*
X119020997Y-63314278D01*
X119140000Y-63338377D01*
X119390000Y-63338377D01*
X119501173Y-63317458D01*
X119513779Y-63309346D01*
X119520997Y-63314278D01*
X119640000Y-63338377D01*
X119890000Y-63338377D01*
X120001173Y-63317458D01*
X120013779Y-63309346D01*
X120020997Y-63314278D01*
X120140000Y-63338377D01*
X120390000Y-63338377D01*
X120390000Y-65873894D01*
X120142438Y-66121456D01*
X120111477Y-66090441D01*
X119891031Y-65998904D01*
X119652336Y-65998696D01*
X119431731Y-66089848D01*
X119262801Y-66258483D01*
X119171264Y-66478929D01*
X119171056Y-66717624D01*
X119262208Y-66938229D01*
X119430843Y-67107159D01*
X119651289Y-67198696D01*
X119889984Y-67198904D01*
X119913164Y-67189326D01*
X120138000Y-67189326D01*
X120138000Y-67620000D01*
X120213000Y-67695000D01*
X121284000Y-67695000D01*
X121284000Y-67024000D01*
X121592000Y-67024000D01*
X121592000Y-67695000D01*
X122663000Y-67695000D01*
X122738000Y-67620000D01*
X122738000Y-67189326D01*
X122692328Y-67079063D01*
X122607936Y-66994672D01*
X122497673Y-66949000D01*
X121667000Y-66949000D01*
X121592000Y-67024000D01*
X121284000Y-67024000D01*
X121209000Y-66949000D01*
X120378327Y-66949000D01*
X120268064Y-66994672D01*
X120183672Y-67079063D01*
X120138000Y-67189326D01*
X119913164Y-67189326D01*
X120110589Y-67107752D01*
X120257056Y-66961541D01*
X120338931Y-66945255D01*
X120460589Y-66863965D01*
X121030165Y-66294389D01*
X121111455Y-66172731D01*
X121132799Y-66065425D01*
X121137500Y-66066377D01*
X121437500Y-66066377D01*
X121548673Y-66045458D01*
X121650779Y-65979755D01*
X121719278Y-65879503D01*
X121743377Y-65760500D01*
X121743377Y-65189500D01*
X121787500Y-65189500D01*
X121787500Y-65820173D01*
X121833172Y-65930436D01*
X121917563Y-66014828D01*
X122027826Y-66060500D01*
X122087500Y-66060500D01*
X122162500Y-65985500D01*
X122162500Y-65114500D01*
X122312500Y-65114500D01*
X122312500Y-65985500D01*
X122387500Y-66060500D01*
X122447174Y-66060500D01*
X122557437Y-66014828D01*
X122641828Y-65930436D01*
X122687500Y-65820173D01*
X122687500Y-65189500D01*
X122612500Y-65114500D01*
X122312500Y-65114500D01*
X122162500Y-65114500D01*
X121862500Y-65114500D01*
X121787500Y-65189500D01*
X121743377Y-65189500D01*
X121743377Y-64160500D01*
X121722458Y-64049327D01*
X121656755Y-63947221D01*
X121640000Y-63935773D01*
X121640000Y-63487831D01*
X122017108Y-63864939D01*
X121917563Y-63906172D01*
X121833172Y-63990564D01*
X121787500Y-64100827D01*
X121787500Y-64731500D01*
X121862500Y-64806500D01*
X122162500Y-64806500D01*
X122162500Y-64786500D01*
X122312500Y-64786500D01*
X122312500Y-64806500D01*
X122612500Y-64806500D01*
X122687500Y-64731500D01*
X122687500Y-64384406D01*
X122692999Y-64385500D01*
X122731623Y-64385500D01*
X122731623Y-65760500D01*
X122752542Y-65871673D01*
X122818245Y-65973779D01*
X122918497Y-66042278D01*
X123037500Y-66066377D01*
X123337500Y-66066377D01*
X123448673Y-66045458D01*
X123550779Y-65979755D01*
X123619278Y-65879503D01*
X123643377Y-65760500D01*
X123643377Y-64160500D01*
X123622458Y-64049327D01*
X123556755Y-63947221D01*
X123548837Y-63941811D01*
X123533955Y-63866994D01*
X123452665Y-63745335D01*
X123331006Y-63664045D01*
X123187500Y-63635500D01*
X122848329Y-63635500D01*
X122528659Y-63315830D01*
X122640000Y-63338377D01*
X122890000Y-63338377D01*
X123001173Y-63317458D01*
X123013779Y-63309346D01*
X123020997Y-63314278D01*
X123140000Y-63338377D01*
X123390000Y-63338377D01*
X123501173Y-63317458D01*
X123513779Y-63309346D01*
X123520997Y-63314278D01*
X123640000Y-63338377D01*
X123890000Y-63338377D01*
X124001173Y-63317458D01*
X124103279Y-63251755D01*
X124171778Y-63151503D01*
X124195877Y-63032500D01*
X124195877Y-62147239D01*
X125166980Y-63118342D01*
X125166980Y-64792659D01*
X123689461Y-66270179D01*
X123597332Y-66408058D01*
X123597332Y-66408059D01*
X123564981Y-66570699D01*
X123564980Y-74700980D01*
X123583647Y-74794824D01*
X123597331Y-74863621D01*
X123689460Y-75001500D01*
X128287479Y-79599520D01*
X128379608Y-79661078D01*
X128425360Y-79691649D01*
X128544611Y-79715370D01*
X128553042Y-79760173D01*
X128618745Y-79862279D01*
X128718997Y-79930778D01*
X128838000Y-79954877D01*
X130838000Y-79954877D01*
X130949173Y-79933958D01*
X131051279Y-79868255D01*
X131074807Y-79833821D01*
X131261629Y-79911396D01*
X131500324Y-79911604D01*
X131720929Y-79820452D01*
X131889859Y-79651817D01*
X131981396Y-79431371D01*
X131981604Y-79192676D01*
X131890452Y-78972071D01*
X131721817Y-78803141D01*
X131646305Y-78771786D01*
X131720929Y-78740952D01*
X131889859Y-78572317D01*
X131981396Y-78351871D01*
X131981604Y-78113176D01*
X131890452Y-77892571D01*
X131721817Y-77723641D01*
X131501371Y-77632104D01*
X131262676Y-77631896D01*
X131098456Y-77699750D01*
X131064416Y-77646849D01*
X131092328Y-77618937D01*
X131138000Y-77508674D01*
X131138000Y-77328000D01*
X131063000Y-77253000D01*
X129992000Y-77253000D01*
X129992000Y-77273000D01*
X129684000Y-77273000D01*
X129684000Y-77253000D01*
X128613000Y-77253000D01*
X128538000Y-77328000D01*
X128538000Y-77508674D01*
X128565778Y-77575737D01*
X124864989Y-73874949D01*
X124864989Y-72877029D01*
X128287479Y-76299520D01*
X128379608Y-76361078D01*
X128425360Y-76391649D01*
X128544611Y-76415370D01*
X128553042Y-76460173D01*
X128611584Y-76551151D01*
X128583672Y-76579063D01*
X128538000Y-76689326D01*
X128538000Y-76870000D01*
X128613000Y-76945000D01*
X129684000Y-76945000D01*
X129684000Y-76925000D01*
X129992000Y-76925000D01*
X129992000Y-76945000D01*
X131063000Y-76945000D01*
X131138000Y-76870000D01*
X131138000Y-76689326D01*
X131092328Y-76579063D01*
X131063554Y-76550290D01*
X131119778Y-76468003D01*
X131143877Y-76349000D01*
X131143877Y-75649000D01*
X131122958Y-75537827D01*
X131065138Y-75447972D01*
X131119778Y-75368003D01*
X131143877Y-75249000D01*
X131143877Y-74549000D01*
X131122958Y-74437827D01*
X131083433Y-74376403D01*
X131261629Y-74450396D01*
X131500324Y-74450604D01*
X131720929Y-74359452D01*
X131889859Y-74190817D01*
X131981396Y-73970371D01*
X131981604Y-73731676D01*
X131890452Y-73511071D01*
X131721817Y-73342141D01*
X131569654Y-73278957D01*
X131720929Y-73216452D01*
X131889859Y-73047817D01*
X131981396Y-72827371D01*
X131981604Y-72588676D01*
X131890452Y-72368071D01*
X131721817Y-72199141D01*
X131646305Y-72167786D01*
X131720929Y-72136952D01*
X131889859Y-71968317D01*
X131981396Y-71747871D01*
X131981604Y-71509176D01*
X131890452Y-71288571D01*
X131721817Y-71119641D01*
X131501371Y-71028104D01*
X131262676Y-71027896D01*
X131096423Y-71096590D01*
X131057255Y-71035721D01*
X131022349Y-71011871D01*
X131051279Y-70993255D01*
X131119778Y-70893003D01*
X131143877Y-70774000D01*
X131143877Y-69924000D01*
X131122958Y-69812827D01*
X131098277Y-69774471D01*
X131119778Y-69743003D01*
X131143877Y-69624000D01*
X131143877Y-68774000D01*
X131122958Y-68662827D01*
X131057255Y-68560721D01*
X130957003Y-68492222D01*
X130838000Y-68468123D01*
X128937999Y-68468123D01*
X128937999Y-68259041D01*
X132063020Y-65134021D01*
X132149563Y-65004500D01*
X132155149Y-64996140D01*
X132187500Y-64833500D01*
X132187500Y-58483500D01*
X132183552Y-58463651D01*
X132155149Y-58320859D01*
X132063020Y-58182980D01*
X127662020Y-53781980D01*
X127524141Y-53689851D01*
X127497157Y-53684484D01*
X127361500Y-53657500D01*
X128657000Y-53657500D01*
X128685545Y-53801006D01*
X128766835Y-53922665D01*
X128888494Y-54003955D01*
X129032000Y-54032500D01*
X129044326Y-54032500D01*
X129187832Y-54003955D01*
X129309491Y-53922665D01*
X129390781Y-53801006D01*
X129419326Y-53657500D01*
X129390781Y-53513994D01*
X129309491Y-53392335D01*
X129187832Y-53311045D01*
X129044326Y-53282500D01*
X129032000Y-53282500D01*
X128888494Y-53311045D01*
X128766835Y-53392335D01*
X128685545Y-53513994D01*
X128657000Y-53657500D01*
X127361500Y-53657500D01*
X126520877Y-53657500D01*
X126520877Y-53457500D01*
X126499958Y-53346327D01*
X126491846Y-53333721D01*
X126496778Y-53326503D01*
X126520877Y-53207500D01*
X126520877Y-52957500D01*
X126520078Y-52953252D01*
X127011165Y-52462165D01*
X127092455Y-52340507D01*
X127121000Y-52197000D01*
X127121000Y-51209943D01*
X127254359Y-51076817D01*
X127345896Y-50856371D01*
X127346104Y-50617676D01*
X127254952Y-50397071D01*
X127086317Y-50228141D01*
X126865871Y-50136604D01*
X126627176Y-50136396D01*
X126406571Y-50227548D01*
X126237641Y-50396183D01*
X126146104Y-50616629D01*
X126145896Y-50855324D01*
X126237048Y-51075929D01*
X126371000Y-51210115D01*
X126371000Y-52041670D01*
X125761047Y-52651623D01*
X125215000Y-52651623D01*
X125139000Y-52665924D01*
X125139000Y-49403000D01*
X125106649Y-49240360D01*
X125051067Y-49157176D01*
X125014520Y-49102479D01*
X124633520Y-48721480D01*
X124495641Y-48629351D01*
X124468657Y-48623984D01*
X124333000Y-48597000D01*
X123493041Y-48597000D01*
X123043454Y-48147413D01*
X123105000Y-48159877D01*
X123845000Y-48159877D01*
X123956173Y-48138958D01*
X124058279Y-48073255D01*
X124110454Y-47996894D01*
X124155745Y-48067279D01*
X124255997Y-48135778D01*
X124375000Y-48159877D01*
X125115000Y-48159877D01*
X125226173Y-48138958D01*
X125328279Y-48073255D01*
X125379842Y-47997790D01*
X125390672Y-48023936D01*
X125475063Y-48108328D01*
X125585326Y-48154000D01*
X125786000Y-48154000D01*
X125861000Y-48079000D01*
X125861000Y-46733000D01*
X126169000Y-46733000D01*
X126169000Y-48079000D01*
X126244000Y-48154000D01*
X126444674Y-48154000D01*
X126554937Y-48108328D01*
X126639328Y-48023936D01*
X126685000Y-47913673D01*
X126685000Y-46808000D01*
X126610000Y-46733000D01*
X126169000Y-46733000D01*
X125861000Y-46733000D01*
X125841000Y-46733000D01*
X125841000Y-46425000D01*
X125861000Y-46425000D01*
X125861000Y-45666114D01*
X125863227Y-45664681D01*
X125885621Y-45631906D01*
X125893500Y-45593000D01*
X125893500Y-45079000D01*
X126169000Y-45079000D01*
X126169000Y-46425000D01*
X126610000Y-46425000D01*
X126685000Y-46350000D01*
X126685000Y-45244327D01*
X126639328Y-45134064D01*
X126554937Y-45049672D01*
X126444674Y-45004000D01*
X126244000Y-45004000D01*
X126169000Y-45079000D01*
X125893500Y-45079000D01*
X125893500Y-42983000D01*
X126169000Y-42983000D01*
X126169000Y-44329000D01*
X126244000Y-44404000D01*
X126444674Y-44404000D01*
X126554937Y-44358328D01*
X126639328Y-44273936D01*
X126685000Y-44163673D01*
X126685000Y-43503000D01*
X127836000Y-43503000D01*
X127836000Y-45083674D01*
X127881672Y-45193937D01*
X127966064Y-45278328D01*
X128076327Y-45324000D01*
X129057000Y-45324000D01*
X129132000Y-45249000D01*
X129132000Y-43428000D01*
X127911000Y-43428000D01*
X127836000Y-43503000D01*
X126685000Y-43503000D01*
X126685000Y-43058000D01*
X126610000Y-42983000D01*
X126169000Y-42983000D01*
X125893500Y-42983000D01*
X125893500Y-42655000D01*
X126169000Y-42655000D01*
X126169000Y-42675000D01*
X126610000Y-42675000D01*
X126685000Y-42600000D01*
X126685000Y-41623999D01*
X127836000Y-41623999D01*
X127836000Y-43045000D01*
X127911000Y-43120000D01*
X129132000Y-43120000D01*
X129132000Y-43100000D01*
X129440000Y-43100000D01*
X129440000Y-43120000D01*
X129460000Y-43120000D01*
X129460000Y-43428000D01*
X129440000Y-43428000D01*
X129440000Y-45249000D01*
X129515000Y-45324000D01*
X130375001Y-45324000D01*
X130375001Y-46618123D01*
X129711000Y-46618123D01*
X129711000Y-46524530D01*
X129794359Y-46441317D01*
X129885896Y-46220871D01*
X129886104Y-45982176D01*
X129794952Y-45761571D01*
X129626317Y-45592641D01*
X129405871Y-45501104D01*
X129167176Y-45500896D01*
X128946571Y-45592048D01*
X128777641Y-45760683D01*
X128686104Y-45981129D01*
X128685896Y-46219824D01*
X128777048Y-46440429D01*
X128861000Y-46524528D01*
X128861000Y-46618123D01*
X128136000Y-46618123D01*
X128024827Y-46639042D01*
X127922721Y-46704745D01*
X127854222Y-46804997D01*
X127830123Y-46924000D01*
X127830123Y-48266778D01*
X127756860Y-48281351D01*
X127714762Y-48309480D01*
X127618979Y-48373480D01*
X127570461Y-48421999D01*
X127452676Y-48421896D01*
X127232071Y-48513048D01*
X127063141Y-48681683D01*
X126971604Y-48902129D01*
X126971396Y-49140824D01*
X127062548Y-49361429D01*
X127231183Y-49530359D01*
X127451629Y-49621896D01*
X127690324Y-49622104D01*
X127830123Y-49564340D01*
X127830123Y-50424000D01*
X127851042Y-50535173D01*
X127916745Y-50637279D01*
X128016997Y-50705778D01*
X128136000Y-50729877D01*
X130375001Y-50729877D01*
X130375001Y-53371669D01*
X129901523Y-53845147D01*
X129713089Y-53844983D01*
X129492484Y-53936135D01*
X129323554Y-54104770D01*
X129232017Y-54325216D01*
X129231809Y-54563911D01*
X129322961Y-54784516D01*
X129491596Y-54953446D01*
X129712042Y-55044983D01*
X129950737Y-55045191D01*
X130171342Y-54954039D01*
X130336954Y-54788716D01*
X130336896Y-54855824D01*
X130428048Y-55076429D01*
X130596683Y-55245359D01*
X130817129Y-55336896D01*
X131055824Y-55337104D01*
X131276429Y-55245952D01*
X131445359Y-55077317D01*
X131536896Y-54856871D01*
X131537104Y-54618176D01*
X131445952Y-54397571D01*
X131312000Y-54263385D01*
X131312000Y-53990318D01*
X131365176Y-53937142D01*
X131419975Y-53855129D01*
X131446466Y-53815483D01*
X131475011Y-53671977D01*
X131475011Y-41198021D01*
X131472151Y-41183641D01*
X131446466Y-41054514D01*
X131365176Y-40932856D01*
X131066144Y-40633824D01*
X130944486Y-40552534D01*
X130800979Y-40523989D01*
X125893500Y-40523989D01*
X125893500Y-37978500D01*
X132402500Y-37978500D01*
X132402500Y-82228500D01*
X132402500Y-82228500D01*
G37*
X132402500Y-82228500D02*
X108152500Y-82228500D01*
X108152500Y-46580626D01*
X108181183Y-46609359D01*
X108401629Y-46700896D01*
X108640324Y-46701104D01*
X108860929Y-46609952D01*
X109029859Y-46441317D01*
X109121396Y-46220871D01*
X109121604Y-45982176D01*
X109071500Y-45860915D01*
X109071500Y-45693000D01*
X113506766Y-45693000D01*
X113530091Y-45727909D01*
X113909123Y-46106941D01*
X113909123Y-46174563D01*
X113849859Y-46186351D01*
X113735138Y-46263005D01*
X113609676Y-46262896D01*
X113389071Y-46354048D01*
X113220141Y-46522683D01*
X113128604Y-46743129D01*
X113128396Y-46981824D01*
X113219548Y-47202429D01*
X113388183Y-47371359D01*
X113608629Y-47462896D01*
X113847324Y-47463104D01*
X113909123Y-47437569D01*
X113909123Y-47854000D01*
X113930042Y-47965173D01*
X113995745Y-48067279D01*
X114088645Y-48130754D01*
X114045641Y-48173683D01*
X113954104Y-48394129D01*
X113953896Y-48632824D01*
X114045048Y-48853429D01*
X114213683Y-49022359D01*
X114412705Y-49105000D01*
X110744000Y-49105000D01*
X110581359Y-49137351D01*
X110443480Y-49229480D01*
X108538480Y-51134480D01*
X108446351Y-51272359D01*
X108446351Y-51272360D01*
X108414000Y-51435000D01*
X108414000Y-79121000D01*
X108440984Y-79256657D01*
X108446351Y-79283641D01*
X108538480Y-79421520D01*
X110397999Y-81281039D01*
X110397896Y-81398824D01*
X110489048Y-81619429D01*
X110657683Y-81788359D01*
X110878129Y-81879896D01*
X111116824Y-81880104D01*
X111337429Y-81788952D01*
X111506359Y-81620317D01*
X111565454Y-81478000D01*
X120138000Y-81478000D01*
X120138000Y-81908674D01*
X120183672Y-82018937D01*
X120268064Y-82103328D01*
X120378327Y-82149000D01*
X121209000Y-82149000D01*
X121284000Y-82074000D01*
X121284000Y-81403000D01*
X121592000Y-81403000D01*
X121592000Y-82074000D01*
X121667000Y-82149000D01*
X122497673Y-82149000D01*
X122607936Y-82103328D01*
X122692328Y-82018937D01*
X122738000Y-81908674D01*
X122738000Y-81478000D01*
X122663000Y-81403000D01*
X121592000Y-81403000D01*
X121284000Y-81403000D01*
X120213000Y-81403000D01*
X120138000Y-81478000D01*
X111565454Y-81478000D01*
X111597896Y-81399871D01*
X111598104Y-81161176D01*
X111506952Y-80940571D01*
X111338317Y-80771641D01*
X111117871Y-80680104D01*
X110999040Y-80680000D01*
X110908366Y-80589326D01*
X120138000Y-80589326D01*
X120138000Y-81020000D01*
X120213000Y-81095000D01*
X121284000Y-81095000D01*
X121284000Y-80424000D01*
X121592000Y-80424000D01*
X121592000Y-81095000D01*
X122663000Y-81095000D01*
X122738000Y-81020000D01*
X122738000Y-80589326D01*
X122692328Y-80479063D01*
X122607936Y-80394672D01*
X122497673Y-80349000D01*
X121667000Y-80349000D01*
X121592000Y-80424000D01*
X121284000Y-80424000D01*
X121209000Y-80349000D01*
X120378327Y-80349000D01*
X120268064Y-80394672D01*
X120183672Y-80479063D01*
X120138000Y-80589326D01*
X110908366Y-80589326D01*
X110075982Y-79756942D01*
X125187818Y-79756942D01*
X125347334Y-80143000D01*
X125642446Y-80438628D01*
X126028226Y-80598818D01*
X126445942Y-80599182D01*
X126832000Y-80439666D01*
X127127628Y-80144554D01*
X127287818Y-79758774D01*
X127288182Y-79341058D01*
X127128666Y-78955000D01*
X126833554Y-78659372D01*
X126447774Y-78499182D01*
X126030058Y-78498818D01*
X125644000Y-78658334D01*
X125348372Y-78953446D01*
X125188182Y-79339226D01*
X125187818Y-79756942D01*
X110075982Y-79756942D01*
X109264000Y-78944960D01*
X109264000Y-75275928D01*
X109465824Y-75276104D01*
X109686429Y-75184952D01*
X109855359Y-75016317D01*
X109946896Y-74795871D01*
X109947104Y-74557176D01*
X109855952Y-74336571D01*
X109687317Y-74167641D01*
X109466871Y-74076104D01*
X109264000Y-74075927D01*
X109264000Y-72019040D01*
X112175999Y-74931040D01*
X112175896Y-75048824D01*
X112267048Y-75269429D01*
X112435683Y-75438359D01*
X112656129Y-75529896D01*
X112894824Y-75530104D01*
X113115429Y-75438952D01*
X113284359Y-75270317D01*
X113375896Y-75049871D01*
X113376104Y-74811176D01*
X113284952Y-74590571D01*
X113116317Y-74421641D01*
X112895871Y-74330104D01*
X112777041Y-74330000D01*
X109899000Y-71451960D01*
X109899000Y-51992040D01*
X111301041Y-50590000D01*
X112606470Y-50590000D01*
X112655000Y-50638615D01*
X112655000Y-57947500D01*
X112683545Y-58091007D01*
X112764835Y-58212665D01*
X113399835Y-58847665D01*
X113515689Y-58925076D01*
X113509123Y-58957500D01*
X113509123Y-59066468D01*
X113497317Y-59054641D01*
X113276871Y-58963104D01*
X113038176Y-58962896D01*
X112817571Y-59054048D01*
X112648641Y-59222683D01*
X112557104Y-59443129D01*
X112556896Y-59681824D01*
X112648048Y-59902429D01*
X112778929Y-60033539D01*
X112690571Y-60070048D01*
X112521641Y-60238683D01*
X112430104Y-60459129D01*
X112429896Y-60697824D01*
X112521048Y-60918429D01*
X112689683Y-61087359D01*
X112910129Y-61178896D01*
X113148824Y-61179104D01*
X113369429Y-61087952D01*
X113450022Y-61007500D01*
X113785979Y-61007500D01*
X113815000Y-61013377D01*
X114815000Y-61013377D01*
X114926173Y-60992458D01*
X115028279Y-60926755D01*
X115096778Y-60826503D01*
X115120877Y-60707500D01*
X115120877Y-60457500D01*
X115099958Y-60346327D01*
X115089163Y-60329550D01*
X115115000Y-60267173D01*
X115115000Y-60220000D01*
X115040000Y-60145000D01*
X114469000Y-60145000D01*
X114469000Y-60151623D01*
X114161000Y-60151623D01*
X114161000Y-60145000D01*
X113590000Y-60145000D01*
X113577500Y-60157500D01*
X113457024Y-60157500D01*
X113408071Y-60108461D01*
X113496429Y-60071952D01*
X113560994Y-60007500D01*
X113577500Y-60007500D01*
X113590000Y-60020000D01*
X114161000Y-60020000D01*
X114161000Y-60013377D01*
X114469000Y-60013377D01*
X114469000Y-60020000D01*
X115040000Y-60020000D01*
X115115000Y-59945000D01*
X115115000Y-59897827D01*
X115089730Y-59836819D01*
X115096778Y-59826503D01*
X115119628Y-59713668D01*
X115399000Y-59993040D01*
X115399000Y-60701102D01*
X115270179Y-60787179D01*
X113745480Y-62311878D01*
X113653351Y-62449757D01*
X113652232Y-62455382D01*
X113621000Y-62612398D01*
X113621000Y-64262000D01*
X113624378Y-64278980D01*
X113653351Y-64424641D01*
X113745480Y-64562520D01*
X114507480Y-65324521D01*
X114507483Y-65324523D01*
X116874999Y-67692040D01*
X116874896Y-67809824D01*
X116966048Y-68030429D01*
X117134683Y-68199359D01*
X117355129Y-68290896D01*
X117593824Y-68291104D01*
X117814429Y-68199952D01*
X117936594Y-68078000D01*
X120138000Y-68078000D01*
X120138000Y-68508674D01*
X120183672Y-68618937D01*
X120268064Y-68703328D01*
X120378327Y-68749000D01*
X121209000Y-68749000D01*
X121284000Y-68674000D01*
X121284000Y-68003000D01*
X121592000Y-68003000D01*
X121592000Y-68674000D01*
X121667000Y-68749000D01*
X122497673Y-68749000D01*
X122607936Y-68703328D01*
X122692328Y-68618937D01*
X122738000Y-68508674D01*
X122738000Y-68078000D01*
X122663000Y-68003000D01*
X121592000Y-68003000D01*
X121284000Y-68003000D01*
X120213000Y-68003000D01*
X120138000Y-68078000D01*
X117936594Y-68078000D01*
X117983359Y-68031317D01*
X118074896Y-67810871D01*
X118075104Y-67572176D01*
X117983952Y-67351571D01*
X117815317Y-67182641D01*
X117594871Y-67091104D01*
X117476041Y-67091000D01*
X115108523Y-64723483D01*
X115108521Y-64723480D01*
X114471000Y-64085960D01*
X114471000Y-62788438D01*
X115759263Y-61500175D01*
X115831958Y-61485715D01*
X115858942Y-61480348D01*
X115996821Y-61388219D01*
X116124521Y-61260520D01*
X116216649Y-61122641D01*
X116249000Y-60960000D01*
X116249000Y-59817000D01*
X116227219Y-59707500D01*
X116216649Y-59654359D01*
X116124520Y-59516480D01*
X115390020Y-58781980D01*
X115252141Y-58689851D01*
X115225157Y-58684484D01*
X115120877Y-58663741D01*
X115120877Y-58457500D01*
X115099958Y-58346327D01*
X115091846Y-58333721D01*
X115096778Y-58326503D01*
X115120877Y-58207500D01*
X115120877Y-58007500D01*
X116468170Y-58007500D01*
X116447835Y-58027835D01*
X116366545Y-58149493D01*
X116351991Y-58222664D01*
X116338000Y-58293000D01*
X116338000Y-59182000D01*
X116366545Y-59325507D01*
X116447835Y-59447165D01*
X116719000Y-59718330D01*
X116719000Y-61312670D01*
X116499835Y-61531835D01*
X116418545Y-61653493D01*
X116403457Y-61729348D01*
X116390000Y-61726623D01*
X116140000Y-61726623D01*
X116028827Y-61747542D01*
X115926721Y-61813245D01*
X115858222Y-61913497D01*
X115836782Y-62019372D01*
X115816871Y-62011104D01*
X115578176Y-62010896D01*
X115357571Y-62102048D01*
X115188641Y-62270683D01*
X115097104Y-62491129D01*
X115096896Y-62729824D01*
X115188048Y-62950429D01*
X115356683Y-63119359D01*
X115577129Y-63210896D01*
X115815824Y-63211104D01*
X115881082Y-63184140D01*
X115920745Y-63245779D01*
X116020997Y-63314278D01*
X116140000Y-63338377D01*
X116390000Y-63338377D01*
X116501173Y-63317458D01*
X116513779Y-63309346D01*
X116520997Y-63314278D01*
X116640000Y-63338377D01*
X116890000Y-63338377D01*
X117001173Y-63317458D01*
X117013779Y-63309346D01*
X117020997Y-63314278D01*
X117140000Y-63338377D01*
X117340000Y-63338377D01*
X117340000Y-63559960D01*
X117251337Y-63648623D01*
X116046500Y-63648623D01*
X115935327Y-63669542D01*
X115833221Y-63735245D01*
X115764722Y-63835497D01*
X115740623Y-63954500D01*
X115740623Y-65204500D01*
X115761542Y-65315673D01*
X115827245Y-65417779D01*
X115927497Y-65486278D01*
X116046500Y-65510377D01*
X117546500Y-65510377D01*
X117657673Y-65489458D01*
X117759779Y-65423755D01*
X117828278Y-65323503D01*
X117852377Y-65204500D01*
X117852377Y-64808500D01*
X118246500Y-64808500D01*
X118246500Y-65264173D01*
X118292172Y-65374436D01*
X118376563Y-65458828D01*
X118486826Y-65504500D01*
X119067500Y-65504500D01*
X119142500Y-65429500D01*
X119142500Y-64733500D01*
X119450500Y-64733500D01*
X119450500Y-65429500D01*
X119525500Y-65504500D01*
X120106174Y-65504500D01*
X120216437Y-65458828D01*
X120300828Y-65374436D01*
X120346500Y-65264173D01*
X120346500Y-64808500D01*
X120271500Y-64733500D01*
X119450500Y-64733500D01*
X119142500Y-64733500D01*
X118321500Y-64733500D01*
X118246500Y-64808500D01*
X117852377Y-64808500D01*
X117852377Y-64249663D01*
X118097020Y-64005020D01*
X118170649Y-63894827D01*
X118246500Y-63894827D01*
X118246500Y-64350500D01*
X118321500Y-64425500D01*
X119142500Y-64425500D01*
X119142500Y-63729500D01*
X119450500Y-63729500D01*
X119450500Y-64425500D01*
X120271500Y-64425500D01*
X120346500Y-64350500D01*
X120346500Y-63894827D01*
X120300828Y-63784564D01*
X120216437Y-63700172D01*
X120106174Y-63654500D01*
X119525500Y-63654500D01*
X119450500Y-63729500D01*
X119142500Y-63729500D01*
X119067500Y-63654500D01*
X118486826Y-63654500D01*
X118376563Y-63700172D01*
X118292172Y-63784564D01*
X118246500Y-63894827D01*
X118170649Y-63894827D01*
X118189149Y-63867141D01*
X118221500Y-63704500D01*
X118221500Y-63642500D01*
X118190000Y-63484138D01*
X118190000Y-63270000D01*
X118202500Y-63257500D01*
X118202500Y-62686500D01*
X118195877Y-62686500D01*
X118195877Y-62378500D01*
X118202500Y-62378500D01*
X118202500Y-62358500D01*
X118327500Y-62358500D01*
X118327500Y-62378500D01*
X118334123Y-62378500D01*
X118334123Y-62686500D01*
X118327500Y-62686500D01*
X118327500Y-63257500D01*
X118402500Y-63332500D01*
X118449673Y-63332500D01*
X118510681Y-63307230D01*
X118520997Y-63314278D01*
X118640000Y-63338377D01*
X118890000Y-63338377D01*
X119001173Y-63317458D01*
X119013779Y-63309346D01*
X119020997Y-63314278D01*
X119140000Y-63338377D01*
X119390000Y-63338377D01*
X119501173Y-63317458D01*
X119513779Y-63309346D01*
X119520997Y-63314278D01*
X119640000Y-63338377D01*
X119890000Y-63338377D01*
X120001173Y-63317458D01*
X120013779Y-63309346D01*
X120020997Y-63314278D01*
X120140000Y-63338377D01*
X120390000Y-63338377D01*
X120390000Y-65873894D01*
X120142438Y-66121456D01*
X120111477Y-66090441D01*
X119891031Y-65998904D01*
X119652336Y-65998696D01*
X119431731Y-66089848D01*
X119262801Y-66258483D01*
X119171264Y-66478929D01*
X119171056Y-66717624D01*
X119262208Y-66938229D01*
X119430843Y-67107159D01*
X119651289Y-67198696D01*
X119889984Y-67198904D01*
X119913164Y-67189326D01*
X120138000Y-67189326D01*
X120138000Y-67620000D01*
X120213000Y-67695000D01*
X121284000Y-67695000D01*
X121284000Y-67024000D01*
X121592000Y-67024000D01*
X121592000Y-67695000D01*
X122663000Y-67695000D01*
X122738000Y-67620000D01*
X122738000Y-67189326D01*
X122692328Y-67079063D01*
X122607936Y-66994672D01*
X122497673Y-66949000D01*
X121667000Y-66949000D01*
X121592000Y-67024000D01*
X121284000Y-67024000D01*
X121209000Y-66949000D01*
X120378327Y-66949000D01*
X120268064Y-66994672D01*
X120183672Y-67079063D01*
X120138000Y-67189326D01*
X119913164Y-67189326D01*
X120110589Y-67107752D01*
X120257056Y-66961541D01*
X120338931Y-66945255D01*
X120460589Y-66863965D01*
X121030165Y-66294389D01*
X121111455Y-66172731D01*
X121132799Y-66065425D01*
X121137500Y-66066377D01*
X121437500Y-66066377D01*
X121548673Y-66045458D01*
X121650779Y-65979755D01*
X121719278Y-65879503D01*
X121743377Y-65760500D01*
X121743377Y-65189500D01*
X121787500Y-65189500D01*
X121787500Y-65820173D01*
X121833172Y-65930436D01*
X121917563Y-66014828D01*
X122027826Y-66060500D01*
X122087500Y-66060500D01*
X122162500Y-65985500D01*
X122162500Y-65114500D01*
X122312500Y-65114500D01*
X122312500Y-65985500D01*
X122387500Y-66060500D01*
X122447174Y-66060500D01*
X122557437Y-66014828D01*
X122641828Y-65930436D01*
X122687500Y-65820173D01*
X122687500Y-65189500D01*
X122612500Y-65114500D01*
X122312500Y-65114500D01*
X122162500Y-65114500D01*
X121862500Y-65114500D01*
X121787500Y-65189500D01*
X121743377Y-65189500D01*
X121743377Y-64160500D01*
X121722458Y-64049327D01*
X121656755Y-63947221D01*
X121640000Y-63935773D01*
X121640000Y-63487831D01*
X122017108Y-63864939D01*
X121917563Y-63906172D01*
X121833172Y-63990564D01*
X121787500Y-64100827D01*
X121787500Y-64731500D01*
X121862500Y-64806500D01*
X122162500Y-64806500D01*
X122162500Y-64786500D01*
X122312500Y-64786500D01*
X122312500Y-64806500D01*
X122612500Y-64806500D01*
X122687500Y-64731500D01*
X122687500Y-64384406D01*
X122692999Y-64385500D01*
X122731623Y-64385500D01*
X122731623Y-65760500D01*
X122752542Y-65871673D01*
X122818245Y-65973779D01*
X122918497Y-66042278D01*
X123037500Y-66066377D01*
X123337500Y-66066377D01*
X123448673Y-66045458D01*
X123550779Y-65979755D01*
X123619278Y-65879503D01*
X123643377Y-65760500D01*
X123643377Y-64160500D01*
X123622458Y-64049327D01*
X123556755Y-63947221D01*
X123548837Y-63941811D01*
X123533955Y-63866994D01*
X123452665Y-63745335D01*
X123331006Y-63664045D01*
X123187500Y-63635500D01*
X122848329Y-63635500D01*
X122528659Y-63315830D01*
X122640000Y-63338377D01*
X122890000Y-63338377D01*
X123001173Y-63317458D01*
X123013779Y-63309346D01*
X123020997Y-63314278D01*
X123140000Y-63338377D01*
X123390000Y-63338377D01*
X123501173Y-63317458D01*
X123513779Y-63309346D01*
X123520997Y-63314278D01*
X123640000Y-63338377D01*
X123890000Y-63338377D01*
X124001173Y-63317458D01*
X124103279Y-63251755D01*
X124171778Y-63151503D01*
X124195877Y-63032500D01*
X124195877Y-62147239D01*
X125166980Y-63118342D01*
X125166980Y-64792659D01*
X123689461Y-66270179D01*
X123597332Y-66408058D01*
X123597332Y-66408059D01*
X123564981Y-66570699D01*
X123564980Y-74700980D01*
X123583647Y-74794824D01*
X123597331Y-74863621D01*
X123689460Y-75001500D01*
X128287479Y-79599520D01*
X128379608Y-79661078D01*
X128425360Y-79691649D01*
X128544611Y-79715370D01*
X128553042Y-79760173D01*
X128618745Y-79862279D01*
X128718997Y-79930778D01*
X128838000Y-79954877D01*
X130838000Y-79954877D01*
X130949173Y-79933958D01*
X131051279Y-79868255D01*
X131074807Y-79833821D01*
X131261629Y-79911396D01*
X131500324Y-79911604D01*
X131720929Y-79820452D01*
X131889859Y-79651817D01*
X131981396Y-79431371D01*
X131981604Y-79192676D01*
X131890452Y-78972071D01*
X131721817Y-78803141D01*
X131646305Y-78771786D01*
X131720929Y-78740952D01*
X131889859Y-78572317D01*
X131981396Y-78351871D01*
X131981604Y-78113176D01*
X131890452Y-77892571D01*
X131721817Y-77723641D01*
X131501371Y-77632104D01*
X131262676Y-77631896D01*
X131098456Y-77699750D01*
X131064416Y-77646849D01*
X131092328Y-77618937D01*
X131138000Y-77508674D01*
X131138000Y-77328000D01*
X131063000Y-77253000D01*
X129992000Y-77253000D01*
X129992000Y-77273000D01*
X129684000Y-77273000D01*
X129684000Y-77253000D01*
X128613000Y-77253000D01*
X128538000Y-77328000D01*
X128538000Y-77508674D01*
X128565778Y-77575737D01*
X124864989Y-73874949D01*
X124864989Y-72877029D01*
X128287479Y-76299520D01*
X128379608Y-76361078D01*
X128425360Y-76391649D01*
X128544611Y-76415370D01*
X128553042Y-76460173D01*
X128611584Y-76551151D01*
X128583672Y-76579063D01*
X128538000Y-76689326D01*
X128538000Y-76870000D01*
X128613000Y-76945000D01*
X129684000Y-76945000D01*
X129684000Y-76925000D01*
X129992000Y-76925000D01*
X129992000Y-76945000D01*
X131063000Y-76945000D01*
X131138000Y-76870000D01*
X131138000Y-76689326D01*
X131092328Y-76579063D01*
X131063554Y-76550290D01*
X131119778Y-76468003D01*
X131143877Y-76349000D01*
X131143877Y-75649000D01*
X131122958Y-75537827D01*
X131065138Y-75447972D01*
X131119778Y-75368003D01*
X131143877Y-75249000D01*
X131143877Y-74549000D01*
X131122958Y-74437827D01*
X131083433Y-74376403D01*
X131261629Y-74450396D01*
X131500324Y-74450604D01*
X131720929Y-74359452D01*
X131889859Y-74190817D01*
X131981396Y-73970371D01*
X131981604Y-73731676D01*
X131890452Y-73511071D01*
X131721817Y-73342141D01*
X131569654Y-73278957D01*
X131720929Y-73216452D01*
X131889859Y-73047817D01*
X131981396Y-72827371D01*
X131981604Y-72588676D01*
X131890452Y-72368071D01*
X131721817Y-72199141D01*
X131646305Y-72167786D01*
X131720929Y-72136952D01*
X131889859Y-71968317D01*
X131981396Y-71747871D01*
X131981604Y-71509176D01*
X131890452Y-71288571D01*
X131721817Y-71119641D01*
X131501371Y-71028104D01*
X131262676Y-71027896D01*
X131096423Y-71096590D01*
X131057255Y-71035721D01*
X131022349Y-71011871D01*
X131051279Y-70993255D01*
X131119778Y-70893003D01*
X131143877Y-70774000D01*
X131143877Y-69924000D01*
X131122958Y-69812827D01*
X131098277Y-69774471D01*
X131119778Y-69743003D01*
X131143877Y-69624000D01*
X131143877Y-68774000D01*
X131122958Y-68662827D01*
X131057255Y-68560721D01*
X130957003Y-68492222D01*
X130838000Y-68468123D01*
X128937999Y-68468123D01*
X128937999Y-68259041D01*
X132063020Y-65134021D01*
X132149563Y-65004500D01*
X132155149Y-64996140D01*
X132187500Y-64833500D01*
X132187500Y-58483500D01*
X132183552Y-58463651D01*
X132155149Y-58320859D01*
X132063020Y-58182980D01*
X127662020Y-53781980D01*
X127524141Y-53689851D01*
X127497157Y-53684484D01*
X127361500Y-53657500D01*
X128657000Y-53657500D01*
X128685545Y-53801006D01*
X128766835Y-53922665D01*
X128888494Y-54003955D01*
X129032000Y-54032500D01*
X129044326Y-54032500D01*
X129187832Y-54003955D01*
X129309491Y-53922665D01*
X129390781Y-53801006D01*
X129419326Y-53657500D01*
X129390781Y-53513994D01*
X129309491Y-53392335D01*
X129187832Y-53311045D01*
X129044326Y-53282500D01*
X129032000Y-53282500D01*
X128888494Y-53311045D01*
X128766835Y-53392335D01*
X128685545Y-53513994D01*
X128657000Y-53657500D01*
X127361500Y-53657500D01*
X126520877Y-53657500D01*
X126520877Y-53457500D01*
X126499958Y-53346327D01*
X126491846Y-53333721D01*
X126496778Y-53326503D01*
X126520877Y-53207500D01*
X126520877Y-52957500D01*
X126520078Y-52953252D01*
X127011165Y-52462165D01*
X127092455Y-52340507D01*
X127121000Y-52197000D01*
X127121000Y-51209943D01*
X127254359Y-51076817D01*
X127345896Y-50856371D01*
X127346104Y-50617676D01*
X127254952Y-50397071D01*
X127086317Y-50228141D01*
X126865871Y-50136604D01*
X126627176Y-50136396D01*
X126406571Y-50227548D01*
X126237641Y-50396183D01*
X126146104Y-50616629D01*
X126145896Y-50855324D01*
X126237048Y-51075929D01*
X126371000Y-51210115D01*
X126371000Y-52041670D01*
X125761047Y-52651623D01*
X125215000Y-52651623D01*
X125139000Y-52665924D01*
X125139000Y-49403000D01*
X125106649Y-49240360D01*
X125051067Y-49157176D01*
X125014520Y-49102479D01*
X124633520Y-48721480D01*
X124495641Y-48629351D01*
X124468657Y-48623984D01*
X124333000Y-48597000D01*
X123493041Y-48597000D01*
X123043454Y-48147413D01*
X123105000Y-48159877D01*
X123845000Y-48159877D01*
X123956173Y-48138958D01*
X124058279Y-48073255D01*
X124110454Y-47996894D01*
X124155745Y-48067279D01*
X124255997Y-48135778D01*
X124375000Y-48159877D01*
X125115000Y-48159877D01*
X125226173Y-48138958D01*
X125328279Y-48073255D01*
X125379842Y-47997790D01*
X125390672Y-48023936D01*
X125475063Y-48108328D01*
X125585326Y-48154000D01*
X125786000Y-48154000D01*
X125861000Y-48079000D01*
X125861000Y-46733000D01*
X126169000Y-46733000D01*
X126169000Y-48079000D01*
X126244000Y-48154000D01*
X126444674Y-48154000D01*
X126554937Y-48108328D01*
X126639328Y-48023936D01*
X126685000Y-47913673D01*
X126685000Y-46808000D01*
X126610000Y-46733000D01*
X126169000Y-46733000D01*
X125861000Y-46733000D01*
X125841000Y-46733000D01*
X125841000Y-46425000D01*
X125861000Y-46425000D01*
X125861000Y-45666114D01*
X125863227Y-45664681D01*
X125885621Y-45631906D01*
X125893500Y-45593000D01*
X125893500Y-45079000D01*
X126169000Y-45079000D01*
X126169000Y-46425000D01*
X126610000Y-46425000D01*
X126685000Y-46350000D01*
X126685000Y-45244327D01*
X126639328Y-45134064D01*
X126554937Y-45049672D01*
X126444674Y-45004000D01*
X126244000Y-45004000D01*
X126169000Y-45079000D01*
X125893500Y-45079000D01*
X125893500Y-42983000D01*
X126169000Y-42983000D01*
X126169000Y-44329000D01*
X126244000Y-44404000D01*
X126444674Y-44404000D01*
X126554937Y-44358328D01*
X126639328Y-44273936D01*
X126685000Y-44163673D01*
X126685000Y-43503000D01*
X127836000Y-43503000D01*
X127836000Y-45083674D01*
X127881672Y-45193937D01*
X127966064Y-45278328D01*
X128076327Y-45324000D01*
X129057000Y-45324000D01*
X129132000Y-45249000D01*
X129132000Y-43428000D01*
X127911000Y-43428000D01*
X127836000Y-43503000D01*
X126685000Y-43503000D01*
X126685000Y-43058000D01*
X126610000Y-42983000D01*
X126169000Y-42983000D01*
X125893500Y-42983000D01*
X125893500Y-42655000D01*
X126169000Y-42655000D01*
X126169000Y-42675000D01*
X126610000Y-42675000D01*
X126685000Y-42600000D01*
X126685000Y-41623999D01*
X127836000Y-41623999D01*
X127836000Y-43045000D01*
X127911000Y-43120000D01*
X129132000Y-43120000D01*
X129132000Y-43100000D01*
X129440000Y-43100000D01*
X129440000Y-43120000D01*
X129460000Y-43120000D01*
X129460000Y-43428000D01*
X129440000Y-43428000D01*
X129440000Y-45249000D01*
X129515000Y-45324000D01*
X130375001Y-45324000D01*
X130375001Y-46618123D01*
X129711000Y-46618123D01*
X129711000Y-46524530D01*
X129794359Y-46441317D01*
X129885896Y-46220871D01*
X129886104Y-45982176D01*
X129794952Y-45761571D01*
X129626317Y-45592641D01*
X129405871Y-45501104D01*
X129167176Y-45500896D01*
X128946571Y-45592048D01*
X128777641Y-45760683D01*
X128686104Y-45981129D01*
X128685896Y-46219824D01*
X128777048Y-46440429D01*
X128861000Y-46524528D01*
X128861000Y-46618123D01*
X128136000Y-46618123D01*
X128024827Y-46639042D01*
X127922721Y-46704745D01*
X127854222Y-46804997D01*
X127830123Y-46924000D01*
X127830123Y-48266778D01*
X127756860Y-48281351D01*
X127714762Y-48309480D01*
X127618979Y-48373480D01*
X127570461Y-48421999D01*
X127452676Y-48421896D01*
X127232071Y-48513048D01*
X127063141Y-48681683D01*
X126971604Y-48902129D01*
X126971396Y-49140824D01*
X127062548Y-49361429D01*
X127231183Y-49530359D01*
X127451629Y-49621896D01*
X127690324Y-49622104D01*
X127830123Y-49564340D01*
X127830123Y-50424000D01*
X127851042Y-50535173D01*
X127916745Y-50637279D01*
X128016997Y-50705778D01*
X128136000Y-50729877D01*
X130375001Y-50729877D01*
X130375001Y-53371669D01*
X129901523Y-53845147D01*
X129713089Y-53844983D01*
X129492484Y-53936135D01*
X129323554Y-54104770D01*
X129232017Y-54325216D01*
X129231809Y-54563911D01*
X129322961Y-54784516D01*
X129491596Y-54953446D01*
X129712042Y-55044983D01*
X129950737Y-55045191D01*
X130171342Y-54954039D01*
X130336954Y-54788716D01*
X130336896Y-54855824D01*
X130428048Y-55076429D01*
X130596683Y-55245359D01*
X130817129Y-55336896D01*
X131055824Y-55337104D01*
X131276429Y-55245952D01*
X131445359Y-55077317D01*
X131536896Y-54856871D01*
X131537104Y-54618176D01*
X131445952Y-54397571D01*
X131312000Y-54263385D01*
X131312000Y-53990318D01*
X131365176Y-53937142D01*
X131419975Y-53855129D01*
X131446466Y-53815483D01*
X131475011Y-53671977D01*
X131475011Y-41198021D01*
X131472151Y-41183641D01*
X131446466Y-41054514D01*
X131365176Y-40932856D01*
X131066144Y-40633824D01*
X130944486Y-40552534D01*
X130800979Y-40523989D01*
X125893500Y-40523989D01*
X125893500Y-37978500D01*
X132402500Y-37978500D01*
X132402500Y-82228500D01*
G36*
X130437480Y-59032341D02*
X130437480Y-64284659D01*
X127312461Y-67409679D01*
X127220332Y-67547558D01*
X127220332Y-67547559D01*
X127187981Y-67710199D01*
X127187981Y-69098552D01*
X127128666Y-68955000D01*
X126833554Y-68659372D01*
X126447774Y-68499182D01*
X126030058Y-68498818D01*
X125644000Y-68658334D01*
X125348372Y-68953446D01*
X125314999Y-69033817D01*
X125314999Y-67119541D01*
X126792521Y-65642020D01*
X126884649Y-65504141D01*
X126917000Y-65341500D01*
X126917000Y-62320998D01*
X126898498Y-62227980D01*
X126884649Y-62158357D01*
X126792521Y-62020478D01*
X126003022Y-61230980D01*
X125865143Y-61138851D01*
X125838159Y-61133484D01*
X125702502Y-61106500D01*
X125630038Y-61106500D01*
X125536915Y-61013377D01*
X126215000Y-61013377D01*
X126326173Y-60992458D01*
X126380500Y-60957500D01*
X126488500Y-60957500D01*
X126490206Y-60957161D01*
X126491913Y-60957484D01*
X126529692Y-60957140D01*
X126659683Y-61087359D01*
X126880129Y-61178896D01*
X127118824Y-61179104D01*
X127339429Y-61087952D01*
X127508359Y-60919317D01*
X127599896Y-60698871D01*
X127600104Y-60460176D01*
X127508952Y-60239571D01*
X127340317Y-60070641D01*
X127119871Y-59979104D01*
X126881176Y-59978896D01*
X126660571Y-60070048D01*
X126523210Y-60207169D01*
X126502359Y-60207359D01*
X126440000Y-60145000D01*
X125869000Y-60145000D01*
X125869000Y-60151623D01*
X125561000Y-60151623D01*
X125561000Y-60145000D01*
X125541000Y-60145000D01*
X125541000Y-60020000D01*
X125561000Y-60020000D01*
X125561000Y-60013377D01*
X125869000Y-60013377D01*
X125869000Y-60020000D01*
X126440000Y-60020000D01*
X126515000Y-59945000D01*
X126515000Y-59897827D01*
X126489730Y-59836819D01*
X126496778Y-59826503D01*
X126520877Y-59707500D01*
X126520877Y-59457500D01*
X126499958Y-59346327D01*
X126491846Y-59333721D01*
X126496778Y-59326503D01*
X126520877Y-59207500D01*
X126520877Y-58957500D01*
X126499958Y-58846327D01*
X126489163Y-58829550D01*
X126515000Y-58767173D01*
X126515000Y-58720000D01*
X126440000Y-58645000D01*
X125869000Y-58645000D01*
X125869000Y-58651623D01*
X125561000Y-58651623D01*
X125561000Y-58645000D01*
X124990000Y-58645000D01*
X124915000Y-58720000D01*
X124915000Y-58767173D01*
X124940270Y-58828181D01*
X124933222Y-58838497D01*
X124912678Y-58939945D01*
X124681585Y-58708853D01*
X124681585Y-57465955D01*
X124914019Y-57233521D01*
X124930042Y-57318673D01*
X124938154Y-57331279D01*
X124933222Y-57338497D01*
X124909123Y-57457500D01*
X124909123Y-57707500D01*
X124930042Y-57818673D01*
X124938154Y-57831279D01*
X124933222Y-57838497D01*
X124909123Y-57957500D01*
X124909123Y-58207500D01*
X124930042Y-58318673D01*
X124940837Y-58335450D01*
X124915000Y-58397827D01*
X124915000Y-58445000D01*
X124990000Y-58520000D01*
X125561000Y-58520000D01*
X125561000Y-58513377D01*
X125869000Y-58513377D01*
X125869000Y-58520000D01*
X126440000Y-58520000D01*
X126467982Y-58492018D01*
X126641113Y-58563908D01*
X126849971Y-58564091D01*
X127043000Y-58484333D01*
X127190814Y-58336777D01*
X127270908Y-58143887D01*
X127270987Y-58053780D01*
X127276113Y-58055908D01*
X127484971Y-58056091D01*
X127678000Y-57976333D01*
X127825814Y-57828777D01*
X127905908Y-57635887D01*
X127906091Y-57427029D01*
X127826333Y-57234000D01*
X127678777Y-57086186D01*
X127485887Y-57006092D01*
X127277029Y-57005909D01*
X127084000Y-57085667D01*
X127013544Y-57156000D01*
X126520877Y-57156000D01*
X126520877Y-56957500D01*
X126499958Y-56846327D01*
X126491846Y-56833721D01*
X126496778Y-56826503D01*
X126520877Y-56707500D01*
X126520877Y-56457500D01*
X126499958Y-56346327D01*
X126491846Y-56333721D01*
X126496778Y-56326503D01*
X126520877Y-56207500D01*
X126520877Y-56007500D01*
X127412640Y-56007500D01*
X130437480Y-59032341D01*
X130437480Y-59032341D01*
G37*
X130437480Y-59032341D02*
X130437480Y-64284659D01*
X127312461Y-67409679D01*
X127220332Y-67547558D01*
X127220332Y-67547559D01*
X127187981Y-67710199D01*
X127187981Y-69098552D01*
X127128666Y-68955000D01*
X126833554Y-68659372D01*
X126447774Y-68499182D01*
X126030058Y-68498818D01*
X125644000Y-68658334D01*
X125348372Y-68953446D01*
X125314999Y-69033817D01*
X125314999Y-67119541D01*
X126792521Y-65642020D01*
X126884649Y-65504141D01*
X126917000Y-65341500D01*
X126917000Y-62320998D01*
X126898498Y-62227980D01*
X126884649Y-62158357D01*
X126792521Y-62020478D01*
X126003022Y-61230980D01*
X125865143Y-61138851D01*
X125838159Y-61133484D01*
X125702502Y-61106500D01*
X125630038Y-61106500D01*
X125536915Y-61013377D01*
X126215000Y-61013377D01*
X126326173Y-60992458D01*
X126380500Y-60957500D01*
X126488500Y-60957500D01*
X126490206Y-60957161D01*
X126491913Y-60957484D01*
X126529692Y-60957140D01*
X126659683Y-61087359D01*
X126880129Y-61178896D01*
X127118824Y-61179104D01*
X127339429Y-61087952D01*
X127508359Y-60919317D01*
X127599896Y-60698871D01*
X127600104Y-60460176D01*
X127508952Y-60239571D01*
X127340317Y-60070641D01*
X127119871Y-59979104D01*
X126881176Y-59978896D01*
X126660571Y-60070048D01*
X126523210Y-60207169D01*
X126502359Y-60207359D01*
X126440000Y-60145000D01*
X125869000Y-60145000D01*
X125869000Y-60151623D01*
X125561000Y-60151623D01*
X125561000Y-60145000D01*
X125541000Y-60145000D01*
X125541000Y-60020000D01*
X125561000Y-60020000D01*
X125561000Y-60013377D01*
X125869000Y-60013377D01*
X125869000Y-60020000D01*
X126440000Y-60020000D01*
X126515000Y-59945000D01*
X126515000Y-59897827D01*
X126489730Y-59836819D01*
X126496778Y-59826503D01*
X126520877Y-59707500D01*
X126520877Y-59457500D01*
X126499958Y-59346327D01*
X126491846Y-59333721D01*
X126496778Y-59326503D01*
X126520877Y-59207500D01*
X126520877Y-58957500D01*
X126499958Y-58846327D01*
X126489163Y-58829550D01*
X126515000Y-58767173D01*
X126515000Y-58720000D01*
X126440000Y-58645000D01*
X125869000Y-58645000D01*
X125869000Y-58651623D01*
X125561000Y-58651623D01*
X125561000Y-58645000D01*
X124990000Y-58645000D01*
X124915000Y-58720000D01*
X124915000Y-58767173D01*
X124940270Y-58828181D01*
X124933222Y-58838497D01*
X124912678Y-58939945D01*
X124681585Y-58708853D01*
X124681585Y-57465955D01*
X124914019Y-57233521D01*
X124930042Y-57318673D01*
X124938154Y-57331279D01*
X124933222Y-57338497D01*
X124909123Y-57457500D01*
X124909123Y-57707500D01*
X124930042Y-57818673D01*
X124938154Y-57831279D01*
X124933222Y-57838497D01*
X124909123Y-57957500D01*
X124909123Y-58207500D01*
X124930042Y-58318673D01*
X124940837Y-58335450D01*
X124915000Y-58397827D01*
X124915000Y-58445000D01*
X124990000Y-58520000D01*
X125561000Y-58520000D01*
X125561000Y-58513377D01*
X125869000Y-58513377D01*
X125869000Y-58520000D01*
X126440000Y-58520000D01*
X126467982Y-58492018D01*
X126641113Y-58563908D01*
X126849971Y-58564091D01*
X127043000Y-58484333D01*
X127190814Y-58336777D01*
X127270908Y-58143887D01*
X127270987Y-58053780D01*
X127276113Y-58055908D01*
X127484971Y-58056091D01*
X127678000Y-57976333D01*
X127825814Y-57828777D01*
X127905908Y-57635887D01*
X127906091Y-57427029D01*
X127826333Y-57234000D01*
X127678777Y-57086186D01*
X127485887Y-57006092D01*
X127277029Y-57005909D01*
X127084000Y-57085667D01*
X127013544Y-57156000D01*
X126520877Y-57156000D01*
X126520877Y-56957500D01*
X126499958Y-56846327D01*
X126491846Y-56833721D01*
X126496778Y-56826503D01*
X126520877Y-56707500D01*
X126520877Y-56457500D01*
X126499958Y-56346327D01*
X126491846Y-56333721D01*
X126496778Y-56326503D01*
X126520877Y-56207500D01*
X126520877Y-56007500D01*
X127412640Y-56007500D01*
X130437480Y-59032341D01*
G36*
X115322000Y-51752500D02*
X115350545Y-51896007D01*
X115431835Y-52017665D01*
X117654335Y-54240165D01*
X117775994Y-54321455D01*
X117919500Y-54350000D01*
X118716057Y-54350000D01*
X118849183Y-54483359D01*
X119069629Y-54574896D01*
X119308324Y-54575104D01*
X119389999Y-54541357D01*
X119389999Y-57165321D01*
X119412823Y-57280065D01*
X119422350Y-57327962D01*
X119514479Y-57465841D01*
X123775261Y-61726623D01*
X123640000Y-61726623D01*
X123528827Y-61747542D01*
X123516221Y-61755654D01*
X123509003Y-61750722D01*
X123390000Y-61726623D01*
X123140000Y-61726623D01*
X123028827Y-61747542D01*
X123016221Y-61755654D01*
X123009003Y-61750722D01*
X122890000Y-61726623D01*
X122640000Y-61726623D01*
X122528827Y-61747542D01*
X122516221Y-61755654D01*
X122509003Y-61750722D01*
X122390000Y-61726623D01*
X122140000Y-61726623D01*
X122028827Y-61747542D01*
X122016221Y-61755654D01*
X122009003Y-61750722D01*
X121890000Y-61726623D01*
X121640000Y-61726623D01*
X121528827Y-61747542D01*
X121516221Y-61755654D01*
X121509003Y-61750722D01*
X121390000Y-61726623D01*
X121140000Y-61726623D01*
X121028827Y-61747542D01*
X121016221Y-61755654D01*
X121009003Y-61750722D01*
X120890000Y-61726623D01*
X120694000Y-61726623D01*
X120694000Y-61256530D01*
X120777359Y-61173317D01*
X120868896Y-60952871D01*
X120869104Y-60714176D01*
X120777952Y-60493571D01*
X120609317Y-60324641D01*
X120388871Y-60233104D01*
X120150176Y-60232896D01*
X119929571Y-60324048D01*
X119760641Y-60492683D01*
X119678000Y-60691705D01*
X119678000Y-60240530D01*
X119761359Y-60157317D01*
X119852896Y-59936871D01*
X119853104Y-59698176D01*
X119761952Y-59477571D01*
X119593317Y-59308641D01*
X119372871Y-59217104D01*
X119134176Y-59216896D01*
X118913571Y-59308048D01*
X118744641Y-59476683D01*
X118653104Y-59697129D01*
X118652896Y-59935824D01*
X118744048Y-60156429D01*
X118828000Y-60240528D01*
X118828000Y-61316500D01*
X118844510Y-61399500D01*
X118860351Y-61479141D01*
X118952480Y-61617020D01*
X119074422Y-61738963D01*
X119028827Y-61747542D01*
X119016221Y-61755654D01*
X119009003Y-61750722D01*
X118890000Y-61726623D01*
X118640000Y-61726623D01*
X118528827Y-61747542D01*
X118512050Y-61758337D01*
X118449673Y-61732500D01*
X118268841Y-61732500D01*
X118328896Y-61587871D01*
X118329104Y-61349176D01*
X118237952Y-61128571D01*
X118069317Y-60959641D01*
X117848871Y-60868104D01*
X117610176Y-60867896D01*
X117469000Y-60926229D01*
X117469000Y-59563000D01*
X117440455Y-59419494D01*
X117359165Y-59297835D01*
X117088000Y-59026670D01*
X117088000Y-58448330D01*
X118040390Y-57495940D01*
X118228824Y-57496104D01*
X118449429Y-57404952D01*
X118618359Y-57236317D01*
X118709896Y-57015871D01*
X118710104Y-56777176D01*
X118618952Y-56556571D01*
X118513974Y-56451409D01*
X118681859Y-56283817D01*
X118773396Y-56063371D01*
X118773604Y-55824676D01*
X118682452Y-55604071D01*
X118513817Y-55435141D01*
X118293371Y-55343604D01*
X118054676Y-55343396D01*
X117834071Y-55434548D01*
X117665141Y-55603183D01*
X117573604Y-55823629D01*
X117573500Y-55942460D01*
X116358460Y-57157500D01*
X115120877Y-57157500D01*
X115120877Y-56957500D01*
X115099958Y-56846327D01*
X115091846Y-56833721D01*
X115096778Y-56826503D01*
X115120877Y-56707500D01*
X115120877Y-56457500D01*
X115099958Y-56346327D01*
X115091846Y-56333721D01*
X115096778Y-56326503D01*
X115120877Y-56207500D01*
X115120877Y-55957500D01*
X115099958Y-55846327D01*
X115091846Y-55833721D01*
X115096778Y-55826503D01*
X115120877Y-55707500D01*
X115120877Y-55457500D01*
X115099958Y-55346327D01*
X115091846Y-55333721D01*
X115096778Y-55326503D01*
X115120877Y-55207500D01*
X115120877Y-54957500D01*
X115099958Y-54846327D01*
X115091846Y-54833721D01*
X115096778Y-54826503D01*
X115120877Y-54707500D01*
X115120877Y-54457500D01*
X115099958Y-54346327D01*
X115091846Y-54333721D01*
X115096778Y-54326503D01*
X115120877Y-54207500D01*
X115120877Y-53957500D01*
X115099958Y-53846327D01*
X115089163Y-53829550D01*
X115115000Y-53767173D01*
X115115000Y-53652208D01*
X115196129Y-53685896D01*
X115434824Y-53686104D01*
X115655429Y-53594952D01*
X115824359Y-53426317D01*
X115915896Y-53205871D01*
X115916104Y-52967176D01*
X115824952Y-52746571D01*
X115656317Y-52577641D01*
X115435871Y-52486104D01*
X115197176Y-52485896D01*
X114976571Y-52577048D01*
X114895978Y-52657500D01*
X114844021Y-52657500D01*
X114815000Y-52651623D01*
X113914999Y-52651623D01*
X113914999Y-52109353D01*
X115322000Y-50702352D01*
X115322000Y-51752500D01*
X115322000Y-51752500D01*
G37*
X115322000Y-51752500D02*
X115350545Y-51896007D01*
X115431835Y-52017665D01*
X117654335Y-54240165D01*
X117775994Y-54321455D01*
X117919500Y-54350000D01*
X118716057Y-54350000D01*
X118849183Y-54483359D01*
X119069629Y-54574896D01*
X119308324Y-54575104D01*
X119389999Y-54541357D01*
X119389999Y-57165321D01*
X119412823Y-57280065D01*
X119422350Y-57327962D01*
X119514479Y-57465841D01*
X123775261Y-61726623D01*
X123640000Y-61726623D01*
X123528827Y-61747542D01*
X123516221Y-61755654D01*
X123509003Y-61750722D01*
X123390000Y-61726623D01*
X123140000Y-61726623D01*
X123028827Y-61747542D01*
X123016221Y-61755654D01*
X123009003Y-61750722D01*
X122890000Y-61726623D01*
X122640000Y-61726623D01*
X122528827Y-61747542D01*
X122516221Y-61755654D01*
X122509003Y-61750722D01*
X122390000Y-61726623D01*
X122140000Y-61726623D01*
X122028827Y-61747542D01*
X122016221Y-61755654D01*
X122009003Y-61750722D01*
X121890000Y-61726623D01*
X121640000Y-61726623D01*
X121528827Y-61747542D01*
X121516221Y-61755654D01*
X121509003Y-61750722D01*
X121390000Y-61726623D01*
X121140000Y-61726623D01*
X121028827Y-61747542D01*
X121016221Y-61755654D01*
X121009003Y-61750722D01*
X120890000Y-61726623D01*
X120694000Y-61726623D01*
X120694000Y-61256530D01*
X120777359Y-61173317D01*
X120868896Y-60952871D01*
X120869104Y-60714176D01*
X120777952Y-60493571D01*
X120609317Y-60324641D01*
X120388871Y-60233104D01*
X120150176Y-60232896D01*
X119929571Y-60324048D01*
X119760641Y-60492683D01*
X119678000Y-60691705D01*
X119678000Y-60240530D01*
X119761359Y-60157317D01*
X119852896Y-59936871D01*
X119853104Y-59698176D01*
X119761952Y-59477571D01*
X119593317Y-59308641D01*
X119372871Y-59217104D01*
X119134176Y-59216896D01*
X118913571Y-59308048D01*
X118744641Y-59476683D01*
X118653104Y-59697129D01*
X118652896Y-59935824D01*
X118744048Y-60156429D01*
X118828000Y-60240528D01*
X118828000Y-61316500D01*
X118844510Y-61399500D01*
X118860351Y-61479141D01*
X118952480Y-61617020D01*
X119074422Y-61738963D01*
X119028827Y-61747542D01*
X119016221Y-61755654D01*
X119009003Y-61750722D01*
X118890000Y-61726623D01*
X118640000Y-61726623D01*
X118528827Y-61747542D01*
X118512050Y-61758337D01*
X118449673Y-61732500D01*
X118268841Y-61732500D01*
X118328896Y-61587871D01*
X118329104Y-61349176D01*
X118237952Y-61128571D01*
X118069317Y-60959641D01*
X117848871Y-60868104D01*
X117610176Y-60867896D01*
X117469000Y-60926229D01*
X117469000Y-59563000D01*
X117440455Y-59419494D01*
X117359165Y-59297835D01*
X117088000Y-59026670D01*
X117088000Y-58448330D01*
X118040390Y-57495940D01*
X118228824Y-57496104D01*
X118449429Y-57404952D01*
X118618359Y-57236317D01*
X118709896Y-57015871D01*
X118710104Y-56777176D01*
X118618952Y-56556571D01*
X118513974Y-56451409D01*
X118681859Y-56283817D01*
X118773396Y-56063371D01*
X118773604Y-55824676D01*
X118682452Y-55604071D01*
X118513817Y-55435141D01*
X118293371Y-55343604D01*
X118054676Y-55343396D01*
X117834071Y-55434548D01*
X117665141Y-55603183D01*
X117573604Y-55823629D01*
X117573500Y-55942460D01*
X116358460Y-57157500D01*
X115120877Y-57157500D01*
X115120877Y-56957500D01*
X115099958Y-56846327D01*
X115091846Y-56833721D01*
X115096778Y-56826503D01*
X115120877Y-56707500D01*
X115120877Y-56457500D01*
X115099958Y-56346327D01*
X115091846Y-56333721D01*
X115096778Y-56326503D01*
X115120877Y-56207500D01*
X115120877Y-55957500D01*
X115099958Y-55846327D01*
X115091846Y-55833721D01*
X115096778Y-55826503D01*
X115120877Y-55707500D01*
X115120877Y-55457500D01*
X115099958Y-55346327D01*
X115091846Y-55333721D01*
X115096778Y-55326503D01*
X115120877Y-55207500D01*
X115120877Y-54957500D01*
X115099958Y-54846327D01*
X115091846Y-54833721D01*
X115096778Y-54826503D01*
X115120877Y-54707500D01*
X115120877Y-54457500D01*
X115099958Y-54346327D01*
X115091846Y-54333721D01*
X115096778Y-54326503D01*
X115120877Y-54207500D01*
X115120877Y-53957500D01*
X115099958Y-53846327D01*
X115089163Y-53829550D01*
X115115000Y-53767173D01*
X115115000Y-53652208D01*
X115196129Y-53685896D01*
X115434824Y-53686104D01*
X115655429Y-53594952D01*
X115824359Y-53426317D01*
X115915896Y-53205871D01*
X115916104Y-52967176D01*
X115824952Y-52746571D01*
X115656317Y-52577641D01*
X115435871Y-52486104D01*
X115197176Y-52485896D01*
X114976571Y-52577048D01*
X114895978Y-52657500D01*
X114844021Y-52657500D01*
X114815000Y-52651623D01*
X113914999Y-52651623D01*
X113914999Y-52109353D01*
X115322000Y-50702352D01*
X115322000Y-51752500D01*
G36*
X123616763Y-50226319D02*
X123837209Y-50317856D01*
X124075904Y-50318064D01*
X124289000Y-50230015D01*
X124289000Y-51941264D01*
X124140000Y-51879394D01*
X124140000Y-51798012D01*
X124171778Y-51751503D01*
X124195877Y-51632500D01*
X124195877Y-50632500D01*
X124174958Y-50521327D01*
X124109255Y-50419221D01*
X124009003Y-50350722D01*
X123890000Y-50326623D01*
X123640000Y-50326623D01*
X123528827Y-50347542D01*
X123512050Y-50358337D01*
X123449673Y-50332500D01*
X123402500Y-50332500D01*
X123327500Y-50407500D01*
X123327500Y-50978500D01*
X123334123Y-50978500D01*
X123334123Y-51286500D01*
X123327500Y-51286500D01*
X123327500Y-51857500D01*
X123390000Y-51920000D01*
X123390000Y-52239865D01*
X123352104Y-52331129D01*
X123351896Y-52569824D01*
X123443048Y-52790429D01*
X123611683Y-52959359D01*
X123832129Y-53050896D01*
X124070824Y-53051104D01*
X124289000Y-52960956D01*
X124289000Y-53213000D01*
X124309617Y-53316649D01*
X124321351Y-53375641D01*
X124413480Y-53513520D01*
X124782980Y-53883020D01*
X124909123Y-53967307D01*
X124909123Y-54207500D01*
X124930042Y-54318673D01*
X124938154Y-54331279D01*
X124933222Y-54338497D01*
X124909123Y-54457500D01*
X124909123Y-54668615D01*
X124802360Y-54689851D01*
X124802358Y-54689852D01*
X124802359Y-54689852D01*
X124664479Y-54781980D01*
X124589479Y-54856981D01*
X124497350Y-54994860D01*
X124497350Y-54994861D01*
X124464999Y-55157501D01*
X124464999Y-56480460D01*
X123956065Y-56989395D01*
X123863936Y-57127274D01*
X123863936Y-57127275D01*
X123831585Y-57289915D01*
X123831585Y-58884893D01*
X123852981Y-58992458D01*
X123863936Y-59047534D01*
X123956065Y-59185413D01*
X124464999Y-59694348D01*
X124464999Y-60577870D01*
X120690009Y-56802881D01*
X120690009Y-54023011D01*
X120877669Y-53945472D01*
X121046599Y-53776837D01*
X121138136Y-53556391D01*
X121138344Y-53317696D01*
X121047192Y-53097091D01*
X120878557Y-52928161D01*
X120658111Y-52836624D01*
X120419416Y-52836416D01*
X120239999Y-52910549D01*
X120239999Y-51938377D01*
X120390000Y-51938377D01*
X120501173Y-51917458D01*
X120513779Y-51909346D01*
X120520997Y-51914278D01*
X120640000Y-51938377D01*
X120890000Y-51938377D01*
X121001173Y-51917458D01*
X121013779Y-51909346D01*
X121020997Y-51914278D01*
X121140000Y-51938377D01*
X121390000Y-51938377D01*
X121501173Y-51917458D01*
X121513779Y-51909346D01*
X121520997Y-51914278D01*
X121640000Y-51938377D01*
X121890000Y-51938377D01*
X122001173Y-51917458D01*
X122013779Y-51909346D01*
X122020997Y-51914278D01*
X122140000Y-51938377D01*
X122390000Y-51938377D01*
X122501173Y-51917458D01*
X122513779Y-51909346D01*
X122520997Y-51914278D01*
X122640000Y-51938377D01*
X122890000Y-51938377D01*
X123001173Y-51917458D01*
X123017950Y-51906663D01*
X123080327Y-51932500D01*
X123127500Y-51932500D01*
X123202500Y-51857500D01*
X123202500Y-51286500D01*
X123195877Y-51286500D01*
X123195877Y-50978500D01*
X123202500Y-50978500D01*
X123202500Y-50407500D01*
X123140000Y-50345000D01*
X123140000Y-50237330D01*
X123284370Y-50092960D01*
X123483637Y-50092960D01*
X123616763Y-50226319D01*
X123616763Y-50226319D01*
G37*
X123616763Y-50226319D02*
X123837209Y-50317856D01*
X124075904Y-50318064D01*
X124289000Y-50230015D01*
X124289000Y-51941264D01*
X124140000Y-51879394D01*
X124140000Y-51798012D01*
X124171778Y-51751503D01*
X124195877Y-51632500D01*
X124195877Y-50632500D01*
X124174958Y-50521327D01*
X124109255Y-50419221D01*
X124009003Y-50350722D01*
X123890000Y-50326623D01*
X123640000Y-50326623D01*
X123528827Y-50347542D01*
X123512050Y-50358337D01*
X123449673Y-50332500D01*
X123402500Y-50332500D01*
X123327500Y-50407500D01*
X123327500Y-50978500D01*
X123334123Y-50978500D01*
X123334123Y-51286500D01*
X123327500Y-51286500D01*
X123327500Y-51857500D01*
X123390000Y-51920000D01*
X123390000Y-52239865D01*
X123352104Y-52331129D01*
X123351896Y-52569824D01*
X123443048Y-52790429D01*
X123611683Y-52959359D01*
X123832129Y-53050896D01*
X124070824Y-53051104D01*
X124289000Y-52960956D01*
X124289000Y-53213000D01*
X124309617Y-53316649D01*
X124321351Y-53375641D01*
X124413480Y-53513520D01*
X124782980Y-53883020D01*
X124909123Y-53967307D01*
X124909123Y-54207500D01*
X124930042Y-54318673D01*
X124938154Y-54331279D01*
X124933222Y-54338497D01*
X124909123Y-54457500D01*
X124909123Y-54668615D01*
X124802360Y-54689851D01*
X124802358Y-54689852D01*
X124802359Y-54689852D01*
X124664479Y-54781980D01*
X124589479Y-54856981D01*
X124497350Y-54994860D01*
X124497350Y-54994861D01*
X124464999Y-55157501D01*
X124464999Y-56480460D01*
X123956065Y-56989395D01*
X123863936Y-57127274D01*
X123863936Y-57127275D01*
X123831585Y-57289915D01*
X123831585Y-58884893D01*
X123852981Y-58992458D01*
X123863936Y-59047534D01*
X123956065Y-59185413D01*
X124464999Y-59694348D01*
X124464999Y-60577870D01*
X120690009Y-56802881D01*
X120690009Y-54023011D01*
X120877669Y-53945472D01*
X121046599Y-53776837D01*
X121138136Y-53556391D01*
X121138344Y-53317696D01*
X121047192Y-53097091D01*
X120878557Y-52928161D01*
X120658111Y-52836624D01*
X120419416Y-52836416D01*
X120239999Y-52910549D01*
X120239999Y-51938377D01*
X120390000Y-51938377D01*
X120501173Y-51917458D01*
X120513779Y-51909346D01*
X120520997Y-51914278D01*
X120640000Y-51938377D01*
X120890000Y-51938377D01*
X121001173Y-51917458D01*
X121013779Y-51909346D01*
X121020997Y-51914278D01*
X121140000Y-51938377D01*
X121390000Y-51938377D01*
X121501173Y-51917458D01*
X121513779Y-51909346D01*
X121520997Y-51914278D01*
X121640000Y-51938377D01*
X121890000Y-51938377D01*
X122001173Y-51917458D01*
X122013779Y-51909346D01*
X122020997Y-51914278D01*
X122140000Y-51938377D01*
X122390000Y-51938377D01*
X122501173Y-51917458D01*
X122513779Y-51909346D01*
X122520997Y-51914278D01*
X122640000Y-51938377D01*
X122890000Y-51938377D01*
X123001173Y-51917458D01*
X123017950Y-51906663D01*
X123080327Y-51932500D01*
X123127500Y-51932500D01*
X123202500Y-51857500D01*
X123202500Y-51286500D01*
X123195877Y-51286500D01*
X123195877Y-50978500D01*
X123202500Y-50978500D01*
X123202500Y-50407500D01*
X123140000Y-50345000D01*
X123140000Y-50237330D01*
X123284370Y-50092960D01*
X123483637Y-50092960D01*
X123616763Y-50226319D01*
G36*
X114469000Y-53520000D02*
X114489000Y-53520000D01*
X114489000Y-53645000D01*
X114469000Y-53645000D01*
X114469000Y-53651623D01*
X114161000Y-53651623D01*
X114161000Y-53645000D01*
X114141000Y-53645000D01*
X114141000Y-53520000D01*
X114161000Y-53520000D01*
X114161000Y-53513377D01*
X114469000Y-53513377D01*
X114469000Y-53520000D01*
X114469000Y-53520000D01*
G37*
X114469000Y-53520000D02*
X114489000Y-53520000D01*
X114489000Y-53645000D01*
X114469000Y-53645000D01*
X114469000Y-53651623D01*
X114161000Y-53651623D01*
X114161000Y-53645000D01*
X114141000Y-53645000D01*
X114141000Y-53520000D01*
X114161000Y-53520000D01*
X114161000Y-53513377D01*
X114469000Y-53513377D01*
X114469000Y-53520000D01*
M02*
