M48
;DRILL file {KiCad 4.0.4-stable} date 01/25/17 01:33:12
;FORMAT={-:-/ absolute / inch / decimal}
FMAT,2
INCH,TZ
T1C0.012
T2C0.016
T3C0.059
%
G90
G05
M72
T1
X4.99Y-2.285
X5.015Y-2.265
T2
X4.2725Y-1.815
X4.305Y-2.94
X4.315Y-3.06
X4.37Y-3.2
X4.3732Y-2.5082
X4.44Y-2.95
X4.45Y-1.975
X4.45Y-2.385
X4.455Y-2.345
X4.47Y-2.99
X4.4775Y-1.845
X4.485Y-2.805
X4.51Y-1.615
X4.51Y-1.91
X4.54Y-2.09
X4.555Y-2.465
X4.56Y-1.605
X4.625Y-2.665
X4.635Y-2.42
X4.64Y-1.59
X4.64Y-2.1675
X4.645Y-1.94
X4.65Y-2.24
X4.6525Y-2.2025
X4.655Y-1.76
X4.675Y-1.59
X4.68Y-1.94
X4.68Y-2.81
X4.68Y-2.865
X4.6912Y-2.0902
X4.6925Y-2.125
X4.695Y-2.355
X4.71Y-1.59
X4.715Y-1.94
X4.7154Y-2.622
X4.735Y-2.395
X4.745Y-2.0625
X4.7456Y-2.1038
X4.75Y-1.94
X4.82Y-3.105
X4.835Y-2.95
X4.85Y-2.705
X4.8775Y-2.5425
X4.88Y-2.065
X4.8802Y-1.9574
X4.8862Y-2.215
X4.9Y-2.135
X4.9166Y-2.3065
X4.99Y-1.78
X4.99Y-1.9975
X5.Y-2.385
X5.005Y-1.68
X5.0225Y-1.93
X5.025Y-2.025
X5.0525Y-2.9325
X5.09Y-1.815
X5.1115Y-2.1435
X5.125Y-2.025
X5.155Y-2.155
X5.1725Y-2.82
X5.1725Y-2.8625
X5.1725Y-2.9075
X5.1725Y-3.08
X5.1725Y-3.1225
T3
X4.97Y-2.7381
X4.97Y-3.1319
T0
M30
