G04 #@! TF.FileFunction,Soldermask,Bot*
%FSLAX46Y46*%
G04 Gerber Fmt 4.6, Leading zero omitted, Abs format (unit mm)*
G04 Created by KiCad (PCBNEW 4.0.4-stable) date 01/25/17 01:33:11*
%MOMM*%
%LPD*%
G01*
G04 APERTURE LIST*
%ADD10C,0.100000*%
%ADD11R,1.900000X1.650000*%
%ADD12R,1.140000X2.950000*%
%ADD13R,2.400000X1.100000*%
%ADD14R,2.400000X1.250000*%
%ADD15C,1.900000*%
%ADD16R,2.400000X1.600000*%
%ADD17R,0.700000X2.000000*%
%ADD18R,2.700000X3.900000*%
%ADD19R,0.650000X1.400000*%
%ADD20R,1.400000X0.650000*%
G04 APERTURE END LIST*
D10*
D11*
X116796500Y-64579500D03*
X119296500Y-64579500D03*
D12*
X114585000Y-42829000D03*
X114585000Y-46579000D03*
X115855000Y-42829000D03*
X115855000Y-46579000D03*
X117125000Y-42829000D03*
X117125000Y-46579000D03*
X118395000Y-42829000D03*
X118395000Y-46579000D03*
X119665000Y-42829000D03*
X119665000Y-46579000D03*
X120935000Y-42829000D03*
X120935000Y-46579000D03*
X122205000Y-42829000D03*
X122205000Y-46579000D03*
X123475000Y-42829000D03*
X123475000Y-46579000D03*
X124745000Y-42829000D03*
X124745000Y-46579000D03*
X126015000Y-42829000D03*
X126015000Y-46579000D03*
D13*
X129838000Y-79299000D03*
X129838000Y-78199000D03*
X129838000Y-77099000D03*
X129838000Y-75999000D03*
X129838000Y-74899000D03*
X129838000Y-73799000D03*
X129838000Y-72699000D03*
X129838000Y-71599000D03*
D14*
X129838000Y-70349000D03*
X129838000Y-69199000D03*
D15*
X126238000Y-79549000D03*
X126238000Y-69549000D03*
D16*
X121438000Y-81249000D03*
X121438000Y-67849000D03*
D17*
X123187500Y-64960500D03*
X122237500Y-64960500D03*
X121287500Y-64960500D03*
D18*
X129286000Y-48674000D03*
X129286000Y-43274000D03*
D19*
X123765000Y-62532500D03*
X123265000Y-62532500D03*
X122765000Y-62532500D03*
X122265000Y-62532500D03*
X121765000Y-62532500D03*
X121265000Y-62532500D03*
X120765000Y-62532500D03*
X120265000Y-62532500D03*
X119765000Y-62532500D03*
X119265000Y-62532500D03*
X118765000Y-62532500D03*
X118265000Y-62532500D03*
X117765000Y-62532500D03*
X117265000Y-62532500D03*
X116765000Y-62532500D03*
X116265000Y-62532500D03*
D20*
X114315000Y-60582500D03*
X114315000Y-60082500D03*
X114315000Y-59582500D03*
X114315000Y-59082500D03*
X114315000Y-58582500D03*
X114315000Y-58082500D03*
X114315000Y-57582500D03*
X114315000Y-57082500D03*
X114315000Y-56582500D03*
X114315000Y-56082500D03*
X114315000Y-55582500D03*
X114315000Y-55082500D03*
X114315000Y-54582500D03*
X114315000Y-54082500D03*
X114315000Y-53582500D03*
X114315000Y-53082500D03*
D19*
X116265000Y-51132500D03*
X116765000Y-51132500D03*
X117265000Y-51132500D03*
X117765000Y-51132500D03*
X118265000Y-51132500D03*
X118765000Y-51132500D03*
X119265000Y-51132500D03*
X119765000Y-51132500D03*
X120265000Y-51132500D03*
X120765000Y-51132500D03*
X121265000Y-51132500D03*
X121765000Y-51132500D03*
X122265000Y-51132500D03*
X122765000Y-51132500D03*
X123265000Y-51132500D03*
X123765000Y-51132500D03*
D20*
X125715000Y-53082500D03*
X125715000Y-53582500D03*
X125715000Y-54082500D03*
X125715000Y-54582500D03*
X125715000Y-55082500D03*
X125715000Y-55582500D03*
X125715000Y-56082500D03*
X125715000Y-56582500D03*
X125715000Y-57082500D03*
X125715000Y-57582500D03*
X125715000Y-58082500D03*
X125715000Y-58582500D03*
X125715000Y-59082500D03*
X125715000Y-59582500D03*
X125715000Y-60082500D03*
X125715000Y-60582500D03*
M02*
