G04 #@! TF.FileFunction,Soldermask,Bot*
%FSLAX46Y46*%
G04 Gerber Fmt 4.6, Leading zero omitted, Abs format (unit mm)*
G04 Created by KiCad (PCBNEW 4.0.4-stable) date 01/25/17 01:32:59*
%MOMM*%
%LPD*%
G01*
G04 APERTURE LIST*
%ADD10C,0.100000*%
%ADD11R,1.740000X1.040000*%
%ADD12R,0.390000X0.640000*%
%ADD13R,3.300000X5.800000*%
%ADD14R,1.650000X1.900000*%
%ADD15R,1.900000X1.650000*%
%ADD16R,2.100000X4.000000*%
%ADD17R,4.000000X2.100000*%
%ADD18R,2.127200X2.432000*%
%ADD19O,2.127200X2.432000*%
%ADD20R,2.100000X1.600000*%
%ADD21O,2.100000X1.600000*%
%ADD22R,1.200100X1.200100*%
%ADD23R,1.700000X1.900000*%
%ADD24R,2.100000X2.400000*%
%ADD25R,0.600000X1.100000*%
%ADD26R,2.750000X2.180000*%
%ADD27R,1.040000X1.740000*%
%ADD28R,0.640000X0.390000*%
G04 APERTURE END LIST*
D10*
D11*
X81915000Y-57467500D03*
D12*
X82665000Y-58417500D03*
X82165000Y-58417500D03*
X81665000Y-58417500D03*
X81165000Y-58417500D03*
X81165000Y-56517500D03*
X81665000Y-56517500D03*
X82165000Y-56517500D03*
X82665000Y-56517500D03*
D13*
X95628000Y-69342000D03*
X85728000Y-69342000D03*
D14*
X84023200Y-61488000D03*
X84023200Y-63988000D03*
X85344000Y-56090500D03*
X85344000Y-58590500D03*
X87122000Y-43200000D03*
X87122000Y-45700000D03*
X89408000Y-43200000D03*
X89408000Y-45700000D03*
X83629500Y-43263500D03*
X83629500Y-45763500D03*
X98171000Y-54780500D03*
X98171000Y-52280500D03*
D15*
X92984000Y-52260500D03*
X95484000Y-52260500D03*
D10*
G36*
X98472650Y-59614460D02*
X101171350Y-59614460D01*
X100571910Y-63616180D01*
X99072090Y-63616180D01*
X98472650Y-59614460D01*
X98472650Y-59614460D01*
G37*
G36*
X101171350Y-69417540D02*
X98472650Y-69417540D01*
X99072090Y-65415820D01*
X100571910Y-65415820D01*
X101171350Y-69417540D01*
X101171350Y-69417540D01*
G37*
D16*
X82797000Y-52070000D03*
X85097000Y-52070000D03*
D17*
X88900000Y-55442500D03*
X88900000Y-53142500D03*
D18*
X82804000Y-34544000D03*
D19*
X85344000Y-34544000D03*
X87884000Y-34544000D03*
X90424000Y-34544000D03*
X92964000Y-34544000D03*
X95504000Y-34544000D03*
X98044000Y-34544000D03*
D20*
X84582000Y-77978000D03*
D21*
X84582000Y-79978000D03*
D22*
X89342000Y-39100760D03*
X87442000Y-39100760D03*
X88392000Y-37101780D03*
X85278000Y-39100760D03*
X83378000Y-39100760D03*
X84328000Y-37101780D03*
X101026000Y-73644760D03*
X99126000Y-73644760D03*
X100076000Y-71645780D03*
X81214000Y-39100760D03*
X79314000Y-39100760D03*
X80264000Y-37101780D03*
D23*
X86055200Y-61417200D03*
X86055200Y-64117200D03*
X79959200Y-61489600D03*
X79959200Y-64189600D03*
X91440000Y-40212000D03*
X91440000Y-37512000D03*
X93726000Y-40212000D03*
X93726000Y-37512000D03*
X96012000Y-40212000D03*
X96012000Y-37512000D03*
D24*
X100584000Y-80486000D03*
X100584000Y-76486000D03*
D23*
X100393500Y-54817000D03*
X100393500Y-52117000D03*
D25*
X98622000Y-43737000D03*
X99022000Y-43737000D03*
X99422000Y-43737000D03*
X99822000Y-43737000D03*
X100222000Y-43737000D03*
X100622000Y-43737000D03*
X101022000Y-43737000D03*
X101022000Y-46687000D03*
X100622000Y-46687000D03*
X100222000Y-46687000D03*
X99822000Y-46687000D03*
X99422000Y-46687000D03*
X99022000Y-46687000D03*
X98622000Y-46687000D03*
D26*
X99822000Y-45212000D03*
D27*
X93980000Y-55626000D03*
D28*
X94930000Y-54876000D03*
X94930000Y-55376000D03*
X94930000Y-55876000D03*
X94930000Y-56376000D03*
X93030000Y-56376000D03*
X93030000Y-55876000D03*
X93030000Y-55376000D03*
X93030000Y-54876000D03*
D14*
X81991200Y-61488000D03*
X81991200Y-63988000D03*
M02*
