G04 #@! TF.FileFunction,Copper,L1,Top,Signal*
%FSLAX46Y46*%
G04 Gerber Fmt 4.6, Leading zero omitted, Abs format (unit mm)*
G04 Created by KiCad (PCBNEW 4.0.4-stable) date 01/25/17 01:32:59*
%MOMM*%
%LPD*%
G01*
G04 APERTURE LIST*
%ADD10C,0.100000*%
%ADD11R,1.250000X1.500000*%
%ADD12R,1.600000X2.000000*%
%ADD13R,2.000000X1.600000*%
%ADD14R,1.550000X0.600000*%
%ADD15R,1.800000X1.200000*%
%ADD16R,1.727200X2.032000*%
%ADD17O,1.727200X2.032000*%
%ADD18R,1.700000X1.200000*%
%ADD19O,1.700000X1.200000*%
%ADD20R,1.300000X1.500000*%
%ADD21R,1.700000X2.000000*%
%ADD22R,1.500000X1.300000*%
%ADD23R,1.060000X0.650000*%
%ADD24R,2.000000X1.250000*%
%ADD25R,2.300000X3.500000*%
%ADD26R,0.740000X2.550000*%
%ADD27C,0.600000*%
%ADD28C,0.400000*%
%ADD29C,0.450000*%
%ADD30C,1.000000*%
%ADD31C,0.250000*%
%ADD32C,0.500000*%
%ADD33C,0.150000*%
G04 APERTURE END LIST*
D10*
D11*
X91440000Y-40112000D03*
X91440000Y-37612000D03*
X93726000Y-40112000D03*
X93726000Y-37612000D03*
X96012000Y-40112000D03*
X96012000Y-37612000D03*
X94488000Y-68092000D03*
X94488000Y-70592000D03*
D12*
X95504000Y-65246000D03*
X95504000Y-61246000D03*
D11*
X92456000Y-76982000D03*
X92456000Y-79482000D03*
D12*
X92964000Y-65246000D03*
X92964000Y-61246000D03*
D13*
X86074000Y-73660000D03*
X82074000Y-73660000D03*
X86074000Y-71120000D03*
X82074000Y-71120000D03*
D14*
X85948000Y-65540000D03*
X85948000Y-66540000D03*
D15*
X82073000Y-64240000D03*
X82073000Y-67840000D03*
D16*
X82804000Y-34544000D03*
D17*
X85344000Y-34544000D03*
X87884000Y-34544000D03*
X90424000Y-34544000D03*
X92964000Y-34544000D03*
X95504000Y-34544000D03*
X98044000Y-34544000D03*
D18*
X84582000Y-77978000D03*
D19*
X84582000Y-79978000D03*
D20*
X88519000Y-62086500D03*
X88519000Y-64786500D03*
D21*
X101092000Y-38576000D03*
X101092000Y-34576000D03*
D20*
X82042000Y-41830000D03*
X82042000Y-44530000D03*
X79756000Y-41830000D03*
X79756000Y-44530000D03*
D22*
X95076000Y-73914000D03*
X92376000Y-73914000D03*
X86186000Y-38100000D03*
X83486000Y-38100000D03*
D20*
X95250000Y-79582000D03*
X95250000Y-76882000D03*
D23*
X90116480Y-68640920D03*
X90116480Y-69590920D03*
X90116480Y-70540920D03*
X92316480Y-70540920D03*
X92316480Y-68640920D03*
D24*
X80835500Y-56866000D03*
X80835500Y-53116000D03*
X84137500Y-56866000D03*
X84137500Y-53116000D03*
X87439500Y-56866000D03*
X87439500Y-53116000D03*
D25*
X99110800Y-64152800D03*
X99110800Y-69552800D03*
D26*
X84785000Y-46579000D03*
X84785000Y-42829000D03*
X86055000Y-46579000D03*
X86055000Y-42829000D03*
X87325000Y-46579000D03*
X87325000Y-42829000D03*
X88595000Y-46579000D03*
X88595000Y-42829000D03*
X89865000Y-46579000D03*
X89865000Y-42829000D03*
X91135000Y-46579000D03*
X91135000Y-42829000D03*
X92405000Y-46579000D03*
X92405000Y-42829000D03*
X93675000Y-46579000D03*
X93675000Y-42829000D03*
X94945000Y-46579000D03*
X94945000Y-42829000D03*
X96215000Y-46579000D03*
X96215000Y-42829000D03*
D27*
X101346000Y-61620400D03*
X98298000Y-61620400D03*
X83159600Y-60452000D03*
X96647000Y-55499000D03*
X100012500Y-58801000D03*
X98488500Y-38989000D03*
X96901000Y-36131500D03*
X101257100Y-70408800D03*
D28*
X97028000Y-42672000D03*
D27*
X99822000Y-38608000D03*
X101092000Y-37084000D03*
X101092000Y-40132000D03*
X92456000Y-81026000D03*
X97282000Y-60706000D03*
X91186000Y-61214000D03*
X80010000Y-73660000D03*
X80010000Y-71120000D03*
X97028000Y-46482000D03*
X96266000Y-48260000D03*
X84201000Y-49593500D03*
X84137500Y-54673500D03*
X81216500Y-54673500D03*
D28*
X91440000Y-38862000D03*
X93726000Y-38862000D03*
X96012000Y-38862000D03*
D29*
X98806000Y-42672000D03*
D27*
X89408000Y-67564000D03*
X90995500Y-66738500D03*
X90614500Y-59118500D03*
X89662000Y-73596500D03*
X92773500Y-59309000D03*
X91627960Y-56194960D03*
X91627960Y-54579520D03*
D28*
X86042500Y-48641000D03*
D27*
X87223600Y-62077600D03*
X79806800Y-51612800D03*
X87249000Y-48577500D03*
X89852500Y-48577500D03*
X89725500Y-51117500D03*
X83375500Y-47180500D03*
X94742000Y-49276000D03*
X99060000Y-56134000D03*
D28*
X91186000Y-44704000D03*
D27*
X89072720Y-70520560D03*
X93599000Y-58674000D03*
D28*
X92456000Y-44704000D03*
X97536000Y-45466000D03*
X99822000Y-47752000D03*
D27*
X82042000Y-46228000D03*
X79756000Y-46228000D03*
X98044000Y-72644000D03*
X98806000Y-76708000D03*
X81788000Y-38100000D03*
X81216500Y-60452000D03*
D30*
X99110800Y-64152800D02*
X99110800Y-63855600D01*
X99110800Y-63855600D02*
X101346000Y-61620400D01*
X99110800Y-64152800D02*
X99110800Y-62433200D01*
X99110800Y-62433200D02*
X98298000Y-61620400D01*
X99110800Y-64152800D02*
X96597200Y-64152800D01*
X96597200Y-64152800D02*
X95504000Y-65246000D01*
D31*
X89662000Y-60452000D02*
X83159600Y-60452000D01*
X85948000Y-66540000D02*
X89479500Y-66540000D01*
X90773500Y-65246000D02*
X92964000Y-65246000D01*
X89479500Y-66540000D02*
X90773500Y-65246000D01*
X91662000Y-65246000D02*
X90170000Y-63754000D01*
X90170000Y-63754000D02*
X90170000Y-60960000D01*
X90170000Y-60960000D02*
X89662000Y-60452000D01*
X92964000Y-65246000D02*
X91662000Y-65246000D01*
X92964000Y-65246000D02*
X92170000Y-65246000D01*
X101854000Y-56959500D02*
X98107500Y-56959500D01*
X98107500Y-56959500D02*
X96647000Y-55499000D01*
D32*
X90424000Y-34544000D02*
X90424000Y-35115500D01*
X90424000Y-35115500D02*
X91440000Y-36131500D01*
X101854000Y-56959500D02*
X100012500Y-58801000D01*
X101854000Y-44005500D02*
X101854000Y-56959500D01*
X98552000Y-40703500D02*
X101854000Y-44005500D01*
X98552000Y-39052500D02*
X98552000Y-40703500D01*
X98488500Y-38989000D02*
X98552000Y-39052500D01*
X91440000Y-36131500D02*
X96901000Y-36131500D01*
D30*
X95504000Y-65246000D02*
X92964000Y-65246000D01*
X95536000Y-65278000D02*
X95504000Y-65246000D01*
D32*
X92316480Y-70540920D02*
X94436920Y-70540920D01*
X94436920Y-70540920D02*
X94488000Y-70592000D01*
D30*
X99110800Y-69552800D02*
X100401100Y-69552800D01*
X100401100Y-69552800D02*
X101257100Y-70408800D01*
D32*
X99110800Y-69552800D02*
X95527200Y-69552800D01*
X95527200Y-69552800D02*
X94488000Y-70592000D01*
X96215000Y-46579000D02*
X96215000Y-45771000D01*
X96215000Y-45771000D02*
X96774000Y-45212000D01*
X96774000Y-44450000D02*
X96215000Y-43891000D01*
X96774000Y-45212000D02*
X96774000Y-44450000D01*
X96215000Y-43891000D02*
X96215000Y-42829000D01*
D33*
X96871000Y-42829000D02*
X96215000Y-42829000D01*
X97028000Y-42672000D02*
X96871000Y-42829000D01*
D31*
X101092000Y-38576000D02*
X99854000Y-38576000D01*
X99854000Y-38576000D02*
X99822000Y-38608000D01*
X101092000Y-38576000D02*
X101092000Y-37084000D01*
X101092000Y-38576000D02*
X101092000Y-40132000D01*
D32*
X92456000Y-79482000D02*
X92456000Y-81026000D01*
D30*
X95504000Y-61246000D02*
X96742000Y-61246000D01*
X96742000Y-61246000D02*
X97282000Y-60706000D01*
X92964000Y-61246000D02*
X91218000Y-61246000D01*
X91218000Y-61246000D02*
X91186000Y-61214000D01*
X92964000Y-61246000D02*
X95504000Y-61246000D01*
X82074000Y-73660000D02*
X80010000Y-73660000D01*
X82074000Y-71120000D02*
X80010000Y-71120000D01*
X82074000Y-71120000D02*
X82074000Y-73660000D01*
D31*
X96215000Y-46579000D02*
X96931000Y-46579000D01*
X96931000Y-46579000D02*
X97028000Y-46482000D01*
X96215000Y-46579000D02*
X96215000Y-48209000D01*
X96215000Y-48209000D02*
X96266000Y-48260000D01*
D32*
X84785000Y-46579000D02*
X84785000Y-49009500D01*
X84785000Y-49009500D02*
X84201000Y-49593500D01*
X84785000Y-46579000D02*
X84785000Y-45923000D01*
X84785000Y-45923000D02*
X84010500Y-45148500D01*
X84010500Y-45148500D02*
X84010500Y-44259500D01*
X84010500Y-44259500D02*
X84785000Y-43485000D01*
X84785000Y-43485000D02*
X84785000Y-42829000D01*
D31*
X81216500Y-54673500D02*
X84137500Y-54673500D01*
D33*
X91440000Y-38862000D02*
X91440000Y-40112000D01*
X93726000Y-40112000D02*
X93726000Y-39898000D01*
X93726000Y-39898000D02*
X91440000Y-37612000D01*
X93726000Y-40112000D02*
X93726000Y-38862000D01*
X96012000Y-40112000D02*
X96012000Y-38862000D01*
X96012000Y-40112000D02*
X96012000Y-39898000D01*
X96012000Y-39898000D02*
X93726000Y-37612000D01*
X98806000Y-42672000D02*
X98298000Y-42672000D01*
X97282000Y-38163500D02*
X100869500Y-34576000D01*
X97282000Y-41656000D02*
X97282000Y-38163500D01*
X98298000Y-42672000D02*
X97282000Y-41656000D01*
X100869500Y-34576000D02*
X101092000Y-34576000D01*
X101092000Y-35052000D02*
X101092000Y-34576000D01*
X96012000Y-37612000D02*
X97008000Y-37612000D01*
X98044000Y-36576000D02*
X98044000Y-34544000D01*
X97008000Y-37612000D02*
X98044000Y-36576000D01*
X100806000Y-34576000D02*
X101092000Y-34576000D01*
D30*
X98044000Y-34544000D02*
X101060000Y-34544000D01*
X101060000Y-34544000D02*
X101092000Y-34576000D01*
D32*
X89408000Y-67564000D02*
X89108001Y-67863999D01*
X89108001Y-67863999D02*
X89108001Y-69443321D01*
X89108001Y-69443321D02*
X89255600Y-69590920D01*
X89255600Y-69590920D02*
X90116480Y-69590920D01*
X90995500Y-66738500D02*
X90233500Y-66738500D01*
X90233500Y-66738500D02*
X89408000Y-67564000D01*
X94488000Y-68092000D02*
X93134500Y-66738500D01*
X93134500Y-66738500D02*
X90995500Y-66738500D01*
D31*
X84137500Y-52090320D02*
X84137500Y-53116000D01*
D30*
X86074000Y-73660000D02*
X86074000Y-71120000D01*
X84582000Y-77978000D02*
X86106000Y-76454000D01*
X86106000Y-76454000D02*
X86106000Y-73692000D01*
X86106000Y-73692000D02*
X86074000Y-73660000D01*
D31*
X84137500Y-52090320D02*
X84137500Y-51117500D01*
X84137500Y-51117500D02*
X85979000Y-49276000D01*
X85979000Y-49276000D02*
X88163000Y-49276000D01*
X88163000Y-49276000D02*
X88595000Y-48844000D01*
X90614500Y-50863500D02*
X88595000Y-48844000D01*
X90614500Y-59118500D02*
X90614500Y-50863500D01*
X88595000Y-48844000D02*
X88595000Y-46579000D01*
X92456000Y-76982000D02*
X91396500Y-76982000D01*
X91396500Y-76982000D02*
X89662000Y-75247500D01*
D32*
X95250000Y-76882000D02*
X92556000Y-76882000D01*
X92556000Y-76882000D02*
X92456000Y-76982000D01*
D31*
X89662000Y-75247500D02*
X89662000Y-73596500D01*
X91186000Y-48387000D02*
X91186000Y-46630000D01*
X92773500Y-49974500D02*
X91186000Y-48387000D01*
X92773500Y-59309000D02*
X92773500Y-49974500D01*
X91186000Y-46630000D02*
X91135000Y-46579000D01*
X91627960Y-54579520D02*
X91627960Y-56194960D01*
X86042500Y-48641000D02*
X86055000Y-48628500D01*
X86055000Y-48628500D02*
X86055000Y-46579000D01*
X87223600Y-62077600D02*
X88510100Y-62077600D01*
X88510100Y-62077600D02*
X88519000Y-62086500D01*
X88519000Y-62086500D02*
X81939000Y-62086500D01*
X81939000Y-62086500D02*
X81932499Y-62093001D01*
X79806800Y-51612800D02*
X79506801Y-51912799D01*
X79506801Y-51912799D02*
X79506801Y-51930803D01*
X79506801Y-51930803D02*
X79510499Y-51934501D01*
X81932499Y-62093001D02*
X79510499Y-59671001D01*
X79510499Y-59671001D02*
X79510499Y-51934501D01*
X87249000Y-48577500D02*
X87325000Y-48501500D01*
X87325000Y-48501500D02*
X87325000Y-46579000D01*
X89725500Y-51117500D02*
X87727000Y-53116000D01*
X87727000Y-53116000D02*
X87439500Y-53116000D01*
X89865000Y-48565000D02*
X89865000Y-46579000D01*
X89852500Y-48577500D02*
X89865000Y-48565000D01*
X86055000Y-42829000D02*
X86055000Y-41605000D01*
X86055000Y-41605000D02*
X85598000Y-41148000D01*
X85598000Y-41148000D02*
X84074000Y-41148000D01*
X84074000Y-41148000D02*
X83375500Y-41846500D01*
X83375500Y-41846500D02*
X83375500Y-47180500D01*
X94742000Y-49276000D02*
X99060000Y-53594000D01*
X99060000Y-53594000D02*
X99060000Y-56134000D01*
X86360000Y-40640000D02*
X87325000Y-41605000D01*
X87325000Y-41605000D02*
X87325000Y-42829000D01*
X83058000Y-40640000D02*
X86360000Y-40640000D01*
X82042000Y-41830000D02*
X82042000Y-41656000D01*
X82042000Y-41656000D02*
X83058000Y-40640000D01*
X88595000Y-41351000D02*
X88595000Y-42829000D01*
X87376000Y-40132000D02*
X88595000Y-41351000D01*
X80772000Y-40132000D02*
X87376000Y-40132000D01*
X79756000Y-41830000D02*
X79756000Y-41148000D01*
X79756000Y-41148000D02*
X80772000Y-40132000D01*
X89865000Y-41097000D02*
X89865000Y-42829000D01*
X86186000Y-38100000D02*
X86868000Y-38100000D01*
X86868000Y-38100000D02*
X89865000Y-41097000D01*
D33*
X91135000Y-42829000D02*
X91135000Y-44653000D01*
X91135000Y-44653000D02*
X91186000Y-44704000D01*
X91135000Y-42829000D02*
X91135000Y-43993000D01*
D31*
X89072720Y-70520560D02*
X90096120Y-70520560D01*
X90096120Y-70520560D02*
X90116480Y-70540920D01*
X92392500Y-48450500D02*
X92392500Y-46591500D01*
X93599000Y-49657000D02*
X92392500Y-48450500D01*
X93599000Y-58674000D02*
X93599000Y-49657000D01*
X92392500Y-46591500D02*
X92405000Y-46579000D01*
D33*
X92405000Y-42829000D02*
X92405000Y-44653000D01*
X92405000Y-44653000D02*
X92456000Y-44704000D01*
X99314000Y-48260000D02*
X99822000Y-47752000D01*
X98552000Y-48260000D02*
X99314000Y-48260000D01*
X97790000Y-47498000D02*
X98552000Y-48260000D01*
X97790000Y-45720000D02*
X97790000Y-47498000D01*
X97536000Y-45466000D02*
X97790000Y-45720000D01*
D31*
X82042000Y-46228000D02*
X82042000Y-44530000D01*
X79756000Y-46228000D02*
X79756000Y-44530000D01*
D32*
X95076000Y-73914000D02*
X96774000Y-73914000D01*
X96774000Y-73914000D02*
X98044000Y-72644000D01*
X95250000Y-79582000D02*
X95932000Y-79582000D01*
X95932000Y-79582000D02*
X98806000Y-76708000D01*
D31*
X81788000Y-38100000D02*
X83486000Y-38100000D01*
D32*
X92316480Y-68640920D02*
X92111480Y-68640920D01*
X92111480Y-68640920D02*
X91336479Y-69415921D01*
X91336479Y-69415921D02*
X91336479Y-71724479D01*
X91336479Y-71724479D02*
X92376000Y-72764000D01*
X92376000Y-72764000D02*
X92376000Y-73914000D01*
D31*
X80835500Y-56866000D02*
X80835500Y-60071000D01*
X80835500Y-60071000D02*
X81216500Y-60452000D01*
X87439500Y-56866000D02*
X86189500Y-56866000D01*
X86189500Y-56866000D02*
X84137500Y-56866000D01*
X84137500Y-56866000D02*
X84137500Y-57741000D01*
X84137500Y-57741000D02*
X81426500Y-60452000D01*
X81426500Y-60452000D02*
X81216500Y-60452000D01*
X85948000Y-65540000D02*
X85948000Y-64990000D01*
X85948000Y-64990000D02*
X83501011Y-62543011D01*
X83501011Y-62543011D02*
X81746098Y-62543010D01*
X81746098Y-62543010D02*
X79056792Y-59853704D01*
X79056792Y-59853704D02*
X79056792Y-51437806D01*
X79056792Y-51437806D02*
X79506799Y-50987799D01*
X79506799Y-50987799D02*
X80106801Y-50987799D01*
X80106801Y-50987799D02*
X80835500Y-51716498D01*
X80835500Y-51716498D02*
X80835500Y-52241000D01*
X80835500Y-52241000D02*
X80835500Y-53116000D01*
X85948000Y-65540000D02*
X87765500Y-65540000D01*
X87765500Y-65540000D02*
X88519000Y-64786500D01*
M02*
