G04 #@! TF.FileFunction,Soldermask,Top*
%FSLAX46Y46*%
G04 Gerber Fmt 4.6, Leading zero omitted, Abs format (unit mm)*
G04 Created by KiCad (PCBNEW 4.0.4-stable) date 01/25/17 01:32:59*
%MOMM*%
%LPD*%
G01*
G04 APERTURE LIST*
%ADD10C,0.100000*%
%ADD11R,1.650000X1.900000*%
%ADD12R,2.000000X2.400000*%
%ADD13R,2.400000X2.000000*%
%ADD14R,1.950000X1.000000*%
%ADD15R,2.200000X1.600000*%
%ADD16R,2.127200X2.432000*%
%ADD17O,2.127200X2.432000*%
%ADD18R,2.100000X1.600000*%
%ADD19O,2.100000X1.600000*%
%ADD20R,1.700000X1.900000*%
%ADD21R,2.100000X2.400000*%
%ADD22R,1.900000X1.700000*%
%ADD23R,1.460000X1.050000*%
%ADD24R,2.400000X1.650000*%
%ADD25R,2.700000X3.900000*%
%ADD26R,1.140000X2.950000*%
G04 APERTURE END LIST*
D10*
D11*
X91440000Y-40112000D03*
X91440000Y-37612000D03*
X93726000Y-40112000D03*
X93726000Y-37612000D03*
X96012000Y-40112000D03*
X96012000Y-37612000D03*
X94488000Y-68092000D03*
X94488000Y-70592000D03*
D12*
X95504000Y-65246000D03*
X95504000Y-61246000D03*
D11*
X92456000Y-76982000D03*
X92456000Y-79482000D03*
D12*
X92964000Y-65246000D03*
X92964000Y-61246000D03*
D13*
X86074000Y-73660000D03*
X82074000Y-73660000D03*
X86074000Y-71120000D03*
X82074000Y-71120000D03*
D14*
X85948000Y-65540000D03*
X85948000Y-66540000D03*
D15*
X82073000Y-64240000D03*
X82073000Y-67840000D03*
D16*
X82804000Y-34544000D03*
D17*
X85344000Y-34544000D03*
X87884000Y-34544000D03*
X90424000Y-34544000D03*
X92964000Y-34544000D03*
X95504000Y-34544000D03*
X98044000Y-34544000D03*
D18*
X84582000Y-77978000D03*
D19*
X84582000Y-79978000D03*
D20*
X88519000Y-62086500D03*
X88519000Y-64786500D03*
D21*
X101092000Y-38576000D03*
X101092000Y-34576000D03*
D20*
X82042000Y-41830000D03*
X82042000Y-44530000D03*
X79756000Y-41830000D03*
X79756000Y-44530000D03*
D22*
X95076000Y-73914000D03*
X92376000Y-73914000D03*
X86186000Y-38100000D03*
X83486000Y-38100000D03*
D20*
X95250000Y-79582000D03*
X95250000Y-76882000D03*
D23*
X90116480Y-68640920D03*
X90116480Y-69590920D03*
X90116480Y-70540920D03*
X92316480Y-70540920D03*
X92316480Y-68640920D03*
D24*
X80835500Y-56866000D03*
X80835500Y-53116000D03*
X84137500Y-56866000D03*
X84137500Y-53116000D03*
X87439500Y-56866000D03*
X87439500Y-53116000D03*
D25*
X99110800Y-64152800D03*
X99110800Y-69552800D03*
D26*
X84785000Y-46579000D03*
X84785000Y-42829000D03*
X86055000Y-46579000D03*
X86055000Y-42829000D03*
X87325000Y-46579000D03*
X87325000Y-42829000D03*
X88595000Y-46579000D03*
X88595000Y-42829000D03*
X89865000Y-46579000D03*
X89865000Y-42829000D03*
X91135000Y-46579000D03*
X91135000Y-42829000D03*
X92405000Y-46579000D03*
X92405000Y-42829000D03*
X93675000Y-46579000D03*
X93675000Y-42829000D03*
X94945000Y-46579000D03*
X94945000Y-42829000D03*
X96215000Y-46579000D03*
X96215000Y-42829000D03*
M02*
