G04 #@! TF.FileFunction,Copper,L2,Bot,Signal*
%FSLAX46Y46*%
G04 Gerber Fmt 4.6, Leading zero omitted, Abs format (unit mm)*
G04 Created by KiCad (PCBNEW 4.0.4-stable) date 01/25/17 01:32:59*
%MOMM*%
%LPD*%
G01*
G04 APERTURE LIST*
%ADD10C,0.100000*%
%ADD11R,1.600000X0.900000*%
%ADD12R,0.250000X0.500000*%
%ADD13R,2.900000X5.400000*%
%ADD14R,1.250000X1.500000*%
%ADD15R,1.500000X1.250000*%
%ADD16R,1.700000X3.600000*%
%ADD17R,3.600000X1.700000*%
%ADD18R,1.727200X2.032000*%
%ADD19O,1.727200X2.032000*%
%ADD20R,1.700000X1.200000*%
%ADD21O,1.700000X1.200000*%
%ADD22R,0.800100X0.800100*%
%ADD23R,1.300000X1.500000*%
%ADD24R,1.700000X2.000000*%
%ADD25R,0.200000X0.700000*%
%ADD26R,2.350000X1.780000*%
%ADD27R,0.900000X1.600000*%
%ADD28R,0.500000X0.250000*%
%ADD29C,0.600000*%
%ADD30C,0.400000*%
%ADD31C,0.450000*%
%ADD32C,1.000000*%
%ADD33C,0.250000*%
%ADD34C,0.500000*%
%ADD35C,0.150000*%
%ADD36C,0.254000*%
G04 APERTURE END LIST*
D10*
D11*
X81915000Y-57467500D03*
D12*
X82665000Y-58417500D03*
X82165000Y-58417500D03*
X81665000Y-58417500D03*
X81165000Y-58417500D03*
X81165000Y-56517500D03*
X81665000Y-56517500D03*
X82165000Y-56517500D03*
X82665000Y-56517500D03*
D13*
X95628000Y-69342000D03*
X85728000Y-69342000D03*
D14*
X84023200Y-61488000D03*
X84023200Y-63988000D03*
X85344000Y-56090500D03*
X85344000Y-58590500D03*
X87122000Y-43200000D03*
X87122000Y-45700000D03*
X89408000Y-43200000D03*
X89408000Y-45700000D03*
X83629500Y-43263500D03*
X83629500Y-45763500D03*
X98171000Y-54780500D03*
X98171000Y-52280500D03*
D15*
X92984000Y-52260500D03*
X95484000Y-52260500D03*
D10*
G36*
X98672650Y-59814460D02*
X100971350Y-59814460D01*
X100371910Y-63416180D01*
X99272090Y-63416180D01*
X98672650Y-59814460D01*
X98672650Y-59814460D01*
G37*
G36*
X100971350Y-69217540D02*
X98672650Y-69217540D01*
X99272090Y-65615820D01*
X100371910Y-65615820D01*
X100971350Y-69217540D01*
X100971350Y-69217540D01*
G37*
D16*
X82797000Y-52070000D03*
X85097000Y-52070000D03*
D17*
X88900000Y-55442500D03*
X88900000Y-53142500D03*
D18*
X82804000Y-34544000D03*
D19*
X85344000Y-34544000D03*
X87884000Y-34544000D03*
X90424000Y-34544000D03*
X92964000Y-34544000D03*
X95504000Y-34544000D03*
X98044000Y-34544000D03*
D20*
X84582000Y-77978000D03*
D21*
X84582000Y-79978000D03*
D22*
X89342000Y-39100760D03*
X87442000Y-39100760D03*
X88392000Y-37101780D03*
X85278000Y-39100760D03*
X83378000Y-39100760D03*
X84328000Y-37101780D03*
X101026000Y-73644760D03*
X99126000Y-73644760D03*
X100076000Y-71645780D03*
X81214000Y-39100760D03*
X79314000Y-39100760D03*
X80264000Y-37101780D03*
D23*
X86055200Y-61417200D03*
X86055200Y-64117200D03*
X79959200Y-61489600D03*
X79959200Y-64189600D03*
X91440000Y-40212000D03*
X91440000Y-37512000D03*
X93726000Y-40212000D03*
X93726000Y-37512000D03*
X96012000Y-40212000D03*
X96012000Y-37512000D03*
D24*
X100584000Y-80486000D03*
X100584000Y-76486000D03*
D23*
X100393500Y-54817000D03*
X100393500Y-52117000D03*
D25*
X98622000Y-43737000D03*
X99022000Y-43737000D03*
X99422000Y-43737000D03*
X99822000Y-43737000D03*
X100222000Y-43737000D03*
X100622000Y-43737000D03*
X101022000Y-43737000D03*
X101022000Y-46687000D03*
X100622000Y-46687000D03*
X100222000Y-46687000D03*
X99822000Y-46687000D03*
X99422000Y-46687000D03*
X99022000Y-46687000D03*
X98622000Y-46687000D03*
D26*
X99822000Y-45212000D03*
D27*
X93980000Y-55626000D03*
D28*
X94930000Y-54876000D03*
X94930000Y-55376000D03*
X94930000Y-55876000D03*
X94930000Y-56376000D03*
X93030000Y-56376000D03*
X93030000Y-55876000D03*
X93030000Y-55376000D03*
X93030000Y-54876000D03*
D14*
X81991200Y-61488000D03*
X81991200Y-63988000D03*
D29*
X101346000Y-61620400D03*
X98298000Y-61620400D03*
X83159600Y-60452000D03*
X96647000Y-55499000D03*
X100012500Y-58801000D03*
X98488500Y-38989000D03*
X96901000Y-36131500D03*
X101257100Y-70408800D03*
D30*
X97028000Y-42672000D03*
D29*
X99822000Y-38608000D03*
X101092000Y-37084000D03*
X101092000Y-40132000D03*
X92456000Y-81026000D03*
X97282000Y-60706000D03*
X91186000Y-61214000D03*
X80010000Y-73660000D03*
X80010000Y-71120000D03*
X97028000Y-46482000D03*
X96266000Y-48260000D03*
X84201000Y-49593500D03*
X84137500Y-54673500D03*
X81216500Y-54673500D03*
D30*
X91440000Y-38862000D03*
X93726000Y-38862000D03*
X96012000Y-38862000D03*
D31*
X98806000Y-42672000D03*
D29*
X89408000Y-67564000D03*
X90995500Y-66738500D03*
X90614500Y-59118500D03*
X89662000Y-73596500D03*
X92773500Y-59309000D03*
X91627960Y-56194960D03*
X91627960Y-54579520D03*
D30*
X86042500Y-48641000D03*
D29*
X87223600Y-62077600D03*
X79806800Y-51612800D03*
X87249000Y-48577500D03*
X89852500Y-48577500D03*
X89725500Y-51117500D03*
X83375500Y-47180500D03*
X94742000Y-49276000D03*
X99060000Y-56134000D03*
D30*
X91186000Y-44704000D03*
D29*
X89072720Y-70520560D03*
X93599000Y-58674000D03*
D30*
X92456000Y-44704000D03*
X97536000Y-45466000D03*
X99822000Y-47752000D03*
D29*
X82042000Y-46228000D03*
X79756000Y-46228000D03*
X98044000Y-72644000D03*
X98806000Y-76708000D03*
X81788000Y-38100000D03*
X81216500Y-60452000D03*
D32*
X101346000Y-61620400D02*
X99827080Y-61620400D01*
X99827080Y-61620400D02*
X99822000Y-61615320D01*
X98298000Y-61620400D02*
X99816920Y-61620400D01*
X99816920Y-61620400D02*
X99822000Y-61615320D01*
D33*
X82165000Y-58417500D02*
X82165000Y-59629800D01*
X82165000Y-59629800D02*
X83023200Y-60488000D01*
X83023200Y-60488000D02*
X83148200Y-60488000D01*
X83148200Y-60488000D02*
X84023200Y-61363000D01*
X84023200Y-61363000D02*
X84023200Y-61488000D01*
X98171000Y-54780500D02*
X97365500Y-54780500D01*
X97365500Y-54780500D02*
X96647000Y-55499000D01*
X94930000Y-55376000D02*
X96524000Y-55376000D01*
X96524000Y-55376000D02*
X96647000Y-55499000D01*
X96647000Y-55499000D02*
X96639380Y-55491380D01*
D34*
X99822000Y-58991500D02*
X99822000Y-61615320D01*
X100012500Y-58801000D02*
X99822000Y-58991500D01*
X98488500Y-37719000D02*
X98488500Y-38989000D01*
X96901000Y-36131500D02*
X98488500Y-37719000D01*
X91440000Y-37512000D02*
X91440000Y-37084000D01*
D33*
X91440000Y-37084000D02*
X90424000Y-36068000D01*
X90424000Y-36068000D02*
X90424000Y-34544000D01*
D35*
X99822000Y-43180000D02*
X99822000Y-43737000D01*
X99822000Y-43229000D02*
X99822000Y-43180000D01*
X99822000Y-43180000D02*
X99822000Y-41910000D01*
X98044000Y-41656000D02*
X97028000Y-42672000D01*
X99568000Y-41656000D02*
X98044000Y-41656000D01*
X99822000Y-41910000D02*
X99568000Y-41656000D01*
D33*
X81216500Y-54673500D02*
X81665000Y-55122000D01*
X81665000Y-55122000D02*
X81665000Y-56517500D01*
X84201000Y-49593500D02*
X84899500Y-50292000D01*
X84899500Y-50292000D02*
X84899500Y-51872500D01*
X84899500Y-51872500D02*
X85097000Y-52070000D01*
X84137500Y-54673500D02*
X84455000Y-54356000D01*
X84899500Y-53911500D02*
X84899500Y-52267500D01*
X84455000Y-54356000D02*
X84899500Y-53911500D01*
X84899500Y-52267500D02*
X85097000Y-52070000D01*
D34*
X84201000Y-49593500D02*
X84144500Y-49650000D01*
D33*
X84144500Y-54680500D02*
X84144500Y-54891000D01*
X84137500Y-54673500D02*
X84144500Y-54680500D01*
X81208880Y-54681120D02*
X81216500Y-54673500D01*
X84144500Y-54891000D02*
X85344000Y-56090500D01*
D35*
X98622000Y-43737000D02*
X97487000Y-43737000D01*
X87122000Y-44196000D02*
X87122000Y-43200000D01*
X87376000Y-44450000D02*
X87122000Y-44196000D01*
X90424000Y-44450000D02*
X87376000Y-44450000D01*
X91186000Y-43688000D02*
X90424000Y-44450000D01*
X96012000Y-43688000D02*
X91186000Y-43688000D01*
X96266000Y-43942000D02*
X96012000Y-43688000D01*
X97282000Y-43942000D02*
X96266000Y-43942000D01*
X97487000Y-43737000D02*
X97282000Y-43942000D01*
X86106000Y-41402000D02*
X85491000Y-41402000D01*
X91440000Y-40212000D02*
X90250000Y-41402000D01*
X86106000Y-41402000D02*
X90250000Y-41402000D01*
X85491000Y-41402000D02*
X83629500Y-43263500D01*
X100222000Y-43180000D02*
X100222000Y-43737000D01*
X91440000Y-40212000D02*
X91440000Y-40894000D01*
X91440000Y-40894000D02*
X92456000Y-41910000D01*
X100222000Y-41802000D02*
X100222000Y-43180000D01*
X100222000Y-43180000D02*
X100222000Y-43229000D01*
X99568000Y-41148000D02*
X100222000Y-41802000D01*
X97790000Y-41148000D02*
X99568000Y-41148000D01*
X97028000Y-41910000D02*
X97790000Y-41148000D01*
X92456000Y-41910000D02*
X97028000Y-41910000D01*
X91440000Y-40212000D02*
X91440000Y-38862000D01*
X100622000Y-43180000D02*
X100622000Y-43737000D01*
X93726000Y-40212000D02*
X93726000Y-40894000D01*
X93726000Y-40894000D02*
X94234000Y-41402000D01*
X100622000Y-41440000D02*
X100622000Y-43180000D01*
X100622000Y-43180000D02*
X100622000Y-43229000D01*
X99822000Y-40640000D02*
X100622000Y-41440000D01*
X97536000Y-40640000D02*
X99822000Y-40640000D01*
X96774000Y-41402000D02*
X97536000Y-40640000D01*
X94234000Y-41402000D02*
X96774000Y-41402000D01*
X93726000Y-40212000D02*
X93726000Y-40640000D01*
X93726000Y-38862000D02*
X93726000Y-40212000D01*
X96012000Y-38862000D02*
X96012000Y-40212000D01*
X101022000Y-43180000D02*
X101022000Y-43737000D01*
X96012000Y-40212000D02*
X100156000Y-40212000D01*
X100156000Y-40212000D02*
X101022000Y-41078000D01*
X101022000Y-41078000D02*
X101022000Y-43180000D01*
X101022000Y-43180000D02*
X101022000Y-43229000D01*
X96012000Y-40212000D02*
X95932000Y-40212000D01*
X99022000Y-42888000D02*
X98806000Y-42672000D01*
X99022000Y-43737000D02*
X99022000Y-42888000D01*
X99422000Y-43737000D02*
X99422000Y-42526000D01*
X96286000Y-43200000D02*
X89408000Y-43200000D01*
X96520000Y-43434000D02*
X96286000Y-43200000D01*
X97028000Y-43434000D02*
X96520000Y-43434000D01*
X98298000Y-42164000D02*
X97028000Y-43434000D01*
X99060000Y-42164000D02*
X98298000Y-42164000D01*
X99422000Y-42526000D02*
X99060000Y-42164000D01*
X89642000Y-43434000D02*
X89408000Y-43200000D01*
D33*
X85728000Y-69342000D02*
X85852000Y-69342000D01*
D34*
X85852000Y-69342000D02*
X87630000Y-67564000D01*
X87630000Y-67564000D02*
X89408000Y-67564000D01*
D32*
X84582000Y-77978000D02*
X84582000Y-70488000D01*
X84582000Y-70488000D02*
X85728000Y-69342000D01*
D33*
X84582000Y-70488000D02*
X85728000Y-69342000D01*
X90995500Y-66738500D02*
X90170000Y-65913000D01*
X90170000Y-65913000D02*
X90170000Y-59563000D01*
X90170000Y-59563000D02*
X90614500Y-59118500D01*
X89662000Y-73596500D02*
X92773500Y-70485000D01*
X92773500Y-70485000D02*
X92773500Y-59309000D01*
X91627960Y-56194960D02*
X91946920Y-55876000D01*
X91946920Y-55876000D02*
X93030000Y-55876000D01*
X91630500Y-53657500D02*
X91630500Y-54576980D01*
X91630500Y-54576980D02*
X91627960Y-54579520D01*
X88900000Y-53142500D02*
X88900000Y-51498500D01*
X88900000Y-51498500D02*
X86042500Y-48641000D01*
X91630500Y-53657500D02*
X92984000Y-52304000D01*
X92984000Y-52304000D02*
X92984000Y-52260500D01*
X88900000Y-53142500D02*
X92102000Y-53142500D01*
X92102000Y-53142500D02*
X92984000Y-52260500D01*
X86055200Y-61417200D02*
X86563200Y-61417200D01*
X86563200Y-61417200D02*
X87223600Y-62077600D01*
X82550000Y-48895000D02*
X82524600Y-48895000D01*
X82524600Y-48895000D02*
X79806800Y-51612800D01*
X82550000Y-48895000D02*
X83693000Y-47752000D01*
X83693000Y-47752000D02*
X86487000Y-47752000D01*
X86487000Y-47752000D02*
X87249000Y-48577500D01*
X89852500Y-50990500D02*
X89852500Y-48577500D01*
X89725500Y-51117500D02*
X89852500Y-50990500D01*
D32*
X100076000Y-71645780D02*
X100076000Y-71521320D01*
X100076000Y-71521320D02*
X97896680Y-69342000D01*
X95628000Y-69342000D02*
X97896680Y-69342000D01*
X97896680Y-69342000D02*
X99822000Y-67416680D01*
D33*
X82165000Y-56517500D02*
X82165000Y-52702000D01*
X82165000Y-52702000D02*
X82797000Y-52070000D01*
X93030000Y-55376000D02*
X88966500Y-55376000D01*
X88966500Y-55376000D02*
X88900000Y-55442500D01*
X88948880Y-55491380D02*
X88900000Y-55442500D01*
D34*
X80264000Y-37101780D02*
X80264000Y-35560000D01*
X81280000Y-34544000D02*
X82804000Y-34544000D01*
X80264000Y-35560000D02*
X81280000Y-34544000D01*
X84328000Y-37101780D02*
X84328000Y-37084000D01*
X84328000Y-37084000D02*
X85344000Y-36068000D01*
X85344000Y-36068000D02*
X85344000Y-34544000D01*
X88392000Y-37101780D02*
X88392000Y-36576000D01*
X87884000Y-36068000D02*
X87884000Y-34544000D01*
X88392000Y-36576000D02*
X87884000Y-36068000D01*
D33*
X93726000Y-37512000D02*
X93726000Y-36576000D01*
X92964000Y-35814000D02*
X92964000Y-34544000D01*
X93726000Y-36576000D02*
X92964000Y-35814000D01*
X96012000Y-37512000D02*
X96012000Y-36322000D01*
X95504000Y-35814000D02*
X95504000Y-34544000D01*
X96012000Y-36322000D02*
X95504000Y-35814000D01*
X83375500Y-47180500D02*
X83375500Y-47180500D01*
X83375500Y-47180500D02*
X83693000Y-47180500D01*
X83693000Y-47180500D02*
X92646500Y-47180500D01*
X92646500Y-47180500D02*
X94742000Y-49276000D01*
X98635736Y-56134000D02*
X99060000Y-56134000D01*
X99060000Y-56134000D02*
X99060000Y-56141620D01*
X99060000Y-56141620D02*
X99068880Y-56141620D01*
X96356998Y-56134000D02*
X98635736Y-56134000D01*
X96098998Y-55876000D02*
X96356998Y-56134000D01*
X94930000Y-55876000D02*
X96098998Y-55876000D01*
X99068880Y-56141620D02*
X100393500Y-54817000D01*
D35*
X91186000Y-44704000D02*
X93726000Y-47244000D01*
X93726000Y-47244000D02*
X96774000Y-47244000D01*
X96774000Y-47244000D02*
X97282000Y-47752000D01*
X97282000Y-47752000D02*
X99060000Y-47752000D01*
X99060000Y-47752000D02*
X99422000Y-47390000D01*
X99422000Y-47390000D02*
X99422000Y-46687000D01*
D33*
X93599000Y-58674000D02*
X92483498Y-58674000D01*
X92483498Y-58674000D02*
X92148499Y-59008999D01*
X92148499Y-59008999D02*
X92148499Y-67444781D01*
X92148499Y-67444781D02*
X89072720Y-70520560D01*
D35*
X92456000Y-44704000D02*
X93726000Y-45974000D01*
X93726000Y-45974000D02*
X96266000Y-45974000D01*
X96266000Y-45974000D02*
X96774000Y-45466000D01*
X96774000Y-45466000D02*
X97536000Y-45466000D01*
X99822000Y-47752000D02*
X99822000Y-46687000D01*
D33*
X89342000Y-39100760D02*
X89342000Y-40198000D01*
X82042000Y-41656000D02*
X82042000Y-46228000D01*
X83058000Y-40640000D02*
X82042000Y-41656000D01*
X88900000Y-40640000D02*
X83058000Y-40640000D01*
X89342000Y-40198000D02*
X88900000Y-40640000D01*
X85278000Y-39100760D02*
X85278000Y-39690000D01*
X79756000Y-41148000D02*
X79756000Y-46228000D01*
X80772000Y-40132000D02*
X79756000Y-41148000D01*
X84836000Y-40132000D02*
X80772000Y-40132000D01*
X85278000Y-39690000D02*
X84836000Y-40132000D01*
D34*
X100076000Y-72644000D02*
X101026000Y-73594000D01*
X98044000Y-72644000D02*
X100076000Y-72644000D01*
X101026000Y-73594000D02*
X101026000Y-73644760D01*
X99028000Y-76486000D02*
X100584000Y-76486000D01*
X98806000Y-76708000D02*
X99028000Y-76486000D01*
D32*
X100584000Y-76486000D02*
X100584000Y-75946000D01*
X100584000Y-75946000D02*
X99126000Y-74488000D01*
X99126000Y-74488000D02*
X99126000Y-73644760D01*
D33*
X81214000Y-39100760D02*
X81214000Y-38674000D01*
X81214000Y-38674000D02*
X81788000Y-38100000D01*
X81991200Y-61488000D02*
X81991200Y-61226700D01*
X81991200Y-61226700D02*
X81216500Y-60452000D01*
X81665000Y-58417500D02*
X81665000Y-60003500D01*
X81665000Y-60003500D02*
X81216500Y-60452000D01*
X81208880Y-60444380D02*
X81208880Y-60443120D01*
X81216500Y-60452000D02*
X81208880Y-60444380D01*
X81208880Y-60443120D02*
X80200500Y-61451500D01*
D36*
G36*
X102512000Y-82084000D02*
X78424000Y-82084000D01*
X78424000Y-80255607D01*
X83391098Y-80255607D01*
X83399122Y-80328460D01*
X83604248Y-80658780D01*
X83920168Y-80885457D01*
X84298785Y-80973982D01*
X84455000Y-80871666D01*
X84455000Y-80105000D01*
X84709000Y-80105000D01*
X84709000Y-80871666D01*
X84865215Y-80973982D01*
X85243832Y-80885457D01*
X85490805Y-80708250D01*
X99353000Y-80708250D01*
X99353000Y-81561786D01*
X99411004Y-81701820D01*
X99518181Y-81808996D01*
X99658215Y-81867000D01*
X100361750Y-81867000D01*
X100457000Y-81771750D01*
X100457000Y-80613000D01*
X100711000Y-80613000D01*
X100711000Y-81771750D01*
X100806250Y-81867000D01*
X101509785Y-81867000D01*
X101649819Y-81808996D01*
X101756996Y-81701820D01*
X101815000Y-81561786D01*
X101815000Y-80708250D01*
X101719750Y-80613000D01*
X100711000Y-80613000D01*
X100457000Y-80613000D01*
X99448250Y-80613000D01*
X99353000Y-80708250D01*
X85490805Y-80708250D01*
X85559752Y-80658780D01*
X85764878Y-80328460D01*
X85772902Y-80255607D01*
X85708598Y-80105000D01*
X84709000Y-80105000D01*
X84455000Y-80105000D01*
X83455402Y-80105000D01*
X83391098Y-80255607D01*
X78424000Y-80255607D01*
X78424000Y-79700393D01*
X83391098Y-79700393D01*
X83455402Y-79851000D01*
X84455000Y-79851000D01*
X84455000Y-79084334D01*
X84709000Y-79084334D01*
X84709000Y-79851000D01*
X85708598Y-79851000D01*
X85772902Y-79700393D01*
X85764878Y-79627540D01*
X85629921Y-79410214D01*
X99353000Y-79410214D01*
X99353000Y-80263750D01*
X99448250Y-80359000D01*
X100457000Y-80359000D01*
X100457000Y-79200250D01*
X100711000Y-79200250D01*
X100711000Y-80359000D01*
X101719750Y-80359000D01*
X101815000Y-80263750D01*
X101815000Y-79410214D01*
X101756996Y-79270180D01*
X101649819Y-79163004D01*
X101509785Y-79105000D01*
X100806250Y-79105000D01*
X100711000Y-79200250D01*
X100457000Y-79200250D01*
X100361750Y-79105000D01*
X99658215Y-79105000D01*
X99518181Y-79163004D01*
X99411004Y-79270180D01*
X99353000Y-79410214D01*
X85629921Y-79410214D01*
X85559752Y-79297220D01*
X85243832Y-79070543D01*
X84865215Y-78982018D01*
X84709000Y-79084334D01*
X84455000Y-79084334D01*
X84298785Y-78982018D01*
X83920168Y-79070543D01*
X83604248Y-79297220D01*
X83399122Y-79627540D01*
X83391098Y-79700393D01*
X78424000Y-79700393D01*
X78424000Y-77378000D01*
X83343536Y-77378000D01*
X83343536Y-78578000D01*
X83370103Y-78719190D01*
X83453546Y-78848865D01*
X83580866Y-78935859D01*
X83732000Y-78966464D01*
X85432000Y-78966464D01*
X85573190Y-78939897D01*
X85702865Y-78856454D01*
X85789859Y-78729134D01*
X85820464Y-78578000D01*
X85820464Y-77378000D01*
X85793897Y-77236810D01*
X85710454Y-77107135D01*
X85583134Y-77020141D01*
X85463000Y-76995814D01*
X85463000Y-72430464D01*
X87178000Y-72430464D01*
X87319190Y-72403897D01*
X87448865Y-72320454D01*
X87535859Y-72193134D01*
X87566464Y-72042000D01*
X87566464Y-70655425D01*
X88391602Y-70655425D01*
X88495059Y-70905812D01*
X88686461Y-71097547D01*
X88936666Y-71201442D01*
X89207585Y-71201678D01*
X89457972Y-71098221D01*
X89649707Y-70906819D01*
X89753602Y-70656614D01*
X89753690Y-70555182D01*
X92267500Y-68041372D01*
X92267500Y-70275408D01*
X89627439Y-72915469D01*
X89527135Y-72915382D01*
X89276748Y-73018839D01*
X89085013Y-73210241D01*
X88981118Y-73460446D01*
X88980882Y-73731365D01*
X89084339Y-73981752D01*
X89275741Y-74173487D01*
X89525946Y-74277382D01*
X89796865Y-74277618D01*
X90047252Y-74174161D01*
X90238987Y-73982759D01*
X90342882Y-73732554D01*
X90342970Y-73631122D01*
X93131296Y-70842796D01*
X93240983Y-70678638D01*
X93279500Y-70485000D01*
X93279500Y-66642000D01*
X93789536Y-66642000D01*
X93789536Y-72042000D01*
X93816103Y-72183190D01*
X93899546Y-72312865D01*
X94026866Y-72399859D01*
X94178000Y-72430464D01*
X97078000Y-72430464D01*
X97219190Y-72403897D01*
X97348865Y-72320454D01*
X97435859Y-72193134D01*
X97466464Y-72042000D01*
X97466464Y-70223000D01*
X97531758Y-70223000D01*
X99254707Y-71945949D01*
X99262062Y-71982924D01*
X99282158Y-72013000D01*
X98300182Y-72013000D01*
X98180054Y-71963118D01*
X97909135Y-71962882D01*
X97658748Y-72066339D01*
X97467013Y-72257741D01*
X97363118Y-72507946D01*
X97362882Y-72778865D01*
X97466339Y-73029252D01*
X97657741Y-73220987D01*
X97907946Y-73324882D01*
X98178865Y-73325118D01*
X98300161Y-73275000D01*
X98333855Y-73275000D01*
X98312062Y-73307616D01*
X98245000Y-73644760D01*
X98245000Y-74488000D01*
X98312062Y-74825144D01*
X98503039Y-75110961D01*
X99247078Y-75855000D01*
X99028000Y-75855000D01*
X98826589Y-75895063D01*
X98786526Y-75903032D01*
X98581815Y-76039816D01*
X98540964Y-76080667D01*
X98420748Y-76130339D01*
X98229013Y-76321741D01*
X98125118Y-76571946D01*
X98124882Y-76842865D01*
X98228339Y-77093252D01*
X98419741Y-77284987D01*
X98669946Y-77388882D01*
X98940865Y-77389118D01*
X99191252Y-77285661D01*
X99345536Y-77131645D01*
X99345536Y-77486000D01*
X99372103Y-77627190D01*
X99455546Y-77756865D01*
X99582866Y-77843859D01*
X99734000Y-77874464D01*
X101434000Y-77874464D01*
X101575190Y-77847897D01*
X101704865Y-77764454D01*
X101791859Y-77637134D01*
X101822464Y-77486000D01*
X101822464Y-75486000D01*
X101795897Y-75344810D01*
X101712454Y-75215135D01*
X101585134Y-75128141D01*
X101434000Y-75097536D01*
X100981458Y-75097536D01*
X100007000Y-74123078D01*
X100007000Y-73644760D01*
X99962953Y-73423321D01*
X100237486Y-73697854D01*
X100237486Y-74044810D01*
X100264053Y-74186000D01*
X100347496Y-74315675D01*
X100474816Y-74402669D01*
X100625950Y-74433274D01*
X101426050Y-74433274D01*
X101567240Y-74406707D01*
X101696915Y-74323264D01*
X101783909Y-74195944D01*
X101814514Y-74044810D01*
X101814514Y-73244710D01*
X101787947Y-73103520D01*
X101704504Y-72973845D01*
X101577184Y-72886851D01*
X101426050Y-72856246D01*
X101180614Y-72856246D01*
X100687125Y-72362757D01*
X100746915Y-72324284D01*
X100833909Y-72196964D01*
X100864514Y-72045830D01*
X100864514Y-72020974D01*
X100889938Y-71982924D01*
X100957000Y-71645780D01*
X100957000Y-71521320D01*
X100889938Y-71184176D01*
X100838425Y-71107082D01*
X100837947Y-71104540D01*
X100754504Y-70974865D01*
X100746365Y-70969304D01*
X100698961Y-70898359D01*
X99406606Y-69606004D01*
X100971350Y-69606004D01*
X101170038Y-69551347D01*
X101284254Y-69447747D01*
X101349165Y-69307873D01*
X101354543Y-69153765D01*
X100755103Y-65552045D01*
X100733807Y-65474630D01*
X100650364Y-65344955D01*
X100523044Y-65257961D01*
X100371910Y-65227356D01*
X99272090Y-65227356D01*
X99192230Y-65235653D01*
X99050615Y-65296675D01*
X98943899Y-65407986D01*
X98888897Y-65552045D01*
X98579059Y-67413699D01*
X97531758Y-68461000D01*
X97466464Y-68461000D01*
X97466464Y-66642000D01*
X97439897Y-66500810D01*
X97356454Y-66371135D01*
X97229134Y-66284141D01*
X97078000Y-66253536D01*
X94178000Y-66253536D01*
X94036810Y-66280103D01*
X93907135Y-66363546D01*
X93820141Y-66490866D01*
X93789536Y-66642000D01*
X93279500Y-66642000D01*
X93279500Y-61620400D01*
X97417000Y-61620400D01*
X97484062Y-61957544D01*
X97675039Y-62243361D01*
X97960856Y-62434338D01*
X98298000Y-62501400D01*
X98726035Y-62501400D01*
X98888897Y-63479955D01*
X98910193Y-63557370D01*
X98993636Y-63687045D01*
X99120956Y-63774039D01*
X99272090Y-63804644D01*
X100371910Y-63804644D01*
X100451770Y-63796347D01*
X100593385Y-63735325D01*
X100700101Y-63624014D01*
X100755103Y-63479955D01*
X100917965Y-62501400D01*
X101346000Y-62501400D01*
X101683144Y-62434338D01*
X101968961Y-62243361D01*
X102159938Y-61957544D01*
X102227000Y-61620400D01*
X102159938Y-61283256D01*
X101968961Y-60997439D01*
X101683144Y-60806462D01*
X101346000Y-60739400D01*
X101211218Y-60739400D01*
X101354543Y-59878235D01*
X101333247Y-59673270D01*
X101249804Y-59543595D01*
X101122484Y-59456601D01*
X100971350Y-59425996D01*
X100453000Y-59425996D01*
X100453000Y-59323509D01*
X100589487Y-59187259D01*
X100693382Y-58937054D01*
X100693618Y-58666135D01*
X100590161Y-58415748D01*
X100398759Y-58224013D01*
X100148554Y-58120118D01*
X99877635Y-58119882D01*
X99627248Y-58223339D01*
X99435513Y-58414741D01*
X99385182Y-58535950D01*
X99375816Y-58545316D01*
X99239032Y-58750027D01*
X99191000Y-58991500D01*
X99191000Y-59425996D01*
X98672650Y-59425996D01*
X98473962Y-59480653D01*
X98359746Y-59584253D01*
X98294835Y-59724127D01*
X98289457Y-59878235D01*
X98432782Y-60739400D01*
X98298000Y-60739400D01*
X97960856Y-60806462D01*
X97675039Y-60997439D01*
X97484062Y-61283256D01*
X97417000Y-61620400D01*
X93279500Y-61620400D01*
X93279500Y-59766123D01*
X93350487Y-59695259D01*
X93454382Y-59445054D01*
X93454464Y-59351360D01*
X93462946Y-59354882D01*
X93733865Y-59355118D01*
X93984252Y-59251661D01*
X94175987Y-59060259D01*
X94279882Y-58810054D01*
X94280118Y-58539135D01*
X94176661Y-58288748D01*
X93985259Y-58097013D01*
X93735054Y-57993118D01*
X93464135Y-57992882D01*
X93213748Y-58096339D01*
X93141962Y-58168000D01*
X92483498Y-58168000D01*
X92289860Y-58206517D01*
X92125702Y-58316204D01*
X91790703Y-58651203D01*
X91681016Y-58815361D01*
X91642499Y-59008999D01*
X91642499Y-66521060D01*
X91573161Y-66353248D01*
X91381759Y-66161513D01*
X91131554Y-66057618D01*
X91030122Y-66057530D01*
X90676000Y-65703408D01*
X90676000Y-59799554D01*
X90749365Y-59799618D01*
X90999752Y-59696161D01*
X91191487Y-59504759D01*
X91295382Y-59254554D01*
X91295618Y-58983635D01*
X91192161Y-58733248D01*
X91000759Y-58541513D01*
X90750554Y-58437618D01*
X90479635Y-58437382D01*
X90229248Y-58540839D01*
X90037513Y-58732241D01*
X89933618Y-58982446D01*
X89933530Y-59083878D01*
X89812204Y-59205204D01*
X89702517Y-59369362D01*
X89664000Y-59563000D01*
X89664000Y-65913000D01*
X89702517Y-66106638D01*
X89812204Y-66270796D01*
X90314469Y-66773061D01*
X90314382Y-66873365D01*
X90417839Y-67123752D01*
X90609241Y-67315487D01*
X90859446Y-67419382D01*
X91130365Y-67419618D01*
X91380752Y-67316161D01*
X91572487Y-67124759D01*
X91642499Y-66956153D01*
X91642499Y-67235189D01*
X89038159Y-69839529D01*
X88937855Y-69839442D01*
X88687468Y-69942899D01*
X88495733Y-70134301D01*
X88391838Y-70384506D01*
X88391602Y-70655425D01*
X87566464Y-70655425D01*
X87566464Y-68519905D01*
X87891369Y-68195000D01*
X89151818Y-68195000D01*
X89271946Y-68244882D01*
X89542865Y-68245118D01*
X89793252Y-68141661D01*
X89984987Y-67950259D01*
X90088882Y-67700054D01*
X90089118Y-67429135D01*
X89985661Y-67178748D01*
X89794259Y-66987013D01*
X89544054Y-66883118D01*
X89273135Y-66882882D01*
X89151839Y-66933000D01*
X87630000Y-66933000D01*
X87566464Y-66945638D01*
X87566464Y-66642000D01*
X87539897Y-66500810D01*
X87456454Y-66371135D01*
X87329134Y-66284141D01*
X87178000Y-66253536D01*
X84278000Y-66253536D01*
X84136810Y-66280103D01*
X84007135Y-66363546D01*
X83920141Y-66490866D01*
X83889536Y-66642000D01*
X83889536Y-69969057D01*
X83768062Y-70150856D01*
X83701000Y-70488000D01*
X83701000Y-76995369D01*
X83590810Y-77016103D01*
X83461135Y-77099546D01*
X83374141Y-77226866D01*
X83343536Y-77378000D01*
X78424000Y-77378000D01*
X78424000Y-64411850D01*
X78928200Y-64411850D01*
X78928200Y-65015386D01*
X78986204Y-65155420D01*
X79093381Y-65262596D01*
X79233415Y-65320600D01*
X79736950Y-65320600D01*
X79832200Y-65225350D01*
X79832200Y-64316600D01*
X80086200Y-64316600D01*
X80086200Y-65225350D01*
X80181450Y-65320600D01*
X80684985Y-65320600D01*
X80825019Y-65262596D01*
X80932196Y-65155420D01*
X80990200Y-65015386D01*
X80990200Y-64825857D01*
X81043204Y-64953820D01*
X81150381Y-65060996D01*
X81290415Y-65119000D01*
X81768950Y-65119000D01*
X81864200Y-65023750D01*
X81864200Y-64115000D01*
X82118200Y-64115000D01*
X82118200Y-65023750D01*
X82213450Y-65119000D01*
X82691985Y-65119000D01*
X82832019Y-65060996D01*
X82939196Y-64953820D01*
X82997200Y-64813786D01*
X82997200Y-64210250D01*
X83017200Y-64210250D01*
X83017200Y-64813786D01*
X83075204Y-64953820D01*
X83182381Y-65060996D01*
X83322415Y-65119000D01*
X83800950Y-65119000D01*
X83896200Y-65023750D01*
X83896200Y-64115000D01*
X84150200Y-64115000D01*
X84150200Y-65023750D01*
X84245450Y-65119000D01*
X84723985Y-65119000D01*
X84864019Y-65060996D01*
X84971196Y-64953820D01*
X85024200Y-64825857D01*
X85024200Y-64942986D01*
X85082204Y-65083020D01*
X85189381Y-65190196D01*
X85329415Y-65248200D01*
X85832950Y-65248200D01*
X85928200Y-65152950D01*
X85928200Y-64244200D01*
X86182200Y-64244200D01*
X86182200Y-65152950D01*
X86277450Y-65248200D01*
X86780985Y-65248200D01*
X86921019Y-65190196D01*
X87028196Y-65083020D01*
X87086200Y-64942986D01*
X87086200Y-64339450D01*
X86990950Y-64244200D01*
X86182200Y-64244200D01*
X85928200Y-64244200D01*
X85119450Y-64244200D01*
X85029200Y-64334450D01*
X85029200Y-64210250D01*
X84933950Y-64115000D01*
X84150200Y-64115000D01*
X83896200Y-64115000D01*
X83112450Y-64115000D01*
X83017200Y-64210250D01*
X82997200Y-64210250D01*
X82901950Y-64115000D01*
X82118200Y-64115000D01*
X81864200Y-64115000D01*
X81080450Y-64115000D01*
X80985200Y-64210250D01*
X80985200Y-64406850D01*
X80894950Y-64316600D01*
X80086200Y-64316600D01*
X79832200Y-64316600D01*
X79023450Y-64316600D01*
X78928200Y-64411850D01*
X78424000Y-64411850D01*
X78424000Y-63363814D01*
X78928200Y-63363814D01*
X78928200Y-63967350D01*
X79023450Y-64062600D01*
X79832200Y-64062600D01*
X79832200Y-63153850D01*
X80086200Y-63153850D01*
X80086200Y-64062600D01*
X80894950Y-64062600D01*
X80990200Y-63967350D01*
X80990200Y-63770750D01*
X81080450Y-63861000D01*
X81864200Y-63861000D01*
X81864200Y-62952250D01*
X82118200Y-62952250D01*
X82118200Y-63861000D01*
X82901950Y-63861000D01*
X82997200Y-63765750D01*
X82997200Y-63162214D01*
X83017200Y-63162214D01*
X83017200Y-63765750D01*
X83112450Y-63861000D01*
X83896200Y-63861000D01*
X83896200Y-62952250D01*
X84150200Y-62952250D01*
X84150200Y-63861000D01*
X84933950Y-63861000D01*
X85024200Y-63770750D01*
X85024200Y-63894950D01*
X85119450Y-63990200D01*
X85928200Y-63990200D01*
X85928200Y-63081450D01*
X86182200Y-63081450D01*
X86182200Y-63990200D01*
X86990950Y-63990200D01*
X87086200Y-63894950D01*
X87086200Y-63291414D01*
X87028196Y-63151380D01*
X86921019Y-63044204D01*
X86780985Y-62986200D01*
X86277450Y-62986200D01*
X86182200Y-63081450D01*
X85928200Y-63081450D01*
X85832950Y-62986200D01*
X85329415Y-62986200D01*
X85189381Y-63044204D01*
X85082204Y-63151380D01*
X85029200Y-63279343D01*
X85029200Y-63162214D01*
X84971196Y-63022180D01*
X84864019Y-62915004D01*
X84723985Y-62857000D01*
X84245450Y-62857000D01*
X84150200Y-62952250D01*
X83896200Y-62952250D01*
X83800950Y-62857000D01*
X83322415Y-62857000D01*
X83182381Y-62915004D01*
X83075204Y-63022180D01*
X83017200Y-63162214D01*
X82997200Y-63162214D01*
X82939196Y-63022180D01*
X82832019Y-62915004D01*
X82691985Y-62857000D01*
X82213450Y-62857000D01*
X82118200Y-62952250D01*
X81864200Y-62952250D01*
X81768950Y-62857000D01*
X81290415Y-62857000D01*
X81150381Y-62915004D01*
X81043204Y-63022180D01*
X80985200Y-63162214D01*
X80985200Y-63351743D01*
X80932196Y-63223780D01*
X80825019Y-63116604D01*
X80684985Y-63058600D01*
X80181450Y-63058600D01*
X80086200Y-63153850D01*
X79832200Y-63153850D01*
X79736950Y-63058600D01*
X79233415Y-63058600D01*
X79093381Y-63116604D01*
X78986204Y-63223780D01*
X78928200Y-63363814D01*
X78424000Y-63363814D01*
X78424000Y-60739600D01*
X78920736Y-60739600D01*
X78920736Y-62239600D01*
X78947303Y-62380790D01*
X79030746Y-62510465D01*
X79158066Y-62597459D01*
X79309200Y-62628064D01*
X80609200Y-62628064D01*
X80750390Y-62601497D01*
X80880065Y-62518054D01*
X80967059Y-62390734D01*
X80987490Y-62289840D01*
X81004303Y-62379190D01*
X81087746Y-62508865D01*
X81215066Y-62595859D01*
X81366200Y-62626464D01*
X82616200Y-62626464D01*
X82757390Y-62599897D01*
X82887065Y-62516454D01*
X82974059Y-62389134D01*
X83004664Y-62238000D01*
X83004664Y-61125041D01*
X83009736Y-61127148D01*
X83009736Y-62238000D01*
X83036303Y-62379190D01*
X83119746Y-62508865D01*
X83247066Y-62595859D01*
X83398200Y-62626464D01*
X84648200Y-62626464D01*
X84789390Y-62599897D01*
X84919065Y-62516454D01*
X85006059Y-62389134D01*
X85033240Y-62254909D01*
X85043303Y-62308390D01*
X85126746Y-62438065D01*
X85254066Y-62525059D01*
X85405200Y-62555664D01*
X86705200Y-62555664D01*
X86733310Y-62550375D01*
X86837341Y-62654587D01*
X87087546Y-62758482D01*
X87358465Y-62758718D01*
X87608852Y-62655261D01*
X87800587Y-62463859D01*
X87904482Y-62213654D01*
X87904718Y-61942735D01*
X87801261Y-61692348D01*
X87609859Y-61500613D01*
X87359654Y-61396718D01*
X87258222Y-61396630D01*
X87093664Y-61232072D01*
X87093664Y-60667200D01*
X87067097Y-60526010D01*
X86983654Y-60396335D01*
X86856334Y-60309341D01*
X86705200Y-60278736D01*
X85405200Y-60278736D01*
X85264010Y-60305303D01*
X85134335Y-60388746D01*
X85047341Y-60516066D01*
X85020160Y-60650291D01*
X85010097Y-60596810D01*
X84926654Y-60467135D01*
X84799334Y-60380141D01*
X84648200Y-60349536D01*
X83840690Y-60349536D01*
X83840718Y-60317135D01*
X83737261Y-60066748D01*
X83545859Y-59875013D01*
X83295654Y-59771118D01*
X83024735Y-59770882D01*
X83022569Y-59771777D01*
X82671000Y-59420208D01*
X82671000Y-59048500D01*
X82792002Y-59048500D01*
X82792002Y-59017752D01*
X82822750Y-59048500D01*
X82865785Y-59048500D01*
X83005819Y-58990496D01*
X83112996Y-58883320D01*
X83142227Y-58812750D01*
X84338000Y-58812750D01*
X84338000Y-59416286D01*
X84396004Y-59556320D01*
X84503181Y-59663496D01*
X84643215Y-59721500D01*
X85121750Y-59721500D01*
X85217000Y-59626250D01*
X85217000Y-58717500D01*
X85471000Y-58717500D01*
X85471000Y-59626250D01*
X85566250Y-59721500D01*
X86044785Y-59721500D01*
X86184819Y-59663496D01*
X86291996Y-59556320D01*
X86350000Y-59416286D01*
X86350000Y-58812750D01*
X86254750Y-58717500D01*
X85471000Y-58717500D01*
X85217000Y-58717500D01*
X84433250Y-58717500D01*
X84338000Y-58812750D01*
X83142227Y-58812750D01*
X83171000Y-58743286D01*
X83171000Y-58637750D01*
X83075750Y-58542500D01*
X82727500Y-58542500D01*
X82727500Y-58564500D01*
X82678464Y-58564500D01*
X82678464Y-58298500D01*
X82790785Y-58298500D01*
X82805270Y-58292500D01*
X83075750Y-58292500D01*
X83171000Y-58197250D01*
X83171000Y-58091714D01*
X83112996Y-57951680D01*
X83096000Y-57934684D01*
X83096000Y-57764714D01*
X84338000Y-57764714D01*
X84338000Y-58368250D01*
X84433250Y-58463500D01*
X85217000Y-58463500D01*
X85217000Y-57554750D01*
X85471000Y-57554750D01*
X85471000Y-58463500D01*
X86254750Y-58463500D01*
X86350000Y-58368250D01*
X86350000Y-57764714D01*
X86291996Y-57624680D01*
X86184819Y-57517504D01*
X86044785Y-57459500D01*
X85566250Y-57459500D01*
X85471000Y-57554750D01*
X85217000Y-57554750D01*
X85121750Y-57459500D01*
X84643215Y-57459500D01*
X84503181Y-57517504D01*
X84396004Y-57624680D01*
X84338000Y-57764714D01*
X83096000Y-57764714D01*
X83096000Y-57689750D01*
X83000750Y-57594500D01*
X82042000Y-57594500D01*
X82042000Y-57614500D01*
X81788000Y-57614500D01*
X81788000Y-57594500D01*
X80829250Y-57594500D01*
X80734000Y-57689750D01*
X80734000Y-57934684D01*
X80717004Y-57951680D01*
X80659000Y-58091714D01*
X80659000Y-58197250D01*
X80754250Y-58292500D01*
X81024730Y-58292500D01*
X81039215Y-58298500D01*
X81151536Y-58298500D01*
X81151536Y-58564500D01*
X81102500Y-58564500D01*
X81102500Y-58542500D01*
X80754250Y-58542500D01*
X80659000Y-58637750D01*
X80659000Y-58743286D01*
X80717004Y-58883320D01*
X80824181Y-58990496D01*
X80964215Y-59048500D01*
X81007250Y-59048500D01*
X81037998Y-59017752D01*
X81037998Y-59048500D01*
X81159000Y-59048500D01*
X81159000Y-59770949D01*
X81081635Y-59770882D01*
X80831248Y-59874339D01*
X80639513Y-60065741D01*
X80535618Y-60315946D01*
X80535587Y-60351136D01*
X79309200Y-60351136D01*
X79168010Y-60377703D01*
X79038335Y-60461146D01*
X78951341Y-60588466D01*
X78920736Y-60739600D01*
X78424000Y-60739600D01*
X78424000Y-46362865D01*
X79074882Y-46362865D01*
X79178339Y-46613252D01*
X79369741Y-46804987D01*
X79619946Y-46908882D01*
X79890865Y-46909118D01*
X80141252Y-46805661D01*
X80332987Y-46614259D01*
X80436882Y-46364054D01*
X80437118Y-46093135D01*
X80333661Y-45842748D01*
X80262000Y-45770962D01*
X80262000Y-41357592D01*
X80981592Y-40638000D01*
X82344408Y-40638000D01*
X81684204Y-41298204D01*
X81574517Y-41462362D01*
X81536000Y-41656000D01*
X81536000Y-45770877D01*
X81465013Y-45841741D01*
X81361118Y-46091946D01*
X81360882Y-46362865D01*
X81464339Y-46613252D01*
X81655741Y-46804987D01*
X81905946Y-46908882D01*
X82176865Y-46909118D01*
X82427252Y-46805661D01*
X82618987Y-46614259D01*
X82626425Y-46596347D01*
X82681504Y-46729320D01*
X82783230Y-46831045D01*
X82694618Y-47044446D01*
X82694382Y-47315365D01*
X82797839Y-47565752D01*
X82980589Y-47748819D01*
X82243351Y-48486057D01*
X82185181Y-48524925D01*
X82166804Y-48537204D01*
X79772239Y-50931769D01*
X79671935Y-50931682D01*
X79421548Y-51035139D01*
X79229813Y-51226541D01*
X79125918Y-51476746D01*
X79125682Y-51747665D01*
X79229139Y-51998052D01*
X79420541Y-52189787D01*
X79670746Y-52293682D01*
X79941665Y-52293918D01*
X80192052Y-52190461D01*
X80383787Y-51999059D01*
X80487682Y-51748854D01*
X80487770Y-51647422D01*
X81558536Y-50576656D01*
X81558536Y-53870000D01*
X81585103Y-54011190D01*
X81659000Y-54126030D01*
X81659000Y-54152852D01*
X81602759Y-54096513D01*
X81352554Y-53992618D01*
X81081635Y-53992382D01*
X80831248Y-54095839D01*
X80639513Y-54287241D01*
X80535618Y-54537446D01*
X80535382Y-54808365D01*
X80638839Y-55058752D01*
X80830241Y-55250487D01*
X81080446Y-55354382D01*
X81159000Y-55354450D01*
X81159000Y-55886500D01*
X81037998Y-55886500D01*
X81037998Y-55917248D01*
X81007250Y-55886500D01*
X80964215Y-55886500D01*
X80824181Y-55944504D01*
X80717004Y-56051680D01*
X80659000Y-56191714D01*
X80659000Y-56297250D01*
X80754250Y-56392500D01*
X81102500Y-56392500D01*
X81102500Y-56370500D01*
X81151536Y-56370500D01*
X81151536Y-56636500D01*
X81039215Y-56636500D01*
X81024730Y-56642500D01*
X80754250Y-56642500D01*
X80659000Y-56737750D01*
X80659000Y-56843286D01*
X80717004Y-56983320D01*
X80734000Y-57000316D01*
X80734000Y-57245250D01*
X80829250Y-57340500D01*
X81788000Y-57340500D01*
X81788000Y-57320500D01*
X82042000Y-57320500D01*
X82042000Y-57340500D01*
X83000750Y-57340500D01*
X83096000Y-57245250D01*
X83096000Y-56994532D01*
X83147859Y-56918634D01*
X83178464Y-56767500D01*
X83178464Y-56267500D01*
X83151897Y-56126310D01*
X83068454Y-55996635D01*
X82941134Y-55909641D01*
X82790000Y-55879036D01*
X82671000Y-55879036D01*
X82671000Y-54258464D01*
X83589340Y-54258464D01*
X83560513Y-54287241D01*
X83456618Y-54537446D01*
X83456382Y-54808365D01*
X83559839Y-55058752D01*
X83751241Y-55250487D01*
X83814778Y-55276870D01*
X84330536Y-55792628D01*
X84330536Y-56840500D01*
X84357103Y-56981690D01*
X84440546Y-57111365D01*
X84567866Y-57198359D01*
X84719000Y-57228964D01*
X85969000Y-57228964D01*
X86110190Y-57202397D01*
X86239865Y-57118954D01*
X86326859Y-56991634D01*
X86357464Y-56840500D01*
X86357464Y-55340500D01*
X86330897Y-55199310D01*
X86247454Y-55069635D01*
X86120134Y-54982641D01*
X85969000Y-54952036D01*
X84921128Y-54952036D01*
X84806723Y-54837631D01*
X84818382Y-54809554D01*
X84818470Y-54708122D01*
X85257296Y-54269296D01*
X85264534Y-54258464D01*
X85947000Y-54258464D01*
X86088190Y-54231897D01*
X86217865Y-54148454D01*
X86304859Y-54021134D01*
X86335464Y-53870000D01*
X86335464Y-50270000D01*
X86308897Y-50128810D01*
X86225454Y-49999135D01*
X86098134Y-49912141D01*
X85947000Y-49881536D01*
X85204628Y-49881536D01*
X84882031Y-49558939D01*
X84882118Y-49458635D01*
X84778661Y-49208248D01*
X84587259Y-49016513D01*
X84337054Y-48912618D01*
X84066135Y-48912382D01*
X83815748Y-49015839D01*
X83624013Y-49207241D01*
X83520118Y-49457446D01*
X83519979Y-49617434D01*
X83513501Y-49650000D01*
X83519922Y-49682282D01*
X83519882Y-49728365D01*
X83537634Y-49771330D01*
X83559555Y-49881536D01*
X82253656Y-49881536D01*
X82831249Y-49303943D01*
X82907796Y-49252796D01*
X83902592Y-48258000D01*
X85603793Y-48258000D01*
X85550240Y-48311460D01*
X85461602Y-48524925D01*
X85461400Y-48756061D01*
X85549665Y-48969680D01*
X85712960Y-49133260D01*
X85894585Y-49208677D01*
X88394000Y-51708092D01*
X88394000Y-51904036D01*
X87100000Y-51904036D01*
X86958810Y-51930603D01*
X86829135Y-52014046D01*
X86742141Y-52141366D01*
X86711536Y-52292500D01*
X86711536Y-53992500D01*
X86738103Y-54133690D01*
X86821546Y-54263365D01*
X86863426Y-54291980D01*
X86829135Y-54314046D01*
X86742141Y-54441366D01*
X86711536Y-54592500D01*
X86711536Y-56292500D01*
X86738103Y-56433690D01*
X86821546Y-56563365D01*
X86948866Y-56650359D01*
X87100000Y-56680964D01*
X90700000Y-56680964D01*
X90841190Y-56654397D01*
X90970865Y-56570954D01*
X91017981Y-56501997D01*
X91050299Y-56580212D01*
X91241701Y-56771947D01*
X91491906Y-56875842D01*
X91762825Y-56876078D01*
X92013212Y-56772621D01*
X92204947Y-56581219D01*
X92287671Y-56382000D01*
X92399000Y-56382000D01*
X92399000Y-56503002D01*
X92429748Y-56503002D01*
X92399000Y-56533750D01*
X92399000Y-56576785D01*
X92457004Y-56716819D01*
X92564180Y-56823996D01*
X92704214Y-56882000D01*
X92809750Y-56882000D01*
X92905000Y-56786750D01*
X92905000Y-56438500D01*
X92883000Y-56438500D01*
X92883000Y-56389464D01*
X93149000Y-56389464D01*
X93149000Y-56501785D01*
X93155000Y-56516270D01*
X93155000Y-56786750D01*
X93250250Y-56882000D01*
X93355786Y-56882000D01*
X93495820Y-56823996D01*
X93512816Y-56807000D01*
X93757750Y-56807000D01*
X93853000Y-56711750D01*
X93853000Y-55753000D01*
X93833000Y-55753000D01*
X93833000Y-55499000D01*
X93853000Y-55499000D01*
X93853000Y-54540250D01*
X94107000Y-54540250D01*
X94107000Y-55499000D01*
X94127000Y-55499000D01*
X94127000Y-55753000D01*
X94107000Y-55753000D01*
X94107000Y-56711750D01*
X94202250Y-56807000D01*
X94447184Y-56807000D01*
X94464180Y-56823996D01*
X94604214Y-56882000D01*
X94709750Y-56882000D01*
X94805000Y-56786750D01*
X94805000Y-56516270D01*
X94811000Y-56501785D01*
X94811000Y-56389464D01*
X95077000Y-56389464D01*
X95077000Y-56438500D01*
X95055000Y-56438500D01*
X95055000Y-56786750D01*
X95150250Y-56882000D01*
X95255786Y-56882000D01*
X95395820Y-56823996D01*
X95502996Y-56716819D01*
X95561000Y-56576785D01*
X95561000Y-56533750D01*
X95530252Y-56503002D01*
X95561000Y-56503002D01*
X95561000Y-56382000D01*
X95889406Y-56382000D01*
X95999202Y-56491796D01*
X96163360Y-56601483D01*
X96356998Y-56640000D01*
X98602877Y-56640000D01*
X98673741Y-56710987D01*
X98923946Y-56814882D01*
X99194865Y-56815118D01*
X99445252Y-56711661D01*
X99636987Y-56520259D01*
X99740882Y-56270054D01*
X99740956Y-56185136D01*
X99970628Y-55955464D01*
X101043500Y-55955464D01*
X101184690Y-55928897D01*
X101314365Y-55845454D01*
X101401359Y-55718134D01*
X101431964Y-55567000D01*
X101431964Y-54067000D01*
X101405397Y-53925810D01*
X101321954Y-53796135D01*
X101194634Y-53709141D01*
X101043500Y-53678536D01*
X99743500Y-53678536D01*
X99602310Y-53705103D01*
X99472635Y-53788546D01*
X99385641Y-53915866D01*
X99355036Y-54067000D01*
X99355036Y-55139872D01*
X99184464Y-55310444D01*
X99184464Y-54030500D01*
X99157897Y-53889310D01*
X99074454Y-53759635D01*
X98947134Y-53672641D01*
X98796000Y-53642036D01*
X97546000Y-53642036D01*
X97404810Y-53668603D01*
X97275135Y-53752046D01*
X97188141Y-53879366D01*
X97157536Y-54030500D01*
X97157536Y-54322589D01*
X97007704Y-54422704D01*
X96612439Y-54817969D01*
X96512135Y-54817882D01*
X96385999Y-54870000D01*
X95561000Y-54870000D01*
X95561000Y-54748998D01*
X95530252Y-54748998D01*
X95561000Y-54718250D01*
X95561000Y-54675215D01*
X95502996Y-54535181D01*
X95395820Y-54428004D01*
X95255786Y-54370000D01*
X95150250Y-54370000D01*
X95055000Y-54465250D01*
X95055000Y-54813500D01*
X95077000Y-54813500D01*
X95077000Y-54862536D01*
X94811000Y-54862536D01*
X94811000Y-54750215D01*
X94805000Y-54735730D01*
X94805000Y-54465250D01*
X94709750Y-54370000D01*
X94604214Y-54370000D01*
X94464180Y-54428004D01*
X94447184Y-54445000D01*
X94202250Y-54445000D01*
X94107000Y-54540250D01*
X93853000Y-54540250D01*
X93757750Y-54445000D01*
X93507032Y-54445000D01*
X93431134Y-54393141D01*
X93280000Y-54362536D01*
X92780000Y-54362536D01*
X92638810Y-54389103D01*
X92509135Y-54472546D01*
X92422141Y-54599866D01*
X92391536Y-54751000D01*
X92391536Y-54870000D01*
X92244718Y-54870000D01*
X92308842Y-54715574D01*
X92309078Y-54444655D01*
X92205621Y-54194268D01*
X92136500Y-54125027D01*
X92136500Y-53867092D01*
X92729628Y-53273964D01*
X93734000Y-53273964D01*
X93875190Y-53247397D01*
X94004865Y-53163954D01*
X94091859Y-53036634D01*
X94122464Y-52885500D01*
X94122464Y-52482750D01*
X94353000Y-52482750D01*
X94353000Y-52961285D01*
X94411004Y-53101319D01*
X94518180Y-53208496D01*
X94658214Y-53266500D01*
X95261750Y-53266500D01*
X95357000Y-53171250D01*
X95357000Y-52387500D01*
X95611000Y-52387500D01*
X95611000Y-53171250D01*
X95706250Y-53266500D01*
X96309786Y-53266500D01*
X96449820Y-53208496D01*
X96556996Y-53101319D01*
X96615000Y-52961285D01*
X96615000Y-52502750D01*
X97165000Y-52502750D01*
X97165000Y-53106286D01*
X97223004Y-53246320D01*
X97330181Y-53353496D01*
X97470215Y-53411500D01*
X97948750Y-53411500D01*
X98044000Y-53316250D01*
X98044000Y-52407500D01*
X98298000Y-52407500D01*
X98298000Y-53316250D01*
X98393250Y-53411500D01*
X98871785Y-53411500D01*
X99011819Y-53353496D01*
X99118996Y-53246320D01*
X99177000Y-53106286D01*
X99177000Y-52502750D01*
X99081750Y-52407500D01*
X98298000Y-52407500D01*
X98044000Y-52407500D01*
X97260250Y-52407500D01*
X97165000Y-52502750D01*
X96615000Y-52502750D01*
X96615000Y-52482750D01*
X96519750Y-52387500D01*
X95611000Y-52387500D01*
X95357000Y-52387500D01*
X94448250Y-52387500D01*
X94353000Y-52482750D01*
X94122464Y-52482750D01*
X94122464Y-52339250D01*
X99362500Y-52339250D01*
X99362500Y-52942786D01*
X99420504Y-53082820D01*
X99527681Y-53189996D01*
X99667715Y-53248000D01*
X100171250Y-53248000D01*
X100266500Y-53152750D01*
X100266500Y-52244000D01*
X100520500Y-52244000D01*
X100520500Y-53152750D01*
X100615750Y-53248000D01*
X101119285Y-53248000D01*
X101259319Y-53189996D01*
X101366496Y-53082820D01*
X101424500Y-52942786D01*
X101424500Y-52339250D01*
X101329250Y-52244000D01*
X100520500Y-52244000D01*
X100266500Y-52244000D01*
X99457750Y-52244000D01*
X99362500Y-52339250D01*
X94122464Y-52339250D01*
X94122464Y-51635500D01*
X94108204Y-51559715D01*
X94353000Y-51559715D01*
X94353000Y-52038250D01*
X94448250Y-52133500D01*
X95357000Y-52133500D01*
X95357000Y-51349750D01*
X95611000Y-51349750D01*
X95611000Y-52133500D01*
X96519750Y-52133500D01*
X96615000Y-52038250D01*
X96615000Y-51559715D01*
X96571508Y-51454714D01*
X97165000Y-51454714D01*
X97165000Y-52058250D01*
X97260250Y-52153500D01*
X98044000Y-52153500D01*
X98044000Y-51244750D01*
X98298000Y-51244750D01*
X98298000Y-52153500D01*
X99081750Y-52153500D01*
X99177000Y-52058250D01*
X99177000Y-51454714D01*
X99118996Y-51314680D01*
X99095530Y-51291214D01*
X99362500Y-51291214D01*
X99362500Y-51894750D01*
X99457750Y-51990000D01*
X100266500Y-51990000D01*
X100266500Y-51081250D01*
X100520500Y-51081250D01*
X100520500Y-51990000D01*
X101329250Y-51990000D01*
X101424500Y-51894750D01*
X101424500Y-51291214D01*
X101366496Y-51151180D01*
X101259319Y-51044004D01*
X101119285Y-50986000D01*
X100615750Y-50986000D01*
X100520500Y-51081250D01*
X100266500Y-51081250D01*
X100171250Y-50986000D01*
X99667715Y-50986000D01*
X99527681Y-51044004D01*
X99420504Y-51151180D01*
X99362500Y-51291214D01*
X99095530Y-51291214D01*
X99011819Y-51207504D01*
X98871785Y-51149500D01*
X98393250Y-51149500D01*
X98298000Y-51244750D01*
X98044000Y-51244750D01*
X97948750Y-51149500D01*
X97470215Y-51149500D01*
X97330181Y-51207504D01*
X97223004Y-51314680D01*
X97165000Y-51454714D01*
X96571508Y-51454714D01*
X96556996Y-51419681D01*
X96449820Y-51312504D01*
X96309786Y-51254500D01*
X95706250Y-51254500D01*
X95611000Y-51349750D01*
X95357000Y-51349750D01*
X95261750Y-51254500D01*
X94658214Y-51254500D01*
X94518180Y-51312504D01*
X94411004Y-51419681D01*
X94353000Y-51559715D01*
X94108204Y-51559715D01*
X94095897Y-51494310D01*
X94012454Y-51364635D01*
X93885134Y-51277641D01*
X93734000Y-51247036D01*
X92234000Y-51247036D01*
X92092810Y-51273603D01*
X91963135Y-51357046D01*
X91876141Y-51484366D01*
X91845536Y-51635500D01*
X91845536Y-52636500D01*
X91088464Y-52636500D01*
X91088464Y-52292500D01*
X91061897Y-52151310D01*
X90978454Y-52021635D01*
X90851134Y-51934641D01*
X90700000Y-51904036D01*
X89406000Y-51904036D01*
X89406000Y-51722208D01*
X89589446Y-51798382D01*
X89860365Y-51798618D01*
X90110752Y-51695161D01*
X90302487Y-51503759D01*
X90406382Y-51253554D01*
X90406618Y-50982635D01*
X90358500Y-50866180D01*
X90358500Y-49034623D01*
X90429487Y-48963759D01*
X90533382Y-48713554D01*
X90533618Y-48442635D01*
X90430161Y-48192248D01*
X90238759Y-48000513D01*
X89988554Y-47896618D01*
X89717635Y-47896382D01*
X89467248Y-47999839D01*
X89275513Y-48191241D01*
X89171618Y-48441446D01*
X89171382Y-48712365D01*
X89274839Y-48962752D01*
X89346500Y-49034538D01*
X89346500Y-50537256D01*
X89340248Y-50539839D01*
X89148513Y-50731241D01*
X89060438Y-50943346D01*
X87375703Y-49258611D01*
X87383865Y-49258618D01*
X87634252Y-49155161D01*
X87825987Y-48963759D01*
X87929882Y-48713554D01*
X87930118Y-48442635D01*
X87826661Y-48192248D01*
X87635259Y-48000513D01*
X87385054Y-47896618D01*
X87309052Y-47896552D01*
X87115158Y-47686500D01*
X92436908Y-47686500D01*
X94060969Y-49310561D01*
X94060882Y-49410865D01*
X94164339Y-49661252D01*
X94355741Y-49852987D01*
X94605946Y-49956882D01*
X94876865Y-49957118D01*
X95127252Y-49853661D01*
X95318987Y-49662259D01*
X95422882Y-49412054D01*
X95423118Y-49141135D01*
X95319661Y-48890748D01*
X95128259Y-48699013D01*
X94878054Y-48595118D01*
X94776622Y-48595030D01*
X93881592Y-47700000D01*
X96585118Y-47700000D01*
X96959557Y-48074438D01*
X96959559Y-48074441D01*
X97107496Y-48173289D01*
X97282000Y-48208000D01*
X99060000Y-48208000D01*
X99234504Y-48173289D01*
X99346746Y-48098292D01*
X99492460Y-48244260D01*
X99705925Y-48332898D01*
X99937061Y-48333100D01*
X100150680Y-48244835D01*
X100314260Y-48081540D01*
X100402898Y-47868075D01*
X100403100Y-47636939D01*
X100315721Y-47425464D01*
X100322000Y-47425464D01*
X100425670Y-47405957D01*
X100522000Y-47425464D01*
X100722000Y-47425464D01*
X100825670Y-47405957D01*
X100922000Y-47425464D01*
X101122000Y-47425464D01*
X101263190Y-47398897D01*
X101392865Y-47315454D01*
X101479859Y-47188134D01*
X101510464Y-47037000D01*
X101510464Y-46337000D01*
X101483897Y-46195810D01*
X101400454Y-46066135D01*
X101378000Y-46050793D01*
X101378000Y-45434250D01*
X101282750Y-45339000D01*
X99949000Y-45339000D01*
X99949000Y-45359000D01*
X99695000Y-45359000D01*
X99695000Y-45339000D01*
X98361250Y-45339000D01*
X98266000Y-45434250D01*
X98266000Y-46048981D01*
X98251135Y-46058546D01*
X98164141Y-46185866D01*
X98133536Y-46337000D01*
X98133536Y-47037000D01*
X98160103Y-47178190D01*
X98235911Y-47296000D01*
X97470881Y-47296000D01*
X97096441Y-46921559D01*
X97055944Y-46894500D01*
X96948504Y-46822711D01*
X96774000Y-46788000D01*
X93914881Y-46788000D01*
X93463118Y-46336237D01*
X93551496Y-46395289D01*
X93726000Y-46430000D01*
X96266000Y-46430000D01*
X96440504Y-46395289D01*
X96588441Y-46296441D01*
X96962881Y-45922000D01*
X97170263Y-45922000D01*
X97206460Y-45958260D01*
X97419925Y-46046898D01*
X97651061Y-46047100D01*
X97864680Y-45958835D01*
X98028260Y-45795540D01*
X98116898Y-45582075D01*
X98117100Y-45350939D01*
X98028835Y-45137320D01*
X97865540Y-44973740D01*
X97652075Y-44885102D01*
X97420939Y-44884900D01*
X97207320Y-44973165D01*
X97170421Y-45010000D01*
X96774000Y-45010000D01*
X96599496Y-45044711D01*
X96451559Y-45143559D01*
X96451557Y-45143562D01*
X96077118Y-45518000D01*
X93914882Y-45518000D01*
X93037055Y-44640173D01*
X93037100Y-44588939D01*
X92948835Y-44375320D01*
X92785540Y-44211740D01*
X92622403Y-44144000D01*
X95823118Y-44144000D01*
X95943559Y-44264441D01*
X96091496Y-44363289D01*
X96266000Y-44398000D01*
X97282000Y-44398000D01*
X97456504Y-44363289D01*
X97604441Y-44264441D01*
X97675882Y-44193000D01*
X98153481Y-44193000D01*
X98160103Y-44228190D01*
X98243546Y-44357865D01*
X98266000Y-44373207D01*
X98266000Y-44989750D01*
X98361250Y-45085000D01*
X99695000Y-45085000D01*
X99695000Y-45065000D01*
X99949000Y-45065000D01*
X99949000Y-45085000D01*
X101282750Y-45085000D01*
X101378000Y-44989750D01*
X101378000Y-44375019D01*
X101392865Y-44365454D01*
X101479859Y-44238134D01*
X101510464Y-44087000D01*
X101510464Y-43387000D01*
X101483897Y-43245810D01*
X101478000Y-43236646D01*
X101478000Y-41078000D01*
X101443289Y-40903496D01*
X101344441Y-40755559D01*
X100478441Y-39889559D01*
X100438254Y-39862707D01*
X100330504Y-39790711D01*
X100156000Y-39756000D01*
X97050464Y-39756000D01*
X97050464Y-39462000D01*
X97023897Y-39320810D01*
X96940454Y-39191135D01*
X96813134Y-39104141D01*
X96662000Y-39073536D01*
X96553259Y-39073536D01*
X96592898Y-38978075D01*
X96593100Y-38746939D01*
X96553238Y-38650464D01*
X96662000Y-38650464D01*
X96803190Y-38623897D01*
X96932865Y-38540454D01*
X97019859Y-38413134D01*
X97050464Y-38262000D01*
X97050464Y-37173332D01*
X97857500Y-37980368D01*
X97857500Y-38732818D01*
X97807618Y-38852946D01*
X97807382Y-39123865D01*
X97910839Y-39374252D01*
X98102241Y-39565987D01*
X98352446Y-39669882D01*
X98623365Y-39670118D01*
X98873752Y-39566661D01*
X99065487Y-39375259D01*
X99169382Y-39125054D01*
X99169618Y-38854135D01*
X99119500Y-38732839D01*
X99119500Y-37719000D01*
X99071468Y-37477527D01*
X98934684Y-37272816D01*
X97528333Y-35866465D01*
X97517404Y-35840014D01*
X97567712Y-35873629D01*
X98044000Y-35968369D01*
X98520288Y-35873629D01*
X98924065Y-35603834D01*
X99193860Y-35200057D01*
X99288600Y-34723769D01*
X99288600Y-34364231D01*
X99193860Y-33887943D01*
X98924065Y-33484166D01*
X98520288Y-33214371D01*
X98044000Y-33119631D01*
X97567712Y-33214371D01*
X97163935Y-33484166D01*
X96894140Y-33887943D01*
X96799400Y-34364231D01*
X96799400Y-34723769D01*
X96894140Y-35200057D01*
X97070969Y-35464701D01*
X97037054Y-35450618D01*
X96766135Y-35450382D01*
X96515748Y-35553839D01*
X96324013Y-35745241D01*
X96273201Y-35867609D01*
X96159485Y-35753893D01*
X96384065Y-35603834D01*
X96653860Y-35200057D01*
X96748600Y-34723769D01*
X96748600Y-34364231D01*
X96653860Y-33887943D01*
X96384065Y-33484166D01*
X95980288Y-33214371D01*
X95504000Y-33119631D01*
X95027712Y-33214371D01*
X94623935Y-33484166D01*
X94354140Y-33887943D01*
X94259400Y-34364231D01*
X94259400Y-34723769D01*
X94354140Y-35200057D01*
X94623935Y-35603834D01*
X95007125Y-35859873D01*
X95036517Y-36007638D01*
X95146204Y-36171796D01*
X95350170Y-36375762D01*
X95220810Y-36400103D01*
X95091135Y-36483546D01*
X95004141Y-36610866D01*
X94973536Y-36762000D01*
X94973536Y-38262000D01*
X95000103Y-38403190D01*
X95083546Y-38532865D01*
X95210866Y-38619859D01*
X95362000Y-38650464D01*
X95470741Y-38650464D01*
X95431102Y-38745925D01*
X95430900Y-38977061D01*
X95470762Y-39073536D01*
X95362000Y-39073536D01*
X95220810Y-39100103D01*
X95091135Y-39183546D01*
X95004141Y-39310866D01*
X94973536Y-39462000D01*
X94973536Y-40946000D01*
X94764464Y-40946000D01*
X94764464Y-39462000D01*
X94737897Y-39320810D01*
X94654454Y-39191135D01*
X94527134Y-39104141D01*
X94376000Y-39073536D01*
X94267259Y-39073536D01*
X94306898Y-38978075D01*
X94307100Y-38746939D01*
X94267238Y-38650464D01*
X94376000Y-38650464D01*
X94517190Y-38623897D01*
X94646865Y-38540454D01*
X94733859Y-38413134D01*
X94764464Y-38262000D01*
X94764464Y-36762000D01*
X94737897Y-36620810D01*
X94654454Y-36491135D01*
X94527134Y-36404141D01*
X94376000Y-36373536D01*
X94187586Y-36373536D01*
X94083796Y-36218204D01*
X93619485Y-35753893D01*
X93844065Y-35603834D01*
X94113860Y-35200057D01*
X94208600Y-34723769D01*
X94208600Y-34364231D01*
X94113860Y-33887943D01*
X93844065Y-33484166D01*
X93440288Y-33214371D01*
X92964000Y-33119631D01*
X92487712Y-33214371D01*
X92083935Y-33484166D01*
X91814140Y-33887943D01*
X91719400Y-34364231D01*
X91719400Y-34723769D01*
X91814140Y-35200057D01*
X92083935Y-35603834D01*
X92467125Y-35859873D01*
X92496517Y-36007638D01*
X92606204Y-36171796D01*
X92873781Y-36439373D01*
X92805135Y-36483546D01*
X92718141Y-36610866D01*
X92687536Y-36762000D01*
X92687536Y-38262000D01*
X92714103Y-38403190D01*
X92797546Y-38532865D01*
X92924866Y-38619859D01*
X93076000Y-38650464D01*
X93184741Y-38650464D01*
X93145102Y-38745925D01*
X93144900Y-38977061D01*
X93184762Y-39073536D01*
X93076000Y-39073536D01*
X92934810Y-39100103D01*
X92805135Y-39183546D01*
X92718141Y-39310866D01*
X92687536Y-39462000D01*
X92687536Y-40962000D01*
X92714103Y-41103190D01*
X92797546Y-41232865D01*
X92924866Y-41319859D01*
X93076000Y-41350464D01*
X93537582Y-41350464D01*
X93641118Y-41454000D01*
X92644882Y-41454000D01*
X92389470Y-41198588D01*
X92447859Y-41113134D01*
X92478464Y-40962000D01*
X92478464Y-39462000D01*
X92451897Y-39320810D01*
X92368454Y-39191135D01*
X92241134Y-39104141D01*
X92090000Y-39073536D01*
X91981259Y-39073536D01*
X92020898Y-38978075D01*
X92021100Y-38746939D01*
X91981238Y-38650464D01*
X92090000Y-38650464D01*
X92231190Y-38623897D01*
X92360865Y-38540454D01*
X92447859Y-38413134D01*
X92478464Y-38262000D01*
X92478464Y-36762000D01*
X92451897Y-36620810D01*
X92368454Y-36491135D01*
X92241134Y-36404141D01*
X92090000Y-36373536D01*
X91445128Y-36373536D01*
X90930000Y-35858408D01*
X90930000Y-35853776D01*
X91304065Y-35603834D01*
X91573860Y-35200057D01*
X91668600Y-34723769D01*
X91668600Y-34364231D01*
X91573860Y-33887943D01*
X91304065Y-33484166D01*
X90900288Y-33214371D01*
X90424000Y-33119631D01*
X89947712Y-33214371D01*
X89543935Y-33484166D01*
X89274140Y-33887943D01*
X89179400Y-34364231D01*
X89179400Y-34723769D01*
X89274140Y-35200057D01*
X89543935Y-35603834D01*
X89918000Y-35853776D01*
X89918000Y-36068000D01*
X89956517Y-36261638D01*
X90066204Y-36425796D01*
X90401683Y-36761275D01*
X90401536Y-36762000D01*
X90401536Y-38262000D01*
X90428103Y-38403190D01*
X90511546Y-38532865D01*
X90638866Y-38619859D01*
X90790000Y-38650464D01*
X90898741Y-38650464D01*
X90859102Y-38745925D01*
X90858900Y-38977061D01*
X90898762Y-39073536D01*
X90790000Y-39073536D01*
X90648810Y-39100103D01*
X90519135Y-39183546D01*
X90432141Y-39310866D01*
X90401536Y-39462000D01*
X90401536Y-40605582D01*
X90061118Y-40946000D01*
X89309592Y-40946000D01*
X89699796Y-40555796D01*
X89809483Y-40391638D01*
X89848000Y-40198000D01*
X89848000Y-39869338D01*
X89883240Y-39862707D01*
X90012915Y-39779264D01*
X90099909Y-39651944D01*
X90130514Y-39500810D01*
X90130514Y-38700710D01*
X90103947Y-38559520D01*
X90020504Y-38429845D01*
X89893184Y-38342851D01*
X89742050Y-38312246D01*
X88941950Y-38312246D01*
X88800760Y-38338813D01*
X88671085Y-38422256D01*
X88584091Y-38549576D01*
X88553486Y-38700710D01*
X88553486Y-39500810D01*
X88580053Y-39642000D01*
X88663496Y-39771675D01*
X88790816Y-39858669D01*
X88836000Y-39867819D01*
X88836000Y-39988408D01*
X88690408Y-40134000D01*
X85549592Y-40134000D01*
X85635796Y-40047796D01*
X85745483Y-39883638D01*
X85746940Y-39876311D01*
X85819240Y-39862707D01*
X85948915Y-39779264D01*
X86035909Y-39651944D01*
X86066514Y-39500810D01*
X86066514Y-39323010D01*
X86660950Y-39323010D01*
X86660950Y-39576595D01*
X86718954Y-39716629D01*
X86826130Y-39823806D01*
X86966164Y-39881810D01*
X87219750Y-39881810D01*
X87315000Y-39786560D01*
X87315000Y-39227760D01*
X87569000Y-39227760D01*
X87569000Y-39786560D01*
X87664250Y-39881810D01*
X87917836Y-39881810D01*
X88057870Y-39823806D01*
X88165046Y-39716629D01*
X88223050Y-39576595D01*
X88223050Y-39323010D01*
X88127800Y-39227760D01*
X87569000Y-39227760D01*
X87315000Y-39227760D01*
X86756200Y-39227760D01*
X86660950Y-39323010D01*
X86066514Y-39323010D01*
X86066514Y-38700710D01*
X86052254Y-38624925D01*
X86660950Y-38624925D01*
X86660950Y-38878510D01*
X86756200Y-38973760D01*
X87315000Y-38973760D01*
X87315000Y-38414960D01*
X87569000Y-38414960D01*
X87569000Y-38973760D01*
X88127800Y-38973760D01*
X88223050Y-38878510D01*
X88223050Y-38624925D01*
X88165046Y-38484891D01*
X88057870Y-38377714D01*
X87917836Y-38319710D01*
X87664250Y-38319710D01*
X87569000Y-38414960D01*
X87315000Y-38414960D01*
X87219750Y-38319710D01*
X86966164Y-38319710D01*
X86826130Y-38377714D01*
X86718954Y-38484891D01*
X86660950Y-38624925D01*
X86052254Y-38624925D01*
X86039947Y-38559520D01*
X85956504Y-38429845D01*
X85829184Y-38342851D01*
X85678050Y-38312246D01*
X84877950Y-38312246D01*
X84736760Y-38338813D01*
X84607085Y-38422256D01*
X84520091Y-38549576D01*
X84489486Y-38700710D01*
X84489486Y-39500810D01*
X84513042Y-39626000D01*
X84138586Y-39626000D01*
X84159050Y-39576595D01*
X84159050Y-39323010D01*
X84063800Y-39227760D01*
X83505000Y-39227760D01*
X83505000Y-39247760D01*
X83251000Y-39247760D01*
X83251000Y-39227760D01*
X82692200Y-39227760D01*
X82596950Y-39323010D01*
X82596950Y-39576595D01*
X82617414Y-39626000D01*
X81977163Y-39626000D01*
X82002514Y-39500810D01*
X82002514Y-38748208D01*
X82173252Y-38677661D01*
X82226079Y-38624925D01*
X82596950Y-38624925D01*
X82596950Y-38878510D01*
X82692200Y-38973760D01*
X83251000Y-38973760D01*
X83251000Y-38414960D01*
X83505000Y-38414960D01*
X83505000Y-38973760D01*
X84063800Y-38973760D01*
X84159050Y-38878510D01*
X84159050Y-38624925D01*
X84101046Y-38484891D01*
X83993870Y-38377714D01*
X83853836Y-38319710D01*
X83600250Y-38319710D01*
X83505000Y-38414960D01*
X83251000Y-38414960D01*
X83155750Y-38319710D01*
X82902164Y-38319710D01*
X82762130Y-38377714D01*
X82654954Y-38484891D01*
X82596950Y-38624925D01*
X82226079Y-38624925D01*
X82364987Y-38486259D01*
X82468882Y-38236054D01*
X82469118Y-37965135D01*
X82365661Y-37714748D01*
X82174259Y-37523013D01*
X81924054Y-37419118D01*
X81653135Y-37418882D01*
X81402748Y-37522339D01*
X81211013Y-37713741D01*
X81107118Y-37963946D01*
X81107030Y-38065378D01*
X80860162Y-38312246D01*
X80813950Y-38312246D01*
X80672760Y-38338813D01*
X80543085Y-38422256D01*
X80456091Y-38549576D01*
X80425486Y-38700710D01*
X80425486Y-39500810D01*
X80452053Y-39642000D01*
X80500164Y-39716767D01*
X80414204Y-39774204D01*
X79398204Y-40790204D01*
X79288517Y-40954362D01*
X79250000Y-41148000D01*
X79250000Y-45770877D01*
X79179013Y-45841741D01*
X79075118Y-46091946D01*
X79074882Y-46362865D01*
X78424000Y-46362865D01*
X78424000Y-39323010D01*
X78532950Y-39323010D01*
X78532950Y-39576595D01*
X78590954Y-39716629D01*
X78698130Y-39823806D01*
X78838164Y-39881810D01*
X79091750Y-39881810D01*
X79187000Y-39786560D01*
X79187000Y-39227760D01*
X79441000Y-39227760D01*
X79441000Y-39786560D01*
X79536250Y-39881810D01*
X79789836Y-39881810D01*
X79929870Y-39823806D01*
X80037046Y-39716629D01*
X80095050Y-39576595D01*
X80095050Y-39323010D01*
X79999800Y-39227760D01*
X79441000Y-39227760D01*
X79187000Y-39227760D01*
X78628200Y-39227760D01*
X78532950Y-39323010D01*
X78424000Y-39323010D01*
X78424000Y-38624925D01*
X78532950Y-38624925D01*
X78532950Y-38878510D01*
X78628200Y-38973760D01*
X79187000Y-38973760D01*
X79187000Y-38414960D01*
X79441000Y-38414960D01*
X79441000Y-38973760D01*
X79999800Y-38973760D01*
X80095050Y-38878510D01*
X80095050Y-38624925D01*
X80037046Y-38484891D01*
X79929870Y-38377714D01*
X79789836Y-38319710D01*
X79536250Y-38319710D01*
X79441000Y-38414960D01*
X79187000Y-38414960D01*
X79091750Y-38319710D01*
X78838164Y-38319710D01*
X78698130Y-38377714D01*
X78590954Y-38484891D01*
X78532950Y-38624925D01*
X78424000Y-38624925D01*
X78424000Y-36701730D01*
X79475486Y-36701730D01*
X79475486Y-37501830D01*
X79502053Y-37643020D01*
X79585496Y-37772695D01*
X79712816Y-37859689D01*
X79863950Y-37890294D01*
X80664050Y-37890294D01*
X80805240Y-37863727D01*
X80934915Y-37780284D01*
X81021909Y-37652964D01*
X81052514Y-37501830D01*
X81052514Y-36701730D01*
X83539486Y-36701730D01*
X83539486Y-37501830D01*
X83566053Y-37643020D01*
X83649496Y-37772695D01*
X83776816Y-37859689D01*
X83927950Y-37890294D01*
X84728050Y-37890294D01*
X84869240Y-37863727D01*
X84998915Y-37780284D01*
X85085909Y-37652964D01*
X85116514Y-37501830D01*
X85116514Y-37187854D01*
X85790184Y-36514184D01*
X85926968Y-36309473D01*
X85975000Y-36068000D01*
X85975000Y-35770254D01*
X86224065Y-35603834D01*
X86493860Y-35200057D01*
X86588600Y-34723769D01*
X86588600Y-34364231D01*
X86639400Y-34364231D01*
X86639400Y-34723769D01*
X86734140Y-35200057D01*
X87003935Y-35603834D01*
X87253000Y-35770254D01*
X87253000Y-36068000D01*
X87301032Y-36309473D01*
X87437816Y-36514184D01*
X87607170Y-36683538D01*
X87603486Y-36701730D01*
X87603486Y-37501830D01*
X87630053Y-37643020D01*
X87713496Y-37772695D01*
X87840816Y-37859689D01*
X87991950Y-37890294D01*
X88792050Y-37890294D01*
X88933240Y-37863727D01*
X89062915Y-37780284D01*
X89149909Y-37652964D01*
X89180514Y-37501830D01*
X89180514Y-36701730D01*
X89153947Y-36560540D01*
X89070504Y-36430865D01*
X88982118Y-36370474D01*
X88974968Y-36334527D01*
X88897243Y-36218204D01*
X88838184Y-36129815D01*
X88515000Y-35806632D01*
X88515000Y-35770254D01*
X88764065Y-35603834D01*
X89033860Y-35200057D01*
X89128600Y-34723769D01*
X89128600Y-34364231D01*
X89033860Y-33887943D01*
X88764065Y-33484166D01*
X88360288Y-33214371D01*
X87884000Y-33119631D01*
X87407712Y-33214371D01*
X87003935Y-33484166D01*
X86734140Y-33887943D01*
X86639400Y-34364231D01*
X86588600Y-34364231D01*
X86493860Y-33887943D01*
X86224065Y-33484166D01*
X85820288Y-33214371D01*
X85344000Y-33119631D01*
X84867712Y-33214371D01*
X84463935Y-33484166D01*
X84194140Y-33887943D01*
X84099400Y-34364231D01*
X84099400Y-34723769D01*
X84194140Y-35200057D01*
X84463935Y-35603834D01*
X84713000Y-35770254D01*
X84713000Y-35806632D01*
X84206366Y-36313266D01*
X83927950Y-36313266D01*
X83786760Y-36339833D01*
X83657085Y-36423276D01*
X83570091Y-36550596D01*
X83539486Y-36701730D01*
X81052514Y-36701730D01*
X81025947Y-36560540D01*
X80942504Y-36430865D01*
X80895000Y-36398407D01*
X80895000Y-35821368D01*
X81541368Y-35175000D01*
X81551936Y-35175000D01*
X81551936Y-35560000D01*
X81578503Y-35701190D01*
X81661946Y-35830865D01*
X81789266Y-35917859D01*
X81940400Y-35948464D01*
X83667600Y-35948464D01*
X83808790Y-35921897D01*
X83938465Y-35838454D01*
X84025459Y-35711134D01*
X84056064Y-35560000D01*
X84056064Y-33528000D01*
X84029497Y-33386810D01*
X83946054Y-33257135D01*
X83818734Y-33170141D01*
X83667600Y-33139536D01*
X81940400Y-33139536D01*
X81799210Y-33166103D01*
X81669535Y-33249546D01*
X81582541Y-33376866D01*
X81551936Y-33528000D01*
X81551936Y-33913000D01*
X81280000Y-33913000D01*
X81038527Y-33961032D01*
X80833816Y-34097816D01*
X79817816Y-35113816D01*
X79681032Y-35318527D01*
X79633000Y-35560000D01*
X79633000Y-36397592D01*
X79593085Y-36423276D01*
X79506091Y-36550596D01*
X79475486Y-36701730D01*
X78424000Y-36701730D01*
X78424000Y-32996000D01*
X102512000Y-32996000D01*
X102512000Y-82084000D01*
X102512000Y-82084000D01*
G37*
X102512000Y-82084000D02*
X78424000Y-82084000D01*
X78424000Y-80255607D01*
X83391098Y-80255607D01*
X83399122Y-80328460D01*
X83604248Y-80658780D01*
X83920168Y-80885457D01*
X84298785Y-80973982D01*
X84455000Y-80871666D01*
X84455000Y-80105000D01*
X84709000Y-80105000D01*
X84709000Y-80871666D01*
X84865215Y-80973982D01*
X85243832Y-80885457D01*
X85490805Y-80708250D01*
X99353000Y-80708250D01*
X99353000Y-81561786D01*
X99411004Y-81701820D01*
X99518181Y-81808996D01*
X99658215Y-81867000D01*
X100361750Y-81867000D01*
X100457000Y-81771750D01*
X100457000Y-80613000D01*
X100711000Y-80613000D01*
X100711000Y-81771750D01*
X100806250Y-81867000D01*
X101509785Y-81867000D01*
X101649819Y-81808996D01*
X101756996Y-81701820D01*
X101815000Y-81561786D01*
X101815000Y-80708250D01*
X101719750Y-80613000D01*
X100711000Y-80613000D01*
X100457000Y-80613000D01*
X99448250Y-80613000D01*
X99353000Y-80708250D01*
X85490805Y-80708250D01*
X85559752Y-80658780D01*
X85764878Y-80328460D01*
X85772902Y-80255607D01*
X85708598Y-80105000D01*
X84709000Y-80105000D01*
X84455000Y-80105000D01*
X83455402Y-80105000D01*
X83391098Y-80255607D01*
X78424000Y-80255607D01*
X78424000Y-79700393D01*
X83391098Y-79700393D01*
X83455402Y-79851000D01*
X84455000Y-79851000D01*
X84455000Y-79084334D01*
X84709000Y-79084334D01*
X84709000Y-79851000D01*
X85708598Y-79851000D01*
X85772902Y-79700393D01*
X85764878Y-79627540D01*
X85629921Y-79410214D01*
X99353000Y-79410214D01*
X99353000Y-80263750D01*
X99448250Y-80359000D01*
X100457000Y-80359000D01*
X100457000Y-79200250D01*
X100711000Y-79200250D01*
X100711000Y-80359000D01*
X101719750Y-80359000D01*
X101815000Y-80263750D01*
X101815000Y-79410214D01*
X101756996Y-79270180D01*
X101649819Y-79163004D01*
X101509785Y-79105000D01*
X100806250Y-79105000D01*
X100711000Y-79200250D01*
X100457000Y-79200250D01*
X100361750Y-79105000D01*
X99658215Y-79105000D01*
X99518181Y-79163004D01*
X99411004Y-79270180D01*
X99353000Y-79410214D01*
X85629921Y-79410214D01*
X85559752Y-79297220D01*
X85243832Y-79070543D01*
X84865215Y-78982018D01*
X84709000Y-79084334D01*
X84455000Y-79084334D01*
X84298785Y-78982018D01*
X83920168Y-79070543D01*
X83604248Y-79297220D01*
X83399122Y-79627540D01*
X83391098Y-79700393D01*
X78424000Y-79700393D01*
X78424000Y-77378000D01*
X83343536Y-77378000D01*
X83343536Y-78578000D01*
X83370103Y-78719190D01*
X83453546Y-78848865D01*
X83580866Y-78935859D01*
X83732000Y-78966464D01*
X85432000Y-78966464D01*
X85573190Y-78939897D01*
X85702865Y-78856454D01*
X85789859Y-78729134D01*
X85820464Y-78578000D01*
X85820464Y-77378000D01*
X85793897Y-77236810D01*
X85710454Y-77107135D01*
X85583134Y-77020141D01*
X85463000Y-76995814D01*
X85463000Y-72430464D01*
X87178000Y-72430464D01*
X87319190Y-72403897D01*
X87448865Y-72320454D01*
X87535859Y-72193134D01*
X87566464Y-72042000D01*
X87566464Y-70655425D01*
X88391602Y-70655425D01*
X88495059Y-70905812D01*
X88686461Y-71097547D01*
X88936666Y-71201442D01*
X89207585Y-71201678D01*
X89457972Y-71098221D01*
X89649707Y-70906819D01*
X89753602Y-70656614D01*
X89753690Y-70555182D01*
X92267500Y-68041372D01*
X92267500Y-70275408D01*
X89627439Y-72915469D01*
X89527135Y-72915382D01*
X89276748Y-73018839D01*
X89085013Y-73210241D01*
X88981118Y-73460446D01*
X88980882Y-73731365D01*
X89084339Y-73981752D01*
X89275741Y-74173487D01*
X89525946Y-74277382D01*
X89796865Y-74277618D01*
X90047252Y-74174161D01*
X90238987Y-73982759D01*
X90342882Y-73732554D01*
X90342970Y-73631122D01*
X93131296Y-70842796D01*
X93240983Y-70678638D01*
X93279500Y-70485000D01*
X93279500Y-66642000D01*
X93789536Y-66642000D01*
X93789536Y-72042000D01*
X93816103Y-72183190D01*
X93899546Y-72312865D01*
X94026866Y-72399859D01*
X94178000Y-72430464D01*
X97078000Y-72430464D01*
X97219190Y-72403897D01*
X97348865Y-72320454D01*
X97435859Y-72193134D01*
X97466464Y-72042000D01*
X97466464Y-70223000D01*
X97531758Y-70223000D01*
X99254707Y-71945949D01*
X99262062Y-71982924D01*
X99282158Y-72013000D01*
X98300182Y-72013000D01*
X98180054Y-71963118D01*
X97909135Y-71962882D01*
X97658748Y-72066339D01*
X97467013Y-72257741D01*
X97363118Y-72507946D01*
X97362882Y-72778865D01*
X97466339Y-73029252D01*
X97657741Y-73220987D01*
X97907946Y-73324882D01*
X98178865Y-73325118D01*
X98300161Y-73275000D01*
X98333855Y-73275000D01*
X98312062Y-73307616D01*
X98245000Y-73644760D01*
X98245000Y-74488000D01*
X98312062Y-74825144D01*
X98503039Y-75110961D01*
X99247078Y-75855000D01*
X99028000Y-75855000D01*
X98826589Y-75895063D01*
X98786526Y-75903032D01*
X98581815Y-76039816D01*
X98540964Y-76080667D01*
X98420748Y-76130339D01*
X98229013Y-76321741D01*
X98125118Y-76571946D01*
X98124882Y-76842865D01*
X98228339Y-77093252D01*
X98419741Y-77284987D01*
X98669946Y-77388882D01*
X98940865Y-77389118D01*
X99191252Y-77285661D01*
X99345536Y-77131645D01*
X99345536Y-77486000D01*
X99372103Y-77627190D01*
X99455546Y-77756865D01*
X99582866Y-77843859D01*
X99734000Y-77874464D01*
X101434000Y-77874464D01*
X101575190Y-77847897D01*
X101704865Y-77764454D01*
X101791859Y-77637134D01*
X101822464Y-77486000D01*
X101822464Y-75486000D01*
X101795897Y-75344810D01*
X101712454Y-75215135D01*
X101585134Y-75128141D01*
X101434000Y-75097536D01*
X100981458Y-75097536D01*
X100007000Y-74123078D01*
X100007000Y-73644760D01*
X99962953Y-73423321D01*
X100237486Y-73697854D01*
X100237486Y-74044810D01*
X100264053Y-74186000D01*
X100347496Y-74315675D01*
X100474816Y-74402669D01*
X100625950Y-74433274D01*
X101426050Y-74433274D01*
X101567240Y-74406707D01*
X101696915Y-74323264D01*
X101783909Y-74195944D01*
X101814514Y-74044810D01*
X101814514Y-73244710D01*
X101787947Y-73103520D01*
X101704504Y-72973845D01*
X101577184Y-72886851D01*
X101426050Y-72856246D01*
X101180614Y-72856246D01*
X100687125Y-72362757D01*
X100746915Y-72324284D01*
X100833909Y-72196964D01*
X100864514Y-72045830D01*
X100864514Y-72020974D01*
X100889938Y-71982924D01*
X100957000Y-71645780D01*
X100957000Y-71521320D01*
X100889938Y-71184176D01*
X100838425Y-71107082D01*
X100837947Y-71104540D01*
X100754504Y-70974865D01*
X100746365Y-70969304D01*
X100698961Y-70898359D01*
X99406606Y-69606004D01*
X100971350Y-69606004D01*
X101170038Y-69551347D01*
X101284254Y-69447747D01*
X101349165Y-69307873D01*
X101354543Y-69153765D01*
X100755103Y-65552045D01*
X100733807Y-65474630D01*
X100650364Y-65344955D01*
X100523044Y-65257961D01*
X100371910Y-65227356D01*
X99272090Y-65227356D01*
X99192230Y-65235653D01*
X99050615Y-65296675D01*
X98943899Y-65407986D01*
X98888897Y-65552045D01*
X98579059Y-67413699D01*
X97531758Y-68461000D01*
X97466464Y-68461000D01*
X97466464Y-66642000D01*
X97439897Y-66500810D01*
X97356454Y-66371135D01*
X97229134Y-66284141D01*
X97078000Y-66253536D01*
X94178000Y-66253536D01*
X94036810Y-66280103D01*
X93907135Y-66363546D01*
X93820141Y-66490866D01*
X93789536Y-66642000D01*
X93279500Y-66642000D01*
X93279500Y-61620400D01*
X97417000Y-61620400D01*
X97484062Y-61957544D01*
X97675039Y-62243361D01*
X97960856Y-62434338D01*
X98298000Y-62501400D01*
X98726035Y-62501400D01*
X98888897Y-63479955D01*
X98910193Y-63557370D01*
X98993636Y-63687045D01*
X99120956Y-63774039D01*
X99272090Y-63804644D01*
X100371910Y-63804644D01*
X100451770Y-63796347D01*
X100593385Y-63735325D01*
X100700101Y-63624014D01*
X100755103Y-63479955D01*
X100917965Y-62501400D01*
X101346000Y-62501400D01*
X101683144Y-62434338D01*
X101968961Y-62243361D01*
X102159938Y-61957544D01*
X102227000Y-61620400D01*
X102159938Y-61283256D01*
X101968961Y-60997439D01*
X101683144Y-60806462D01*
X101346000Y-60739400D01*
X101211218Y-60739400D01*
X101354543Y-59878235D01*
X101333247Y-59673270D01*
X101249804Y-59543595D01*
X101122484Y-59456601D01*
X100971350Y-59425996D01*
X100453000Y-59425996D01*
X100453000Y-59323509D01*
X100589487Y-59187259D01*
X100693382Y-58937054D01*
X100693618Y-58666135D01*
X100590161Y-58415748D01*
X100398759Y-58224013D01*
X100148554Y-58120118D01*
X99877635Y-58119882D01*
X99627248Y-58223339D01*
X99435513Y-58414741D01*
X99385182Y-58535950D01*
X99375816Y-58545316D01*
X99239032Y-58750027D01*
X99191000Y-58991500D01*
X99191000Y-59425996D01*
X98672650Y-59425996D01*
X98473962Y-59480653D01*
X98359746Y-59584253D01*
X98294835Y-59724127D01*
X98289457Y-59878235D01*
X98432782Y-60739400D01*
X98298000Y-60739400D01*
X97960856Y-60806462D01*
X97675039Y-60997439D01*
X97484062Y-61283256D01*
X97417000Y-61620400D01*
X93279500Y-61620400D01*
X93279500Y-59766123D01*
X93350487Y-59695259D01*
X93454382Y-59445054D01*
X93454464Y-59351360D01*
X93462946Y-59354882D01*
X93733865Y-59355118D01*
X93984252Y-59251661D01*
X94175987Y-59060259D01*
X94279882Y-58810054D01*
X94280118Y-58539135D01*
X94176661Y-58288748D01*
X93985259Y-58097013D01*
X93735054Y-57993118D01*
X93464135Y-57992882D01*
X93213748Y-58096339D01*
X93141962Y-58168000D01*
X92483498Y-58168000D01*
X92289860Y-58206517D01*
X92125702Y-58316204D01*
X91790703Y-58651203D01*
X91681016Y-58815361D01*
X91642499Y-59008999D01*
X91642499Y-66521060D01*
X91573161Y-66353248D01*
X91381759Y-66161513D01*
X91131554Y-66057618D01*
X91030122Y-66057530D01*
X90676000Y-65703408D01*
X90676000Y-59799554D01*
X90749365Y-59799618D01*
X90999752Y-59696161D01*
X91191487Y-59504759D01*
X91295382Y-59254554D01*
X91295618Y-58983635D01*
X91192161Y-58733248D01*
X91000759Y-58541513D01*
X90750554Y-58437618D01*
X90479635Y-58437382D01*
X90229248Y-58540839D01*
X90037513Y-58732241D01*
X89933618Y-58982446D01*
X89933530Y-59083878D01*
X89812204Y-59205204D01*
X89702517Y-59369362D01*
X89664000Y-59563000D01*
X89664000Y-65913000D01*
X89702517Y-66106638D01*
X89812204Y-66270796D01*
X90314469Y-66773061D01*
X90314382Y-66873365D01*
X90417839Y-67123752D01*
X90609241Y-67315487D01*
X90859446Y-67419382D01*
X91130365Y-67419618D01*
X91380752Y-67316161D01*
X91572487Y-67124759D01*
X91642499Y-66956153D01*
X91642499Y-67235189D01*
X89038159Y-69839529D01*
X88937855Y-69839442D01*
X88687468Y-69942899D01*
X88495733Y-70134301D01*
X88391838Y-70384506D01*
X88391602Y-70655425D01*
X87566464Y-70655425D01*
X87566464Y-68519905D01*
X87891369Y-68195000D01*
X89151818Y-68195000D01*
X89271946Y-68244882D01*
X89542865Y-68245118D01*
X89793252Y-68141661D01*
X89984987Y-67950259D01*
X90088882Y-67700054D01*
X90089118Y-67429135D01*
X89985661Y-67178748D01*
X89794259Y-66987013D01*
X89544054Y-66883118D01*
X89273135Y-66882882D01*
X89151839Y-66933000D01*
X87630000Y-66933000D01*
X87566464Y-66945638D01*
X87566464Y-66642000D01*
X87539897Y-66500810D01*
X87456454Y-66371135D01*
X87329134Y-66284141D01*
X87178000Y-66253536D01*
X84278000Y-66253536D01*
X84136810Y-66280103D01*
X84007135Y-66363546D01*
X83920141Y-66490866D01*
X83889536Y-66642000D01*
X83889536Y-69969057D01*
X83768062Y-70150856D01*
X83701000Y-70488000D01*
X83701000Y-76995369D01*
X83590810Y-77016103D01*
X83461135Y-77099546D01*
X83374141Y-77226866D01*
X83343536Y-77378000D01*
X78424000Y-77378000D01*
X78424000Y-64411850D01*
X78928200Y-64411850D01*
X78928200Y-65015386D01*
X78986204Y-65155420D01*
X79093381Y-65262596D01*
X79233415Y-65320600D01*
X79736950Y-65320600D01*
X79832200Y-65225350D01*
X79832200Y-64316600D01*
X80086200Y-64316600D01*
X80086200Y-65225350D01*
X80181450Y-65320600D01*
X80684985Y-65320600D01*
X80825019Y-65262596D01*
X80932196Y-65155420D01*
X80990200Y-65015386D01*
X80990200Y-64825857D01*
X81043204Y-64953820D01*
X81150381Y-65060996D01*
X81290415Y-65119000D01*
X81768950Y-65119000D01*
X81864200Y-65023750D01*
X81864200Y-64115000D01*
X82118200Y-64115000D01*
X82118200Y-65023750D01*
X82213450Y-65119000D01*
X82691985Y-65119000D01*
X82832019Y-65060996D01*
X82939196Y-64953820D01*
X82997200Y-64813786D01*
X82997200Y-64210250D01*
X83017200Y-64210250D01*
X83017200Y-64813786D01*
X83075204Y-64953820D01*
X83182381Y-65060996D01*
X83322415Y-65119000D01*
X83800950Y-65119000D01*
X83896200Y-65023750D01*
X83896200Y-64115000D01*
X84150200Y-64115000D01*
X84150200Y-65023750D01*
X84245450Y-65119000D01*
X84723985Y-65119000D01*
X84864019Y-65060996D01*
X84971196Y-64953820D01*
X85024200Y-64825857D01*
X85024200Y-64942986D01*
X85082204Y-65083020D01*
X85189381Y-65190196D01*
X85329415Y-65248200D01*
X85832950Y-65248200D01*
X85928200Y-65152950D01*
X85928200Y-64244200D01*
X86182200Y-64244200D01*
X86182200Y-65152950D01*
X86277450Y-65248200D01*
X86780985Y-65248200D01*
X86921019Y-65190196D01*
X87028196Y-65083020D01*
X87086200Y-64942986D01*
X87086200Y-64339450D01*
X86990950Y-64244200D01*
X86182200Y-64244200D01*
X85928200Y-64244200D01*
X85119450Y-64244200D01*
X85029200Y-64334450D01*
X85029200Y-64210250D01*
X84933950Y-64115000D01*
X84150200Y-64115000D01*
X83896200Y-64115000D01*
X83112450Y-64115000D01*
X83017200Y-64210250D01*
X82997200Y-64210250D01*
X82901950Y-64115000D01*
X82118200Y-64115000D01*
X81864200Y-64115000D01*
X81080450Y-64115000D01*
X80985200Y-64210250D01*
X80985200Y-64406850D01*
X80894950Y-64316600D01*
X80086200Y-64316600D01*
X79832200Y-64316600D01*
X79023450Y-64316600D01*
X78928200Y-64411850D01*
X78424000Y-64411850D01*
X78424000Y-63363814D01*
X78928200Y-63363814D01*
X78928200Y-63967350D01*
X79023450Y-64062600D01*
X79832200Y-64062600D01*
X79832200Y-63153850D01*
X80086200Y-63153850D01*
X80086200Y-64062600D01*
X80894950Y-64062600D01*
X80990200Y-63967350D01*
X80990200Y-63770750D01*
X81080450Y-63861000D01*
X81864200Y-63861000D01*
X81864200Y-62952250D01*
X82118200Y-62952250D01*
X82118200Y-63861000D01*
X82901950Y-63861000D01*
X82997200Y-63765750D01*
X82997200Y-63162214D01*
X83017200Y-63162214D01*
X83017200Y-63765750D01*
X83112450Y-63861000D01*
X83896200Y-63861000D01*
X83896200Y-62952250D01*
X84150200Y-62952250D01*
X84150200Y-63861000D01*
X84933950Y-63861000D01*
X85024200Y-63770750D01*
X85024200Y-63894950D01*
X85119450Y-63990200D01*
X85928200Y-63990200D01*
X85928200Y-63081450D01*
X86182200Y-63081450D01*
X86182200Y-63990200D01*
X86990950Y-63990200D01*
X87086200Y-63894950D01*
X87086200Y-63291414D01*
X87028196Y-63151380D01*
X86921019Y-63044204D01*
X86780985Y-62986200D01*
X86277450Y-62986200D01*
X86182200Y-63081450D01*
X85928200Y-63081450D01*
X85832950Y-62986200D01*
X85329415Y-62986200D01*
X85189381Y-63044204D01*
X85082204Y-63151380D01*
X85029200Y-63279343D01*
X85029200Y-63162214D01*
X84971196Y-63022180D01*
X84864019Y-62915004D01*
X84723985Y-62857000D01*
X84245450Y-62857000D01*
X84150200Y-62952250D01*
X83896200Y-62952250D01*
X83800950Y-62857000D01*
X83322415Y-62857000D01*
X83182381Y-62915004D01*
X83075204Y-63022180D01*
X83017200Y-63162214D01*
X82997200Y-63162214D01*
X82939196Y-63022180D01*
X82832019Y-62915004D01*
X82691985Y-62857000D01*
X82213450Y-62857000D01*
X82118200Y-62952250D01*
X81864200Y-62952250D01*
X81768950Y-62857000D01*
X81290415Y-62857000D01*
X81150381Y-62915004D01*
X81043204Y-63022180D01*
X80985200Y-63162214D01*
X80985200Y-63351743D01*
X80932196Y-63223780D01*
X80825019Y-63116604D01*
X80684985Y-63058600D01*
X80181450Y-63058600D01*
X80086200Y-63153850D01*
X79832200Y-63153850D01*
X79736950Y-63058600D01*
X79233415Y-63058600D01*
X79093381Y-63116604D01*
X78986204Y-63223780D01*
X78928200Y-63363814D01*
X78424000Y-63363814D01*
X78424000Y-60739600D01*
X78920736Y-60739600D01*
X78920736Y-62239600D01*
X78947303Y-62380790D01*
X79030746Y-62510465D01*
X79158066Y-62597459D01*
X79309200Y-62628064D01*
X80609200Y-62628064D01*
X80750390Y-62601497D01*
X80880065Y-62518054D01*
X80967059Y-62390734D01*
X80987490Y-62289840D01*
X81004303Y-62379190D01*
X81087746Y-62508865D01*
X81215066Y-62595859D01*
X81366200Y-62626464D01*
X82616200Y-62626464D01*
X82757390Y-62599897D01*
X82887065Y-62516454D01*
X82974059Y-62389134D01*
X83004664Y-62238000D01*
X83004664Y-61125041D01*
X83009736Y-61127148D01*
X83009736Y-62238000D01*
X83036303Y-62379190D01*
X83119746Y-62508865D01*
X83247066Y-62595859D01*
X83398200Y-62626464D01*
X84648200Y-62626464D01*
X84789390Y-62599897D01*
X84919065Y-62516454D01*
X85006059Y-62389134D01*
X85033240Y-62254909D01*
X85043303Y-62308390D01*
X85126746Y-62438065D01*
X85254066Y-62525059D01*
X85405200Y-62555664D01*
X86705200Y-62555664D01*
X86733310Y-62550375D01*
X86837341Y-62654587D01*
X87087546Y-62758482D01*
X87358465Y-62758718D01*
X87608852Y-62655261D01*
X87800587Y-62463859D01*
X87904482Y-62213654D01*
X87904718Y-61942735D01*
X87801261Y-61692348D01*
X87609859Y-61500613D01*
X87359654Y-61396718D01*
X87258222Y-61396630D01*
X87093664Y-61232072D01*
X87093664Y-60667200D01*
X87067097Y-60526010D01*
X86983654Y-60396335D01*
X86856334Y-60309341D01*
X86705200Y-60278736D01*
X85405200Y-60278736D01*
X85264010Y-60305303D01*
X85134335Y-60388746D01*
X85047341Y-60516066D01*
X85020160Y-60650291D01*
X85010097Y-60596810D01*
X84926654Y-60467135D01*
X84799334Y-60380141D01*
X84648200Y-60349536D01*
X83840690Y-60349536D01*
X83840718Y-60317135D01*
X83737261Y-60066748D01*
X83545859Y-59875013D01*
X83295654Y-59771118D01*
X83024735Y-59770882D01*
X83022569Y-59771777D01*
X82671000Y-59420208D01*
X82671000Y-59048500D01*
X82792002Y-59048500D01*
X82792002Y-59017752D01*
X82822750Y-59048500D01*
X82865785Y-59048500D01*
X83005819Y-58990496D01*
X83112996Y-58883320D01*
X83142227Y-58812750D01*
X84338000Y-58812750D01*
X84338000Y-59416286D01*
X84396004Y-59556320D01*
X84503181Y-59663496D01*
X84643215Y-59721500D01*
X85121750Y-59721500D01*
X85217000Y-59626250D01*
X85217000Y-58717500D01*
X85471000Y-58717500D01*
X85471000Y-59626250D01*
X85566250Y-59721500D01*
X86044785Y-59721500D01*
X86184819Y-59663496D01*
X86291996Y-59556320D01*
X86350000Y-59416286D01*
X86350000Y-58812750D01*
X86254750Y-58717500D01*
X85471000Y-58717500D01*
X85217000Y-58717500D01*
X84433250Y-58717500D01*
X84338000Y-58812750D01*
X83142227Y-58812750D01*
X83171000Y-58743286D01*
X83171000Y-58637750D01*
X83075750Y-58542500D01*
X82727500Y-58542500D01*
X82727500Y-58564500D01*
X82678464Y-58564500D01*
X82678464Y-58298500D01*
X82790785Y-58298500D01*
X82805270Y-58292500D01*
X83075750Y-58292500D01*
X83171000Y-58197250D01*
X83171000Y-58091714D01*
X83112996Y-57951680D01*
X83096000Y-57934684D01*
X83096000Y-57764714D01*
X84338000Y-57764714D01*
X84338000Y-58368250D01*
X84433250Y-58463500D01*
X85217000Y-58463500D01*
X85217000Y-57554750D01*
X85471000Y-57554750D01*
X85471000Y-58463500D01*
X86254750Y-58463500D01*
X86350000Y-58368250D01*
X86350000Y-57764714D01*
X86291996Y-57624680D01*
X86184819Y-57517504D01*
X86044785Y-57459500D01*
X85566250Y-57459500D01*
X85471000Y-57554750D01*
X85217000Y-57554750D01*
X85121750Y-57459500D01*
X84643215Y-57459500D01*
X84503181Y-57517504D01*
X84396004Y-57624680D01*
X84338000Y-57764714D01*
X83096000Y-57764714D01*
X83096000Y-57689750D01*
X83000750Y-57594500D01*
X82042000Y-57594500D01*
X82042000Y-57614500D01*
X81788000Y-57614500D01*
X81788000Y-57594500D01*
X80829250Y-57594500D01*
X80734000Y-57689750D01*
X80734000Y-57934684D01*
X80717004Y-57951680D01*
X80659000Y-58091714D01*
X80659000Y-58197250D01*
X80754250Y-58292500D01*
X81024730Y-58292500D01*
X81039215Y-58298500D01*
X81151536Y-58298500D01*
X81151536Y-58564500D01*
X81102500Y-58564500D01*
X81102500Y-58542500D01*
X80754250Y-58542500D01*
X80659000Y-58637750D01*
X80659000Y-58743286D01*
X80717004Y-58883320D01*
X80824181Y-58990496D01*
X80964215Y-59048500D01*
X81007250Y-59048500D01*
X81037998Y-59017752D01*
X81037998Y-59048500D01*
X81159000Y-59048500D01*
X81159000Y-59770949D01*
X81081635Y-59770882D01*
X80831248Y-59874339D01*
X80639513Y-60065741D01*
X80535618Y-60315946D01*
X80535587Y-60351136D01*
X79309200Y-60351136D01*
X79168010Y-60377703D01*
X79038335Y-60461146D01*
X78951341Y-60588466D01*
X78920736Y-60739600D01*
X78424000Y-60739600D01*
X78424000Y-46362865D01*
X79074882Y-46362865D01*
X79178339Y-46613252D01*
X79369741Y-46804987D01*
X79619946Y-46908882D01*
X79890865Y-46909118D01*
X80141252Y-46805661D01*
X80332987Y-46614259D01*
X80436882Y-46364054D01*
X80437118Y-46093135D01*
X80333661Y-45842748D01*
X80262000Y-45770962D01*
X80262000Y-41357592D01*
X80981592Y-40638000D01*
X82344408Y-40638000D01*
X81684204Y-41298204D01*
X81574517Y-41462362D01*
X81536000Y-41656000D01*
X81536000Y-45770877D01*
X81465013Y-45841741D01*
X81361118Y-46091946D01*
X81360882Y-46362865D01*
X81464339Y-46613252D01*
X81655741Y-46804987D01*
X81905946Y-46908882D01*
X82176865Y-46909118D01*
X82427252Y-46805661D01*
X82618987Y-46614259D01*
X82626425Y-46596347D01*
X82681504Y-46729320D01*
X82783230Y-46831045D01*
X82694618Y-47044446D01*
X82694382Y-47315365D01*
X82797839Y-47565752D01*
X82980589Y-47748819D01*
X82243351Y-48486057D01*
X82185181Y-48524925D01*
X82166804Y-48537204D01*
X79772239Y-50931769D01*
X79671935Y-50931682D01*
X79421548Y-51035139D01*
X79229813Y-51226541D01*
X79125918Y-51476746D01*
X79125682Y-51747665D01*
X79229139Y-51998052D01*
X79420541Y-52189787D01*
X79670746Y-52293682D01*
X79941665Y-52293918D01*
X80192052Y-52190461D01*
X80383787Y-51999059D01*
X80487682Y-51748854D01*
X80487770Y-51647422D01*
X81558536Y-50576656D01*
X81558536Y-53870000D01*
X81585103Y-54011190D01*
X81659000Y-54126030D01*
X81659000Y-54152852D01*
X81602759Y-54096513D01*
X81352554Y-53992618D01*
X81081635Y-53992382D01*
X80831248Y-54095839D01*
X80639513Y-54287241D01*
X80535618Y-54537446D01*
X80535382Y-54808365D01*
X80638839Y-55058752D01*
X80830241Y-55250487D01*
X81080446Y-55354382D01*
X81159000Y-55354450D01*
X81159000Y-55886500D01*
X81037998Y-55886500D01*
X81037998Y-55917248D01*
X81007250Y-55886500D01*
X80964215Y-55886500D01*
X80824181Y-55944504D01*
X80717004Y-56051680D01*
X80659000Y-56191714D01*
X80659000Y-56297250D01*
X80754250Y-56392500D01*
X81102500Y-56392500D01*
X81102500Y-56370500D01*
X81151536Y-56370500D01*
X81151536Y-56636500D01*
X81039215Y-56636500D01*
X81024730Y-56642500D01*
X80754250Y-56642500D01*
X80659000Y-56737750D01*
X80659000Y-56843286D01*
X80717004Y-56983320D01*
X80734000Y-57000316D01*
X80734000Y-57245250D01*
X80829250Y-57340500D01*
X81788000Y-57340500D01*
X81788000Y-57320500D01*
X82042000Y-57320500D01*
X82042000Y-57340500D01*
X83000750Y-57340500D01*
X83096000Y-57245250D01*
X83096000Y-56994532D01*
X83147859Y-56918634D01*
X83178464Y-56767500D01*
X83178464Y-56267500D01*
X83151897Y-56126310D01*
X83068454Y-55996635D01*
X82941134Y-55909641D01*
X82790000Y-55879036D01*
X82671000Y-55879036D01*
X82671000Y-54258464D01*
X83589340Y-54258464D01*
X83560513Y-54287241D01*
X83456618Y-54537446D01*
X83456382Y-54808365D01*
X83559839Y-55058752D01*
X83751241Y-55250487D01*
X83814778Y-55276870D01*
X84330536Y-55792628D01*
X84330536Y-56840500D01*
X84357103Y-56981690D01*
X84440546Y-57111365D01*
X84567866Y-57198359D01*
X84719000Y-57228964D01*
X85969000Y-57228964D01*
X86110190Y-57202397D01*
X86239865Y-57118954D01*
X86326859Y-56991634D01*
X86357464Y-56840500D01*
X86357464Y-55340500D01*
X86330897Y-55199310D01*
X86247454Y-55069635D01*
X86120134Y-54982641D01*
X85969000Y-54952036D01*
X84921128Y-54952036D01*
X84806723Y-54837631D01*
X84818382Y-54809554D01*
X84818470Y-54708122D01*
X85257296Y-54269296D01*
X85264534Y-54258464D01*
X85947000Y-54258464D01*
X86088190Y-54231897D01*
X86217865Y-54148454D01*
X86304859Y-54021134D01*
X86335464Y-53870000D01*
X86335464Y-50270000D01*
X86308897Y-50128810D01*
X86225454Y-49999135D01*
X86098134Y-49912141D01*
X85947000Y-49881536D01*
X85204628Y-49881536D01*
X84882031Y-49558939D01*
X84882118Y-49458635D01*
X84778661Y-49208248D01*
X84587259Y-49016513D01*
X84337054Y-48912618D01*
X84066135Y-48912382D01*
X83815748Y-49015839D01*
X83624013Y-49207241D01*
X83520118Y-49457446D01*
X83519979Y-49617434D01*
X83513501Y-49650000D01*
X83519922Y-49682282D01*
X83519882Y-49728365D01*
X83537634Y-49771330D01*
X83559555Y-49881536D01*
X82253656Y-49881536D01*
X82831249Y-49303943D01*
X82907796Y-49252796D01*
X83902592Y-48258000D01*
X85603793Y-48258000D01*
X85550240Y-48311460D01*
X85461602Y-48524925D01*
X85461400Y-48756061D01*
X85549665Y-48969680D01*
X85712960Y-49133260D01*
X85894585Y-49208677D01*
X88394000Y-51708092D01*
X88394000Y-51904036D01*
X87100000Y-51904036D01*
X86958810Y-51930603D01*
X86829135Y-52014046D01*
X86742141Y-52141366D01*
X86711536Y-52292500D01*
X86711536Y-53992500D01*
X86738103Y-54133690D01*
X86821546Y-54263365D01*
X86863426Y-54291980D01*
X86829135Y-54314046D01*
X86742141Y-54441366D01*
X86711536Y-54592500D01*
X86711536Y-56292500D01*
X86738103Y-56433690D01*
X86821546Y-56563365D01*
X86948866Y-56650359D01*
X87100000Y-56680964D01*
X90700000Y-56680964D01*
X90841190Y-56654397D01*
X90970865Y-56570954D01*
X91017981Y-56501997D01*
X91050299Y-56580212D01*
X91241701Y-56771947D01*
X91491906Y-56875842D01*
X91762825Y-56876078D01*
X92013212Y-56772621D01*
X92204947Y-56581219D01*
X92287671Y-56382000D01*
X92399000Y-56382000D01*
X92399000Y-56503002D01*
X92429748Y-56503002D01*
X92399000Y-56533750D01*
X92399000Y-56576785D01*
X92457004Y-56716819D01*
X92564180Y-56823996D01*
X92704214Y-56882000D01*
X92809750Y-56882000D01*
X92905000Y-56786750D01*
X92905000Y-56438500D01*
X92883000Y-56438500D01*
X92883000Y-56389464D01*
X93149000Y-56389464D01*
X93149000Y-56501785D01*
X93155000Y-56516270D01*
X93155000Y-56786750D01*
X93250250Y-56882000D01*
X93355786Y-56882000D01*
X93495820Y-56823996D01*
X93512816Y-56807000D01*
X93757750Y-56807000D01*
X93853000Y-56711750D01*
X93853000Y-55753000D01*
X93833000Y-55753000D01*
X93833000Y-55499000D01*
X93853000Y-55499000D01*
X93853000Y-54540250D01*
X94107000Y-54540250D01*
X94107000Y-55499000D01*
X94127000Y-55499000D01*
X94127000Y-55753000D01*
X94107000Y-55753000D01*
X94107000Y-56711750D01*
X94202250Y-56807000D01*
X94447184Y-56807000D01*
X94464180Y-56823996D01*
X94604214Y-56882000D01*
X94709750Y-56882000D01*
X94805000Y-56786750D01*
X94805000Y-56516270D01*
X94811000Y-56501785D01*
X94811000Y-56389464D01*
X95077000Y-56389464D01*
X95077000Y-56438500D01*
X95055000Y-56438500D01*
X95055000Y-56786750D01*
X95150250Y-56882000D01*
X95255786Y-56882000D01*
X95395820Y-56823996D01*
X95502996Y-56716819D01*
X95561000Y-56576785D01*
X95561000Y-56533750D01*
X95530252Y-56503002D01*
X95561000Y-56503002D01*
X95561000Y-56382000D01*
X95889406Y-56382000D01*
X95999202Y-56491796D01*
X96163360Y-56601483D01*
X96356998Y-56640000D01*
X98602877Y-56640000D01*
X98673741Y-56710987D01*
X98923946Y-56814882D01*
X99194865Y-56815118D01*
X99445252Y-56711661D01*
X99636987Y-56520259D01*
X99740882Y-56270054D01*
X99740956Y-56185136D01*
X99970628Y-55955464D01*
X101043500Y-55955464D01*
X101184690Y-55928897D01*
X101314365Y-55845454D01*
X101401359Y-55718134D01*
X101431964Y-55567000D01*
X101431964Y-54067000D01*
X101405397Y-53925810D01*
X101321954Y-53796135D01*
X101194634Y-53709141D01*
X101043500Y-53678536D01*
X99743500Y-53678536D01*
X99602310Y-53705103D01*
X99472635Y-53788546D01*
X99385641Y-53915866D01*
X99355036Y-54067000D01*
X99355036Y-55139872D01*
X99184464Y-55310444D01*
X99184464Y-54030500D01*
X99157897Y-53889310D01*
X99074454Y-53759635D01*
X98947134Y-53672641D01*
X98796000Y-53642036D01*
X97546000Y-53642036D01*
X97404810Y-53668603D01*
X97275135Y-53752046D01*
X97188141Y-53879366D01*
X97157536Y-54030500D01*
X97157536Y-54322589D01*
X97007704Y-54422704D01*
X96612439Y-54817969D01*
X96512135Y-54817882D01*
X96385999Y-54870000D01*
X95561000Y-54870000D01*
X95561000Y-54748998D01*
X95530252Y-54748998D01*
X95561000Y-54718250D01*
X95561000Y-54675215D01*
X95502996Y-54535181D01*
X95395820Y-54428004D01*
X95255786Y-54370000D01*
X95150250Y-54370000D01*
X95055000Y-54465250D01*
X95055000Y-54813500D01*
X95077000Y-54813500D01*
X95077000Y-54862536D01*
X94811000Y-54862536D01*
X94811000Y-54750215D01*
X94805000Y-54735730D01*
X94805000Y-54465250D01*
X94709750Y-54370000D01*
X94604214Y-54370000D01*
X94464180Y-54428004D01*
X94447184Y-54445000D01*
X94202250Y-54445000D01*
X94107000Y-54540250D01*
X93853000Y-54540250D01*
X93757750Y-54445000D01*
X93507032Y-54445000D01*
X93431134Y-54393141D01*
X93280000Y-54362536D01*
X92780000Y-54362536D01*
X92638810Y-54389103D01*
X92509135Y-54472546D01*
X92422141Y-54599866D01*
X92391536Y-54751000D01*
X92391536Y-54870000D01*
X92244718Y-54870000D01*
X92308842Y-54715574D01*
X92309078Y-54444655D01*
X92205621Y-54194268D01*
X92136500Y-54125027D01*
X92136500Y-53867092D01*
X92729628Y-53273964D01*
X93734000Y-53273964D01*
X93875190Y-53247397D01*
X94004865Y-53163954D01*
X94091859Y-53036634D01*
X94122464Y-52885500D01*
X94122464Y-52482750D01*
X94353000Y-52482750D01*
X94353000Y-52961285D01*
X94411004Y-53101319D01*
X94518180Y-53208496D01*
X94658214Y-53266500D01*
X95261750Y-53266500D01*
X95357000Y-53171250D01*
X95357000Y-52387500D01*
X95611000Y-52387500D01*
X95611000Y-53171250D01*
X95706250Y-53266500D01*
X96309786Y-53266500D01*
X96449820Y-53208496D01*
X96556996Y-53101319D01*
X96615000Y-52961285D01*
X96615000Y-52502750D01*
X97165000Y-52502750D01*
X97165000Y-53106286D01*
X97223004Y-53246320D01*
X97330181Y-53353496D01*
X97470215Y-53411500D01*
X97948750Y-53411500D01*
X98044000Y-53316250D01*
X98044000Y-52407500D01*
X98298000Y-52407500D01*
X98298000Y-53316250D01*
X98393250Y-53411500D01*
X98871785Y-53411500D01*
X99011819Y-53353496D01*
X99118996Y-53246320D01*
X99177000Y-53106286D01*
X99177000Y-52502750D01*
X99081750Y-52407500D01*
X98298000Y-52407500D01*
X98044000Y-52407500D01*
X97260250Y-52407500D01*
X97165000Y-52502750D01*
X96615000Y-52502750D01*
X96615000Y-52482750D01*
X96519750Y-52387500D01*
X95611000Y-52387500D01*
X95357000Y-52387500D01*
X94448250Y-52387500D01*
X94353000Y-52482750D01*
X94122464Y-52482750D01*
X94122464Y-52339250D01*
X99362500Y-52339250D01*
X99362500Y-52942786D01*
X99420504Y-53082820D01*
X99527681Y-53189996D01*
X99667715Y-53248000D01*
X100171250Y-53248000D01*
X100266500Y-53152750D01*
X100266500Y-52244000D01*
X100520500Y-52244000D01*
X100520500Y-53152750D01*
X100615750Y-53248000D01*
X101119285Y-53248000D01*
X101259319Y-53189996D01*
X101366496Y-53082820D01*
X101424500Y-52942786D01*
X101424500Y-52339250D01*
X101329250Y-52244000D01*
X100520500Y-52244000D01*
X100266500Y-52244000D01*
X99457750Y-52244000D01*
X99362500Y-52339250D01*
X94122464Y-52339250D01*
X94122464Y-51635500D01*
X94108204Y-51559715D01*
X94353000Y-51559715D01*
X94353000Y-52038250D01*
X94448250Y-52133500D01*
X95357000Y-52133500D01*
X95357000Y-51349750D01*
X95611000Y-51349750D01*
X95611000Y-52133500D01*
X96519750Y-52133500D01*
X96615000Y-52038250D01*
X96615000Y-51559715D01*
X96571508Y-51454714D01*
X97165000Y-51454714D01*
X97165000Y-52058250D01*
X97260250Y-52153500D01*
X98044000Y-52153500D01*
X98044000Y-51244750D01*
X98298000Y-51244750D01*
X98298000Y-52153500D01*
X99081750Y-52153500D01*
X99177000Y-52058250D01*
X99177000Y-51454714D01*
X99118996Y-51314680D01*
X99095530Y-51291214D01*
X99362500Y-51291214D01*
X99362500Y-51894750D01*
X99457750Y-51990000D01*
X100266500Y-51990000D01*
X100266500Y-51081250D01*
X100520500Y-51081250D01*
X100520500Y-51990000D01*
X101329250Y-51990000D01*
X101424500Y-51894750D01*
X101424500Y-51291214D01*
X101366496Y-51151180D01*
X101259319Y-51044004D01*
X101119285Y-50986000D01*
X100615750Y-50986000D01*
X100520500Y-51081250D01*
X100266500Y-51081250D01*
X100171250Y-50986000D01*
X99667715Y-50986000D01*
X99527681Y-51044004D01*
X99420504Y-51151180D01*
X99362500Y-51291214D01*
X99095530Y-51291214D01*
X99011819Y-51207504D01*
X98871785Y-51149500D01*
X98393250Y-51149500D01*
X98298000Y-51244750D01*
X98044000Y-51244750D01*
X97948750Y-51149500D01*
X97470215Y-51149500D01*
X97330181Y-51207504D01*
X97223004Y-51314680D01*
X97165000Y-51454714D01*
X96571508Y-51454714D01*
X96556996Y-51419681D01*
X96449820Y-51312504D01*
X96309786Y-51254500D01*
X95706250Y-51254500D01*
X95611000Y-51349750D01*
X95357000Y-51349750D01*
X95261750Y-51254500D01*
X94658214Y-51254500D01*
X94518180Y-51312504D01*
X94411004Y-51419681D01*
X94353000Y-51559715D01*
X94108204Y-51559715D01*
X94095897Y-51494310D01*
X94012454Y-51364635D01*
X93885134Y-51277641D01*
X93734000Y-51247036D01*
X92234000Y-51247036D01*
X92092810Y-51273603D01*
X91963135Y-51357046D01*
X91876141Y-51484366D01*
X91845536Y-51635500D01*
X91845536Y-52636500D01*
X91088464Y-52636500D01*
X91088464Y-52292500D01*
X91061897Y-52151310D01*
X90978454Y-52021635D01*
X90851134Y-51934641D01*
X90700000Y-51904036D01*
X89406000Y-51904036D01*
X89406000Y-51722208D01*
X89589446Y-51798382D01*
X89860365Y-51798618D01*
X90110752Y-51695161D01*
X90302487Y-51503759D01*
X90406382Y-51253554D01*
X90406618Y-50982635D01*
X90358500Y-50866180D01*
X90358500Y-49034623D01*
X90429487Y-48963759D01*
X90533382Y-48713554D01*
X90533618Y-48442635D01*
X90430161Y-48192248D01*
X90238759Y-48000513D01*
X89988554Y-47896618D01*
X89717635Y-47896382D01*
X89467248Y-47999839D01*
X89275513Y-48191241D01*
X89171618Y-48441446D01*
X89171382Y-48712365D01*
X89274839Y-48962752D01*
X89346500Y-49034538D01*
X89346500Y-50537256D01*
X89340248Y-50539839D01*
X89148513Y-50731241D01*
X89060438Y-50943346D01*
X87375703Y-49258611D01*
X87383865Y-49258618D01*
X87634252Y-49155161D01*
X87825987Y-48963759D01*
X87929882Y-48713554D01*
X87930118Y-48442635D01*
X87826661Y-48192248D01*
X87635259Y-48000513D01*
X87385054Y-47896618D01*
X87309052Y-47896552D01*
X87115158Y-47686500D01*
X92436908Y-47686500D01*
X94060969Y-49310561D01*
X94060882Y-49410865D01*
X94164339Y-49661252D01*
X94355741Y-49852987D01*
X94605946Y-49956882D01*
X94876865Y-49957118D01*
X95127252Y-49853661D01*
X95318987Y-49662259D01*
X95422882Y-49412054D01*
X95423118Y-49141135D01*
X95319661Y-48890748D01*
X95128259Y-48699013D01*
X94878054Y-48595118D01*
X94776622Y-48595030D01*
X93881592Y-47700000D01*
X96585118Y-47700000D01*
X96959557Y-48074438D01*
X96959559Y-48074441D01*
X97107496Y-48173289D01*
X97282000Y-48208000D01*
X99060000Y-48208000D01*
X99234504Y-48173289D01*
X99346746Y-48098292D01*
X99492460Y-48244260D01*
X99705925Y-48332898D01*
X99937061Y-48333100D01*
X100150680Y-48244835D01*
X100314260Y-48081540D01*
X100402898Y-47868075D01*
X100403100Y-47636939D01*
X100315721Y-47425464D01*
X100322000Y-47425464D01*
X100425670Y-47405957D01*
X100522000Y-47425464D01*
X100722000Y-47425464D01*
X100825670Y-47405957D01*
X100922000Y-47425464D01*
X101122000Y-47425464D01*
X101263190Y-47398897D01*
X101392865Y-47315454D01*
X101479859Y-47188134D01*
X101510464Y-47037000D01*
X101510464Y-46337000D01*
X101483897Y-46195810D01*
X101400454Y-46066135D01*
X101378000Y-46050793D01*
X101378000Y-45434250D01*
X101282750Y-45339000D01*
X99949000Y-45339000D01*
X99949000Y-45359000D01*
X99695000Y-45359000D01*
X99695000Y-45339000D01*
X98361250Y-45339000D01*
X98266000Y-45434250D01*
X98266000Y-46048981D01*
X98251135Y-46058546D01*
X98164141Y-46185866D01*
X98133536Y-46337000D01*
X98133536Y-47037000D01*
X98160103Y-47178190D01*
X98235911Y-47296000D01*
X97470881Y-47296000D01*
X97096441Y-46921559D01*
X97055944Y-46894500D01*
X96948504Y-46822711D01*
X96774000Y-46788000D01*
X93914881Y-46788000D01*
X93463118Y-46336237D01*
X93551496Y-46395289D01*
X93726000Y-46430000D01*
X96266000Y-46430000D01*
X96440504Y-46395289D01*
X96588441Y-46296441D01*
X96962881Y-45922000D01*
X97170263Y-45922000D01*
X97206460Y-45958260D01*
X97419925Y-46046898D01*
X97651061Y-46047100D01*
X97864680Y-45958835D01*
X98028260Y-45795540D01*
X98116898Y-45582075D01*
X98117100Y-45350939D01*
X98028835Y-45137320D01*
X97865540Y-44973740D01*
X97652075Y-44885102D01*
X97420939Y-44884900D01*
X97207320Y-44973165D01*
X97170421Y-45010000D01*
X96774000Y-45010000D01*
X96599496Y-45044711D01*
X96451559Y-45143559D01*
X96451557Y-45143562D01*
X96077118Y-45518000D01*
X93914882Y-45518000D01*
X93037055Y-44640173D01*
X93037100Y-44588939D01*
X92948835Y-44375320D01*
X92785540Y-44211740D01*
X92622403Y-44144000D01*
X95823118Y-44144000D01*
X95943559Y-44264441D01*
X96091496Y-44363289D01*
X96266000Y-44398000D01*
X97282000Y-44398000D01*
X97456504Y-44363289D01*
X97604441Y-44264441D01*
X97675882Y-44193000D01*
X98153481Y-44193000D01*
X98160103Y-44228190D01*
X98243546Y-44357865D01*
X98266000Y-44373207D01*
X98266000Y-44989750D01*
X98361250Y-45085000D01*
X99695000Y-45085000D01*
X99695000Y-45065000D01*
X99949000Y-45065000D01*
X99949000Y-45085000D01*
X101282750Y-45085000D01*
X101378000Y-44989750D01*
X101378000Y-44375019D01*
X101392865Y-44365454D01*
X101479859Y-44238134D01*
X101510464Y-44087000D01*
X101510464Y-43387000D01*
X101483897Y-43245810D01*
X101478000Y-43236646D01*
X101478000Y-41078000D01*
X101443289Y-40903496D01*
X101344441Y-40755559D01*
X100478441Y-39889559D01*
X100438254Y-39862707D01*
X100330504Y-39790711D01*
X100156000Y-39756000D01*
X97050464Y-39756000D01*
X97050464Y-39462000D01*
X97023897Y-39320810D01*
X96940454Y-39191135D01*
X96813134Y-39104141D01*
X96662000Y-39073536D01*
X96553259Y-39073536D01*
X96592898Y-38978075D01*
X96593100Y-38746939D01*
X96553238Y-38650464D01*
X96662000Y-38650464D01*
X96803190Y-38623897D01*
X96932865Y-38540454D01*
X97019859Y-38413134D01*
X97050464Y-38262000D01*
X97050464Y-37173332D01*
X97857500Y-37980368D01*
X97857500Y-38732818D01*
X97807618Y-38852946D01*
X97807382Y-39123865D01*
X97910839Y-39374252D01*
X98102241Y-39565987D01*
X98352446Y-39669882D01*
X98623365Y-39670118D01*
X98873752Y-39566661D01*
X99065487Y-39375259D01*
X99169382Y-39125054D01*
X99169618Y-38854135D01*
X99119500Y-38732839D01*
X99119500Y-37719000D01*
X99071468Y-37477527D01*
X98934684Y-37272816D01*
X97528333Y-35866465D01*
X97517404Y-35840014D01*
X97567712Y-35873629D01*
X98044000Y-35968369D01*
X98520288Y-35873629D01*
X98924065Y-35603834D01*
X99193860Y-35200057D01*
X99288600Y-34723769D01*
X99288600Y-34364231D01*
X99193860Y-33887943D01*
X98924065Y-33484166D01*
X98520288Y-33214371D01*
X98044000Y-33119631D01*
X97567712Y-33214371D01*
X97163935Y-33484166D01*
X96894140Y-33887943D01*
X96799400Y-34364231D01*
X96799400Y-34723769D01*
X96894140Y-35200057D01*
X97070969Y-35464701D01*
X97037054Y-35450618D01*
X96766135Y-35450382D01*
X96515748Y-35553839D01*
X96324013Y-35745241D01*
X96273201Y-35867609D01*
X96159485Y-35753893D01*
X96384065Y-35603834D01*
X96653860Y-35200057D01*
X96748600Y-34723769D01*
X96748600Y-34364231D01*
X96653860Y-33887943D01*
X96384065Y-33484166D01*
X95980288Y-33214371D01*
X95504000Y-33119631D01*
X95027712Y-33214371D01*
X94623935Y-33484166D01*
X94354140Y-33887943D01*
X94259400Y-34364231D01*
X94259400Y-34723769D01*
X94354140Y-35200057D01*
X94623935Y-35603834D01*
X95007125Y-35859873D01*
X95036517Y-36007638D01*
X95146204Y-36171796D01*
X95350170Y-36375762D01*
X95220810Y-36400103D01*
X95091135Y-36483546D01*
X95004141Y-36610866D01*
X94973536Y-36762000D01*
X94973536Y-38262000D01*
X95000103Y-38403190D01*
X95083546Y-38532865D01*
X95210866Y-38619859D01*
X95362000Y-38650464D01*
X95470741Y-38650464D01*
X95431102Y-38745925D01*
X95430900Y-38977061D01*
X95470762Y-39073536D01*
X95362000Y-39073536D01*
X95220810Y-39100103D01*
X95091135Y-39183546D01*
X95004141Y-39310866D01*
X94973536Y-39462000D01*
X94973536Y-40946000D01*
X94764464Y-40946000D01*
X94764464Y-39462000D01*
X94737897Y-39320810D01*
X94654454Y-39191135D01*
X94527134Y-39104141D01*
X94376000Y-39073536D01*
X94267259Y-39073536D01*
X94306898Y-38978075D01*
X94307100Y-38746939D01*
X94267238Y-38650464D01*
X94376000Y-38650464D01*
X94517190Y-38623897D01*
X94646865Y-38540454D01*
X94733859Y-38413134D01*
X94764464Y-38262000D01*
X94764464Y-36762000D01*
X94737897Y-36620810D01*
X94654454Y-36491135D01*
X94527134Y-36404141D01*
X94376000Y-36373536D01*
X94187586Y-36373536D01*
X94083796Y-36218204D01*
X93619485Y-35753893D01*
X93844065Y-35603834D01*
X94113860Y-35200057D01*
X94208600Y-34723769D01*
X94208600Y-34364231D01*
X94113860Y-33887943D01*
X93844065Y-33484166D01*
X93440288Y-33214371D01*
X92964000Y-33119631D01*
X92487712Y-33214371D01*
X92083935Y-33484166D01*
X91814140Y-33887943D01*
X91719400Y-34364231D01*
X91719400Y-34723769D01*
X91814140Y-35200057D01*
X92083935Y-35603834D01*
X92467125Y-35859873D01*
X92496517Y-36007638D01*
X92606204Y-36171796D01*
X92873781Y-36439373D01*
X92805135Y-36483546D01*
X92718141Y-36610866D01*
X92687536Y-36762000D01*
X92687536Y-38262000D01*
X92714103Y-38403190D01*
X92797546Y-38532865D01*
X92924866Y-38619859D01*
X93076000Y-38650464D01*
X93184741Y-38650464D01*
X93145102Y-38745925D01*
X93144900Y-38977061D01*
X93184762Y-39073536D01*
X93076000Y-39073536D01*
X92934810Y-39100103D01*
X92805135Y-39183546D01*
X92718141Y-39310866D01*
X92687536Y-39462000D01*
X92687536Y-40962000D01*
X92714103Y-41103190D01*
X92797546Y-41232865D01*
X92924866Y-41319859D01*
X93076000Y-41350464D01*
X93537582Y-41350464D01*
X93641118Y-41454000D01*
X92644882Y-41454000D01*
X92389470Y-41198588D01*
X92447859Y-41113134D01*
X92478464Y-40962000D01*
X92478464Y-39462000D01*
X92451897Y-39320810D01*
X92368454Y-39191135D01*
X92241134Y-39104141D01*
X92090000Y-39073536D01*
X91981259Y-39073536D01*
X92020898Y-38978075D01*
X92021100Y-38746939D01*
X91981238Y-38650464D01*
X92090000Y-38650464D01*
X92231190Y-38623897D01*
X92360865Y-38540454D01*
X92447859Y-38413134D01*
X92478464Y-38262000D01*
X92478464Y-36762000D01*
X92451897Y-36620810D01*
X92368454Y-36491135D01*
X92241134Y-36404141D01*
X92090000Y-36373536D01*
X91445128Y-36373536D01*
X90930000Y-35858408D01*
X90930000Y-35853776D01*
X91304065Y-35603834D01*
X91573860Y-35200057D01*
X91668600Y-34723769D01*
X91668600Y-34364231D01*
X91573860Y-33887943D01*
X91304065Y-33484166D01*
X90900288Y-33214371D01*
X90424000Y-33119631D01*
X89947712Y-33214371D01*
X89543935Y-33484166D01*
X89274140Y-33887943D01*
X89179400Y-34364231D01*
X89179400Y-34723769D01*
X89274140Y-35200057D01*
X89543935Y-35603834D01*
X89918000Y-35853776D01*
X89918000Y-36068000D01*
X89956517Y-36261638D01*
X90066204Y-36425796D01*
X90401683Y-36761275D01*
X90401536Y-36762000D01*
X90401536Y-38262000D01*
X90428103Y-38403190D01*
X90511546Y-38532865D01*
X90638866Y-38619859D01*
X90790000Y-38650464D01*
X90898741Y-38650464D01*
X90859102Y-38745925D01*
X90858900Y-38977061D01*
X90898762Y-39073536D01*
X90790000Y-39073536D01*
X90648810Y-39100103D01*
X90519135Y-39183546D01*
X90432141Y-39310866D01*
X90401536Y-39462000D01*
X90401536Y-40605582D01*
X90061118Y-40946000D01*
X89309592Y-40946000D01*
X89699796Y-40555796D01*
X89809483Y-40391638D01*
X89848000Y-40198000D01*
X89848000Y-39869338D01*
X89883240Y-39862707D01*
X90012915Y-39779264D01*
X90099909Y-39651944D01*
X90130514Y-39500810D01*
X90130514Y-38700710D01*
X90103947Y-38559520D01*
X90020504Y-38429845D01*
X89893184Y-38342851D01*
X89742050Y-38312246D01*
X88941950Y-38312246D01*
X88800760Y-38338813D01*
X88671085Y-38422256D01*
X88584091Y-38549576D01*
X88553486Y-38700710D01*
X88553486Y-39500810D01*
X88580053Y-39642000D01*
X88663496Y-39771675D01*
X88790816Y-39858669D01*
X88836000Y-39867819D01*
X88836000Y-39988408D01*
X88690408Y-40134000D01*
X85549592Y-40134000D01*
X85635796Y-40047796D01*
X85745483Y-39883638D01*
X85746940Y-39876311D01*
X85819240Y-39862707D01*
X85948915Y-39779264D01*
X86035909Y-39651944D01*
X86066514Y-39500810D01*
X86066514Y-39323010D01*
X86660950Y-39323010D01*
X86660950Y-39576595D01*
X86718954Y-39716629D01*
X86826130Y-39823806D01*
X86966164Y-39881810D01*
X87219750Y-39881810D01*
X87315000Y-39786560D01*
X87315000Y-39227760D01*
X87569000Y-39227760D01*
X87569000Y-39786560D01*
X87664250Y-39881810D01*
X87917836Y-39881810D01*
X88057870Y-39823806D01*
X88165046Y-39716629D01*
X88223050Y-39576595D01*
X88223050Y-39323010D01*
X88127800Y-39227760D01*
X87569000Y-39227760D01*
X87315000Y-39227760D01*
X86756200Y-39227760D01*
X86660950Y-39323010D01*
X86066514Y-39323010D01*
X86066514Y-38700710D01*
X86052254Y-38624925D01*
X86660950Y-38624925D01*
X86660950Y-38878510D01*
X86756200Y-38973760D01*
X87315000Y-38973760D01*
X87315000Y-38414960D01*
X87569000Y-38414960D01*
X87569000Y-38973760D01*
X88127800Y-38973760D01*
X88223050Y-38878510D01*
X88223050Y-38624925D01*
X88165046Y-38484891D01*
X88057870Y-38377714D01*
X87917836Y-38319710D01*
X87664250Y-38319710D01*
X87569000Y-38414960D01*
X87315000Y-38414960D01*
X87219750Y-38319710D01*
X86966164Y-38319710D01*
X86826130Y-38377714D01*
X86718954Y-38484891D01*
X86660950Y-38624925D01*
X86052254Y-38624925D01*
X86039947Y-38559520D01*
X85956504Y-38429845D01*
X85829184Y-38342851D01*
X85678050Y-38312246D01*
X84877950Y-38312246D01*
X84736760Y-38338813D01*
X84607085Y-38422256D01*
X84520091Y-38549576D01*
X84489486Y-38700710D01*
X84489486Y-39500810D01*
X84513042Y-39626000D01*
X84138586Y-39626000D01*
X84159050Y-39576595D01*
X84159050Y-39323010D01*
X84063800Y-39227760D01*
X83505000Y-39227760D01*
X83505000Y-39247760D01*
X83251000Y-39247760D01*
X83251000Y-39227760D01*
X82692200Y-39227760D01*
X82596950Y-39323010D01*
X82596950Y-39576595D01*
X82617414Y-39626000D01*
X81977163Y-39626000D01*
X82002514Y-39500810D01*
X82002514Y-38748208D01*
X82173252Y-38677661D01*
X82226079Y-38624925D01*
X82596950Y-38624925D01*
X82596950Y-38878510D01*
X82692200Y-38973760D01*
X83251000Y-38973760D01*
X83251000Y-38414960D01*
X83505000Y-38414960D01*
X83505000Y-38973760D01*
X84063800Y-38973760D01*
X84159050Y-38878510D01*
X84159050Y-38624925D01*
X84101046Y-38484891D01*
X83993870Y-38377714D01*
X83853836Y-38319710D01*
X83600250Y-38319710D01*
X83505000Y-38414960D01*
X83251000Y-38414960D01*
X83155750Y-38319710D01*
X82902164Y-38319710D01*
X82762130Y-38377714D01*
X82654954Y-38484891D01*
X82596950Y-38624925D01*
X82226079Y-38624925D01*
X82364987Y-38486259D01*
X82468882Y-38236054D01*
X82469118Y-37965135D01*
X82365661Y-37714748D01*
X82174259Y-37523013D01*
X81924054Y-37419118D01*
X81653135Y-37418882D01*
X81402748Y-37522339D01*
X81211013Y-37713741D01*
X81107118Y-37963946D01*
X81107030Y-38065378D01*
X80860162Y-38312246D01*
X80813950Y-38312246D01*
X80672760Y-38338813D01*
X80543085Y-38422256D01*
X80456091Y-38549576D01*
X80425486Y-38700710D01*
X80425486Y-39500810D01*
X80452053Y-39642000D01*
X80500164Y-39716767D01*
X80414204Y-39774204D01*
X79398204Y-40790204D01*
X79288517Y-40954362D01*
X79250000Y-41148000D01*
X79250000Y-45770877D01*
X79179013Y-45841741D01*
X79075118Y-46091946D01*
X79074882Y-46362865D01*
X78424000Y-46362865D01*
X78424000Y-39323010D01*
X78532950Y-39323010D01*
X78532950Y-39576595D01*
X78590954Y-39716629D01*
X78698130Y-39823806D01*
X78838164Y-39881810D01*
X79091750Y-39881810D01*
X79187000Y-39786560D01*
X79187000Y-39227760D01*
X79441000Y-39227760D01*
X79441000Y-39786560D01*
X79536250Y-39881810D01*
X79789836Y-39881810D01*
X79929870Y-39823806D01*
X80037046Y-39716629D01*
X80095050Y-39576595D01*
X80095050Y-39323010D01*
X79999800Y-39227760D01*
X79441000Y-39227760D01*
X79187000Y-39227760D01*
X78628200Y-39227760D01*
X78532950Y-39323010D01*
X78424000Y-39323010D01*
X78424000Y-38624925D01*
X78532950Y-38624925D01*
X78532950Y-38878510D01*
X78628200Y-38973760D01*
X79187000Y-38973760D01*
X79187000Y-38414960D01*
X79441000Y-38414960D01*
X79441000Y-38973760D01*
X79999800Y-38973760D01*
X80095050Y-38878510D01*
X80095050Y-38624925D01*
X80037046Y-38484891D01*
X79929870Y-38377714D01*
X79789836Y-38319710D01*
X79536250Y-38319710D01*
X79441000Y-38414960D01*
X79187000Y-38414960D01*
X79091750Y-38319710D01*
X78838164Y-38319710D01*
X78698130Y-38377714D01*
X78590954Y-38484891D01*
X78532950Y-38624925D01*
X78424000Y-38624925D01*
X78424000Y-36701730D01*
X79475486Y-36701730D01*
X79475486Y-37501830D01*
X79502053Y-37643020D01*
X79585496Y-37772695D01*
X79712816Y-37859689D01*
X79863950Y-37890294D01*
X80664050Y-37890294D01*
X80805240Y-37863727D01*
X80934915Y-37780284D01*
X81021909Y-37652964D01*
X81052514Y-37501830D01*
X81052514Y-36701730D01*
X83539486Y-36701730D01*
X83539486Y-37501830D01*
X83566053Y-37643020D01*
X83649496Y-37772695D01*
X83776816Y-37859689D01*
X83927950Y-37890294D01*
X84728050Y-37890294D01*
X84869240Y-37863727D01*
X84998915Y-37780284D01*
X85085909Y-37652964D01*
X85116514Y-37501830D01*
X85116514Y-37187854D01*
X85790184Y-36514184D01*
X85926968Y-36309473D01*
X85975000Y-36068000D01*
X85975000Y-35770254D01*
X86224065Y-35603834D01*
X86493860Y-35200057D01*
X86588600Y-34723769D01*
X86588600Y-34364231D01*
X86639400Y-34364231D01*
X86639400Y-34723769D01*
X86734140Y-35200057D01*
X87003935Y-35603834D01*
X87253000Y-35770254D01*
X87253000Y-36068000D01*
X87301032Y-36309473D01*
X87437816Y-36514184D01*
X87607170Y-36683538D01*
X87603486Y-36701730D01*
X87603486Y-37501830D01*
X87630053Y-37643020D01*
X87713496Y-37772695D01*
X87840816Y-37859689D01*
X87991950Y-37890294D01*
X88792050Y-37890294D01*
X88933240Y-37863727D01*
X89062915Y-37780284D01*
X89149909Y-37652964D01*
X89180514Y-37501830D01*
X89180514Y-36701730D01*
X89153947Y-36560540D01*
X89070504Y-36430865D01*
X88982118Y-36370474D01*
X88974968Y-36334527D01*
X88897243Y-36218204D01*
X88838184Y-36129815D01*
X88515000Y-35806632D01*
X88515000Y-35770254D01*
X88764065Y-35603834D01*
X89033860Y-35200057D01*
X89128600Y-34723769D01*
X89128600Y-34364231D01*
X89033860Y-33887943D01*
X88764065Y-33484166D01*
X88360288Y-33214371D01*
X87884000Y-33119631D01*
X87407712Y-33214371D01*
X87003935Y-33484166D01*
X86734140Y-33887943D01*
X86639400Y-34364231D01*
X86588600Y-34364231D01*
X86493860Y-33887943D01*
X86224065Y-33484166D01*
X85820288Y-33214371D01*
X85344000Y-33119631D01*
X84867712Y-33214371D01*
X84463935Y-33484166D01*
X84194140Y-33887943D01*
X84099400Y-34364231D01*
X84099400Y-34723769D01*
X84194140Y-35200057D01*
X84463935Y-35603834D01*
X84713000Y-35770254D01*
X84713000Y-35806632D01*
X84206366Y-36313266D01*
X83927950Y-36313266D01*
X83786760Y-36339833D01*
X83657085Y-36423276D01*
X83570091Y-36550596D01*
X83539486Y-36701730D01*
X81052514Y-36701730D01*
X81025947Y-36560540D01*
X80942504Y-36430865D01*
X80895000Y-36398407D01*
X80895000Y-35821368D01*
X81541368Y-35175000D01*
X81551936Y-35175000D01*
X81551936Y-35560000D01*
X81578503Y-35701190D01*
X81661946Y-35830865D01*
X81789266Y-35917859D01*
X81940400Y-35948464D01*
X83667600Y-35948464D01*
X83808790Y-35921897D01*
X83938465Y-35838454D01*
X84025459Y-35711134D01*
X84056064Y-35560000D01*
X84056064Y-33528000D01*
X84029497Y-33386810D01*
X83946054Y-33257135D01*
X83818734Y-33170141D01*
X83667600Y-33139536D01*
X81940400Y-33139536D01*
X81799210Y-33166103D01*
X81669535Y-33249546D01*
X81582541Y-33376866D01*
X81551936Y-33528000D01*
X81551936Y-33913000D01*
X81280000Y-33913000D01*
X81038527Y-33961032D01*
X80833816Y-34097816D01*
X79817816Y-35113816D01*
X79681032Y-35318527D01*
X79633000Y-35560000D01*
X79633000Y-36397592D01*
X79593085Y-36423276D01*
X79506091Y-36550596D01*
X79475486Y-36701730D01*
X78424000Y-36701730D01*
X78424000Y-32996000D01*
X102512000Y-32996000D01*
X102512000Y-82084000D01*
G36*
X84123082Y-42125036D02*
X83004500Y-42125036D01*
X82863310Y-42151603D01*
X82733635Y-42235046D01*
X82646641Y-42362366D01*
X82616036Y-42513500D01*
X82616036Y-44013500D01*
X82642603Y-44154690D01*
X82726046Y-44284365D01*
X82853366Y-44371359D01*
X83004500Y-44401964D01*
X84254500Y-44401964D01*
X84395690Y-44375397D01*
X84525365Y-44291954D01*
X84612359Y-44164634D01*
X84642964Y-44013500D01*
X84642964Y-42894918D01*
X85679881Y-41858000D01*
X90250000Y-41858000D01*
X90424504Y-41823289D01*
X90572441Y-41724441D01*
X90946418Y-41350464D01*
X91251582Y-41350464D01*
X92133559Y-42232441D01*
X92281496Y-42331289D01*
X92456000Y-42366000D01*
X97028000Y-42366000D01*
X97202504Y-42331289D01*
X97350441Y-42232441D01*
X97978882Y-41604000D01*
X99379118Y-41604000D01*
X99766000Y-41990881D01*
X99766000Y-42235824D01*
X99744441Y-42203559D01*
X99744438Y-42203557D01*
X99382441Y-41841559D01*
X99355098Y-41823289D01*
X99234504Y-41742711D01*
X99060000Y-41708000D01*
X98298000Y-41708000D01*
X98123496Y-41742711D01*
X97975559Y-41841559D01*
X96839118Y-42978000D01*
X96708882Y-42978000D01*
X96608441Y-42877559D01*
X96561962Y-42846503D01*
X96460504Y-42778711D01*
X96286000Y-42744000D01*
X90421464Y-42744000D01*
X90421464Y-42450000D01*
X90394897Y-42308810D01*
X90311454Y-42179135D01*
X90184134Y-42092141D01*
X90033000Y-42061536D01*
X88783000Y-42061536D01*
X88641810Y-42088103D01*
X88512135Y-42171546D01*
X88425141Y-42298866D01*
X88394536Y-42450000D01*
X88394536Y-43950000D01*
X88402815Y-43994000D01*
X88126554Y-43994000D01*
X88135464Y-43950000D01*
X88135464Y-42450000D01*
X88108897Y-42308810D01*
X88025454Y-42179135D01*
X87898134Y-42092141D01*
X87747000Y-42061536D01*
X86497000Y-42061536D01*
X86355810Y-42088103D01*
X86226135Y-42171546D01*
X86139141Y-42298866D01*
X86108536Y-42450000D01*
X86108536Y-43950000D01*
X86135103Y-44091190D01*
X86218546Y-44220865D01*
X86345866Y-44307859D01*
X86497000Y-44338464D01*
X86694338Y-44338464D01*
X86700711Y-44370504D01*
X86765856Y-44468000D01*
X86799559Y-44518441D01*
X86850118Y-44569000D01*
X86421215Y-44569000D01*
X86281181Y-44627004D01*
X86174004Y-44734180D01*
X86116000Y-44874214D01*
X86116000Y-45477750D01*
X86211250Y-45573000D01*
X86995000Y-45573000D01*
X86995000Y-45553000D01*
X87249000Y-45553000D01*
X87249000Y-45573000D01*
X88032750Y-45573000D01*
X88128000Y-45477750D01*
X88128000Y-44906000D01*
X88402000Y-44906000D01*
X88402000Y-45477750D01*
X88497250Y-45573000D01*
X89281000Y-45573000D01*
X89281000Y-45553000D01*
X89535000Y-45553000D01*
X89535000Y-45573000D01*
X90318750Y-45573000D01*
X90414000Y-45477750D01*
X90414000Y-44906000D01*
X90424000Y-44906000D01*
X90598504Y-44871289D01*
X90620427Y-44856640D01*
X90693165Y-45032680D01*
X90856460Y-45196260D01*
X91069925Y-45284898D01*
X91122062Y-45284944D01*
X92511619Y-46674500D01*
X90347316Y-46674500D01*
X90355996Y-46665820D01*
X90414000Y-46525786D01*
X90414000Y-45922250D01*
X90318750Y-45827000D01*
X89535000Y-45827000D01*
X89535000Y-45847000D01*
X89281000Y-45847000D01*
X89281000Y-45827000D01*
X88497250Y-45827000D01*
X88402000Y-45922250D01*
X88402000Y-46525786D01*
X88460004Y-46665820D01*
X88468684Y-46674500D01*
X88061316Y-46674500D01*
X88069996Y-46665820D01*
X88128000Y-46525786D01*
X88128000Y-45922250D01*
X88032750Y-45827000D01*
X87249000Y-45827000D01*
X87249000Y-45847000D01*
X86995000Y-45847000D01*
X86995000Y-45827000D01*
X86211250Y-45827000D01*
X86116000Y-45922250D01*
X86116000Y-46525786D01*
X86174004Y-46665820D01*
X86182684Y-46674500D01*
X84600203Y-46674500D01*
X84635500Y-46589286D01*
X84635500Y-45985750D01*
X84540250Y-45890500D01*
X83756500Y-45890500D01*
X83756500Y-45910500D01*
X83502500Y-45910500D01*
X83502500Y-45890500D01*
X82718750Y-45890500D01*
X82662594Y-45946656D01*
X82619661Y-45842748D01*
X82548000Y-45770962D01*
X82548000Y-44937714D01*
X82623500Y-44937714D01*
X82623500Y-45541250D01*
X82718750Y-45636500D01*
X83502500Y-45636500D01*
X83502500Y-44727750D01*
X83756500Y-44727750D01*
X83756500Y-45636500D01*
X84540250Y-45636500D01*
X84635500Y-45541250D01*
X84635500Y-44937714D01*
X84577496Y-44797680D01*
X84470319Y-44690504D01*
X84330285Y-44632500D01*
X83851750Y-44632500D01*
X83756500Y-44727750D01*
X83502500Y-44727750D01*
X83407250Y-44632500D01*
X82928715Y-44632500D01*
X82788681Y-44690504D01*
X82681504Y-44797680D01*
X82623500Y-44937714D01*
X82548000Y-44937714D01*
X82548000Y-41865592D01*
X83267592Y-41146000D01*
X85102119Y-41146000D01*
X84123082Y-42125036D01*
X84123082Y-42125036D01*
G37*
X84123082Y-42125036D02*
X83004500Y-42125036D01*
X82863310Y-42151603D01*
X82733635Y-42235046D01*
X82646641Y-42362366D01*
X82616036Y-42513500D01*
X82616036Y-44013500D01*
X82642603Y-44154690D01*
X82726046Y-44284365D01*
X82853366Y-44371359D01*
X83004500Y-44401964D01*
X84254500Y-44401964D01*
X84395690Y-44375397D01*
X84525365Y-44291954D01*
X84612359Y-44164634D01*
X84642964Y-44013500D01*
X84642964Y-42894918D01*
X85679881Y-41858000D01*
X90250000Y-41858000D01*
X90424504Y-41823289D01*
X90572441Y-41724441D01*
X90946418Y-41350464D01*
X91251582Y-41350464D01*
X92133559Y-42232441D01*
X92281496Y-42331289D01*
X92456000Y-42366000D01*
X97028000Y-42366000D01*
X97202504Y-42331289D01*
X97350441Y-42232441D01*
X97978882Y-41604000D01*
X99379118Y-41604000D01*
X99766000Y-41990881D01*
X99766000Y-42235824D01*
X99744441Y-42203559D01*
X99744438Y-42203557D01*
X99382441Y-41841559D01*
X99355098Y-41823289D01*
X99234504Y-41742711D01*
X99060000Y-41708000D01*
X98298000Y-41708000D01*
X98123496Y-41742711D01*
X97975559Y-41841559D01*
X96839118Y-42978000D01*
X96708882Y-42978000D01*
X96608441Y-42877559D01*
X96561962Y-42846503D01*
X96460504Y-42778711D01*
X96286000Y-42744000D01*
X90421464Y-42744000D01*
X90421464Y-42450000D01*
X90394897Y-42308810D01*
X90311454Y-42179135D01*
X90184134Y-42092141D01*
X90033000Y-42061536D01*
X88783000Y-42061536D01*
X88641810Y-42088103D01*
X88512135Y-42171546D01*
X88425141Y-42298866D01*
X88394536Y-42450000D01*
X88394536Y-43950000D01*
X88402815Y-43994000D01*
X88126554Y-43994000D01*
X88135464Y-43950000D01*
X88135464Y-42450000D01*
X88108897Y-42308810D01*
X88025454Y-42179135D01*
X87898134Y-42092141D01*
X87747000Y-42061536D01*
X86497000Y-42061536D01*
X86355810Y-42088103D01*
X86226135Y-42171546D01*
X86139141Y-42298866D01*
X86108536Y-42450000D01*
X86108536Y-43950000D01*
X86135103Y-44091190D01*
X86218546Y-44220865D01*
X86345866Y-44307859D01*
X86497000Y-44338464D01*
X86694338Y-44338464D01*
X86700711Y-44370504D01*
X86765856Y-44468000D01*
X86799559Y-44518441D01*
X86850118Y-44569000D01*
X86421215Y-44569000D01*
X86281181Y-44627004D01*
X86174004Y-44734180D01*
X86116000Y-44874214D01*
X86116000Y-45477750D01*
X86211250Y-45573000D01*
X86995000Y-45573000D01*
X86995000Y-45553000D01*
X87249000Y-45553000D01*
X87249000Y-45573000D01*
X88032750Y-45573000D01*
X88128000Y-45477750D01*
X88128000Y-44906000D01*
X88402000Y-44906000D01*
X88402000Y-45477750D01*
X88497250Y-45573000D01*
X89281000Y-45573000D01*
X89281000Y-45553000D01*
X89535000Y-45553000D01*
X89535000Y-45573000D01*
X90318750Y-45573000D01*
X90414000Y-45477750D01*
X90414000Y-44906000D01*
X90424000Y-44906000D01*
X90598504Y-44871289D01*
X90620427Y-44856640D01*
X90693165Y-45032680D01*
X90856460Y-45196260D01*
X91069925Y-45284898D01*
X91122062Y-45284944D01*
X92511619Y-46674500D01*
X90347316Y-46674500D01*
X90355996Y-46665820D01*
X90414000Y-46525786D01*
X90414000Y-45922250D01*
X90318750Y-45827000D01*
X89535000Y-45827000D01*
X89535000Y-45847000D01*
X89281000Y-45847000D01*
X89281000Y-45827000D01*
X88497250Y-45827000D01*
X88402000Y-45922250D01*
X88402000Y-46525786D01*
X88460004Y-46665820D01*
X88468684Y-46674500D01*
X88061316Y-46674500D01*
X88069996Y-46665820D01*
X88128000Y-46525786D01*
X88128000Y-45922250D01*
X88032750Y-45827000D01*
X87249000Y-45827000D01*
X87249000Y-45847000D01*
X86995000Y-45847000D01*
X86995000Y-45827000D01*
X86211250Y-45827000D01*
X86116000Y-45922250D01*
X86116000Y-46525786D01*
X86174004Y-46665820D01*
X86182684Y-46674500D01*
X84600203Y-46674500D01*
X84635500Y-46589286D01*
X84635500Y-45985750D01*
X84540250Y-45890500D01*
X83756500Y-45890500D01*
X83756500Y-45910500D01*
X83502500Y-45910500D01*
X83502500Y-45890500D01*
X82718750Y-45890500D01*
X82662594Y-45946656D01*
X82619661Y-45842748D01*
X82548000Y-45770962D01*
X82548000Y-44937714D01*
X82623500Y-44937714D01*
X82623500Y-45541250D01*
X82718750Y-45636500D01*
X83502500Y-45636500D01*
X83502500Y-44727750D01*
X83756500Y-44727750D01*
X83756500Y-45636500D01*
X84540250Y-45636500D01*
X84635500Y-45541250D01*
X84635500Y-44937714D01*
X84577496Y-44797680D01*
X84470319Y-44690504D01*
X84330285Y-44632500D01*
X83851750Y-44632500D01*
X83756500Y-44727750D01*
X83502500Y-44727750D01*
X83407250Y-44632500D01*
X82928715Y-44632500D01*
X82788681Y-44690504D01*
X82681504Y-44797680D01*
X82623500Y-44937714D01*
X82548000Y-44937714D01*
X82548000Y-41865592D01*
X83267592Y-41146000D01*
X85102119Y-41146000D01*
X84123082Y-42125036D01*
M02*
