G04 #@! TF.FileFunction,Legend,Bot*
%FSLAX46Y46*%
G04 Gerber Fmt 4.6, Leading zero omitted, Abs format (unit mm)*
G04 Created by KiCad (PCBNEW 4.0.4-stable) date 01/25/17 01:32:59*
%MOMM*%
%LPD*%
G01*
G04 APERTURE LIST*
%ADD10C,0.100000*%
%ADD11C,0.150000*%
%ADD12C,0.010000*%
%ADD13C,0.120000*%
%ADD14R,1.740000X1.040000*%
%ADD15R,0.390000X0.640000*%
%ADD16R,3.300000X5.800000*%
%ADD17R,1.650000X1.900000*%
%ADD18R,1.900000X1.650000*%
%ADD19R,2.100000X4.000000*%
%ADD20R,4.000000X2.100000*%
%ADD21R,2.127200X2.432000*%
%ADD22O,2.127200X2.432000*%
%ADD23R,2.100000X1.600000*%
%ADD24O,2.100000X1.600000*%
%ADD25R,1.200100X1.200100*%
%ADD26R,1.700000X1.900000*%
%ADD27R,2.100000X2.400000*%
%ADD28R,0.600000X1.100000*%
%ADD29R,2.750000X2.180000*%
%ADD30R,1.040000X1.740000*%
%ADD31R,0.640000X0.390000*%
G04 APERTURE END LIST*
D10*
D11*
X82613309Y-74509381D02*
X82279976Y-75509381D01*
X81946642Y-74509381D01*
X81089499Y-75509381D02*
X81660928Y-75509381D01*
X81375214Y-75509381D02*
X81375214Y-74509381D01*
X81470452Y-74652238D01*
X81565690Y-74747476D01*
X81660928Y-74795095D01*
X80660928Y-75414143D02*
X80613309Y-75461762D01*
X80660928Y-75509381D01*
X80708547Y-75461762D01*
X80660928Y-75414143D01*
X80660928Y-75509381D01*
X79994262Y-74509381D02*
X79899023Y-74509381D01*
X79803785Y-74557000D01*
X79756166Y-74604619D01*
X79708547Y-74699857D01*
X79660928Y-74890333D01*
X79660928Y-75128429D01*
X79708547Y-75318905D01*
X79756166Y-75414143D01*
X79803785Y-75461762D01*
X79899023Y-75509381D01*
X79994262Y-75509381D01*
X80089500Y-75461762D01*
X80137119Y-75414143D01*
X80184738Y-75318905D01*
X80232357Y-75128429D01*
X80232357Y-74890333D01*
X80184738Y-74699857D01*
X80137119Y-74604619D01*
X80089500Y-74557000D01*
X79994262Y-74509381D01*
D10*
X80915000Y-58467500D02*
X82915000Y-58467500D01*
X83566000Y-58813700D02*
G75*
G03X83566000Y-58813700I-228600J0D01*
G01*
X80915000Y-56467500D02*
X80915000Y-58467500D01*
X82915000Y-56467500D02*
X80915000Y-56467500D01*
X82915000Y-58467500D02*
X82915000Y-56467500D01*
X84678000Y-66342000D02*
X84678000Y-63342000D01*
X96678000Y-66342000D02*
X96678000Y-63342000D01*
X84678000Y-75342000D02*
X84678000Y-72342000D01*
X96678000Y-75342000D02*
X96678000Y-72342000D01*
X96678000Y-63342000D02*
X84678000Y-63342000D01*
X84678000Y-75342000D02*
X96678000Y-75342000D01*
D11*
X83173200Y-63238000D02*
X83173200Y-62238000D01*
X84873200Y-62238000D02*
X84873200Y-63238000D01*
X84494000Y-57840500D02*
X84494000Y-56840500D01*
X86194000Y-56840500D02*
X86194000Y-57840500D01*
X86272000Y-44950000D02*
X86272000Y-43950000D01*
X87972000Y-43950000D02*
X87972000Y-44950000D01*
X88558000Y-44950000D02*
X88558000Y-43950000D01*
X90258000Y-43950000D02*
X90258000Y-44950000D01*
X82779500Y-45013500D02*
X82779500Y-44013500D01*
X84479500Y-44013500D02*
X84479500Y-45013500D01*
X99021000Y-53030500D02*
X99021000Y-54030500D01*
X97321000Y-54030500D02*
X97321000Y-53030500D01*
X94734000Y-53110500D02*
X93734000Y-53110500D01*
X93734000Y-51410500D02*
X94734000Y-51410500D01*
X99822000Y-64016420D02*
X99120960Y-64966380D01*
X99120960Y-64966380D02*
X100523040Y-64966380D01*
X100523040Y-64966380D02*
X99822000Y-64016420D01*
X99120960Y-64016420D02*
X100523040Y-64016420D01*
X101221540Y-62265560D02*
X101071680Y-62265560D01*
X98422460Y-62265560D02*
X98572320Y-62265560D01*
X101221540Y-62716860D02*
X101020880Y-62716860D01*
X101170740Y-66766440D02*
X101071680Y-66766440D01*
X98473260Y-62716860D02*
X98623120Y-62716860D01*
X98422460Y-66766440D02*
X98572320Y-66766440D01*
X101572060Y-62716860D02*
X101221540Y-62716860D01*
X98071940Y-62716860D02*
X98422460Y-62716860D01*
X101572060Y-66766440D02*
X101221540Y-66766440D01*
X101572060Y-62265560D02*
X101221540Y-62265560D01*
X98071940Y-62265560D02*
X98422460Y-62265560D01*
X98071940Y-66766440D02*
X98422460Y-66766440D01*
X101572060Y-62265560D02*
X101572060Y-66766440D01*
X98071940Y-62265560D02*
X98071940Y-66766440D01*
D10*
X85697000Y-52070000D02*
G75*
G03X85697000Y-52070000I-1750000J0D01*
G01*
X90650000Y-54292500D02*
G75*
G03X90650000Y-54292500I-1750000J0D01*
G01*
D11*
X90832000Y-78478000D02*
X86582000Y-78478000D01*
X86582000Y-78478000D02*
X86582000Y-79478000D01*
X86582000Y-79478000D02*
X90832000Y-79478000D01*
X84832000Y-77078000D02*
X84832000Y-76728000D01*
X84832000Y-76728000D02*
X83232000Y-76728000D01*
X83232000Y-76728000D02*
X83232000Y-76028000D01*
X83232000Y-76028000D02*
X90832000Y-76028000D01*
X90832000Y-76028000D02*
X90832000Y-81928000D01*
X90832000Y-81928000D02*
X83232000Y-81928000D01*
X83232000Y-81928000D02*
X83232000Y-81228000D01*
X83232000Y-81228000D02*
X84832000Y-81228000D01*
X84832000Y-81228000D02*
X84832000Y-80878000D01*
X83382000Y-77978000D02*
X82982000Y-77578000D01*
X82982000Y-77578000D02*
X82982000Y-78378000D01*
X82982000Y-78378000D02*
X83382000Y-77978000D01*
X84832000Y-76028000D02*
X84832000Y-76728000D01*
X84832000Y-81928000D02*
X84832000Y-81228000D01*
X87082000Y-76678000D02*
X88682000Y-76678000D01*
X88682000Y-76678000D02*
X88682000Y-77678000D01*
X88682000Y-77678000D02*
X87082000Y-77678000D01*
X87082000Y-77678000D02*
X87082000Y-76678000D01*
X87082000Y-81278000D02*
X88682000Y-81278000D01*
X88682000Y-81278000D02*
X88682000Y-80278000D01*
X88682000Y-80278000D02*
X87082000Y-80278000D01*
X87082000Y-80278000D02*
X87082000Y-81278000D01*
X88682000Y-77678000D02*
X90832000Y-77678000D01*
X88682000Y-77178000D02*
X90832000Y-77178000D01*
X84832000Y-78878000D02*
X84832000Y-79078000D01*
X87092840Y-37449760D02*
X87141100Y-37449760D01*
X89891820Y-38150800D02*
X89891820Y-37449760D01*
X89891820Y-37449760D02*
X89642900Y-37449760D01*
X87092840Y-37449760D02*
X86892180Y-37449760D01*
X86892180Y-37449760D02*
X86892180Y-38150800D01*
X83028840Y-37449760D02*
X83077100Y-37449760D01*
X85827820Y-38150800D02*
X85827820Y-37449760D01*
X85827820Y-37449760D02*
X85578900Y-37449760D01*
X83028840Y-37449760D02*
X82828180Y-37449760D01*
X82828180Y-37449760D02*
X82828180Y-38150800D01*
X98776840Y-71993760D02*
X98825100Y-71993760D01*
X101575820Y-72694800D02*
X101575820Y-71993760D01*
X101575820Y-71993760D02*
X101326900Y-71993760D01*
X98776840Y-71993760D02*
X98576180Y-71993760D01*
X98576180Y-71993760D02*
X98576180Y-72694800D01*
X78964840Y-37449760D02*
X79013100Y-37449760D01*
X81763820Y-38150800D02*
X81763820Y-37449760D01*
X81763820Y-37449760D02*
X81514900Y-37449760D01*
X78964840Y-37449760D02*
X78764180Y-37449760D01*
X78764180Y-37449760D02*
X78764180Y-38150800D01*
X86930200Y-63367200D02*
X86930200Y-62167200D01*
X85180200Y-62167200D02*
X85180200Y-63367200D01*
X80834200Y-63439600D02*
X80834200Y-62239600D01*
X79084200Y-62239600D02*
X79084200Y-63439600D01*
X90565000Y-38262000D02*
X90565000Y-39462000D01*
X92315000Y-39462000D02*
X92315000Y-38262000D01*
X92851000Y-38262000D02*
X92851000Y-39462000D01*
X94601000Y-39462000D02*
X94601000Y-38262000D01*
X95137000Y-38262000D02*
X95137000Y-39462000D01*
X96887000Y-39462000D02*
X96887000Y-38262000D01*
X99509000Y-77486000D02*
X99509000Y-79486000D01*
X101659000Y-79486000D02*
X101659000Y-77486000D01*
X99518500Y-52867000D02*
X99518500Y-54067000D01*
X101268500Y-54067000D02*
X101268500Y-52867000D01*
D10*
X98322000Y-43712000D02*
X98322000Y-46712000D01*
X98322000Y-46712000D02*
X101322000Y-46712000D01*
X101322000Y-46712000D02*
X101322000Y-43712000D01*
X101322000Y-43712000D02*
X98322000Y-43712000D01*
D12*
G36*
X79151480Y-70727541D02*
X79151481Y-70817682D01*
X79113380Y-70823936D01*
X79056936Y-70842742D01*
X79011738Y-70878120D01*
X78986790Y-70913861D01*
X78981427Y-70924222D01*
X78976947Y-70934680D01*
X78973257Y-70947089D01*
X78970267Y-70963299D01*
X78967884Y-70985164D01*
X78966015Y-71014533D01*
X78964570Y-71053260D01*
X78963455Y-71103197D01*
X78962578Y-71166194D01*
X78961849Y-71244105D01*
X78961174Y-71338780D01*
X78960522Y-71442228D01*
X78957523Y-71927017D01*
X78896661Y-71959456D01*
X78814334Y-72014217D01*
X78741219Y-72084361D01*
X78680575Y-72165950D01*
X78635663Y-72255042D01*
X78623540Y-72289586D01*
X78605707Y-72358612D01*
X78596401Y-72425243D01*
X78596295Y-72491168D01*
X78606061Y-72558079D01*
X78626371Y-72627665D01*
X78657899Y-72701617D01*
X78701317Y-72781625D01*
X78757297Y-72869378D01*
X78826511Y-72966569D01*
X78909634Y-73074885D01*
X78962170Y-73140615D01*
X79005270Y-73194467D01*
X79044737Y-73244818D01*
X79078502Y-73288944D01*
X79104497Y-73324124D01*
X79120652Y-73347634D01*
X79124304Y-73353975D01*
X79131614Y-73377149D01*
X79139365Y-73414806D01*
X79146492Y-73461165D01*
X79150715Y-73497440D01*
X79156972Y-73550857D01*
X79164764Y-73604068D01*
X79172900Y-73649412D01*
X79177580Y-73670160D01*
X79197612Y-73730862D01*
X79227522Y-73800227D01*
X79263858Y-73871579D01*
X79303174Y-73938240D01*
X79342019Y-73993532D01*
X79349131Y-74002284D01*
X79435203Y-74089735D01*
X79534087Y-74163283D01*
X79643464Y-74222587D01*
X79761015Y-74267305D01*
X79884419Y-74297096D01*
X80011357Y-74311619D01*
X80139509Y-74310533D01*
X80266556Y-74293495D01*
X80390177Y-74260165D01*
X80508054Y-74210201D01*
X80561180Y-74180652D01*
X80614520Y-74148466D01*
X80614577Y-73858513D01*
X80614966Y-73775377D01*
X80616045Y-73700130D01*
X80616824Y-73670160D01*
X80243329Y-73670160D01*
X80238995Y-73732724D01*
X80224367Y-73784789D01*
X80197000Y-73830844D01*
X80154453Y-73875378D01*
X80113574Y-73908624D01*
X80072429Y-73929273D01*
X80019356Y-73940982D01*
X79960873Y-73943337D01*
X79903497Y-73935922D01*
X79866669Y-73924358D01*
X79823257Y-73898455D01*
X79779845Y-73859523D01*
X79742610Y-73813891D01*
X79720381Y-73774448D01*
X79702166Y-73707540D01*
X79702331Y-73638371D01*
X79719943Y-73571001D01*
X79754067Y-73509488D01*
X79790598Y-73469037D01*
X79842773Y-73429907D01*
X79896873Y-73407455D01*
X79959816Y-73399038D01*
X79974440Y-73398806D01*
X80040051Y-73404672D01*
X80095400Y-73424031D01*
X80147406Y-73459527D01*
X80158283Y-73469037D01*
X80199635Y-73512606D01*
X80225905Y-73557431D01*
X80239622Y-73609492D01*
X80243329Y-73670160D01*
X80616824Y-73670160D01*
X80617730Y-73635336D01*
X80619940Y-73583559D01*
X80622592Y-73547362D01*
X80625128Y-73530775D01*
X80649973Y-73476387D01*
X80689342Y-73434839D01*
X80740602Y-73408077D01*
X80801124Y-73398044D01*
X80804630Y-73398017D01*
X80859738Y-73406733D01*
X80908315Y-73430973D01*
X80945487Y-73467872D01*
X80957103Y-73487649D01*
X80972196Y-73514126D01*
X80982775Y-73520791D01*
X80988838Y-73507644D01*
X80990440Y-73481195D01*
X80999431Y-73424715D01*
X81024128Y-73376903D01*
X81061120Y-73339577D01*
X81106996Y-73314553D01*
X81158344Y-73303649D01*
X81211754Y-73308679D01*
X81263813Y-73331462D01*
X81267302Y-73333758D01*
X81311868Y-73375625D01*
X81341523Y-73429556D01*
X81352244Y-73473276D01*
X81358822Y-73522864D01*
X81384574Y-73483148D01*
X81424329Y-73438302D01*
X81472829Y-73409426D01*
X81526286Y-73397146D01*
X81580915Y-73402090D01*
X81632928Y-73424886D01*
X81651824Y-73438866D01*
X81670495Y-73455458D01*
X81685502Y-73472069D01*
X81697246Y-73491050D01*
X81706127Y-73514751D01*
X81712547Y-73545521D01*
X81716907Y-73585711D01*
X81719606Y-73637670D01*
X81721047Y-73703748D01*
X81721630Y-73786295D01*
X81721737Y-73848688D01*
X81721960Y-74149136D01*
X81795620Y-74190696D01*
X81920116Y-74249404D01*
X82051641Y-74289337D01*
X82188900Y-74310253D01*
X82330595Y-74311914D01*
X82410304Y-74304487D01*
X82543936Y-74277815D01*
X82669273Y-74234171D01*
X82784732Y-74174574D01*
X82888733Y-74100045D01*
X82979695Y-74011605D01*
X83056037Y-73910275D01*
X83078216Y-73873360D01*
X83115008Y-73796350D01*
X83146989Y-73706583D01*
X83147865Y-73703277D01*
X82634298Y-73703277D01*
X82627137Y-73749966D01*
X82626228Y-73752975D01*
X82595651Y-73818509D01*
X82551039Y-73871740D01*
X82495448Y-73911353D01*
X82431934Y-73936035D01*
X82363553Y-73944473D01*
X82293362Y-73935352D01*
X82243802Y-73917355D01*
X82190384Y-73881857D01*
X82144966Y-73831763D01*
X82110810Y-73772236D01*
X82091175Y-73708440D01*
X82087720Y-73670160D01*
X82096027Y-73611143D01*
X82118728Y-73550661D01*
X82152495Y-73497188D01*
X82158411Y-73490179D01*
X82211887Y-73443367D01*
X82272902Y-73413107D01*
X82338178Y-73398970D01*
X82404440Y-73400530D01*
X82468413Y-73417359D01*
X82526819Y-73449031D01*
X82576384Y-73495117D01*
X82611041Y-73549221D01*
X82625564Y-73593701D01*
X82633545Y-73648121D01*
X82634298Y-73703277D01*
X83147865Y-73703277D01*
X83172267Y-73611221D01*
X83188952Y-73517424D01*
X83195156Y-73432354D01*
X83195161Y-73430260D01*
X83196690Y-73407437D01*
X83202244Y-73384420D01*
X83213269Y-73358879D01*
X83231211Y-73328484D01*
X83257517Y-73290905D01*
X83293633Y-73243812D01*
X83341007Y-73184875D01*
X83367918Y-73152000D01*
X83462786Y-73033262D01*
X83542563Y-72926022D01*
X83607951Y-72828986D01*
X83659649Y-72740860D01*
X83698358Y-72660351D01*
X83713567Y-72617643D01*
X82454164Y-72617643D01*
X82452292Y-72630552D01*
X82442915Y-72644488D01*
X82434400Y-72650123D01*
X82417807Y-72654189D01*
X82390395Y-72656906D01*
X82349426Y-72658494D01*
X82292159Y-72659172D01*
X82259196Y-72659240D01*
X82087720Y-72659240D01*
X82087720Y-72567800D01*
X82088503Y-72527638D01*
X82090598Y-72496631D01*
X82093630Y-72479261D01*
X82095340Y-72477087D01*
X82107000Y-72480397D01*
X82134694Y-72489141D01*
X82175195Y-72502273D01*
X82225279Y-72518750D01*
X82275680Y-72535507D01*
X82342765Y-72558412D01*
X82392253Y-72576839D01*
X82426047Y-72592027D01*
X82446050Y-72605215D01*
X82454164Y-72617643D01*
X83713567Y-72617643D01*
X83724777Y-72586167D01*
X83739607Y-72517015D01*
X83742811Y-72469996D01*
X81904840Y-72469996D01*
X81904840Y-72598552D01*
X81871820Y-72584218D01*
X81851458Y-72574951D01*
X81816784Y-72558719D01*
X81771777Y-72537404D01*
X81720419Y-72512886D01*
X81688940Y-72497772D01*
X81539080Y-72425661D01*
X81539080Y-72268130D01*
X81539478Y-72205146D01*
X81540797Y-72160184D01*
X81543223Y-72130962D01*
X81546945Y-72115196D01*
X81551993Y-72110600D01*
X81571820Y-72116570D01*
X81604867Y-72133283D01*
X81648367Y-72158944D01*
X81699549Y-72191757D01*
X81755644Y-72229928D01*
X81813884Y-72271659D01*
X81871499Y-72315156D01*
X81890619Y-72330160D01*
X81896930Y-72340382D01*
X81901196Y-72361180D01*
X81903709Y-72395429D01*
X81904762Y-72446007D01*
X81904840Y-72469996D01*
X83742811Y-72469996D01*
X83743624Y-72458079D01*
X83737694Y-72389964D01*
X83721854Y-72314755D01*
X83698344Y-72241647D01*
X83681208Y-72202040D01*
X83647378Y-72146864D01*
X83600133Y-72088876D01*
X83561303Y-72050027D01*
X81356200Y-72050027D01*
X81356200Y-72364840D01*
X81313020Y-72357100D01*
X81283146Y-72353612D01*
X81240427Y-72350941D01*
X81192335Y-72349499D01*
X81173320Y-72349360D01*
X81125170Y-72350195D01*
X81079412Y-72352426D01*
X81043518Y-72355637D01*
X81033620Y-72357100D01*
X80990440Y-72364840D01*
X80990440Y-72270620D01*
X80796906Y-72270620D01*
X80796412Y-72430640D01*
X80621646Y-72514434D01*
X80566741Y-72540577D01*
X80518101Y-72563392D01*
X80478691Y-72581516D01*
X80451477Y-72593587D01*
X80439424Y-72598240D01*
X80439260Y-72598254D01*
X80436369Y-72588747D01*
X80434344Y-72566712D01*
X80248760Y-72566712D01*
X80248760Y-72659240D01*
X80077285Y-72659240D01*
X80011503Y-72658909D01*
X79963293Y-72657772D01*
X79929916Y-72655608D01*
X79908630Y-72652197D01*
X79896697Y-72647319D01*
X79893565Y-72644487D01*
X79886339Y-72623412D01*
X79887889Y-72609044D01*
X79894304Y-72599881D01*
X79909412Y-72589931D01*
X79935689Y-72578139D01*
X79975610Y-72563446D01*
X80031653Y-72544797D01*
X80058908Y-72536066D01*
X80114067Y-72518486D01*
X80162890Y-72502844D01*
X80201897Y-72490262D01*
X80227609Y-72481860D01*
X80236060Y-72478983D01*
X80242371Y-72481823D01*
X80246338Y-72497804D01*
X80248334Y-72529492D01*
X80248760Y-72566712D01*
X80434344Y-72566712D01*
X80433982Y-72562775D01*
X80432330Y-72524189D01*
X80431647Y-72476842D01*
X80431640Y-72471717D01*
X80431640Y-72345155D01*
X80500220Y-72290447D01*
X80538781Y-72260395D01*
X80577992Y-72230987D01*
X80610304Y-72207867D01*
X80614520Y-72205000D01*
X80641058Y-72188403D01*
X80675223Y-72168710D01*
X80712150Y-72148510D01*
X80746972Y-72130391D01*
X80774823Y-72116940D01*
X80790839Y-72110745D01*
X80792031Y-72110600D01*
X80793828Y-72120188D01*
X80795306Y-72146668D01*
X80796361Y-72186612D01*
X80796888Y-72236594D01*
X80796906Y-72270620D01*
X80990440Y-72270620D01*
X80990440Y-72206921D01*
X80990654Y-72146456D01*
X80991515Y-72103248D01*
X80993352Y-72074238D01*
X80996494Y-72056364D01*
X81001271Y-72046567D01*
X81008013Y-72041787D01*
X81008220Y-72041701D01*
X81026117Y-72038631D01*
X81059582Y-72036427D01*
X81103882Y-72035082D01*
X81154286Y-72034586D01*
X81206060Y-72034933D01*
X81254471Y-72036116D01*
X81294787Y-72038126D01*
X81322275Y-72040956D01*
X81328260Y-72042213D01*
X81356200Y-72050027D01*
X83561303Y-72050027D01*
X83544680Y-72033396D01*
X83486224Y-71985743D01*
X83441661Y-71957302D01*
X83378282Y-71922640D01*
X83378104Y-71455280D01*
X83377789Y-71323060D01*
X83376953Y-71210298D01*
X83375599Y-71117148D01*
X83373732Y-71043764D01*
X83371926Y-71003160D01*
X82822349Y-71003160D01*
X82815883Y-71117460D01*
X82804890Y-71228909D01*
X82785375Y-71334662D01*
X82758267Y-71432456D01*
X82724492Y-71520031D01*
X82684977Y-71595125D01*
X82640649Y-71655477D01*
X82592437Y-71698825D01*
X82572611Y-71710722D01*
X82512485Y-71730927D01*
X82441726Y-71735783D01*
X82363003Y-71725304D01*
X82306160Y-71709383D01*
X82230000Y-71678129D01*
X82142556Y-71632308D01*
X82045423Y-71573069D01*
X81940196Y-71501562D01*
X81828471Y-71418937D01*
X81711843Y-71326345D01*
X81591907Y-71224935D01*
X81470258Y-71115856D01*
X81427320Y-71075844D01*
X81351120Y-71004122D01*
X82086735Y-71003641D01*
X82822349Y-71003160D01*
X80983823Y-71003160D01*
X80959192Y-71029938D01*
X80924368Y-71065273D01*
X80876370Y-71110356D01*
X80818199Y-71162639D01*
X80752857Y-71219573D01*
X80683347Y-71278611D01*
X80612670Y-71337204D01*
X80543829Y-71392802D01*
X80479826Y-71442859D01*
X80423662Y-71484825D01*
X80421480Y-71486401D01*
X80299625Y-71569701D01*
X80188502Y-71636045D01*
X80087796Y-71685528D01*
X79997194Y-71718250D01*
X79916380Y-71734308D01*
X79845039Y-71733799D01*
X79782858Y-71716821D01*
X79745971Y-71696146D01*
X79693011Y-71647832D01*
X79645637Y-71581689D01*
X79604573Y-71499619D01*
X79570542Y-71403524D01*
X79544269Y-71295304D01*
X79526477Y-71176861D01*
X79520261Y-71103131D01*
X79514171Y-71003160D01*
X80983823Y-71003160D01*
X82822349Y-71003160D01*
X83371926Y-71003160D01*
X83371354Y-70990301D01*
X83368469Y-70956914D01*
X83366700Y-70947280D01*
X83346090Y-70904193D01*
X83312243Y-70865692D01*
X83271051Y-70837283D01*
X83236422Y-70825464D01*
X83195160Y-70818493D01*
X83195160Y-70637400D01*
X79151480Y-70637400D01*
X79151480Y-70727541D01*
X79151480Y-70727541D01*
G37*
X79151480Y-70727541D02*
X79151481Y-70817682D01*
X79113380Y-70823936D01*
X79056936Y-70842742D01*
X79011738Y-70878120D01*
X78986790Y-70913861D01*
X78981427Y-70924222D01*
X78976947Y-70934680D01*
X78973257Y-70947089D01*
X78970267Y-70963299D01*
X78967884Y-70985164D01*
X78966015Y-71014533D01*
X78964570Y-71053260D01*
X78963455Y-71103197D01*
X78962578Y-71166194D01*
X78961849Y-71244105D01*
X78961174Y-71338780D01*
X78960522Y-71442228D01*
X78957523Y-71927017D01*
X78896661Y-71959456D01*
X78814334Y-72014217D01*
X78741219Y-72084361D01*
X78680575Y-72165950D01*
X78635663Y-72255042D01*
X78623540Y-72289586D01*
X78605707Y-72358612D01*
X78596401Y-72425243D01*
X78596295Y-72491168D01*
X78606061Y-72558079D01*
X78626371Y-72627665D01*
X78657899Y-72701617D01*
X78701317Y-72781625D01*
X78757297Y-72869378D01*
X78826511Y-72966569D01*
X78909634Y-73074885D01*
X78962170Y-73140615D01*
X79005270Y-73194467D01*
X79044737Y-73244818D01*
X79078502Y-73288944D01*
X79104497Y-73324124D01*
X79120652Y-73347634D01*
X79124304Y-73353975D01*
X79131614Y-73377149D01*
X79139365Y-73414806D01*
X79146492Y-73461165D01*
X79150715Y-73497440D01*
X79156972Y-73550857D01*
X79164764Y-73604068D01*
X79172900Y-73649412D01*
X79177580Y-73670160D01*
X79197612Y-73730862D01*
X79227522Y-73800227D01*
X79263858Y-73871579D01*
X79303174Y-73938240D01*
X79342019Y-73993532D01*
X79349131Y-74002284D01*
X79435203Y-74089735D01*
X79534087Y-74163283D01*
X79643464Y-74222587D01*
X79761015Y-74267305D01*
X79884419Y-74297096D01*
X80011357Y-74311619D01*
X80139509Y-74310533D01*
X80266556Y-74293495D01*
X80390177Y-74260165D01*
X80508054Y-74210201D01*
X80561180Y-74180652D01*
X80614520Y-74148466D01*
X80614577Y-73858513D01*
X80614966Y-73775377D01*
X80616045Y-73700130D01*
X80616824Y-73670160D01*
X80243329Y-73670160D01*
X80238995Y-73732724D01*
X80224367Y-73784789D01*
X80197000Y-73830844D01*
X80154453Y-73875378D01*
X80113574Y-73908624D01*
X80072429Y-73929273D01*
X80019356Y-73940982D01*
X79960873Y-73943337D01*
X79903497Y-73935922D01*
X79866669Y-73924358D01*
X79823257Y-73898455D01*
X79779845Y-73859523D01*
X79742610Y-73813891D01*
X79720381Y-73774448D01*
X79702166Y-73707540D01*
X79702331Y-73638371D01*
X79719943Y-73571001D01*
X79754067Y-73509488D01*
X79790598Y-73469037D01*
X79842773Y-73429907D01*
X79896873Y-73407455D01*
X79959816Y-73399038D01*
X79974440Y-73398806D01*
X80040051Y-73404672D01*
X80095400Y-73424031D01*
X80147406Y-73459527D01*
X80158283Y-73469037D01*
X80199635Y-73512606D01*
X80225905Y-73557431D01*
X80239622Y-73609492D01*
X80243329Y-73670160D01*
X80616824Y-73670160D01*
X80617730Y-73635336D01*
X80619940Y-73583559D01*
X80622592Y-73547362D01*
X80625128Y-73530775D01*
X80649973Y-73476387D01*
X80689342Y-73434839D01*
X80740602Y-73408077D01*
X80801124Y-73398044D01*
X80804630Y-73398017D01*
X80859738Y-73406733D01*
X80908315Y-73430973D01*
X80945487Y-73467872D01*
X80957103Y-73487649D01*
X80972196Y-73514126D01*
X80982775Y-73520791D01*
X80988838Y-73507644D01*
X80990440Y-73481195D01*
X80999431Y-73424715D01*
X81024128Y-73376903D01*
X81061120Y-73339577D01*
X81106996Y-73314553D01*
X81158344Y-73303649D01*
X81211754Y-73308679D01*
X81263813Y-73331462D01*
X81267302Y-73333758D01*
X81311868Y-73375625D01*
X81341523Y-73429556D01*
X81352244Y-73473276D01*
X81358822Y-73522864D01*
X81384574Y-73483148D01*
X81424329Y-73438302D01*
X81472829Y-73409426D01*
X81526286Y-73397146D01*
X81580915Y-73402090D01*
X81632928Y-73424886D01*
X81651824Y-73438866D01*
X81670495Y-73455458D01*
X81685502Y-73472069D01*
X81697246Y-73491050D01*
X81706127Y-73514751D01*
X81712547Y-73545521D01*
X81716907Y-73585711D01*
X81719606Y-73637670D01*
X81721047Y-73703748D01*
X81721630Y-73786295D01*
X81721737Y-73848688D01*
X81721960Y-74149136D01*
X81795620Y-74190696D01*
X81920116Y-74249404D01*
X82051641Y-74289337D01*
X82188900Y-74310253D01*
X82330595Y-74311914D01*
X82410304Y-74304487D01*
X82543936Y-74277815D01*
X82669273Y-74234171D01*
X82784732Y-74174574D01*
X82888733Y-74100045D01*
X82979695Y-74011605D01*
X83056037Y-73910275D01*
X83078216Y-73873360D01*
X83115008Y-73796350D01*
X83146989Y-73706583D01*
X83147865Y-73703277D01*
X82634298Y-73703277D01*
X82627137Y-73749966D01*
X82626228Y-73752975D01*
X82595651Y-73818509D01*
X82551039Y-73871740D01*
X82495448Y-73911353D01*
X82431934Y-73936035D01*
X82363553Y-73944473D01*
X82293362Y-73935352D01*
X82243802Y-73917355D01*
X82190384Y-73881857D01*
X82144966Y-73831763D01*
X82110810Y-73772236D01*
X82091175Y-73708440D01*
X82087720Y-73670160D01*
X82096027Y-73611143D01*
X82118728Y-73550661D01*
X82152495Y-73497188D01*
X82158411Y-73490179D01*
X82211887Y-73443367D01*
X82272902Y-73413107D01*
X82338178Y-73398970D01*
X82404440Y-73400530D01*
X82468413Y-73417359D01*
X82526819Y-73449031D01*
X82576384Y-73495117D01*
X82611041Y-73549221D01*
X82625564Y-73593701D01*
X82633545Y-73648121D01*
X82634298Y-73703277D01*
X83147865Y-73703277D01*
X83172267Y-73611221D01*
X83188952Y-73517424D01*
X83195156Y-73432354D01*
X83195161Y-73430260D01*
X83196690Y-73407437D01*
X83202244Y-73384420D01*
X83213269Y-73358879D01*
X83231211Y-73328484D01*
X83257517Y-73290905D01*
X83293633Y-73243812D01*
X83341007Y-73184875D01*
X83367918Y-73152000D01*
X83462786Y-73033262D01*
X83542563Y-72926022D01*
X83607951Y-72828986D01*
X83659649Y-72740860D01*
X83698358Y-72660351D01*
X83713567Y-72617643D01*
X82454164Y-72617643D01*
X82452292Y-72630552D01*
X82442915Y-72644488D01*
X82434400Y-72650123D01*
X82417807Y-72654189D01*
X82390395Y-72656906D01*
X82349426Y-72658494D01*
X82292159Y-72659172D01*
X82259196Y-72659240D01*
X82087720Y-72659240D01*
X82087720Y-72567800D01*
X82088503Y-72527638D01*
X82090598Y-72496631D01*
X82093630Y-72479261D01*
X82095340Y-72477087D01*
X82107000Y-72480397D01*
X82134694Y-72489141D01*
X82175195Y-72502273D01*
X82225279Y-72518750D01*
X82275680Y-72535507D01*
X82342765Y-72558412D01*
X82392253Y-72576839D01*
X82426047Y-72592027D01*
X82446050Y-72605215D01*
X82454164Y-72617643D01*
X83713567Y-72617643D01*
X83724777Y-72586167D01*
X83739607Y-72517015D01*
X83742811Y-72469996D01*
X81904840Y-72469996D01*
X81904840Y-72598552D01*
X81871820Y-72584218D01*
X81851458Y-72574951D01*
X81816784Y-72558719D01*
X81771777Y-72537404D01*
X81720419Y-72512886D01*
X81688940Y-72497772D01*
X81539080Y-72425661D01*
X81539080Y-72268130D01*
X81539478Y-72205146D01*
X81540797Y-72160184D01*
X81543223Y-72130962D01*
X81546945Y-72115196D01*
X81551993Y-72110600D01*
X81571820Y-72116570D01*
X81604867Y-72133283D01*
X81648367Y-72158944D01*
X81699549Y-72191757D01*
X81755644Y-72229928D01*
X81813884Y-72271659D01*
X81871499Y-72315156D01*
X81890619Y-72330160D01*
X81896930Y-72340382D01*
X81901196Y-72361180D01*
X81903709Y-72395429D01*
X81904762Y-72446007D01*
X81904840Y-72469996D01*
X83742811Y-72469996D01*
X83743624Y-72458079D01*
X83737694Y-72389964D01*
X83721854Y-72314755D01*
X83698344Y-72241647D01*
X83681208Y-72202040D01*
X83647378Y-72146864D01*
X83600133Y-72088876D01*
X83561303Y-72050027D01*
X81356200Y-72050027D01*
X81356200Y-72364840D01*
X81313020Y-72357100D01*
X81283146Y-72353612D01*
X81240427Y-72350941D01*
X81192335Y-72349499D01*
X81173320Y-72349360D01*
X81125170Y-72350195D01*
X81079412Y-72352426D01*
X81043518Y-72355637D01*
X81033620Y-72357100D01*
X80990440Y-72364840D01*
X80990440Y-72270620D01*
X80796906Y-72270620D01*
X80796412Y-72430640D01*
X80621646Y-72514434D01*
X80566741Y-72540577D01*
X80518101Y-72563392D01*
X80478691Y-72581516D01*
X80451477Y-72593587D01*
X80439424Y-72598240D01*
X80439260Y-72598254D01*
X80436369Y-72588747D01*
X80434344Y-72566712D01*
X80248760Y-72566712D01*
X80248760Y-72659240D01*
X80077285Y-72659240D01*
X80011503Y-72658909D01*
X79963293Y-72657772D01*
X79929916Y-72655608D01*
X79908630Y-72652197D01*
X79896697Y-72647319D01*
X79893565Y-72644487D01*
X79886339Y-72623412D01*
X79887889Y-72609044D01*
X79894304Y-72599881D01*
X79909412Y-72589931D01*
X79935689Y-72578139D01*
X79975610Y-72563446D01*
X80031653Y-72544797D01*
X80058908Y-72536066D01*
X80114067Y-72518486D01*
X80162890Y-72502844D01*
X80201897Y-72490262D01*
X80227609Y-72481860D01*
X80236060Y-72478983D01*
X80242371Y-72481823D01*
X80246338Y-72497804D01*
X80248334Y-72529492D01*
X80248760Y-72566712D01*
X80434344Y-72566712D01*
X80433982Y-72562775D01*
X80432330Y-72524189D01*
X80431647Y-72476842D01*
X80431640Y-72471717D01*
X80431640Y-72345155D01*
X80500220Y-72290447D01*
X80538781Y-72260395D01*
X80577992Y-72230987D01*
X80610304Y-72207867D01*
X80614520Y-72205000D01*
X80641058Y-72188403D01*
X80675223Y-72168710D01*
X80712150Y-72148510D01*
X80746972Y-72130391D01*
X80774823Y-72116940D01*
X80790839Y-72110745D01*
X80792031Y-72110600D01*
X80793828Y-72120188D01*
X80795306Y-72146668D01*
X80796361Y-72186612D01*
X80796888Y-72236594D01*
X80796906Y-72270620D01*
X80990440Y-72270620D01*
X80990440Y-72206921D01*
X80990654Y-72146456D01*
X80991515Y-72103248D01*
X80993352Y-72074238D01*
X80996494Y-72056364D01*
X81001271Y-72046567D01*
X81008013Y-72041787D01*
X81008220Y-72041701D01*
X81026117Y-72038631D01*
X81059582Y-72036427D01*
X81103882Y-72035082D01*
X81154286Y-72034586D01*
X81206060Y-72034933D01*
X81254471Y-72036116D01*
X81294787Y-72038126D01*
X81322275Y-72040956D01*
X81328260Y-72042213D01*
X81356200Y-72050027D01*
X83561303Y-72050027D01*
X83544680Y-72033396D01*
X83486224Y-71985743D01*
X83441661Y-71957302D01*
X83378282Y-71922640D01*
X83378104Y-71455280D01*
X83377789Y-71323060D01*
X83376953Y-71210298D01*
X83375599Y-71117148D01*
X83373732Y-71043764D01*
X83371926Y-71003160D01*
X82822349Y-71003160D01*
X82815883Y-71117460D01*
X82804890Y-71228909D01*
X82785375Y-71334662D01*
X82758267Y-71432456D01*
X82724492Y-71520031D01*
X82684977Y-71595125D01*
X82640649Y-71655477D01*
X82592437Y-71698825D01*
X82572611Y-71710722D01*
X82512485Y-71730927D01*
X82441726Y-71735783D01*
X82363003Y-71725304D01*
X82306160Y-71709383D01*
X82230000Y-71678129D01*
X82142556Y-71632308D01*
X82045423Y-71573069D01*
X81940196Y-71501562D01*
X81828471Y-71418937D01*
X81711843Y-71326345D01*
X81591907Y-71224935D01*
X81470258Y-71115856D01*
X81427320Y-71075844D01*
X81351120Y-71004122D01*
X82086735Y-71003641D01*
X82822349Y-71003160D01*
X80983823Y-71003160D01*
X80959192Y-71029938D01*
X80924368Y-71065273D01*
X80876370Y-71110356D01*
X80818199Y-71162639D01*
X80752857Y-71219573D01*
X80683347Y-71278611D01*
X80612670Y-71337204D01*
X80543829Y-71392802D01*
X80479826Y-71442859D01*
X80423662Y-71484825D01*
X80421480Y-71486401D01*
X80299625Y-71569701D01*
X80188502Y-71636045D01*
X80087796Y-71685528D01*
X79997194Y-71718250D01*
X79916380Y-71734308D01*
X79845039Y-71733799D01*
X79782858Y-71716821D01*
X79745971Y-71696146D01*
X79693011Y-71647832D01*
X79645637Y-71581689D01*
X79604573Y-71499619D01*
X79570542Y-71403524D01*
X79544269Y-71295304D01*
X79526477Y-71176861D01*
X79520261Y-71103131D01*
X79514171Y-71003160D01*
X80983823Y-71003160D01*
X82822349Y-71003160D01*
X83371926Y-71003160D01*
X83371354Y-70990301D01*
X83368469Y-70956914D01*
X83366700Y-70947280D01*
X83346090Y-70904193D01*
X83312243Y-70865692D01*
X83271051Y-70837283D01*
X83236422Y-70825464D01*
X83195160Y-70818493D01*
X83195160Y-70637400D01*
X79151480Y-70637400D01*
X79151480Y-70727541D01*
G36*
X81120645Y-73410645D02*
X81107558Y-73420979D01*
X81081880Y-73445102D01*
X81081880Y-74262713D01*
X81113140Y-74289016D01*
X81148165Y-74310339D01*
X81182739Y-74312589D01*
X81215098Y-74300083D01*
X81227423Y-74292672D01*
X81237550Y-74283824D01*
X81245678Y-74271623D01*
X81252004Y-74254155D01*
X81256727Y-74229503D01*
X81260043Y-74195751D01*
X81262150Y-74150985D01*
X81263247Y-74093288D01*
X81263531Y-74020746D01*
X81263199Y-73931442D01*
X81262576Y-73840138D01*
X81259680Y-73452161D01*
X81232018Y-73424508D01*
X81196717Y-73401653D01*
X81157943Y-73396985D01*
X81120645Y-73410645D01*
X81120645Y-73410645D01*
G37*
X81120645Y-73410645D02*
X81107558Y-73420979D01*
X81081880Y-73445102D01*
X81081880Y-74262713D01*
X81113140Y-74289016D01*
X81148165Y-74310339D01*
X81182739Y-74312589D01*
X81215098Y-74300083D01*
X81227423Y-74292672D01*
X81237550Y-74283824D01*
X81245678Y-74271623D01*
X81252004Y-74254155D01*
X81256727Y-74229503D01*
X81260043Y-74195751D01*
X81262150Y-74150985D01*
X81263247Y-74093288D01*
X81263531Y-74020746D01*
X81263199Y-73931442D01*
X81262576Y-73840138D01*
X81259680Y-73452161D01*
X81232018Y-73424508D01*
X81196717Y-73401653D01*
X81157943Y-73396985D01*
X81120645Y-73410645D01*
G36*
X81496123Y-73499408D02*
X81466974Y-73519803D01*
X81458618Y-73531471D01*
X81455007Y-73548932D01*
X81452093Y-73586197D01*
X81449896Y-73642761D01*
X81448430Y-73718121D01*
X81447714Y-73811771D01*
X81447640Y-73858233D01*
X81447640Y-74164483D01*
X81477339Y-74194181D01*
X81511096Y-74218025D01*
X81546603Y-74222089D01*
X81579520Y-74210829D01*
X81593465Y-74202835D01*
X81604594Y-74193014D01*
X81613226Y-74179145D01*
X81619676Y-74159004D01*
X81624265Y-74130370D01*
X81627308Y-74091021D01*
X81629124Y-74038735D01*
X81630030Y-73971289D01*
X81630343Y-73886462D01*
X81630371Y-73855075D01*
X81630258Y-73762785D01*
X81629572Y-73688656D01*
X81627946Y-73630529D01*
X81625013Y-73586248D01*
X81620407Y-73553653D01*
X81613761Y-73530587D01*
X81604709Y-73514892D01*
X81592885Y-73504409D01*
X81577921Y-73496981D01*
X81569002Y-73493687D01*
X81532818Y-73489783D01*
X81496123Y-73499408D01*
X81496123Y-73499408D01*
G37*
X81496123Y-73499408D02*
X81466974Y-73519803D01*
X81458618Y-73531471D01*
X81455007Y-73548932D01*
X81452093Y-73586197D01*
X81449896Y-73642761D01*
X81448430Y-73718121D01*
X81447714Y-73811771D01*
X81447640Y-73858233D01*
X81447640Y-74164483D01*
X81477339Y-74194181D01*
X81511096Y-74218025D01*
X81546603Y-74222089D01*
X81579520Y-74210829D01*
X81593465Y-74202835D01*
X81604594Y-74193014D01*
X81613226Y-74179145D01*
X81619676Y-74159004D01*
X81624265Y-74130370D01*
X81627308Y-74091021D01*
X81629124Y-74038735D01*
X81630030Y-73971289D01*
X81630343Y-73886462D01*
X81630371Y-73855075D01*
X81630258Y-73762785D01*
X81629572Y-73688656D01*
X81627946Y-73630529D01*
X81625013Y-73586248D01*
X81620407Y-73553653D01*
X81613761Y-73530587D01*
X81604709Y-73514892D01*
X81592885Y-73504409D01*
X81577921Y-73496981D01*
X81569002Y-73493687D01*
X81532818Y-73489783D01*
X81496123Y-73499408D01*
G36*
X80752855Y-73504691D02*
X80737687Y-73516959D01*
X80711040Y-73543590D01*
X80707852Y-73830395D01*
X80707028Y-73925012D01*
X80707059Y-74001456D01*
X80708221Y-74061867D01*
X80710791Y-74108383D01*
X80715045Y-74143142D01*
X80721259Y-74168285D01*
X80729708Y-74185950D01*
X80740668Y-74198276D01*
X80754416Y-74207402D01*
X80756646Y-74208580D01*
X80793443Y-74222043D01*
X80824752Y-74218653D01*
X80857486Y-74197656D01*
X80857581Y-74197576D01*
X80888840Y-74171273D01*
X80888840Y-73536542D01*
X80864244Y-73513435D01*
X80829577Y-73493537D01*
X80790364Y-73490680D01*
X80752855Y-73504691D01*
X80752855Y-73504691D01*
G37*
X80752855Y-73504691D02*
X80737687Y-73516959D01*
X80711040Y-73543590D01*
X80707852Y-73830395D01*
X80707028Y-73925012D01*
X80707059Y-74001456D01*
X80708221Y-74061867D01*
X80710791Y-74108383D01*
X80715045Y-74143142D01*
X80721259Y-74168285D01*
X80729708Y-74185950D01*
X80740668Y-74198276D01*
X80754416Y-74207402D01*
X80756646Y-74208580D01*
X80793443Y-74222043D01*
X80824752Y-74218653D01*
X80857486Y-74197656D01*
X80857581Y-74197576D01*
X80888840Y-74171273D01*
X80888840Y-73536542D01*
X80864244Y-73513435D01*
X80829577Y-73493537D01*
X80790364Y-73490680D01*
X80752855Y-73504691D01*
G36*
X81075109Y-69164038D02*
X80946303Y-69164304D01*
X80820605Y-69164744D01*
X80699819Y-69165357D01*
X80585746Y-69166143D01*
X80480188Y-69167101D01*
X80384947Y-69168229D01*
X80301826Y-69169529D01*
X80232627Y-69170998D01*
X80179152Y-69172636D01*
X80143203Y-69174443D01*
X80131920Y-69175462D01*
X79983470Y-69203647D01*
X79842169Y-69250647D01*
X79709201Y-69315874D01*
X79585748Y-69398742D01*
X79472992Y-69498665D01*
X79465620Y-69506190D01*
X79370546Y-69614483D01*
X79293851Y-69725468D01*
X79234619Y-69841473D01*
X79191930Y-69964830D01*
X79164867Y-70097867D01*
X79152511Y-70242914D01*
X79151480Y-70303242D01*
X79151480Y-70454520D01*
X83195160Y-70454520D01*
X83195160Y-70352519D01*
X83188507Y-70196013D01*
X83168002Y-70052737D01*
X83132831Y-69920336D01*
X83082178Y-69796451D01*
X83015226Y-69678726D01*
X82931160Y-69564803D01*
X82916468Y-69547242D01*
X82828096Y-69457531D01*
X82724168Y-69376506D01*
X82608272Y-69306056D01*
X82484001Y-69248065D01*
X82354945Y-69204422D01*
X82224695Y-69177011D01*
X82207290Y-69174667D01*
X82181746Y-69172791D01*
X82137684Y-69171098D01*
X82076908Y-69169586D01*
X82001219Y-69168256D01*
X81912420Y-69167105D01*
X81812312Y-69166134D01*
X81702698Y-69165342D01*
X81585380Y-69164728D01*
X81462159Y-69164291D01*
X81334840Y-69164031D01*
X81205222Y-69163947D01*
X81075109Y-69164038D01*
X81075109Y-69164038D01*
G37*
X81075109Y-69164038D02*
X80946303Y-69164304D01*
X80820605Y-69164744D01*
X80699819Y-69165357D01*
X80585746Y-69166143D01*
X80480188Y-69167101D01*
X80384947Y-69168229D01*
X80301826Y-69169529D01*
X80232627Y-69170998D01*
X80179152Y-69172636D01*
X80143203Y-69174443D01*
X80131920Y-69175462D01*
X79983470Y-69203647D01*
X79842169Y-69250647D01*
X79709201Y-69315874D01*
X79585748Y-69398742D01*
X79472992Y-69498665D01*
X79465620Y-69506190D01*
X79370546Y-69614483D01*
X79293851Y-69725468D01*
X79234619Y-69841473D01*
X79191930Y-69964830D01*
X79164867Y-70097867D01*
X79152511Y-70242914D01*
X79151480Y-70303242D01*
X79151480Y-70454520D01*
X83195160Y-70454520D01*
X83195160Y-70352519D01*
X83188507Y-70196013D01*
X83168002Y-70052737D01*
X83132831Y-69920336D01*
X83082178Y-69796451D01*
X83015226Y-69678726D01*
X82931160Y-69564803D01*
X82916468Y-69547242D01*
X82828096Y-69457531D01*
X82724168Y-69376506D01*
X82608272Y-69306056D01*
X82484001Y-69248065D01*
X82354945Y-69204422D01*
X82224695Y-69177011D01*
X82207290Y-69174667D01*
X82181746Y-69172791D01*
X82137684Y-69171098D01*
X82076908Y-69169586D01*
X82001219Y-69168256D01*
X81912420Y-69167105D01*
X81812312Y-69166134D01*
X81702698Y-69165342D01*
X81585380Y-69164728D01*
X81462159Y-69164291D01*
X81334840Y-69164031D01*
X81205222Y-69163947D01*
X81075109Y-69164038D01*
D10*
X94980000Y-56626000D02*
X94980000Y-54626000D01*
X95554800Y-54203600D02*
G75*
G03X95554800Y-54203600I-228600J0D01*
G01*
X92980000Y-56626000D02*
X94980000Y-56626000D01*
X92980000Y-54626000D02*
X92980000Y-56626000D01*
X94980000Y-54626000D02*
X92980000Y-54626000D01*
D13*
X81141200Y-63238000D02*
X81141200Y-62238000D01*
X82841200Y-62238000D02*
X82841200Y-63238000D01*
D11*
X83170781Y-54851395D02*
X83980305Y-54851395D01*
X84075543Y-54899014D01*
X84123162Y-54946633D01*
X84170781Y-55041871D01*
X84170781Y-55232348D01*
X84123162Y-55327586D01*
X84075543Y-55375205D01*
X83980305Y-55422824D01*
X83170781Y-55422824D01*
X83266019Y-55851395D02*
X83218400Y-55899014D01*
X83170781Y-55994252D01*
X83170781Y-56232348D01*
X83218400Y-56327586D01*
X83266019Y-56375205D01*
X83361257Y-56422824D01*
X83456495Y-56422824D01*
X83599352Y-56375205D01*
X84170781Y-55803776D01*
X84170781Y-56422824D01*
X96000866Y-62987181D02*
X96477057Y-62987181D01*
X96477057Y-61987181D01*
X95715152Y-62082419D02*
X95667533Y-62034800D01*
X95572295Y-61987181D01*
X95334199Y-61987181D01*
X95238961Y-62034800D01*
X95191342Y-62082419D01*
X95143723Y-62177657D01*
X95143723Y-62272895D01*
X95191342Y-62415752D01*
X95762771Y-62987181D01*
X95143723Y-62987181D01*
X84405743Y-65746334D02*
X84453362Y-65698715D01*
X84500981Y-65555858D01*
X84500981Y-65460620D01*
X84453362Y-65317762D01*
X84358124Y-65222524D01*
X84262886Y-65174905D01*
X84072410Y-65127286D01*
X83929552Y-65127286D01*
X83739076Y-65174905D01*
X83643838Y-65222524D01*
X83548600Y-65317762D01*
X83500981Y-65460620D01*
X83500981Y-65555858D01*
X83548600Y-65698715D01*
X83596219Y-65746334D01*
X83834314Y-66603477D02*
X84500981Y-66603477D01*
X83453362Y-66365381D02*
X84167648Y-66127286D01*
X84167648Y-66746334D01*
X87669666Y-57888143D02*
X87717285Y-57935762D01*
X87860142Y-57983381D01*
X87955380Y-57983381D01*
X88098238Y-57935762D01*
X88193476Y-57840524D01*
X88241095Y-57745286D01*
X88288714Y-57554810D01*
X88288714Y-57411952D01*
X88241095Y-57221476D01*
X88193476Y-57126238D01*
X88098238Y-57031000D01*
X87955380Y-56983381D01*
X87860142Y-56983381D01*
X87717285Y-57031000D01*
X87669666Y-57078619D01*
X86764904Y-56983381D02*
X87241095Y-56983381D01*
X87288714Y-57459571D01*
X87241095Y-57411952D01*
X87145857Y-57364333D01*
X86907761Y-57364333D01*
X86812523Y-57411952D01*
X86764904Y-57459571D01*
X86717285Y-57554810D01*
X86717285Y-57792905D01*
X86764904Y-57888143D01*
X86812523Y-57935762D01*
X86907761Y-57983381D01*
X87145857Y-57983381D01*
X87241095Y-57935762D01*
X87288714Y-57888143D01*
X87479143Y-47356734D02*
X87526762Y-47309115D01*
X87574381Y-47166258D01*
X87574381Y-47071020D01*
X87526762Y-46928162D01*
X87431524Y-46832924D01*
X87336286Y-46785305D01*
X87145810Y-46737686D01*
X87002952Y-46737686D01*
X86812476Y-46785305D01*
X86717238Y-46832924D01*
X86622000Y-46928162D01*
X86574381Y-47071020D01*
X86574381Y-47166258D01*
X86622000Y-47309115D01*
X86669619Y-47356734D01*
X86574381Y-48213877D02*
X86574381Y-48023400D01*
X86622000Y-47928162D01*
X86669619Y-47880543D01*
X86812476Y-47785305D01*
X87002952Y-47737686D01*
X87383905Y-47737686D01*
X87479143Y-47785305D01*
X87526762Y-47832924D01*
X87574381Y-47928162D01*
X87574381Y-48118639D01*
X87526762Y-48213877D01*
X87479143Y-48261496D01*
X87383905Y-48309115D01*
X87145810Y-48309115D01*
X87050571Y-48261496D01*
X87002952Y-48213877D01*
X86955333Y-48118639D01*
X86955333Y-47928162D01*
X87002952Y-47832924D01*
X87050571Y-47785305D01*
X87145810Y-47737686D01*
X89841343Y-47388543D02*
X89888962Y-47340924D01*
X89936581Y-47198067D01*
X89936581Y-47102829D01*
X89888962Y-46959971D01*
X89793724Y-46864733D01*
X89698486Y-46817114D01*
X89508010Y-46769495D01*
X89365152Y-46769495D01*
X89174676Y-46817114D01*
X89079438Y-46864733D01*
X88984200Y-46959971D01*
X88936581Y-47102829D01*
X88936581Y-47198067D01*
X88984200Y-47340924D01*
X89031819Y-47388543D01*
X89936581Y-48340924D02*
X89936581Y-47769495D01*
X89936581Y-48055209D02*
X88936581Y-48055209D01*
X89079438Y-47959971D01*
X89174676Y-47864733D01*
X89222295Y-47769495D01*
X88936581Y-48959971D02*
X88936581Y-49055210D01*
X88984200Y-49150448D01*
X89031819Y-49198067D01*
X89127057Y-49245686D01*
X89317533Y-49293305D01*
X89555629Y-49293305D01*
X89746105Y-49245686D01*
X89841343Y-49198067D01*
X89888962Y-49150448D01*
X89936581Y-49055210D01*
X89936581Y-48959971D01*
X89888962Y-48864733D01*
X89841343Y-48817114D01*
X89746105Y-48769495D01*
X89555629Y-48721876D01*
X89317533Y-48721876D01*
X89127057Y-48769495D01*
X89031819Y-48817114D01*
X88984200Y-48864733D01*
X88936581Y-48959971D01*
X83948543Y-47363143D02*
X83996162Y-47315524D01*
X84043781Y-47172667D01*
X84043781Y-47077429D01*
X83996162Y-46934571D01*
X83900924Y-46839333D01*
X83805686Y-46791714D01*
X83615210Y-46744095D01*
X83472352Y-46744095D01*
X83281876Y-46791714D01*
X83186638Y-46839333D01*
X83091400Y-46934571D01*
X83043781Y-47077429D01*
X83043781Y-47172667D01*
X83091400Y-47315524D01*
X83139019Y-47363143D01*
X84043781Y-48315524D02*
X84043781Y-47744095D01*
X84043781Y-48029809D02*
X83043781Y-48029809D01*
X83186638Y-47934571D01*
X83281876Y-47839333D01*
X83329495Y-47744095D01*
X84043781Y-49267905D02*
X84043781Y-48696476D01*
X84043781Y-48982190D02*
X83043781Y-48982190D01*
X83186638Y-48886952D01*
X83281876Y-48791714D01*
X83329495Y-48696476D01*
X98528143Y-56354743D02*
X98575762Y-56307124D01*
X98623381Y-56164267D01*
X98623381Y-56069029D01*
X98575762Y-55926171D01*
X98480524Y-55830933D01*
X98385286Y-55783314D01*
X98194810Y-55735695D01*
X98051952Y-55735695D01*
X97861476Y-55783314D01*
X97766238Y-55830933D01*
X97671000Y-55926171D01*
X97623381Y-56069029D01*
X97623381Y-56164267D01*
X97671000Y-56307124D01*
X97718619Y-56354743D01*
X97718619Y-56735695D02*
X97671000Y-56783314D01*
X97623381Y-56878552D01*
X97623381Y-57116648D01*
X97671000Y-57211886D01*
X97718619Y-57259505D01*
X97813857Y-57307124D01*
X97909095Y-57307124D01*
X98051952Y-57259505D01*
X98623381Y-56688076D01*
X98623381Y-57307124D01*
X98623381Y-58259505D02*
X98623381Y-57688076D01*
X98623381Y-57973790D02*
X97623381Y-57973790D01*
X97766238Y-57878552D01*
X97861476Y-57783314D01*
X97909095Y-57688076D01*
X94800657Y-51106343D02*
X94848276Y-51153962D01*
X94991133Y-51201581D01*
X95086371Y-51201581D01*
X95229229Y-51153962D01*
X95324467Y-51058724D01*
X95372086Y-50963486D01*
X95419705Y-50773010D01*
X95419705Y-50630152D01*
X95372086Y-50439676D01*
X95324467Y-50344438D01*
X95229229Y-50249200D01*
X95086371Y-50201581D01*
X94991133Y-50201581D01*
X94848276Y-50249200D01*
X94800657Y-50296819D01*
X94419705Y-50296819D02*
X94372086Y-50249200D01*
X94276848Y-50201581D01*
X94038752Y-50201581D01*
X93943514Y-50249200D01*
X93895895Y-50296819D01*
X93848276Y-50392057D01*
X93848276Y-50487295D01*
X93895895Y-50630152D01*
X94467324Y-51201581D01*
X93848276Y-51201581D01*
X93467324Y-50296819D02*
X93419705Y-50249200D01*
X93324467Y-50201581D01*
X93086371Y-50201581D01*
X92991133Y-50249200D01*
X92943514Y-50296819D01*
X92895895Y-50392057D01*
X92895895Y-50487295D01*
X92943514Y-50630152D01*
X93514943Y-51201581D01*
X92895895Y-51201581D01*
X97556581Y-60171105D02*
X96556581Y-60171105D01*
X96556581Y-60409200D01*
X96604200Y-60552058D01*
X96699438Y-60647296D01*
X96794676Y-60694915D01*
X96985152Y-60742534D01*
X97128010Y-60742534D01*
X97318486Y-60694915D01*
X97413724Y-60647296D01*
X97508962Y-60552058D01*
X97556581Y-60409200D01*
X97556581Y-60171105D01*
X96889914Y-61599677D02*
X97556581Y-61599677D01*
X96508962Y-61361581D02*
X97223248Y-61123486D01*
X97223248Y-61742534D01*
X101974381Y-60954095D02*
X100974381Y-60954095D01*
X101974381Y-61525524D02*
X101402952Y-61096952D01*
X100974381Y-61525524D02*
X101545810Y-60954095D01*
X101687927Y-67277645D02*
X101687927Y-67753836D01*
X101973641Y-67182407D02*
X100973641Y-67515740D01*
X101973641Y-67849074D01*
X85663066Y-50007781D02*
X86139257Y-50007781D01*
X86139257Y-49007781D01*
X84805923Y-50007781D02*
X85377352Y-50007781D01*
X85091638Y-50007781D02*
X85091638Y-49007781D01*
X85186876Y-49150638D01*
X85282114Y-49245876D01*
X85377352Y-49293495D01*
X90158866Y-52014381D02*
X90635057Y-52014381D01*
X90635057Y-51014381D01*
X89920771Y-51014381D02*
X89301723Y-51014381D01*
X89635057Y-51395333D01*
X89492199Y-51395333D01*
X89396961Y-51442952D01*
X89349342Y-51490571D01*
X89301723Y-51585810D01*
X89301723Y-51823905D01*
X89349342Y-51919143D01*
X89396961Y-51966762D01*
X89492199Y-52014381D01*
X89777914Y-52014381D01*
X89873152Y-51966762D01*
X89920771Y-51919143D01*
X82534381Y-77239905D02*
X81534381Y-77239905D01*
X81534381Y-77620858D01*
X81582000Y-77716096D01*
X81629619Y-77763715D01*
X81724857Y-77811334D01*
X81867714Y-77811334D01*
X81962952Y-77763715D01*
X82010571Y-77716096D01*
X82058190Y-77620858D01*
X82058190Y-77239905D01*
X81534381Y-78144667D02*
X81534381Y-78811334D01*
X82534381Y-78382762D01*
X88487238Y-41060619D02*
X88582476Y-41013000D01*
X88677714Y-40917762D01*
X88820571Y-40774905D01*
X88915810Y-40727286D01*
X89011048Y-40727286D01*
X88963429Y-40965381D02*
X89058667Y-40917762D01*
X89153905Y-40822524D01*
X89201524Y-40632048D01*
X89201524Y-40298714D01*
X89153905Y-40108238D01*
X89058667Y-40013000D01*
X88963429Y-39965381D01*
X88772952Y-39965381D01*
X88677714Y-40013000D01*
X88582476Y-40108238D01*
X88534857Y-40298714D01*
X88534857Y-40632048D01*
X88582476Y-40822524D01*
X88677714Y-40917762D01*
X88772952Y-40965381D01*
X88963429Y-40965381D01*
X87582476Y-40965381D02*
X88153905Y-40965381D01*
X87868191Y-40965381D02*
X87868191Y-39965381D01*
X87963429Y-40108238D01*
X88058667Y-40203476D01*
X88153905Y-40251095D01*
X84423238Y-41060619D02*
X84518476Y-41013000D01*
X84613714Y-40917762D01*
X84756571Y-40774905D01*
X84851810Y-40727286D01*
X84947048Y-40727286D01*
X84899429Y-40965381D02*
X84994667Y-40917762D01*
X85089905Y-40822524D01*
X85137524Y-40632048D01*
X85137524Y-40298714D01*
X85089905Y-40108238D01*
X84994667Y-40013000D01*
X84899429Y-39965381D01*
X84708952Y-39965381D01*
X84613714Y-40013000D01*
X84518476Y-40108238D01*
X84470857Y-40298714D01*
X84470857Y-40632048D01*
X84518476Y-40822524D01*
X84613714Y-40917762D01*
X84708952Y-40965381D01*
X84899429Y-40965381D01*
X84089905Y-40060619D02*
X84042286Y-40013000D01*
X83947048Y-39965381D01*
X83708952Y-39965381D01*
X83613714Y-40013000D01*
X83566095Y-40060619D01*
X83518476Y-40155857D01*
X83518476Y-40251095D01*
X83566095Y-40393952D01*
X84137524Y-40965381D01*
X83518476Y-40965381D01*
X101136438Y-70804019D02*
X101231676Y-70756400D01*
X101326914Y-70661162D01*
X101469771Y-70518305D01*
X101565010Y-70470686D01*
X101660248Y-70470686D01*
X101612629Y-70708781D02*
X101707867Y-70661162D01*
X101803105Y-70565924D01*
X101850724Y-70375448D01*
X101850724Y-70042114D01*
X101803105Y-69851638D01*
X101707867Y-69756400D01*
X101612629Y-69708781D01*
X101422152Y-69708781D01*
X101326914Y-69756400D01*
X101231676Y-69851638D01*
X101184057Y-70042114D01*
X101184057Y-70375448D01*
X101231676Y-70565924D01*
X101326914Y-70661162D01*
X101422152Y-70708781D01*
X101612629Y-70708781D01*
X100850724Y-69708781D02*
X100231676Y-69708781D01*
X100565010Y-70089733D01*
X100422152Y-70089733D01*
X100326914Y-70137352D01*
X100279295Y-70184971D01*
X100231676Y-70280210D01*
X100231676Y-70518305D01*
X100279295Y-70613543D01*
X100326914Y-70661162D01*
X100422152Y-70708781D01*
X100707867Y-70708781D01*
X100803105Y-70661162D01*
X100850724Y-70613543D01*
X80359238Y-41060619D02*
X80454476Y-41013000D01*
X80549714Y-40917762D01*
X80692571Y-40774905D01*
X80787810Y-40727286D01*
X80883048Y-40727286D01*
X80835429Y-40965381D02*
X80930667Y-40917762D01*
X81025905Y-40822524D01*
X81073524Y-40632048D01*
X81073524Y-40298714D01*
X81025905Y-40108238D01*
X80930667Y-40013000D01*
X80835429Y-39965381D01*
X80644952Y-39965381D01*
X80549714Y-40013000D01*
X80454476Y-40108238D01*
X80406857Y-40298714D01*
X80406857Y-40632048D01*
X80454476Y-40822524D01*
X80549714Y-40917762D01*
X80644952Y-40965381D01*
X80835429Y-40965381D01*
X79549714Y-40298714D02*
X79549714Y-40965381D01*
X79787810Y-39917762D02*
X80025905Y-40632048D01*
X79406857Y-40632048D01*
X88158581Y-62638634D02*
X87682390Y-62305300D01*
X88158581Y-62067205D02*
X87158581Y-62067205D01*
X87158581Y-62448158D01*
X87206200Y-62543396D01*
X87253819Y-62591015D01*
X87349057Y-62638634D01*
X87491914Y-62638634D01*
X87587152Y-62591015D01*
X87634771Y-62543396D01*
X87682390Y-62448158D01*
X87682390Y-62067205D01*
X87491914Y-63495777D02*
X88158581Y-63495777D01*
X87110962Y-63257681D02*
X87825248Y-63019586D01*
X87825248Y-63638634D01*
X80449681Y-65835234D02*
X79973490Y-65501900D01*
X80449681Y-65263805D02*
X79449681Y-65263805D01*
X79449681Y-65644758D01*
X79497300Y-65739996D01*
X79544919Y-65787615D01*
X79640157Y-65835234D01*
X79783014Y-65835234D01*
X79878252Y-65787615D01*
X79925871Y-65739996D01*
X79973490Y-65644758D01*
X79973490Y-65263805D01*
X79449681Y-66739996D02*
X79449681Y-66263805D01*
X79925871Y-66216186D01*
X79878252Y-66263805D01*
X79830633Y-66359043D01*
X79830633Y-66597139D01*
X79878252Y-66692377D01*
X79925871Y-66739996D01*
X80021110Y-66787615D01*
X80259205Y-66787615D01*
X80354443Y-66739996D01*
X80402062Y-66692377D01*
X80449681Y-66597139D01*
X80449681Y-66359043D01*
X80402062Y-66263805D01*
X80354443Y-66216186D01*
X91892381Y-41902143D02*
X91416190Y-41568809D01*
X91892381Y-41330714D02*
X90892381Y-41330714D01*
X90892381Y-41711667D01*
X90940000Y-41806905D01*
X90987619Y-41854524D01*
X91082857Y-41902143D01*
X91225714Y-41902143D01*
X91320952Y-41854524D01*
X91368571Y-41806905D01*
X91416190Y-41711667D01*
X91416190Y-41330714D01*
X91892381Y-42854524D02*
X91892381Y-42283095D01*
X91892381Y-42568809D02*
X90892381Y-42568809D01*
X91035238Y-42473571D01*
X91130476Y-42378333D01*
X91178095Y-42283095D01*
X91225714Y-43711667D02*
X91892381Y-43711667D01*
X90844762Y-43473571D02*
X91559048Y-43235476D01*
X91559048Y-43854524D01*
X94178381Y-41902143D02*
X93702190Y-41568809D01*
X94178381Y-41330714D02*
X93178381Y-41330714D01*
X93178381Y-41711667D01*
X93226000Y-41806905D01*
X93273619Y-41854524D01*
X93368857Y-41902143D01*
X93511714Y-41902143D01*
X93606952Y-41854524D01*
X93654571Y-41806905D01*
X93702190Y-41711667D01*
X93702190Y-41330714D01*
X94178381Y-42854524D02*
X94178381Y-42283095D01*
X94178381Y-42568809D02*
X93178381Y-42568809D01*
X93321238Y-42473571D01*
X93416476Y-42378333D01*
X93464095Y-42283095D01*
X93178381Y-43759286D02*
X93178381Y-43283095D01*
X93654571Y-43235476D01*
X93606952Y-43283095D01*
X93559333Y-43378333D01*
X93559333Y-43616429D01*
X93606952Y-43711667D01*
X93654571Y-43759286D01*
X93749810Y-43806905D01*
X93987905Y-43806905D01*
X94083143Y-43759286D01*
X94130762Y-43711667D01*
X94178381Y-43616429D01*
X94178381Y-43378333D01*
X94130762Y-43283095D01*
X94083143Y-43235476D01*
X96464381Y-41902143D02*
X95988190Y-41568809D01*
X96464381Y-41330714D02*
X95464381Y-41330714D01*
X95464381Y-41711667D01*
X95512000Y-41806905D01*
X95559619Y-41854524D01*
X95654857Y-41902143D01*
X95797714Y-41902143D01*
X95892952Y-41854524D01*
X95940571Y-41806905D01*
X95988190Y-41711667D01*
X95988190Y-41330714D01*
X96464381Y-42854524D02*
X96464381Y-42283095D01*
X96464381Y-42568809D02*
X95464381Y-42568809D01*
X95607238Y-42473571D01*
X95702476Y-42378333D01*
X95750095Y-42283095D01*
X95464381Y-43711667D02*
X95464381Y-43521190D01*
X95512000Y-43425952D01*
X95559619Y-43378333D01*
X95702476Y-43283095D01*
X95892952Y-43235476D01*
X96273905Y-43235476D01*
X96369143Y-43283095D01*
X96416762Y-43330714D01*
X96464381Y-43425952D01*
X96464381Y-43616429D01*
X96416762Y-43711667D01*
X96369143Y-43759286D01*
X96273905Y-43806905D01*
X96035810Y-43806905D01*
X95940571Y-43759286D01*
X95892952Y-43711667D01*
X95845333Y-43616429D01*
X95845333Y-43425952D01*
X95892952Y-43330714D01*
X95940571Y-43283095D01*
X96035810Y-43235476D01*
X99131381Y-77792343D02*
X98655190Y-77459009D01*
X99131381Y-77220914D02*
X98131381Y-77220914D01*
X98131381Y-77601867D01*
X98179000Y-77697105D01*
X98226619Y-77744724D01*
X98321857Y-77792343D01*
X98464714Y-77792343D01*
X98559952Y-77744724D01*
X98607571Y-77697105D01*
X98655190Y-77601867D01*
X98655190Y-77220914D01*
X98226619Y-78173295D02*
X98179000Y-78220914D01*
X98131381Y-78316152D01*
X98131381Y-78554248D01*
X98179000Y-78649486D01*
X98226619Y-78697105D01*
X98321857Y-78744724D01*
X98417095Y-78744724D01*
X98559952Y-78697105D01*
X99131381Y-78125676D01*
X99131381Y-78744724D01*
X98131381Y-79649486D02*
X98131381Y-79173295D01*
X98607571Y-79125676D01*
X98559952Y-79173295D01*
X98512333Y-79268533D01*
X98512333Y-79506629D01*
X98559952Y-79601867D01*
X98607571Y-79649486D01*
X98702810Y-79697105D01*
X98940905Y-79697105D01*
X99036143Y-79649486D01*
X99083762Y-79601867D01*
X99131381Y-79506629D01*
X99131381Y-79268533D01*
X99083762Y-79173295D01*
X99036143Y-79125676D01*
X100883981Y-56405543D02*
X100407790Y-56072209D01*
X100883981Y-55834114D02*
X99883981Y-55834114D01*
X99883981Y-56215067D01*
X99931600Y-56310305D01*
X99979219Y-56357924D01*
X100074457Y-56405543D01*
X100217314Y-56405543D01*
X100312552Y-56357924D01*
X100360171Y-56310305D01*
X100407790Y-56215067D01*
X100407790Y-55834114D01*
X99979219Y-56786495D02*
X99931600Y-56834114D01*
X99883981Y-56929352D01*
X99883981Y-57167448D01*
X99931600Y-57262686D01*
X99979219Y-57310305D01*
X100074457Y-57357924D01*
X100169695Y-57357924D01*
X100312552Y-57310305D01*
X100883981Y-56738876D01*
X100883981Y-57357924D01*
X99883981Y-58215067D02*
X99883981Y-58024590D01*
X99931600Y-57929352D01*
X99979219Y-57881733D01*
X100122076Y-57786495D01*
X100312552Y-57738876D01*
X100693505Y-57738876D01*
X100788743Y-57786495D01*
X100836362Y-57834114D01*
X100883981Y-57929352D01*
X100883981Y-58119829D01*
X100836362Y-58215067D01*
X100788743Y-58262686D01*
X100693505Y-58310305D01*
X100455410Y-58310305D01*
X100360171Y-58262686D01*
X100312552Y-58215067D01*
X100264933Y-58119829D01*
X100264933Y-57929352D01*
X100312552Y-57834114D01*
X100360171Y-57786495D01*
X100455410Y-57738876D01*
X96986381Y-44831095D02*
X97795905Y-44831095D01*
X97891143Y-44878714D01*
X97938762Y-44926333D01*
X97986381Y-45021571D01*
X97986381Y-45212048D01*
X97938762Y-45307286D01*
X97891143Y-45354905D01*
X97795905Y-45402524D01*
X96986381Y-45402524D01*
X97319714Y-46307286D02*
X97986381Y-46307286D01*
X96938762Y-46069190D02*
X97653048Y-45831095D01*
X97653048Y-46450143D01*
X92887705Y-53274981D02*
X92887705Y-54084505D01*
X92840086Y-54179743D01*
X92792467Y-54227362D01*
X92697229Y-54274981D01*
X92506752Y-54274981D01*
X92411514Y-54227362D01*
X92363895Y-54179743D01*
X92316276Y-54084505D01*
X92316276Y-53274981D01*
X91697229Y-53703552D02*
X91792467Y-53655933D01*
X91840086Y-53608314D01*
X91887705Y-53513076D01*
X91887705Y-53465457D01*
X91840086Y-53370219D01*
X91792467Y-53322600D01*
X91697229Y-53274981D01*
X91506752Y-53274981D01*
X91411514Y-53322600D01*
X91363895Y-53370219D01*
X91316276Y-53465457D01*
X91316276Y-53513076D01*
X91363895Y-53608314D01*
X91411514Y-53655933D01*
X91506752Y-53703552D01*
X91697229Y-53703552D01*
X91792467Y-53751171D01*
X91840086Y-53798790D01*
X91887705Y-53894029D01*
X91887705Y-54084505D01*
X91840086Y-54179743D01*
X91792467Y-54227362D01*
X91697229Y-54274981D01*
X91506752Y-54274981D01*
X91411514Y-54227362D01*
X91363895Y-54179743D01*
X91316276Y-54084505D01*
X91316276Y-53894029D01*
X91363895Y-53798790D01*
X91411514Y-53751171D01*
X91506752Y-53703552D01*
X80248343Y-62095143D02*
X80295962Y-62047524D01*
X80343581Y-61904667D01*
X80343581Y-61809429D01*
X80295962Y-61666571D01*
X80200724Y-61571333D01*
X80105486Y-61523714D01*
X79915010Y-61476095D01*
X79772152Y-61476095D01*
X79581676Y-61523714D01*
X79486438Y-61571333D01*
X79391200Y-61666571D01*
X79343581Y-61809429D01*
X79343581Y-61904667D01*
X79391200Y-62047524D01*
X79438819Y-62095143D01*
X79438819Y-62476095D02*
X79391200Y-62523714D01*
X79343581Y-62618952D01*
X79343581Y-62857048D01*
X79391200Y-62952286D01*
X79438819Y-62999905D01*
X79534057Y-63047524D01*
X79629295Y-63047524D01*
X79772152Y-62999905D01*
X80343581Y-62428476D01*
X80343581Y-63047524D01*
X79343581Y-63380857D02*
X79343581Y-63999905D01*
X79724533Y-63666571D01*
X79724533Y-63809429D01*
X79772152Y-63904667D01*
X79819771Y-63952286D01*
X79915010Y-63999905D01*
X80153105Y-63999905D01*
X80248343Y-63952286D01*
X80295962Y-63904667D01*
X80343581Y-63809429D01*
X80343581Y-63523714D01*
X80295962Y-63428476D01*
X80248343Y-63380857D01*
%LPC*%
D14*
X81915000Y-57467500D03*
D15*
X82665000Y-58417500D03*
X82165000Y-58417500D03*
X81665000Y-58417500D03*
X81165000Y-58417500D03*
X81165000Y-56517500D03*
X81665000Y-56517500D03*
X82165000Y-56517500D03*
X82665000Y-56517500D03*
D16*
X95628000Y-69342000D03*
X85728000Y-69342000D03*
D17*
X84023200Y-61488000D03*
X84023200Y-63988000D03*
X85344000Y-56090500D03*
X85344000Y-58590500D03*
X87122000Y-43200000D03*
X87122000Y-45700000D03*
X89408000Y-43200000D03*
X89408000Y-45700000D03*
X83629500Y-43263500D03*
X83629500Y-45763500D03*
X98171000Y-54780500D03*
X98171000Y-52280500D03*
D18*
X92984000Y-52260500D03*
X95484000Y-52260500D03*
D10*
G36*
X98472650Y-59614460D02*
X101171350Y-59614460D01*
X100571910Y-63616180D01*
X99072090Y-63616180D01*
X98472650Y-59614460D01*
X98472650Y-59614460D01*
G37*
G36*
X101171350Y-69417540D02*
X98472650Y-69417540D01*
X99072090Y-65415820D01*
X100571910Y-65415820D01*
X101171350Y-69417540D01*
X101171350Y-69417540D01*
G37*
D19*
X82797000Y-52070000D03*
X85097000Y-52070000D03*
D20*
X88900000Y-55442500D03*
X88900000Y-53142500D03*
D21*
X82804000Y-34544000D03*
D22*
X85344000Y-34544000D03*
X87884000Y-34544000D03*
X90424000Y-34544000D03*
X92964000Y-34544000D03*
X95504000Y-34544000D03*
X98044000Y-34544000D03*
D23*
X84582000Y-77978000D03*
D24*
X84582000Y-79978000D03*
D25*
X89342000Y-39100760D03*
X87442000Y-39100760D03*
X88392000Y-37101780D03*
X85278000Y-39100760D03*
X83378000Y-39100760D03*
X84328000Y-37101780D03*
X101026000Y-73644760D03*
X99126000Y-73644760D03*
X100076000Y-71645780D03*
X81214000Y-39100760D03*
X79314000Y-39100760D03*
X80264000Y-37101780D03*
D26*
X86055200Y-61417200D03*
X86055200Y-64117200D03*
X79959200Y-61489600D03*
X79959200Y-64189600D03*
X91440000Y-40212000D03*
X91440000Y-37512000D03*
X93726000Y-40212000D03*
X93726000Y-37512000D03*
X96012000Y-40212000D03*
X96012000Y-37512000D03*
D27*
X100584000Y-80486000D03*
X100584000Y-76486000D03*
D26*
X100393500Y-54817000D03*
X100393500Y-52117000D03*
D28*
X98622000Y-43737000D03*
X99022000Y-43737000D03*
X99422000Y-43737000D03*
X99822000Y-43737000D03*
X100222000Y-43737000D03*
X100622000Y-43737000D03*
X101022000Y-43737000D03*
X101022000Y-46687000D03*
X100622000Y-46687000D03*
X100222000Y-46687000D03*
X99822000Y-46687000D03*
X99422000Y-46687000D03*
X99022000Y-46687000D03*
X98622000Y-46687000D03*
D29*
X99822000Y-45212000D03*
D30*
X93980000Y-55626000D03*
D31*
X94930000Y-54876000D03*
X94930000Y-55376000D03*
X94930000Y-55876000D03*
X94930000Y-56376000D03*
X93030000Y-56376000D03*
X93030000Y-55876000D03*
X93030000Y-55376000D03*
X93030000Y-54876000D03*
D17*
X81991200Y-61488000D03*
X81991200Y-63988000D03*
M02*
