M48
;DRILL file {KiCad 4.0.4-stable} date 01/25/17 01:33:01
;FORMAT={-:-/ absolute / inch / decimal}
FMAT,2
INCH,TZ
T1C0.012
T2C0.016
T3C0.028
T4C0.040
%
G90
G05
M72
T1
X3.3875Y-1.915
X3.59Y-1.76
X3.6Y-1.53
X3.64Y-1.76
X3.69Y-1.53
X3.78Y-1.53
X3.82Y-1.68
X3.84Y-1.79
X3.89Y-1.68
X3.93Y-1.88
T2
X3.14Y-1.82
X3.142Y-2.032
X3.15Y-2.8
X3.15Y-2.9
X3.1975Y-2.1525
X3.1975Y-2.38
X3.22Y-1.5
X3.23Y-1.82
X3.274Y-2.38
X3.2825Y-1.8575
X3.3125Y-2.1525
X3.315Y-1.9525
X3.434Y-2.444
X3.435Y-1.9125
X3.5068Y-2.7764
X3.52Y-2.66
X3.53Y-2.8975
X3.5325Y-2.0125
X3.5375Y-1.9125
X3.5675Y-2.3275
X3.5825Y-2.6275
X3.59Y-2.41
X3.6074Y-2.1488
X3.6074Y-2.2124
X3.64Y-3.19
X3.6525Y-2.335
X3.685Y-2.31
X3.73Y-1.94
X3.79Y-1.9
X3.805Y-2.185
X3.815Y-1.4225
X3.82Y-1.83
X3.83Y-2.39
X3.86Y-2.86
X3.87Y-2.426
X3.8775Y-1.535
X3.89Y-3.02
X3.9Y-2.21
X3.93Y-1.52
X3.9375Y-2.315
X3.98Y-1.46
X3.98Y-1.58
X3.9865Y-2.772
X3.99Y-2.426
T3
X3.33Y-3.07
X3.33Y-3.1487
T4
X3.26Y-1.36
X3.36Y-1.36
X3.46Y-1.36
X3.56Y-1.36
X3.66Y-1.36
X3.76Y-1.36
X3.86Y-1.36
T0
M30
